<svg viewBox="0 0 740 560" xmlns="http://www.w3.org/2000/svg" role="img" aria-labelledby="s21-baslik">
  <title id="s21-baslik">Şekil 21 — Bare-metal süper döngü ile FreeRTOS zamanlayıcısının yan yana karşılaştırması</title>

  <!-- ============ LEFT: bare-metal super-loop ============ -->
  <text x="20" y="28" class="svg-metin" font-size="14" font-weight="700">Bare-metal: süper döngü + ISR</text>

  <rect x="40" y="52" width="230" height="342" rx="12" class="svg-kutu"/>
  <text x="58" y="76" class="svg-soluk svg-kod" font-size="11">while (1) {</text>

  <rect x="58" y="90" width="196" height="36" rx="6" fill="var(--kart)" class="svg-cizgi"/>
  <text x="156" y="112" text-anchor="middle" class="svg-metin" font-size="12">Görev A — butonu oku</text>

  <path d="M156 126 L156 148" class="svg-cizgi" stroke-width="1.5" marker-end="url(#s21-ok)"/>

  <rect x="58" y="150" width="196" height="36" rx="6" fill="var(--kart)" class="svg-cizgi"/>
  <text x="156" y="172" text-anchor="middle" class="svg-metin" font-size="12">Görev B — LED'i güncelle</text>

  <path d="M156 186 L156 208" class="svg-cizgi" stroke-width="1.5" marker-end="url(#s21-ok)"/>

  <rect x="58" y="210" width="196" height="36" rx="6" fill="var(--kart)" class="svg-cizgi"/>
  <text x="156" y="232" text-anchor="middle" class="svg-metin" font-size="12">Görev C — UART durumu yaz</text>

  <path d="M156 246 L156 268" class="svg-cizgi" stroke-width="1.5" marker-end="url(#s21-ok)"/>

  <rect x="58" y="270" width="196" height="36" rx="6" fill="var(--kirmizi-soluk)" stroke="var(--kirmizi)"/>
  <text x="156" y="292" text-anchor="middle" class="svg-metin" font-size="12">bayrak kontrolü: if (g_fFlag)</text>

  <text x="58" y="322" class="svg-soluk svg-kod" font-size="11">}</text>

  <!-- loop wrap-around arrow -->
  <path d="M58 288 C 30 288, 30 108, 58 108" fill="none" class="svg-cizgi" stroke-width="1.5" marker-end="url(#s21-ok)"/>
  <text x="14" y="200" class="svg-soluk" font-size="10" transform="rotate(-90 14 200)">başa dön</text>

  <!-- ISR box and flag arrow -->
  <rect x="285" y="272" width="88" height="34" rx="8" fill="var(--kirmizi-soluk)" stroke="var(--kirmizi)"/>
  <text x="329" y="293" text-anchor="middle" class="svg-metin" font-size="12">ISR</text>
  <path d="M285 289 L258 289" stroke="var(--kirmizi)" stroke-width="1.6" stroke-dasharray="4 3" marker-end="url(#s21-ok-kirmizi)"/>
  <text x="329" y="322" text-anchor="middle" class="svg-soluk" font-size="10">g_fFlag = 1</text>

  <text x="40" y="420" class="svg-soluk" font-size="12">Güçlü ve basit — ama tüm görevler CPU'yu sırayla paylaşır,</text>
  <text x="40" y="438" class="svg-soluk" font-size="12">zamanlama garantisi yok ("bayrak çorbası" büyüdükçe okumak</text>
  <text x="40" y="456" class="svg-soluk" font-size="12">ve doğrulamak zorlaşır).</text>

  <!-- ============ RIGHT: FreeRTOS ============ -->
  <text x="400" y="28" class="svg-metin" font-size="14" font-weight="700">FreeRTOS: scheduler + 3 görev</text>

  <rect x="470" y="50" width="200" height="38" rx="8" class="svg-kutu" stroke="var(--vurgu)"/>
  <text x="570" y="74" text-anchor="middle" class="svg-metin" font-size="12">Scheduler (preemptive)</text>

  <!-- context switch vertical dashes -->
  <g stroke="var(--metin-cok-soluk)" stroke-width="1.2" stroke-dasharray="2 3">
    <line x1="430" y1="88" x2="430" y2="300"/>
    <line x1="490" y1="88" x2="490" y2="300"/>
    <line x1="545" y1="88" x2="545" y2="300"/>
    <line x1="600" y1="88" x2="600" y2="300"/>
    <line x1="655" y1="88" x2="655" y2="300"/>
  </g>

  <!-- lane labels -->
  <text x="405" y="128" text-anchor="end" class="svg-soluk" font-size="11">Heartbeat</text>
  <text x="405" y="178" text-anchor="end" class="svg-soluk" font-size="11">Status</text>
  <text x="405" y="228" text-anchor="end" class="svg-soluk" font-size="11">ButtonHandler</text>

  <!-- lane backgrounds (Ready/Blocked) -->
  <rect x="410" y="110" width="300" height="34" rx="6" class="svg-kutu"/>
  <rect x="410" y="160" width="300" height="34" rx="6" class="svg-kutu"/>
  <rect x="410" y="210" width="300" height="34" rx="6" class="svg-kutu"/>

  <!-- Running segments -->
  <rect x="410" y="110" width="20" height="34" fill="var(--sinyal-1)"/>
  <rect x="490" y="110" width="18" height="34" fill="var(--sinyal-1)"/>
  <rect x="600" y="110" width="18" height="34" fill="var(--sinyal-1)"/>

  <rect x="430" y="160" width="16" height="34" fill="var(--sinyal-2)"/>
  <rect x="655" y="160" width="16" height="34" fill="var(--sinyal-2)"/>

  <rect x="545" y="210" width="22" height="34" fill="var(--sinyal-4)"/>

  <text x="567" y="256" text-anchor="middle" class="svg-soluk" font-size="9">SW19'a basılınca Blocked → Ready</text>

  <!-- tick timeline -->
  <line x1="410" y1="284" x2="710" y2="284" class="svg-cizgi" stroke-width="1.4"/>
  <g stroke="var(--metin-soluk)" stroke-width="1">
    <line x1="410" y1="280" x2="410" y2="288"/>
    <line x1="450" y1="280" x2="450" y2="288"/>
    <line x1="490" y1="280" x2="490" y2="288"/>
    <line x1="530" y1="280" x2="530" y2="288"/>
    <line x1="570" y1="280" x2="570" y2="288"/>
    <line x1="610" y1="280" x2="610" y2="288"/>
    <line x1="650" y1="280" x2="650" y2="288"/>
    <line x1="690" y1="280" x2="690" y2="288"/>
  </g>
  <text x="560" y="302" text-anchor="middle" class="svg-soluk svg-kod" font-size="10">tick (configTICK_RATE_HZ = 100)</text>

  <!-- description text -->
  <rect x="405" y="325" width="14" height="14" fill="var(--sinyal-1)"/>
  <text x="424" y="337" class="svg-soluk" font-size="11">Running</text>
  <rect x="500" y="325" width="14" height="14" class="svg-kutu"/>
  <text x="519" y="337" class="svg-soluk" font-size="11">Ready / Blocked</text>

  <text x="400" y="420" class="svg-soluk" font-size="12">Her görev kendi işini bilir; bekleyiş artık meşgul döngü değil,</text>
  <text x="400" y="438" class="svg-soluk" font-size="12">scheduler'a devredilen bir BLOK'tur (vTaskDelay, </text>
  <text x="400" y="456" class="svg-soluk" font-size="12">xSemaphoreTake, xQueueReceive).</text>

  <!-- bottom highlight -->
  <rect x="20" y="490" width="700" height="50" rx="10" fill="var(--vurgu-soluk)" stroke="var(--vurgu)"/>
  <text x="370" y="520" text-anchor="middle" class="svg-metin" font-size="13" font-weight="700">"Aynı anda" çalışma = tek çekirdekte hızlı zaman dilimleme, gerçek paralellik değil</text>

  <defs>
    <marker id="s21-ok" viewBox="0 0 10 10" refX="9" refY="5" markerWidth="7" markerHeight="7" orient="auto-start-reverse">
      <path d="M0 0 L10 5 L0 10 z" class="svg-cizgi" fill="var(--metin-soluk)"/>
    </marker>
    <marker id="s21-ok-kirmizi" viewBox="0 0 10 10" refX="9" refY="5" markerWidth="7" markerHeight="7" orient="auto-start-reverse">
      <path d="M0 0 L10 5 L0 10 z" fill="var(--kirmizi)"/>
    </marker>
  </defs>
</svg>
