<svg viewBox="0 0 740 400" xmlns="http://www.w3.org/2000/svg" role="img" aria-labelledby="s2-baslik">
  <title id="s2-baslik">Sorumluluk katmanları: donanımdan uygulamaya dört şerit; gömülü yazılımcı driver ve middleware katmanlarında yaşar, masaüstü yazılımcının ayağı donanıma neredeyse hiç değmez</title>

  <defs>
    <marker id="s2-ok-altin" viewBox="0 0 10 10" refX="5" refY="9" markerWidth="7" markerHeight="7" orient="auto">
      <path d="M0 0 L10 0 L5 10 z" fill="var(--altin)"/>
    </marker>
  </defs>

  <text x="370" y="30" text-anchor="middle" class="svg-metin" font-size="14" font-weight="700">SORUMLULUK KATMANLARI</text>
  <text x="370" y="48" text-anchor="middle" class="svg-soluk" font-size="11">gömülü yazılımcı driver ve middleware'de yaşar</text>

  <!-- "biz buradayız" ayracı: driver + middleware -->
  <path d="M34 160 L26 160 L26 300 L34 300" fill="none" stroke="var(--altin)" stroke-width="2"/>
  <text x="16" y="230" text-anchor="middle" font-size="11" font-weight="700" letter-spacing="0.05em" fill="var(--altin)" transform="rotate(-90 16 230)">BİZ BURADAYIZ</text>

  <!-- şeritler: alttan üste donanım -> driver -> middleware -> uygulama -->
  <rect x="40" y="90" width="440" height="70" rx="10" class="svg-kutu"/>
  <text x="260" y="118" text-anchor="middle" class="svg-metin" font-size="14" font-weight="700">UYGULAMA</text>
  <text x="260" y="138" text-anchor="middle" class="svg-soluk" font-size="11">iş mantığı, kullanıcı arayüzü</text>

  <rect x="40" y="160" width="440" height="70" rx="10" fill="var(--vurgu-soluk)" stroke="var(--vurgu)" stroke-width="2"/>
  <text x="260" y="188" text-anchor="middle" font-size="14" font-weight="700" fill="var(--vurgu)">MIDDLEWARE</text>
  <text x="260" y="208" text-anchor="middle" class="svg-soluk" font-size="11">protokol yığınları, RTOS gibi ortak hizmetler</text>

  <rect x="40" y="230" width="440" height="70" rx="10" fill="var(--vurgu-soluk)" stroke="var(--vurgu)" stroke-width="2"/>
  <text x="260" y="258" text-anchor="middle" font-size="14" font-weight="700" fill="var(--vurgu)">DRIVER</text>
  <text x="260" y="278" text-anchor="middle" class="svg-soluk" font-size="11">register'ları temiz fonksiyonlara çevirir</text>

  <rect x="40" y="300" width="440" height="70" rx="10" class="svg-kutu"/>
  <text x="260" y="328" text-anchor="middle" class="svg-metin" font-size="14" font-weight="700">DONANIM</text>
  <text x="260" y="348" text-anchor="middle" class="svg-soluk" font-size="11">çip, çevre birimleri, kart</text>

  <!-- ince ayraç çizgileri -->
  <line x1="40" y1="160" x2="480" y2="160" class="svg-cizgi" stroke-width="1"/>
  <line x1="40" y1="230" x2="480" y2="230" class="svg-cizgi" stroke-width="1"/>
  <line x1="40" y1="300" x2="480" y2="300" class="svg-cizgi" stroke-width="1"/>

  <!-- masaüstü yazılımcının konumu: sadece uygulama şeridinde -->
  <rect x="560" y="90" width="160" height="70" rx="10" class="svg-kutu"/>
  <text x="640" y="118" text-anchor="middle" class="svg-metin" font-size="12" font-weight="700">masaüstü yazılımcı</text>
  <text x="640" y="138" text-anchor="middle" class="svg-soluk" font-size="10">sadece burada yaşar</text>

  <path d="M640 160 L640 296" fill="none" stroke="var(--altin)" stroke-width="2.5" marker-end="url(#s2-ok-altin)"/>
  <text x="650" y="215" font-size="10.5" fill="var(--altin)">işletim</text>
  <text x="650" y="230" font-size="10.5" fill="var(--altin)">sistemi</text>
  <text x="650" y="245" font-size="10.5" fill="var(--altin)">soyutluyor</text>

  <text x="640" y="330" text-anchor="middle" class="svg-soluk" font-size="10" font-style="italic">onun ayağı</text>
  <text x="640" y="345" text-anchor="middle" class="svg-soluk" font-size="10" font-style="italic">donanıma değmez</text>
</svg>
