<svg viewBox="0 0 740 420" xmlns="http://www.w3.org/2000/svg" role="img" aria-labelledby="s18-baslik">
  <title id="s18-baslik">Şekil 18 — I2C dalga şekli: START koşulu, 7-bit adres + R/W (örnek 0x40 yazma), slave ACK'i, bir veri baytı, STOP koşulu; altta open-drain hat ve pull-up direnci sezgisi</title>

  <text x="20" y="20" class="svg-metin" font-size="12" font-weight="700">Örnek frame: START → adres 0x40 + W → ACK → DATA (8 bit) → ACK → STOP</text>

  <text x="15" y="103" class="svg-soluk" font-size="11">SCL</text>
  <text x="15" y="163" class="svg-soluk" font-size="11">SDA</text>

  <!-- cell highlight blocks (below the line, drawn first) -->
  <rect x="420" y="80" width="40"  height="100" fill="var(--yesil-soluk)"/>
  <rect x="460" y="80" width="100" height="100" fill="var(--mor-soluk)"/>
  <rect x="560" y="80" width="40"  height="100" fill="var(--yesil-soluk)"/>

  <!-- cell guide lines -->
  <g class="svg-cizgi" stroke-dasharray="2 3">
    <line x1="100" y1="35" x2="100" y2="200"/>
    <line x1="140" y1="35" x2="140" y2="200"/>
    <line x1="180" y1="35" x2="180" y2="200"/>
    <line x1="220" y1="35" x2="220" y2="200"/>
    <line x1="260" y1="35" x2="260" y2="200"/>
    <line x1="300" y1="35" x2="300" y2="200"/>
    <line x1="340" y1="35" x2="340" y2="200"/>
    <line x1="380" y1="35" x2="380" y2="200"/>
    <line x1="420" y1="35" x2="420" y2="200"/>
    <line x1="460" y1="35" x2="460" y2="200"/>
    <line x1="560" y1="35" x2="560" y2="200"/>
    <line x1="600" y1="35" x2="600" y2="200"/>
  </g>

  <!-- SCL: idle high → 8 address bits → ACK1 → DATA (compressed) → ACK2 → STOP preparation -->
  <path d="M40,90 L100,90 L100,110 L120,110 L120,90 L140,90
           L140,110 L160,110 L160,90 L180,90
           L180,110 L200,110 L200,90 L220,90
           L220,110 L240,110 L240,90 L260,90
           L260,110 L280,110 L280,90 L300,90
           L300,110 L320,110 L320,90 L340,90
           L340,110 L360,110 L360,90 L380,90
           L380,110 L400,110 L400,90 L420,90
           L420,110 L440,110 L440,90 L460,90
           L460,110 L485,110 L485,90 L510,90
           L510,110 L535,110 L535,90 L560,90
           L560,110 L580,110 L580,90 L600,90
           L600,110 L620,110 L620,90 L700,90"
        fill="none" stroke="var(--vurgu)" stroke-width="2.5" stroke-linejoin="round"/>

  <!-- SDA: idle → START → 10000000 (0x40+W) → (ACK low) → sample data → (ACK low) → STOP -->
  <path d="M40,150 L70,150 L70,170 L100,170 L100,150 L140,150
           L140,170 L460,170
           L470,170 L470,150 L510,150 L515,150 L515,170 L600,170
           L640,170 L640,150 L700,150"
        fill="none" stroke="var(--altin)" stroke-width="2.5" stroke-linejoin="round"/>

  <!-- START / STOP highlights -->
  <circle cx="70" cy="160" r="5" fill="var(--kirmizi)"/>
  <text x="70" y="45" text-anchor="middle" fill="var(--kirmizi)" font-size="11" font-weight="700">S (START)</text>
  <text x="70" y="58" text-anchor="middle" class="svg-soluk" font-size="9">SCL yüksekken SDA düşer</text>

  <circle cx="640" cy="160" r="5" fill="var(--kirmizi)"/>
  <text x="655" y="45" text-anchor="middle" fill="var(--kirmizi)" font-size="11" font-weight="700">P (STOP)</text>
  <text x="655" y="58" text-anchor="middle" class="svg-soluk" font-size="9">SCL yüksekken SDA yükselir</text>

  <!-- address + R/W bit labels -->
  <g class="svg-soluk" font-size="9" text-anchor="middle">
    <text x="120" y="195">A6=1</text>
    <text x="160" y="195">A5=0</text>
    <text x="200" y="195">A4=0</text>
    <text x="240" y="195">A3=0</text>
    <text x="280" y="195">A2=0</text>
    <text x="320" y="195">A1=0</text>
    <text x="360" y="195">A0=0</text>
    <text x="400" y="195">W=0</text>
  </g>
  <text x="260" y="215" text-anchor="middle" class="svg-metin" font-size="10">7-bit adres 0x40 + yazma biti (R/W=0)</text>

  <text x="440" y="195" text-anchor="middle" fill="var(--yesil)" font-size="9" font-weight="600">ACK</text>
  <text x="440" y="70"  text-anchor="middle" fill="var(--yesil)" font-size="9">slave hattı düşürür (0)</text>

  <text x="510" y="195" text-anchor="middle" fill="var(--mor)" font-size="9" font-weight="600">DATA (8 bit)</text>
  <text x="500" y="56"  text-anchor="middle" fill="var(--mor)" font-size="9">sıkıştırılmış gösterim</text>

  <text x="580" y="195" text-anchor="middle" fill="var(--yesil)" font-size="9" font-weight="600">ACK</text>

  <!-- ================= OPEN-DRAIN / PULL-UP MINI CROSS-SECTION ================= -->
  <text x="20" y="250" class="svg-metin" font-size="12" font-weight="700">Open-drain hat ve pull-up direnci</text>

  <line x1="170" y1="270" x2="570" y2="270" class="svg-cizgi" stroke-width="2"/>
  <text x="150" y="274" text-anchor="end" class="svg-soluk" font-size="10">VCC</text>

  <path d="M370,270 L365,278 L375,286 L365,294 L375,302 L370,310" fill="none" stroke="var(--altin)" stroke-width="2"/>
  <text x="392" y="292" class="svg-soluk" font-size="9">Rp (pull-up)</text>

  <line x1="370" y1="310" x2="370" y2="325" class="svg-cizgi" stroke-width="2"/>
  <line x1="120" y1="325" x2="620" y2="325" stroke="var(--altin)" stroke-width="2.5"/>
  <text x="105" y="329" text-anchor="end" fill="var(--altin)" font-size="10">SDA</text>

  <!-- Device A: released (open) -->
  <line x1="230" y1="325" x2="230" y2="348" class="svg-cizgi" stroke-width="2"/>
  <circle cx="230" cy="354" r="5" class="svg-kutu"/>
  <line x1="234" y1="350" x2="248" y2="340" stroke="var(--yesil)" stroke-width="2"/>
  <line x1="230" y1="359" x2="230" y2="372" class="svg-cizgi" stroke-width="2"/>
  <text x="230" y="390" text-anchor="middle" class="svg-soluk" font-size="9">Cihaz A: bırakmış</text>
  <text x="230" y="402" text-anchor="middle" class="svg-soluk" font-size="9">(yüksek empedans)</text>

  <!-- Device B: pulling (closed) -->
  <line x1="510" y1="325" x2="510" y2="348" class="svg-cizgi" stroke-width="2"/>
  <circle cx="510" cy="354" r="5" class="svg-kutu"/>
  <line x1="510" y1="348" x2="510" y2="360" stroke="var(--kirmizi)" stroke-width="2"/>
  <line x1="510" y1="359" x2="510" y2="372" class="svg-cizgi" stroke-width="2"/>
  <text x="510" y="390" text-anchor="middle" fill="var(--kirmizi)" font-size="9">Cihaz B: çekiyor</text>
  <text x="510" y="402" text-anchor="middle" fill="var(--kirmizi)" font-size="9">(hattı 0'a çeker)</text>

  <line x1="150" y1="372" x2="590" y2="372" class="svg-cizgi" stroke-width="2"/>
  <text x="605" y="376" class="svg-soluk" font-size="10">GND</text>

  <text x="20" y="418" class="svg-soluk" font-size="9.5">Her aygıt hattı yalnızca AŞAĞI çekebilir; kimse çekmiyorsa hattı Rp YUKARI taşır — ortak veriyolu çarpışmasız böyle çalışır.</text>
</svg>
