<svg viewBox="0 0 740 410" xmlns="http://www.w3.org/2000/svg" role="img" aria-labelledby="s17-baslik">
  <title id="s17-baslik">SPI dalga şekli: CS, SCLK, MOSI, MISO hatları ve örnekleme kenarları; altta mode 0-3 için CPOL/CPHA farkları dört mini panelde</title>

  <text x="20" y="20" class="svg-metin" font-size="12" font-weight="700">Örnek çerçeve: MOSI = 0xA5, MISO = 0x3C, mode 0 (CPOL=0, CPHA=0)</text>

  <!-- hücre kılavuz çizgileri -->
  <g class="svg-cizgi" stroke-dasharray="2 3">
    <line x1="120" y1="35" x2="120" y2="235"/>
    <line x1="180" y1="35" x2="180" y2="235"/>
    <line x1="240" y1="35" x2="240" y2="235"/>
    <line x1="300" y1="35" x2="300" y2="235"/>
    <line x1="360" y1="35" x2="360" y2="235"/>
    <line x1="420" y1="35" x2="420" y2="235"/>
    <line x1="480" y1="35" x2="480" y2="235"/>
    <line x1="540" y1="35" x2="540" y2="235"/>
    <line x1="600" y1="35" x2="600" y2="235"/>
  </g>

  <!-- satır etiketleri -->
  <text x="15" y="53"  class="svg-soluk" font-size="11">CS</text>
  <text x="15" y="103" class="svg-soluk" font-size="11">SCLK</text>
  <text x="15" y="143" class="svg-soluk" font-size="11">MOSI</text>
  <text x="15" y="203" class="svg-soluk" font-size="11">MISO</text>

  <!-- CS -->
  <path d="M50,40 L100,40 L100,60 L610,60 L610,40 L690,40" fill="none" stroke="var(--vurgu)" stroke-width="2"/>
  <text x="105" y="53" class="svg-soluk" font-size="9">aktif-düşük (seçili)</text>

  <!-- SCLK -->
  <path d="M100,110 L120,110 L120,90 L150,90 L150,110 L180,110 L180,90 L210,90 L210,110 L240,110 L240,90 L270,90 L270,110 L300,110 L300,90 L330,90 L330,110 L360,110 L360,90 L390,90 L390,110 L420,110 L420,90 L450,90 L450,110 L480,110 L480,90 L510,90 L510,110 L540,110 L540,90 L570,90 L570,110 L600,110 L620,110"
        fill="none" stroke="var(--vurgu)" stroke-width="2.5" stroke-linejoin="round"/>

  <!-- MOSI: 1 0 1 0 0 1 0 1 = 0xA5 -->
  <path d="M100,150 L120,150 L120,130 L180,130 L180,150 L240,150 L240,130 L300,130 L300,150 L420,150 L420,130 L480,130 L480,150 L540,150 L540,130 L600,130 L620,130"
        fill="none" stroke="var(--altin)" stroke-width="2.5" stroke-linejoin="round"/>
  <text x="660" y="143" class="svg-soluk" font-size="10">0xA5</text>

  <!-- MISO: 0 0 1 1 1 1 0 0 = 0x3C -->
  <path d="M100,210 L240,210 L240,190 L480,190 L480,210 L620,210"
        fill="none" stroke="var(--mor)" stroke-width="2.5" stroke-linejoin="round"/>
  <text x="660" y="203" class="svg-soluk" font-size="10">0x3C</text>

  <!-- bit değer etiketleri -->
  <g class="svg-soluk" font-size="9" text-anchor="middle">
    <text x="150" y="167">1</text><text x="210" y="167">0</text><text x="270" y="167">1</text><text x="330" y="167">0</text>
    <text x="390" y="167">0</text><text x="450" y="167">1</text><text x="510" y="167">0</text><text x="570" y="167">1</text>
    <text x="150" y="227">0</text><text x="210" y="227">0</text><text x="270" y="227">1</text><text x="330" y="227">1</text>
    <text x="390" y="227">1</text><text x="450" y="227">1</text><text x="510" y="227">0</text><text x="570" y="227">0</text>
  </g>

  <!-- örnekleme okları (mode 0: rising edge) -->
  <g fill="var(--yesil)">
    <path d="M120 78 l5 8 l-10 0 z"/>
    <path d="M240 78 l5 8 l-10 0 z"/>
    <path d="M480 78 l5 8 l-10 0 z"/>
  </g>
  <text x="700" y="80" text-anchor="end" fill="var(--yesil)" font-size="9">▼ örnekleme (mode 0: rising edge)</text>

  <!-- ================= MODE 0-3 MİNİ PANELLER ================= -->
  <text x="20" y="258" class="svg-metin" font-size="12" font-weight="700">CPOL / CPHA dört kombinasyonu</text>

  <!-- Panel şablonu tekrar: her panelin local x0 değişir -->
  <!-- MODE 0: CPOL=0 CPHA=0, idle düşük, örnekleme yükselen kenar (leading) -->
  <g>
    <rect x="15" y="268" width="170" height="120" rx="8" class="svg-kutu" style="stroke:var(--vurgu)"/>
    <text x="100" y="286" text-anchor="middle" fill="var(--vurgu)" font-size="11" font-weight="700">Mode 0</text>
    <text x="100" y="300" text-anchor="middle" class="svg-soluk" font-size="9">CPOL=0, CPHA=0</text>
    <path d="M25,340 L35,340 L35,320 L55,320 L55,340 L75,340 L75,320 L95,320 L95,340 L115,340 L115,320 L135,320 L135,340 L145,340"
          fill="none" stroke="var(--vurgu)" stroke-width="2"/>
    <g fill="var(--yesil)"><circle cx="35" cy="330" r="3"/><circle cx="75" cy="330" r="3"/><circle cx="115" cy="330" r="3"/></g>
    <text x="100" y="360" text-anchor="middle" class="svg-soluk" font-size="9">idle düşük</text>
    <text x="100" y="374" text-anchor="middle" fill="var(--yesil)" font-size="9">örnekleme: yükselen kenar</text>
  </g>

  <!-- MODE 1: CPOL=0 CPHA=1, idle düşük, örnekleme düşen kenar (trailing) -->
  <g>
    <rect x="195" y="268" width="170" height="120" rx="8" class="svg-kutu" style="stroke:var(--vurgu)"/>
    <text x="280" y="286" text-anchor="middle" fill="var(--vurgu)" font-size="11" font-weight="700">Mode 1</text>
    <text x="280" y="300" text-anchor="middle" class="svg-soluk" font-size="9">CPOL=0, CPHA=1</text>
    <path d="M205,340 L215,340 L215,320 L235,320 L235,340 L255,340 L255,320 L275,320 L275,340 L295,340 L295,320 L315,320 L315,340 L325,340"
          fill="none" stroke="var(--vurgu)" stroke-width="2"/>
    <g fill="var(--yesil)"><circle cx="55" cy="330" r="3" transform="translate(160,0)"/><circle cx="95" cy="330" r="3" transform="translate(160,0)"/><circle cx="135" cy="330" r="3" transform="translate(160,0)"/></g>
    <text x="280" y="360" text-anchor="middle" class="svg-soluk" font-size="9">idle düşük</text>
    <text x="280" y="374" text-anchor="middle" fill="var(--yesil)" font-size="9">örnekleme: düşen kenar</text>
  </g>

  <!-- MODE 2: CPOL=1 CPHA=0, idle yüksek, örnekleme düşen kenar (leading) -->
  <g>
    <rect x="375" y="268" width="170" height="120" rx="8" class="svg-kutu" style="stroke:var(--vurgu)"/>
    <text x="460" y="286" text-anchor="middle" fill="var(--vurgu)" font-size="11" font-weight="700">Mode 2</text>
    <text x="460" y="300" text-anchor="middle" class="svg-soluk" font-size="9">CPOL=1, CPHA=0</text>
    <path d="M385,320 L395,320 L395,340 L415,340 L415,320 L435,320 L435,340 L455,340 L455,320 L475,320 L475,340 L495,340 L495,320 L505,320"
          fill="none" stroke="var(--vurgu)" stroke-width="2"/>
    <g fill="var(--yesil)"><circle cx="395" cy="330" r="3"/><circle cx="435" cy="330" r="3"/><circle cx="475" cy="330" r="3"/></g>
    <text x="460" y="360" text-anchor="middle" class="svg-soluk" font-size="9">idle yüksek</text>
    <text x="460" y="374" text-anchor="middle" fill="var(--yesil)" font-size="9">örnekleme: düşen kenar</text>
  </g>

  <!-- MODE 3: CPOL=1 CPHA=1, idle yüksek, örnekleme yükselen kenar (trailing) -->
  <g>
    <rect x="555" y="268" width="170" height="120" rx="8" class="svg-kutu" style="stroke:var(--vurgu)"/>
    <text x="640" y="286" text-anchor="middle" fill="var(--vurgu)" font-size="11" font-weight="700">Mode 3</text>
    <text x="640" y="300" text-anchor="middle" class="svg-soluk" font-size="9">CPOL=1, CPHA=1</text>
    <path d="M565,320 L575,320 L575,340 L595,340 L595,320 L615,320 L615,340 L635,340 L635,320 L655,320 L655,340 L675,340 L675,320 L685,320"
          fill="none" stroke="var(--vurgu)" stroke-width="2"/>
    <g fill="var(--yesil)"><circle cx="615" cy="330" r="3"/><circle cx="655" cy="330" r="3"/><circle cx="695" cy="330" r="3"/></g>
    <text x="640" y="360" text-anchor="middle" class="svg-soluk" font-size="9">idle yüksek</text>
    <text x="640" y="374" text-anchor="middle" fill="var(--yesil)" font-size="9">örnekleme: yükselen kenar</text>
  </g>

  <text x="20" y="402" class="svg-soluk" font-size="10">CPOL = tık hattının boşta seviyesi · CPHA = veri hangi kenarda örneklenir (0 = önder kenar, 1 = izleyen kenar)</text>
</svg>
