<svg viewBox="0 0 740 400" xmlns="http://www.w3.org/2000/svg" role="img" aria-labelledby="s11-baslik">
  <title id="s11-baslik">Şekil 11 — Bit işlemleri görsel referansı: SET, CLEAR, TOGGLE ve TEST için önce/mask/sonra 8-bit kutuları</title>
  <g>
  <rect x="20" y="20" width="330" height="172" rx="10" class="svg-kutu"/>
    <text x="185.0" y="42" text-anchor="middle" class="svg-metin" font-size="13" font-weight="600">SET — reg |= BIT(4)</text>
    <text x="34" y="50" class="svg-soluk" font-size="11">ÖNCE</text>
    <rect x="98.0" y="54" width="20" height="20" rx="2" class="svg-kutu"/>
    <text x="108.0" y="68.0" text-anchor="middle" class="svg-kod" font-size="11">0</text>
    <rect x="120.0" y="54" width="20" height="20" rx="2" class="svg-kutu"/>
    <text x="130.0" y="68.0" text-anchor="middle" class="svg-kod" font-size="11">0</text>
    <rect x="142.0" y="54" width="20" height="20" rx="2" class="svg-kutu"/>
    <text x="152.0" y="68.0" text-anchor="middle" class="svg-kod" font-size="11">0</text>
    <rect x="164.0" y="54" width="20" height="20" rx="2" class="svg-kutu"/>
    <text x="174.0" y="68.0" text-anchor="middle" class="svg-kod" font-size="11">0</text>
    <rect x="186.0" y="54" width="20" height="20" rx="2" class="svg-kutu"/>
    <text x="196.0" y="68.0" text-anchor="middle" class="svg-kod" font-size="11">0</text>
    <rect x="208.0" y="54" width="20" height="20" rx="2" class="svg-kutu"/>
    <text x="218.0" y="68.0" text-anchor="middle" class="svg-kod" font-size="11">0</text>
    <rect x="230.0" y="54" width="20" height="20" rx="2" class="svg-kutu"/>
    <text x="240.0" y="68.0" text-anchor="middle" class="svg-kod" font-size="11">0</text>
    <rect x="252.0" y="54" width="20" height="20" rx="2" class="svg-kutu"/>
    <text x="262.0" y="68.0" text-anchor="middle" class="svg-kod" font-size="11">0</text>
    <text x="34" y="92" class="svg-soluk" font-size="11">MASK</text>
    <rect x="98.0" y="96" width="20" height="20" rx="2" class="svg-kutu"/>
    <text x="108.0" y="110.0" text-anchor="middle" class="svg-kod" font-size="11">0</text>
    <rect x="120.0" y="96" width="20" height="20" rx="2" class="svg-kutu"/>
    <text x="130.0" y="110.0" text-anchor="middle" class="svg-kod" font-size="11">0</text>
    <rect x="142.0" y="96" width="20" height="20" rx="2" class="svg-kutu"/>
    <text x="152.0" y="110.0" text-anchor="middle" class="svg-kod" font-size="11">0</text>
    <rect x="164.0" y="96" width="20" height="20" rx="2" class="svg-kutu" style="fill: var(--vurgu-soluk); stroke: var(--vurgu)"/>
    <text x="174.0" y="110.0" text-anchor="middle" class="svg-kod" font-size="11">1</text>
    <rect x="186.0" y="96" width="20" height="20" rx="2" class="svg-kutu"/>
    <text x="196.0" y="110.0" text-anchor="middle" class="svg-kod" font-size="11">0</text>
    <rect x="208.0" y="96" width="20" height="20" rx="2" class="svg-kutu"/>
    <text x="218.0" y="110.0" text-anchor="middle" class="svg-kod" font-size="11">0</text>
    <rect x="230.0" y="96" width="20" height="20" rx="2" class="svg-kutu"/>
    <text x="240.0" y="110.0" text-anchor="middle" class="svg-kod" font-size="11">0</text>
    <rect x="252.0" y="96" width="20" height="20" rx="2" class="svg-kutu"/>
    <text x="262.0" y="110.0" text-anchor="middle" class="svg-kod" font-size="11">0</text>
    <text x="34" y="134" class="svg-soluk" font-size="11">SONRA</text>
    <rect x="98.0" y="138" width="20" height="20" rx="2" class="svg-kutu"/>
    <text x="108.0" y="152.0" text-anchor="middle" class="svg-kod" font-size="11">0</text>
    <rect x="120.0" y="138" width="20" height="20" rx="2" class="svg-kutu"/>
    <text x="130.0" y="152.0" text-anchor="middle" class="svg-kod" font-size="11">0</text>
    <rect x="142.0" y="138" width="20" height="20" rx="2" class="svg-kutu"/>
    <text x="152.0" y="152.0" text-anchor="middle" class="svg-kod" font-size="11">0</text>
    <rect x="164.0" y="138" width="20" height="20" rx="2" class="svg-kutu" style="fill: var(--yesil-soluk); stroke: var(--yesil)"/>
    <text x="174.0" y="152.0" text-anchor="middle" class="svg-kod" font-size="11">1</text>
    <rect x="186.0" y="138" width="20" height="20" rx="2" class="svg-kutu"/>
    <text x="196.0" y="152.0" text-anchor="middle" class="svg-kod" font-size="11">0</text>
    <rect x="208.0" y="138" width="20" height="20" rx="2" class="svg-kutu"/>
    <text x="218.0" y="152.0" text-anchor="middle" class="svg-kod" font-size="11">0</text>
    <rect x="230.0" y="138" width="20" height="20" rx="2" class="svg-kutu"/>
    <text x="240.0" y="152.0" text-anchor="middle" class="svg-kod" font-size="11">0</text>
    <rect x="252.0" y="138" width="20" height="20" rx="2" class="svg-kutu"/>
    <text x="262.0" y="152.0" text-anchor="middle" class="svg-kod" font-size="11">0</text>
  <rect x="390" y="20" width="330" height="172" rx="10" class="svg-kutu"/>
    <text x="555.0" y="42" text-anchor="middle" class="svg-metin" font-size="13" font-weight="600">CLEAR — reg &amp;= ~BIT(5)</text>
    <text x="404" y="50" class="svg-soluk" font-size="11">ÖNCE</text>
    <rect x="468.0" y="54" width="20" height="20" rx="2" class="svg-kutu"/>
    <text x="478.0" y="68.0" text-anchor="middle" class="svg-kod" font-size="11">1</text>
    <rect x="490.0" y="54" width="20" height="20" rx="2" class="svg-kutu"/>
    <text x="500.0" y="68.0" text-anchor="middle" class="svg-kod" font-size="11">1</text>
    <rect x="512.0" y="54" width="20" height="20" rx="2" class="svg-kutu"/>
    <text x="522.0" y="68.0" text-anchor="middle" class="svg-kod" font-size="11">0</text>
    <rect x="534.0" y="54" width="20" height="20" rx="2" class="svg-kutu"/>
    <text x="544.0" y="68.0" text-anchor="middle" class="svg-kod" font-size="11">1</text>
    <rect x="556.0" y="54" width="20" height="20" rx="2" class="svg-kutu"/>
    <text x="566.0" y="68.0" text-anchor="middle" class="svg-kod" font-size="11">1</text>
    <rect x="578.0" y="54" width="20" height="20" rx="2" class="svg-kutu"/>
    <text x="588.0" y="68.0" text-anchor="middle" class="svg-kod" font-size="11">1</text>
    <rect x="600.0" y="54" width="20" height="20" rx="2" class="svg-kutu"/>
    <text x="610.0" y="68.0" text-anchor="middle" class="svg-kod" font-size="11">0</text>
    <rect x="622.0" y="54" width="20" height="20" rx="2" class="svg-kutu"/>
    <text x="632.0" y="68.0" text-anchor="middle" class="svg-kod" font-size="11">1</text>
    <text x="404" y="92" class="svg-soluk" font-size="11">MASK</text>
    <rect x="468.0" y="96" width="20" height="20" rx="2" class="svg-kutu"/>
    <text x="478.0" y="110.0" text-anchor="middle" class="svg-kod" font-size="11">0</text>
    <rect x="490.0" y="96" width="20" height="20" rx="2" class="svg-kutu"/>
    <text x="500.0" y="110.0" text-anchor="middle" class="svg-kod" font-size="11">0</text>
    <rect x="512.0" y="96" width="20" height="20" rx="2" class="svg-kutu" style="fill: var(--vurgu-soluk); stroke: var(--vurgu)"/>
    <text x="522.0" y="110.0" text-anchor="middle" class="svg-kod" font-size="11">1</text>
    <rect x="534.0" y="96" width="20" height="20" rx="2" class="svg-kutu"/>
    <text x="544.0" y="110.0" text-anchor="middle" class="svg-kod" font-size="11">0</text>
    <rect x="556.0" y="96" width="20" height="20" rx="2" class="svg-kutu"/>
    <text x="566.0" y="110.0" text-anchor="middle" class="svg-kod" font-size="11">0</text>
    <rect x="578.0" y="96" width="20" height="20" rx="2" class="svg-kutu"/>
    <text x="588.0" y="110.0" text-anchor="middle" class="svg-kod" font-size="11">0</text>
    <rect x="600.0" y="96" width="20" height="20" rx="2" class="svg-kutu"/>
    <text x="610.0" y="110.0" text-anchor="middle" class="svg-kod" font-size="11">0</text>
    <rect x="622.0" y="96" width="20" height="20" rx="2" class="svg-kutu"/>
    <text x="632.0" y="110.0" text-anchor="middle" class="svg-kod" font-size="11">0</text>
    <text x="404" y="134" class="svg-soluk" font-size="11">SONRA</text>
    <rect x="468.0" y="138" width="20" height="20" rx="2" class="svg-kutu"/>
    <text x="478.0" y="152.0" text-anchor="middle" class="svg-kod" font-size="11">1</text>
    <rect x="490.0" y="138" width="20" height="20" rx="2" class="svg-kutu"/>
    <text x="500.0" y="152.0" text-anchor="middle" class="svg-kod" font-size="11">1</text>
    <rect x="512.0" y="138" width="20" height="20" rx="2" class="svg-kutu" style="fill: var(--kirmizi-soluk); stroke: var(--kirmizi)"/>
    <text x="522.0" y="152.0" text-anchor="middle" class="svg-kod" font-size="11">0</text>
    <rect x="534.0" y="138" width="20" height="20" rx="2" class="svg-kutu"/>
    <text x="544.0" y="152.0" text-anchor="middle" class="svg-kod" font-size="11">0</text>
    <rect x="556.0" y="138" width="20" height="20" rx="2" class="svg-kutu"/>
    <text x="566.0" y="152.0" text-anchor="middle" class="svg-kod" font-size="11">1</text>
    <rect x="578.0" y="138" width="20" height="20" rx="2" class="svg-kutu"/>
    <text x="588.0" y="152.0" text-anchor="middle" class="svg-kod" font-size="11">1</text>
    <rect x="600.0" y="138" width="20" height="20" rx="2" class="svg-kutu"/>
    <text x="610.0" y="152.0" text-anchor="middle" class="svg-kod" font-size="11">0</text>
    <rect x="622.0" y="138" width="20" height="20" rx="2" class="svg-kutu"/>
    <text x="632.0" y="152.0" text-anchor="middle" class="svg-kod" font-size="11">1</text>
  <rect x="20" y="208" width="330" height="172" rx="10" class="svg-kutu"/>
    <text x="185.0" y="230" text-anchor="middle" class="svg-metin" font-size="13" font-weight="600">TOGGLE — reg ^= BIT(0)</text>
    <text x="34" y="238" class="svg-soluk" font-size="11">ÖNCE</text>
    <rect x="98.0" y="242" width="20" height="20" rx="2" class="svg-kutu"/>
    <text x="108.0" y="256.0" text-anchor="middle" class="svg-kod" font-size="11">1</text>
    <rect x="120.0" y="242" width="20" height="20" rx="2" class="svg-kutu"/>
    <text x="130.0" y="256.0" text-anchor="middle" class="svg-kod" font-size="11">0</text>
    <rect x="142.0" y="242" width="20" height="20" rx="2" class="svg-kutu"/>
    <text x="152.0" y="256.0" text-anchor="middle" class="svg-kod" font-size="11">1</text>
    <rect x="164.0" y="242" width="20" height="20" rx="2" class="svg-kutu"/>
    <text x="174.0" y="256.0" text-anchor="middle" class="svg-kod" font-size="11">0</text>
    <rect x="186.0" y="242" width="20" height="20" rx="2" class="svg-kutu"/>
    <text x="196.0" y="256.0" text-anchor="middle" class="svg-kod" font-size="11">1</text>
    <rect x="208.0" y="242" width="20" height="20" rx="2" class="svg-kutu"/>
    <text x="218.0" y="256.0" text-anchor="middle" class="svg-kod" font-size="11">0</text>
    <rect x="230.0" y="242" width="20" height="20" rx="2" class="svg-kutu"/>
    <text x="240.0" y="256.0" text-anchor="middle" class="svg-kod" font-size="11">1</text>
    <rect x="252.0" y="242" width="20" height="20" rx="2" class="svg-kutu"/>
    <text x="262.0" y="256.0" text-anchor="middle" class="svg-kod" font-size="11">0</text>
    <text x="34" y="280" class="svg-soluk" font-size="11">MASK</text>
    <rect x="98.0" y="284" width="20" height="20" rx="2" class="svg-kutu"/>
    <text x="108.0" y="298.0" text-anchor="middle" class="svg-kod" font-size="11">0</text>
    <rect x="120.0" y="284" width="20" height="20" rx="2" class="svg-kutu"/>
    <text x="130.0" y="298.0" text-anchor="middle" class="svg-kod" font-size="11">0</text>
    <rect x="142.0" y="284" width="20" height="20" rx="2" class="svg-kutu"/>
    <text x="152.0" y="298.0" text-anchor="middle" class="svg-kod" font-size="11">0</text>
    <rect x="164.0" y="284" width="20" height="20" rx="2" class="svg-kutu"/>
    <text x="174.0" y="298.0" text-anchor="middle" class="svg-kod" font-size="11">0</text>
    <rect x="186.0" y="284" width="20" height="20" rx="2" class="svg-kutu"/>
    <text x="196.0" y="298.0" text-anchor="middle" class="svg-kod" font-size="11">0</text>
    <rect x="208.0" y="284" width="20" height="20" rx="2" class="svg-kutu"/>
    <text x="218.0" y="298.0" text-anchor="middle" class="svg-kod" font-size="11">0</text>
    <rect x="230.0" y="284" width="20" height="20" rx="2" class="svg-kutu"/>
    <text x="240.0" y="298.0" text-anchor="middle" class="svg-kod" font-size="11">0</text>
    <rect x="252.0" y="284" width="20" height="20" rx="2" class="svg-kutu" style="fill: var(--vurgu-soluk); stroke: var(--vurgu)"/>
    <text x="262.0" y="298.0" text-anchor="middle" class="svg-kod" font-size="11">1</text>
    <text x="34" y="322" class="svg-soluk" font-size="11">SONRA</text>
    <rect x="98.0" y="326" width="20" height="20" rx="2" class="svg-kutu"/>
    <text x="108.0" y="340.0" text-anchor="middle" class="svg-kod" font-size="11">1</text>
    <rect x="120.0" y="326" width="20" height="20" rx="2" class="svg-kutu"/>
    <text x="130.0" y="340.0" text-anchor="middle" class="svg-kod" font-size="11">0</text>
    <rect x="142.0" y="326" width="20" height="20" rx="2" class="svg-kutu"/>
    <text x="152.0" y="340.0" text-anchor="middle" class="svg-kod" font-size="11">1</text>
    <rect x="164.0" y="326" width="20" height="20" rx="2" class="svg-kutu"/>
    <text x="174.0" y="340.0" text-anchor="middle" class="svg-kod" font-size="11">0</text>
    <rect x="186.0" y="326" width="20" height="20" rx="2" class="svg-kutu"/>
    <text x="196.0" y="340.0" text-anchor="middle" class="svg-kod" font-size="11">1</text>
    <rect x="208.0" y="326" width="20" height="20" rx="2" class="svg-kutu"/>
    <text x="218.0" y="340.0" text-anchor="middle" class="svg-kod" font-size="11">0</text>
    <rect x="230.0" y="326" width="20" height="20" rx="2" class="svg-kutu"/>
    <text x="240.0" y="340.0" text-anchor="middle" class="svg-kod" font-size="11">1</text>
    <rect x="252.0" y="326" width="20" height="20" rx="2" class="svg-kutu" style="fill: var(--yesil-soluk); stroke: var(--yesil)"/>
    <text x="262.0" y="340.0" text-anchor="middle" class="svg-kod" font-size="11">1</text>
  <rect x="390" y="208" width="330" height="172" rx="10" class="svg-kutu"/>
    <text x="555.0" y="230" text-anchor="middle" class="svg-metin" font-size="13" font-weight="600">TEST — if (reg &amp; BIT(2))</text>
    <text x="404" y="238" class="svg-soluk" font-size="11">ÖNCE</text>
    <rect x="468.0" y="242" width="20" height="20" rx="2" class="svg-kutu"/>
    <text x="478.0" y="256.0" text-anchor="middle" class="svg-kod" font-size="11">0</text>
    <rect x="490.0" y="242" width="20" height="20" rx="2" class="svg-kutu"/>
    <text x="500.0" y="256.0" text-anchor="middle" class="svg-kod" font-size="11">1</text>
    <rect x="512.0" y="242" width="20" height="20" rx="2" class="svg-kutu"/>
    <text x="522.0" y="256.0" text-anchor="middle" class="svg-kod" font-size="11">1</text>
    <rect x="534.0" y="242" width="20" height="20" rx="2" class="svg-kutu"/>
    <text x="544.0" y="256.0" text-anchor="middle" class="svg-kod" font-size="11">0</text>
    <rect x="556.0" y="242" width="20" height="20" rx="2" class="svg-kutu"/>
    <text x="566.0" y="256.0" text-anchor="middle" class="svg-kod" font-size="11">0</text>
    <rect x="578.0" y="242" width="20" height="20" rx="2" class="svg-kutu"/>
    <text x="588.0" y="256.0" text-anchor="middle" class="svg-kod" font-size="11">1</text>
    <rect x="600.0" y="242" width="20" height="20" rx="2" class="svg-kutu"/>
    <text x="610.0" y="256.0" text-anchor="middle" class="svg-kod" font-size="11">0</text>
    <rect x="622.0" y="242" width="20" height="20" rx="2" class="svg-kutu"/>
    <text x="632.0" y="256.0" text-anchor="middle" class="svg-kod" font-size="11">0</text>
    <text x="404" y="280" class="svg-soluk" font-size="11">MASK</text>
    <rect x="468.0" y="284" width="20" height="20" rx="2" class="svg-kutu"/>
    <text x="478.0" y="298.0" text-anchor="middle" class="svg-kod" font-size="11">0</text>
    <rect x="490.0" y="284" width="20" height="20" rx="2" class="svg-kutu"/>
    <text x="500.0" y="298.0" text-anchor="middle" class="svg-kod" font-size="11">0</text>
    <rect x="512.0" y="284" width="20" height="20" rx="2" class="svg-kutu"/>
    <text x="522.0" y="298.0" text-anchor="middle" class="svg-kod" font-size="11">0</text>
    <rect x="534.0" y="284" width="20" height="20" rx="2" class="svg-kutu"/>
    <text x="544.0" y="298.0" text-anchor="middle" class="svg-kod" font-size="11">0</text>
    <rect x="556.0" y="284" width="20" height="20" rx="2" class="svg-kutu"/>
    <text x="566.0" y="298.0" text-anchor="middle" class="svg-kod" font-size="11">0</text>
    <rect x="578.0" y="284" width="20" height="20" rx="2" class="svg-kutu" style="fill: var(--vurgu-soluk); stroke: var(--vurgu)"/>
    <text x="588.0" y="298.0" text-anchor="middle" class="svg-kod" font-size="11">1</text>
    <rect x="600.0" y="284" width="20" height="20" rx="2" class="svg-kutu"/>
    <text x="610.0" y="298.0" text-anchor="middle" class="svg-kod" font-size="11">0</text>
    <rect x="622.0" y="284" width="20" height="20" rx="2" class="svg-kutu"/>
    <text x="632.0" y="298.0" text-anchor="middle" class="svg-kod" font-size="11">0</text>
    <text x="404" y="322" class="svg-soluk" font-size="11">SONUÇ (reg &amp; MASK)</text>
    <rect x="468.0" y="326" width="20" height="20" rx="2" class="svg-kutu"/>
    <text x="478.0" y="340.0" text-anchor="middle" class="svg-kod" font-size="11">0</text>
    <rect x="490.0" y="326" width="20" height="20" rx="2" class="svg-kutu"/>
    <text x="500.0" y="340.0" text-anchor="middle" class="svg-kod" font-size="11">0</text>
    <rect x="512.0" y="326" width="20" height="20" rx="2" class="svg-kutu"/>
    <text x="522.0" y="340.0" text-anchor="middle" class="svg-kod" font-size="11">0</text>
    <rect x="534.0" y="326" width="20" height="20" rx="2" class="svg-kutu"/>
    <text x="544.0" y="340.0" text-anchor="middle" class="svg-kod" font-size="11">0</text>
    <rect x="556.0" y="326" width="20" height="20" rx="2" class="svg-kutu"/>
    <text x="566.0" y="340.0" text-anchor="middle" class="svg-kod" font-size="11">0</text>
    <rect x="578.0" y="326" width="20" height="20" rx="2" class="svg-kutu" style="fill: var(--vurgu-soluk); stroke: var(--vurgu)"/>
    <text x="588.0" y="340.0" text-anchor="middle" class="svg-kod" font-size="11">1</text>
    <rect x="600.0" y="326" width="20" height="20" rx="2" class="svg-kutu"/>
    <text x="610.0" y="340.0" text-anchor="middle" class="svg-kod" font-size="11">0</text>
    <rect x="622.0" y="326" width="20" height="20" rx="2" class="svg-kutu"/>
    <text x="632.0" y="340.0" text-anchor="middle" class="svg-kod" font-size="11">0</text>
    <text x="555.0" y="368" text-anchor="middle" class="svg-metin" font-size="11">sonuç ≠ 0 → bit SET (1)</text>
  </g>
</svg>
