<svg viewBox="0 0 720 480" xmlns="http://www.w3.org/2000/svg" role="img" aria-labelledby="s13-baslik">
  <title id="s13-baslik">Şekil 12 — Stack/heap/statik bellek yerleşimi ve linker script eşlemesi: ELF bölümlerinin RAM'de nereye indiği</title>
  <text x="115.0" y="28" text-anchor="middle" class="svg-metin" font-size="13" font-weight="600">application.elf</text>
  <text x="535.0" y="28" text-anchor="middle" class="svg-metin" font-size="13" font-weight="600">RAM (DDR / OCM)</text>
  <rect x="460" y="46" width="150" height="328" rx="6" class="svg-kutu"/>
  <rect x="460" y="46" width="150" height="50" class="svg-cizgi" fill="none" stroke-width="1"/>
  <text x="535.0" y="75.0" text-anchor="middle" class="svg-kod" font-size="12">.text</text>
  <rect x="460" y="96" width="150" height="30" class="svg-cizgi" fill="none" stroke-width="1"/>
  <text x="535.0" y="115.0" text-anchor="middle" class="svg-kod" font-size="12">.rodata</text>
  <rect x="460" y="126" width="150" height="30" class="svg-cizgi" fill="none" stroke-width="1"/>
  <text x="535.0" y="145.0" text-anchor="middle" class="svg-kod" font-size="12">.data</text>
  <rect x="460" y="156" width="150" height="40" class="svg-cizgi" fill="none" stroke-width="1"/>
  <text x="535.0" y="180.0" text-anchor="middle" class="svg-kod" font-size="12">.bss</text>
  <rect x="460" y="196" width="150" height="70" class="svg-cizgi" fill="none" stroke-width="1" style="fill: var(--yesil-soluk)"/>
  <text x="535.0" y="235.0" text-anchor="middle" class="svg-kod" font-size="12">heap</text>
  <rect x="460" y="266" width="150" height="46" class="svg-cizgi" fill="none" stroke-width="1" style="fill: none" stroke-dasharray="3,3"/>
  <text x="535.0" y="293.0" text-anchor="middle" class="svg-kod" font-size="12">boşluk</text>
  <rect x="460" y="312" width="150" height="62" class="svg-cizgi" fill="none" stroke-width="1" style="fill: var(--vurgu-soluk)"/>
  <text x="535.0" y="347.0" text-anchor="middle" class="svg-kod" font-size="12">stack</text>
  <path d="M 588 256 L 588 206" stroke="var(--yesil)" stroke-width="2" fill="none" marker-end="url(#s13-ok-yesil)"/>
  <path d="M 588 322 L 588 364" stroke="var(--vurgu)" stroke-width="2" fill="none" marker-end="url(#s13-ok-vurgu)"/>
  <text x="452" y="50" text-anchor="end" class="svg-soluk" font-size="11">düşük adres</text>
  <text x="452" y="374" text-anchor="end" class="svg-soluk" font-size="11">yüksek adres</text>
  <rect x="40" y="46" width="150" height="34" rx="4" class="svg-kutu"/>
  <text x="115.0" y="68" text-anchor="middle" class="svg-kod" font-size="12">.text</text>
  <path d="M 190 63 C 260 63, 390 71.0, 460 71.0" stroke="var(--cizgi)" stroke-width="1" fill="none" marker-end="url(#s13-ok-soluk)"/>
  <rect x="40" y="86" width="150" height="34" rx="4" class="svg-kutu"/>
  <text x="115.0" y="108" text-anchor="middle" class="svg-kod" font-size="12">.rodata</text>
  <path d="M 190 103 C 260 103, 390 111.0, 460 111.0" stroke="var(--cizgi)" stroke-width="1" fill="none" marker-end="url(#s13-ok-soluk)"/>
  <rect x="40" y="126" width="150" height="34" rx="4" class="svg-kutu"/>
  <text x="115.0" y="148" text-anchor="middle" class="svg-kod" font-size="12">.data</text>
  <path d="M 190 143 C 260 143, 390 141.0, 460 141.0" stroke="var(--cizgi)" stroke-width="1" fill="none" marker-end="url(#s13-ok-soluk)"/>
  <rect x="40" y="166" width="150" height="34" rx="4" class="svg-kutu"/>
  <text x="115.0" y="188" text-anchor="middle" class="svg-kod" font-size="12">.bss</text>
  <path d="M 190 183 C 260 183, 390 176.0, 460 176.0" stroke="var(--cizgi)" stroke-width="1" fill="none" marker-end="url(#s13-ok-soluk)"/>
  <rect x="40" y="206" width="150" height="34" rx="4" class="svg-kutu"/>
  <text x="115.0" y="228" text-anchor="middle" class="svg-kod" font-size="12">heap</text>
  <path d="M 190 223 C 260 223, 390 231.0, 460 231.0" stroke="var(--cizgi)" stroke-width="1" fill="none" marker-end="url(#s13-ok-soluk)"/>
  <rect x="40" y="246" width="150" height="34" rx="4" class="svg-kutu"/>
  <text x="115.0" y="268" text-anchor="middle" class="svg-kod" font-size="12">stack</text>
  <path d="M 190 263 C 260 263, 390 343.0, 460 343.0" stroke="var(--cizgi)" stroke-width="1" fill="none" marker-end="url(#s13-ok-soluk)"/>
  <rect x="279.0" y="196.0" width="92" height="24" rx="12" class="svg-kutu" style="fill: var(--altin-soluk); stroke: var(--altin)"/>
  <text x="325.0" y="214.0" text-anchor="middle" class="svg-metin" font-size="11">lscript.ld</text>
  <defs>
    <marker id="s13-ok-soluk" viewBox="0 0 10 10" refX="9" refY="5" markerWidth="6" markerHeight="6" orient="auto-start-reverse"><path d="M0 0 L10 5 L0 10 z" fill="var(--metin-soluk)"/></marker>
    <marker id="s13-ok-yesil" viewBox="0 0 10 10" refX="9" refY="5" markerWidth="6" markerHeight="6" orient="auto-start-reverse"><path d="M0 0 L10 5 L0 10 z" fill="var(--yesil)"/></marker>
    <marker id="s13-ok-vurgu" viewBox="0 0 10 10" refX="9" refY="5" markerWidth="6" markerHeight="6" orient="auto-start-reverse"><path d="M0 0 L10 5 L0 10 z" fill="var(--vurgu)"/></marker>
  </defs>
  <text x="360" y="402" text-anchor="middle" class="svg-soluk" font-size="11">Linker (lscript.ld) her ELF bölümünü RAM'de bir adrese yerleştirir —</text>
  <text x="360" y="418" text-anchor="middle" class="svg-soluk" font-size="11">Bölüm 3'teki OCM/DDR pencereleri burada yeniden karşına çıkar.</text>
</svg>
