<svg viewBox="0 0 740 410" xmlns="http://www.w3.org/2000/svg" role="img" aria-labelledby="s19-baslik">
  <title id="s19-baslik">UART, SPI ve I2C karşılaştırma tablosu: tel sayısı, hız sınıfı, topoloji, senkron olup olmadığı ve tipik kullanım; her sütunda küçük topoloji krokisi</title>

  <!-- başlık satırı zemini -->
  <rect x="10" y="20" width="721" height="60" class="svg-kutu"/>

  <!-- ızgara çizgileri -->
  <g class="svg-cizgi">
    <line x1="10"  y1="20"  x2="731" y2="20"/>
    <line x1="10"  y1="80"  x2="731" y2="80"/>
    <line x1="10"  y1="140" x2="731" y2="140"/>
    <line x1="10"  y1="200" x2="731" y2="200"/>
    <line x1="10"  y1="260" x2="731" y2="260"/>
    <line x1="10"  y1="320" x2="731" y2="320"/>
    <line x1="10"  y1="400" x2="731" y2="400"/>
    <line x1="10"  y1="20" x2="10"  y2="400"/>
    <line x1="140" y1="20" x2="140" y2="400"/>
    <line x1="337" y1="20" x2="337" y2="400"/>
    <line x1="534" y1="20" x2="534" y2="400"/>
    <line x1="731" y1="20" x2="731" y2="400"/>
  </g>

  <!-- sütun başlıkları -->
  <text x="238" y="38" text-anchor="middle" fill="var(--vurgu)" font-size="15" font-weight="700">UART</text>
  <text x="435" y="38" text-anchor="middle" fill="var(--altin)" font-size="15" font-weight="700">SPI</text>
  <text x="632" y="38" text-anchor="middle" fill="var(--yesil)" font-size="15" font-weight="700">I2C</text>

  <!-- mini topoloji krokileri -->
  <!-- UART: nokta-nokta -->
  <g>
    <rect x="190" y="48" width="26" height="18" rx="3" class="svg-kutu"/>
    <text x="203" y="61" text-anchor="middle" class="svg-soluk" font-size="9">A</text>
    <rect x="262" y="48" width="26" height="18" rx="3" class="svg-kutu"/>
    <text x="275" y="61" text-anchor="middle" class="svg-soluk" font-size="9">B</text>
    <line x1="216" y1="54" x2="262" y2="54" stroke="var(--vurgu)" stroke-width="1.5"/>
    <line x1="216" y1="60" x2="262" y2="60" stroke="var(--vurgu)" stroke-width="1.5"/>
  </g>

  <!-- SPI: 1 master, N slave, ayrı CS -->
  <g>
    <rect x="395" y="46" width="30" height="22" rx="3" class="svg-kutu" style="stroke:var(--altin)"/>
    <text x="410" y="60" text-anchor="middle" class="svg-soluk" font-size="8">M</text>
    <rect x="465" y="46" width="22" height="14" rx="2" class="svg-kutu"/>
    <rect x="465" y="64" width="22" height="14" rx="2" class="svg-kutu"/>
    <line x1="425" y1="50" x2="465" y2="50" stroke="var(--altin)" stroke-width="1.3"/>
    <line x1="425" y1="55" x2="465" y2="68" stroke="var(--altin)" stroke-width="1.3"/>
    <line x1="425" y1="60" x2="465" y2="53" stroke="var(--kirmizi)" stroke-width="1" stroke-dasharray="2 2"/>
    <line x1="425" y1="63" x2="465" y2="71" stroke="var(--kirmizi)" stroke-width="1" stroke-dasharray="2 2"/>
  </g>

  <!-- I2C: ortak veriyolu, çoklu cihaz -->
  <g>
    <line x1="580" y1="58" x2="690" y2="58" stroke="var(--yesil)" stroke-width="1.5"/>
    <rect x="588" y="46" width="20" height="14" rx="2" class="svg-kutu"/>
    <rect x="626" y="46" width="20" height="14" rx="2" class="svg-kutu"/>
    <rect x="664" y="46" width="20" height="14" rx="2" class="svg-kutu"/>
  </g>

  <!-- satır etiketleri -->
  <g class="svg-metin" font-size="11" font-weight="600">
    <text x="20" y="115">Tel sayısı</text>
    <text x="20" y="175">Hız sınıfı</text>
    <text x="20" y="228">Topoloji</text>
    <text x="20" y="288">Senkron mu?</text>
    <text x="20" y="348">Tipik kullanım</text>
  </g>

  <!-- UART sütunu -->
  <g class="svg-soluk" font-size="10.5" text-anchor="middle">
    <text x="238" y="105">2 (TX, RX)</text>
    <text x="238" y="119">+ GND</text>
    <text x="238" y="164">tipik ≤ 1 Mbaud</text>
    <text x="238" y="178">(örn. 115200)</text>
    <text x="238" y="218">nokta-nokta</text>
    <text x="238" y="232">(point-to-point)</text>
    <text x="238" y="278">Hayır — asenkron,</text>
    <text x="238" y="292">baud anlaşması</text>
    <text x="238" y="338">konsol / terminal,</text>
    <text x="238" y="352">nokta-nokta haberleşme</text>
  </g>

  <!-- SPI sütunu -->
  <g class="svg-soluk" font-size="10.5" text-anchor="middle">
    <text x="435" y="105">4 (SCLK, MOSI,</text>
    <text x="435" y="119">MISO, CS×N)</text>
    <text x="435" y="171">onlarca MHz'e</text>
    <text x="435" y="185">kadar (hızlı)</text>
    <text x="435" y="211">1 master, N slave —</text>
    <text x="435" y="225">her slave'e ayrı CS</text>
    <text x="435" y="285">Evet — ayrı saat</text>
    <text x="435" y="299">hattı (SCLK)</text>
    <text x="435" y="338">hızlı ADC/DAC,</text>
    <text x="435" y="352">flash bellek, ekran</text>
  </g>

  <!-- I2C sütunu -->
  <g class="svg-soluk" font-size="10.5" text-anchor="middle">
    <text x="632" y="105">2 (SDA, SCL)</text>
    <text x="632" y="119">+ GND</text>
    <text x="632" y="164">100 kHz standart /</text>
    <text x="632" y="178">400 kHz fast-mode</text>
    <text x="632" y="211">ortak veriyolu</text>
    <text x="632" y="225">(multi-drop), adresle seçim</text>
    <text x="632" y="285">Evet — ayrı saat</text>
    <text x="632" y="299">hattı (SCL)</text>
    <text x="632" y="331">sensör ağı, güç izleme</text>
    <text x="632" y="345">(INA226 gibi), EEPROM,</text>
    <text x="632" y="359">mux/switch ile ağaçlanma</text>
  </g>
</svg>
