<svg viewBox="0 0 760 460" xmlns="http://www.w3.org/2000/svg" role="img" aria-labelledby="s4-baslik">
  <title id="s4-baslik">Şekil 4 — ZCU111 kart anatomisi (temsili kroki): merkezde U1 RFSoC, altın vurgulu PS erişim noktası olarak DS50/SW19 çifti, PL tarafında LED/DIP/buton kümesi, kenarlarda USB-UART/JTAG, SD kart, PMOD ve güç girişi; XM500/RF soluk gösterilmiş</title>

  <text x="380" y="25" text-anchor="middle" class="svg-metin" font-size="14" font-weight="700">ZCU111 KART ANATOMİSİ (temsili kroki)</text>
  <text x="380" y="42" text-anchor="middle" class="svg-soluk" font-size="11">yerleşim temsilidir, kimlikler gerçektir</text>

  <!-- board body -->
  <rect x="170" y="55" width="420" height="345" rx="14" fill="var(--kart-2)" stroke="var(--cizgi)" stroke-width="2"/>

  <!-- ================= left side leader lines ================= -->
  <g class="svg-cizgi" stroke-width="1">
    <line x1="155" y1="97" x2="190" y2="84"/>
    <line x1="155" y1="157" x2="190" y2="121"/>
    <line x1="155" y1="217" x2="196" y2="175"/>
    <line x1="155" y1="330" x2="190" y2="315"/>
  </g>
  <line x1="155" y1="270" x2="190" y2="227" stroke="var(--altin)" stroke-width="1.5"/>

  <!-- ================= right side leader lines ================= -->
  <g class="svg-cizgi" stroke-width="1">
    <line x1="618" y1="97" x2="500" y2="110"/>
    <line x1="618" y1="157" x2="530" y2="130"/>
    <line x1="618" y1="227" x2="605" y2="230"/>
    <line x1="618" y1="297" x2="605" y2="295"/>
    <line x1="618" y1="357" x2="553" y2="343"/>
  </g>

  <!-- ================= components on the board ================= -->

  <!-- U1 — RFSoC (center) -->
  <rect x="310" y="150" width="180" height="140" rx="10" fill="var(--vurgu-soluk)" stroke="var(--vurgu)" stroke-width="2"/>
  <text x="400" y="190" text-anchor="middle" class="svg-metin" font-size="13" font-weight="700">U1</text>
  <text x="400" y="210" text-anchor="middle" class="svg-metin" font-size="13" font-weight="700">RFSoC</text>
  <text x="400" y="228" text-anchor="middle" class="svg-soluk" font-size="10.5">(XCZU28DR)</text>
  <text x="400" y="250" text-anchor="middle" class="svg-soluk" font-size="9.5" font-style="italic">PS + PL — tek paket</text>

  <!-- 8x user LEDs (DS11-18) — PL -->
  <g class="svg-kutu">
    <rect x="190" y="75" width="10" height="14" rx="2"/>
    <rect x="204" y="75" width="10" height="14" rx="2"/>
    <rect x="218" y="75" width="10" height="14" rx="2"/>
    <rect x="232" y="75" width="10" height="14" rx="2"/>
    <rect x="246" y="75" width="10" height="14" rx="2"/>
    <rect x="260" y="75" width="10" height="14" rx="2"/>
    <rect x="274" y="75" width="10" height="14" rx="2"/>
    <rect x="288" y="75" width="10" height="14" rx="2"/>
  </g>

  <!-- DIP switch (SW14) — PL -->
  <rect x="190" y="110" width="70" height="22" rx="4" class="svg-kutu"/>
  <g class="svg-cizgi" stroke-width="1">
    <line x1="200" y1="110" x2="200" y2="132"/>
    <line x1="210" y1="110" x2="210" y2="132"/>
    <line x1="220" y1="110" x2="220" y2="132"/>
    <line x1="230" y1="110" x2="230" y2="132"/>
    <line x1="240" y1="110" x2="240" y2="132"/>
    <line x1="250" y1="110" x2="250" y2="132"/>
  </g>

  <!-- 5x buttons (SW9-13) — PL, plus layout -->
  <g class="svg-kutu">
    <rect x="218" y="152" width="14" height="14" rx="3"/>
    <rect x="196" y="168" width="14" height="14" rx="3"/>
    <rect x="218" y="168" width="14" height="14" rx="3"/>
    <rect x="240" y="168" width="14" height="14" rx="3"/>
    <rect x="218" y="184" width="14" height="14" rx="3"/>
  </g>

  <!-- DS50 + SW19 — PS, accessible without bitstream (gold highlighted) -->
  <rect x="190" y="210" width="80" height="34" rx="6" fill="var(--altin-soluk)" stroke="var(--altin)" stroke-width="2"/>
  <circle cx="212" cy="227" r="8" fill="var(--altin-soluk)" stroke="var(--altin)" stroke-width="2"/>
  <rect x="238" y="219" width="24" height="16" rx="3" fill="var(--altin-soluk)" stroke="var(--altin)" stroke-width="2"/>

  <!-- power input -->
  <rect x="190" y="300" width="50" height="30" rx="6" class="svg-kutu"/>
  <circle cx="215" cy="315" r="9" fill="none" class="svg-cizgi" stroke-width="1.5"/>

  <!-- DDR4 SODIMM (J50) -->
  <rect x="500" y="80" width="22" height="150" rx="4" class="svg-kutu"/>
  <g class="svg-cizgi" stroke-width="1">
    <line x1="500" y1="100" x2="522" y2="100"/>
    <line x1="500" y1="120" x2="522" y2="120"/>
    <line x1="500" y1="140" x2="522" y2="140"/>
    <line x1="500" y1="160" x2="522" y2="160"/>
    <line x1="500" y1="180" x2="522" y2="180"/>
  </g>

  <!-- PMOD J48/J49 -->
  <rect x="530" y="120" width="24" height="20" rx="3" class="svg-kutu"/>
  <rect x="558" y="120" width="24" height="20" rx="3" class="svg-kutu"/>

  <!-- J83 micro-USB (USB-UART/JTAG) -->
  <rect x="580" y="210" width="25" height="40" rx="4" class="svg-kutu"/>

  <!-- J100 SD card -->
  <rect x="580" y="280" width="25" height="30" rx="4" class="svg-kutu"/>

  <!-- SW6 boot switch -->
  <rect x="515" y="335" width="38" height="16" rx="3" class="svg-kutu"/>
  <g class="svg-cizgi" stroke-width="1">
    <line x1="523" y1="335" x2="523" y2="351"/>
    <line x1="532" y1="335" x2="532" y2="351"/>
    <line x1="541" y1="335" x2="541" y2="351"/>
    <line x1="550" y1="335" x2="550" y2="351"/>
  </g>

  <!-- XM500 / RF — outside this journey (faded) -->
  <rect x="250" y="400" width="260" height="40" rx="8" fill="var(--kart-2)" stroke="var(--cizgi)" stroke-width="1.5" stroke-dasharray="4 3" opacity="0.7"/>
  <text x="380" y="417" text-anchor="middle" class="svg-soluk" font-size="11" font-weight="700">XM500 / RF</text>
  <text x="380" y="433" text-anchor="middle" class="svg-soluk" font-size="10">— bu yolculuğun kapsamı dışında</text>

  <!-- ================= left side labels ================= -->
  <g text-anchor="end">
    <text x="152" y="90" class="svg-soluk" font-size="11">8× LED (DS11–18)</text>
    <text x="152" y="104" class="svg-soluk" font-size="11">— PL</text>

    <text x="152" y="150" class="svg-soluk" font-size="11">DIP switch (SW14)</text>
    <text x="152" y="164" class="svg-soluk" font-size="11">— PL</text>

    <text x="152" y="210" class="svg-soluk" font-size="11">5× buton</text>
    <text x="152" y="224" class="svg-soluk" font-size="11">(SW9–13) — PL</text>

    <text x="152" y="256" font-size="11" font-weight="700" fill="var(--altin)">DS50 + SW19</text>
    <text x="152" y="270" font-size="11" fill="var(--altin)">PS — bitstream'siz</text>
    <text x="152" y="284" font-size="11" fill="var(--altin)">erişilebilir</text>

    <text x="152" y="330" class="svg-soluk" font-size="11">güç girişi</text>
  </g>

  <!-- ================= right side labels ================= -->
  <g text-anchor="start">
    <text x="622" y="90" class="svg-soluk" font-size="11">DDR4 SODIMM</text>
    <text x="622" y="104" class="svg-soluk" font-size="11">(J50)</text>

    <text x="622" y="150" class="svg-soluk" font-size="11">PMOD</text>
    <text x="622" y="164" class="svg-soluk" font-size="11">(J48/J49)</text>

    <text x="622" y="220" class="svg-soluk" font-size="11">J83</text>
    <text x="622" y="234" class="svg-soluk" font-size="11">USB-UART/JTAG</text>

    <text x="622" y="290" class="svg-soluk" font-size="11">J100</text>
    <text x="622" y="304" class="svg-soluk" font-size="11">SD kart</text>

    <text x="622" y="350" class="svg-soluk" font-size="11">SW6</text>
    <text x="622" y="364" class="svg-soluk" font-size="11">boot anahtarı</text>
  </g>
</svg>
