<svg viewBox="0 0 900 778" xmlns="http://www.w3.org/2000/svg" role="img" aria-labelledby="t-g150">
<title id="t-g150">DDC'nin dört karelik spektrum hikâyesi (hesaplanmış, referans senaryo): (1) ADC çıkışı reel, ±600 MHz'de simetrik darbe spektrumu ve gürültü; (2) NCO −600 MHz ile çarpım sonrası istenen kopya 0 Hz'de, toplam frekans kopyası −1200 MHz'de; (3) ±150 MHz alçak geçiren filtre sonrası image ve bant dışı gürültü atılmış; (4) 8'e decimation sonrası fs = 300 MSPS, eksen ±150 MHz, aynı spektrum.</title>
<text x="60" y="32" class="s-baslik">(1) ADC çıkışı — reel, fs = 2400 MSPS</text>
<line x1="60.0" y1="40" x2="60.0" y2="170" class="izgara"/><text x="60.0" y="184" text-anchor="middle" class="s-mono2">-1200</text><line x1="196.7" y1="40" x2="196.7" y2="170" class="izgara"/><text x="196.7" y="184" text-anchor="middle" class="s-mono2">-800</text><line x1="333.3" y1="40" x2="333.3" y2="170" class="izgara"/><text x="333.3" y="184" text-anchor="middle" class="s-mono2">-400</text><line x1="470.0" y1="40" x2="470.0" y2="170" class="izgara"/><text x="470.0" y="184" text-anchor="middle" class="s-mono2">0</text><line x1="606.7" y1="40" x2="606.7" y2="170" class="izgara"/><text x="606.7" y="184" text-anchor="middle" class="s-mono2">400</text><line x1="743.3" y1="40" x2="743.3" y2="170" class="izgara"/><text x="743.3" y="184" text-anchor="middle" class="s-mono2">800</text><line x1="880.0" y1="40" x2="880.0" y2="170" class="izgara"/><text x="880.0" y="184" text-anchor="middle" class="s-mono2">1200</text><line x1="60" y1="40.0" x2="880" y2="40.0" class="izgara"/><text x="54" y="44.0" text-anchor="end" class="s-mono2">0</text><line x1="60" y1="80.0" x2="880" y2="80.0" class="izgara"/><text x="54" y="84.0" text-anchor="end" class="s-mono2">-40</text><line x1="60" y1="120.0" x2="880" y2="120.0" class="izgara"/><text x="54" y="124.0" text-anchor="end" class="s-mono2">-80</text><line x1="60" y1="160.0" x2="880" y2="160.0" class="izgara"/><text x="54" y="164.0" text-anchor="end" class="s-mono2">-120</text><rect x="60" y="40" width="820" height="130" class="eksen"/>
<path d="M60.8 129.7L61.3 133.6L62.7 134.3L63.5 131.5L64.1 133.1L65.5 134.4L66.2 131.5L67.8 131.3L68.3 131.3L69.3 130.4L70.0 134.2L71.4 131.6L72.2 131.8L73.4 134.1L74.1 132.1L75.5 130.2L76.4 134.9L77.3 133.0L78.1 132.8L79.2 128.4L80.3 132.0L81.4 130.2L82.3 127.7L83.9 131.6L84.0 131.8L85.4 133.8L86.9 130.8L87.0 128.9L88.6 136.0L89.0 135.4L90.7 134.7L91.6 132.8L92.2 136.2L93.7 133.9L94.9 133.6L95.0 133.6L96.2 134.0L97.2 129.2L98.4 132.7L99.9 131.4L100.0 130.7L101.2 132.8L102.5 130.2L103.5 130.5L104.6 136.8L105.8 136.4L106.1 127.9L107.3 131.8L108.0 131.8L109.4 129.1L110.2 130.0L111.4 133.0L112.9 133.0L113.5 131.4L114.9 134.4L116.0 134.7L116.8 136.6L117.4 135.8L118.7 130.7L119.9 133.4L120.2 133.2L121.2 135.5L122.7 133.1L124.0 133.4L124.1 132.1L125.1 132.3L127.0 130.5L127.3 130.2L128.1 135.1L130.0 129.0L130.2 128.6L131.2 136.7L132.2 131.9L133.6 129.8L134.1 128.6L135.7 132.4L136.6 129.2L137.7 132.2L139.0 133.6L139.6 133.5L140.7 135.5L141.7 131.9L142.9 131.2L143.5 130.7L144.6 130.1L145.3 134.4L146.8 134.0L147.7 133.6L148.6 132.6L149.3 129.8L150.7 133.4L151.8 138.2L152.9 132.6L153.2 132.7L154.8 129.5L155.8 136.5L157.0 138.6L157.8 137.5L158.2 133.0L159.6 134.0L160.6 135.1L161.7 132.2L162.6 135.6L163.1 131.5L164.0 134.3L165.7 135.2L166.8 133.3L167.5 136.3L168.5 127.5L169.7 132.4L170.6 135.4L171.5 132.4L172.7 129.8L173.9 132.0L174.0 136.2L175.2 132.1L176.9 135.5L177.9 134.0L178.3 130.9L179.9 135.6L180.0 133.8L181.2 134.6L182.9 130.7L183.0 130.2L184.6 136.4L185.5 133.4L186.1 131.2L187.6 131.3L188.2 131.4L189.7 131.9L190.1 131.4L191.4 142.9L192.1 136.0L193.3 131.8L194.9 128.8L195.0 131.0L196.0 141.0L197.7 133.3L198.4 129.4L199.9 132.9L200.9 129.4L201.0 128.9L202.6 129.6L203.4 135.1L204.9 135.9L205.7 131.6L206.0 136.3L207.1 133.2L208.5 131.9L209.2 131.9L210.5 132.6L211.4 136.6L212.9 135.9L213.5 136.7L215.0 132.3L215.2 130.9L216.9 131.8L217.4 130.1L219.0 133.3L219.1 131.7L220.7 128.2L221.1 132.5L222.8 138.0L223.2 134.0L224.3 137.5L225.9 133.4L226.5 128.9L228.0 132.1L228.1 131.3L229.9 129.6L231.0 131.2L231.8 130.5L232.3 130.3L233.8 130.4L234.5 133.3L235.9 131.9L236.6 130.0L237.7 130.7L238.1 134.0L239.9 133.9L240.3 133.6L241.5 130.7L242.1 133.3L243.7 133.8L244.4 130.8L245.8 132.1L246.9 129.2L247.1 132.2L248.1 132.4L249.7 127.7L250.8 123.0L251.9 121.9L252.9 122.9L253.3 122.1L254.1 126.1L255.8 119.9L256.9 109.8L258.0 104.4L259.0 100.9L259.8 96.8L260.9 93.1L261.9 89.2L263.0 84.1L264.0 79.2L264.9 57.6L265.0 56.7L266.0 79.2L267.0 84.1L268.1 89.1L269.1 93.0L270.2 96.8L271.0 100.9L272.0 104.2L273.1 110.9L274.2 119.2L275.9 126.8L276.3 123.3L277.4 122.1L278.1 121.4L279.2 126.8L280.0 130.9L281.9 130.1L282.9 130.5L283.1 129.1L284.5 133.1L285.7 133.8L286.3 127.9L287.4 129.3L288.2 136.4L289.2 137.3L290.1 132.5L291.4 133.6L292.8 129.6L293.0 132.2L294.0 131.9L295.0 135.4L296.9 136.8L297.3 132.0L298.1 130.8L299.6 134.9L300.9 130.4L301.0 130.8L302.7 133.1L303.9 138.9L304.7 132.9L305.8 132.1L306.4 130.5L307.8 134.3L308.3 132.6L309.5 133.1L310.1 137.8L311.0 135.7L312.7 135.8L313.4 134.2L314.1 132.8L315.9 133.1L316.8 129.5L317.5 130.7L318.1 129.8L319.6 134.2L320.6 133.7L321.3 132.4L323.0 130.8L323.1 129.6L324.1 135.3L325.8 132.4L326.6 132.4L327.1 134.2L328.3 135.7L329.4 132.0L330.8 132.1L331.6 132.1L332.8 139.9L333.8 132.9L334.6 131.9L335.3 135.7L336.5 130.6L337.7 129.9L338.2 132.1L339.2 134.1L340.8 134.7L342.0 133.4L342.5 131.5L343.9 130.7L345.0 132.7L345.1 136.4L347.0 131.2L347.8 131.8L348.2 132.5L349.8 132.9L350.7 133.4L352.0 132.9L352.1 130.3L353.6 133.2L354.4 130.1L355.2 133.3L356.1 136.4L357.9 130.1L358.4 131.4L359.6 136.6L360.8 135.5L361.6 132.4L362.3 133.9L363.7 132.9L364.4 133.8L365.6 134.3L367.0 133.2L367.1 135.0L368.1 134.8L369.1 130.0L370.2 136.4L371.3 136.8L372.7 131.9L373.5 132.8L374.3 136.2L375.8 133.3L376.2 133.9L377.6 128.6L378.8 135.8L379.2 133.6L380.4 127.2L381.1 130.2L382.6 130.1L383.6 132.3L384.0 132.1L385.8 131.5L386.3 133.3L387.4 131.5L388.2 133.8L389.8 133.2L390.1 131.6L391.2 132.4L392.2 136.7L393.3 132.0L394.5 129.3L395.5 132.1L396.0 132.0L397.1 134.3L398.1 132.1L399.7 136.7L400.3 129.0L401.7 133.8L402.1 134.2L403.9 136.4L404.4 128.4L405.9 130.8L406.4 127.7L407.9 131.7L408.0 129.5L409.0 132.1L410.7 131.5L411.1 132.4L412.8 131.7L413.3 133.7L414.9 133.7L415.9 133.5L416.5 132.7L417.3 135.7L419.0 132.5L420.0 131.3L420.1 132.5L421.2 130.5L422.2 130.2L423.7 136.9L424.3 129.9L425.7 130.8L426.5 130.1L428.0 133.4L428.1 131.0L429.9 131.1L430.6 133.4L431.2 132.1L433.0 130.8L433.1 130.8L434.6 132.0L435.5 131.2L437.0 134.1L437.5 136.1L438.9 133.8L440.0 131.7L440.1 131.3L441.9 131.9L442.6 133.3L443.4 135.4L444.3 137.3L445.7 135.5L446.2 134.2L447.8 131.9L448.9 132.6L449.3 131.4L450.1 132.8L451.5 137.1L452.3 130.2L454.0 135.4L455.0 134.9L455.9 131.8L457.0 134.5L457.2 130.5L458.4 136.5L459.6 131.8L460.2 133.7L461.4 129.4L462.2 132.1L463.5 134.0L464.9 133.6L465.5 132.9L466.8 132.9L467.4 132.1L468.4 130.5L469.6 140.1L470.0 137.8L471.6 130.5L472.6 132.1L473.2 132.9L474.5 132.9L475.1 133.6L476.5 134.0L477.8 132.1L478.6 129.4L479.8 133.7L480.4 131.8L481.6 136.5L482.8 130.5L483.0 134.5L484.1 131.8L485.0 134.9L486.0 135.4L487.7 130.2L488.5 137.1L489.9 132.8L490.7 131.4L491.1 132.6L492.2 131.9L493.8 134.2L494.3 135.5L495.7 137.3L496.6 135.4L497.4 133.3L498.1 131.9L499.9 131.3L500.0 131.7L501.1 133.8L502.5 136.1L503.0 134.1L504.5 131.2L505.4 132.0L506.9 130.8L507.0 130.8L508.8 132.1L509.4 133.4L510.1 131.1L511.9 131.0L512.0 133.4L513.5 130.1L514.3 130.8L515.7 129.9L516.3 136.9L517.8 130.2L518.8 130.5L519.9 132.5L520.0 131.3L521.0 132.5L522.7 135.7L523.5 132.7L524.1 133.5L525.1 133.7L526.7 133.7L527.2 131.7L528.9 132.4L529.3 131.5L531.0 132.1L532.0 129.5L532.1 131.7L533.6 127.7L534.1 130.8L535.6 128.4L536.1 136.4L537.9 134.2L538.3 133.8L539.7 129.0L540.3 136.7L541.9 132.1L542.9 134.3L544.0 132.0L544.5 132.1L545.5 129.3L546.7 132.0L547.8 136.7L548.8 132.4L549.9 131.6L550.2 133.2L551.8 133.8L552.6 131.5L553.7 133.3L554.2 131.5L556.0 132.1L556.4 132.3L557.4 130.1L558.9 130.2L559.6 127.2L560.8 133.6L561.2 135.8L562.4 128.6L563.8 133.9L564.2 133.3L565.7 136.2L566.5 132.8L567.3 131.9L568.7 136.8L569.8 136.4L570.9 130.0L571.9 134.8L572.9 135.0L573.0 133.2L574.4 134.3L575.6 133.8L576.3 132.9L577.7 133.9L578.4 132.4L579.2 135.5L580.4 136.6L581.6 131.4L582.1 130.1L583.9 136.4L584.8 133.3L585.6 130.1L586.4 133.2L587.9 130.3L588.0 132.9L589.3 133.4L590.2 132.9L591.8 132.5L592.2 131.8L593.0 131.2L594.9 136.4L595.0 132.7L596.1 130.7L597.5 131.5L598.0 133.4L599.2 134.7L600.8 134.1L601.8 132.1L602.3 129.9L603.5 130.6L604.7 135.7L605.4 131.9L606.2 132.9L607.2 139.9L608.4 132.1L609.2 132.1L610.6 132.0L611.7 135.7L612.9 134.2L613.4 132.4L614.2 132.4L615.9 135.3L616.9 129.6L617.0 130.8L618.7 132.4L619.4 133.7L620.4 134.2L621.9 129.8L622.5 130.7L623.2 129.5L624.1 133.1L625.9 132.8L626.6 134.2L627.3 135.8L629.0 135.7L629.9 137.8L630.5 133.1L631.7 132.6L632.2 134.3L633.6 130.5L634.2 132.1L635.3 132.9L636.1 138.9L637.3 133.1L639.0 130.8L639.1 130.4L640.4 134.9L641.9 130.8L642.7 132.0L643.1 136.8L645.0 135.4L646.0 131.9L647.0 132.2L647.2 129.6L648.6 133.6L649.9 132.5L650.8 137.3L651.8 136.4L652.6 129.3L653.7 127.9L654.3 133.8L655.5 133.1L656.9 129.1L657.1 130.5L658.1 130.1L660.0 130.9L660.8 126.8L661.9 121.4L662.6 122.1L663.7 123.3L664.1 126.8L665.8 119.2L666.9 110.9L668.0 104.2L669.0 100.9L669.8 96.8L670.9 93.0L671.9 89.1L673.0 84.1L674.0 79.2L674.9 57.6L675.0 56.7L676.0 79.2L677.0 84.1L678.1 89.2L679.1 93.1L680.2 96.8L681.0 100.9L682.0 104.4L683.1 109.8L684.2 119.9L685.9 126.1L686.7 122.1L687.1 122.9L688.1 121.9L689.2 123.0L690.3 127.7L691.9 132.4L692.9 132.2L693.1 129.2L694.2 132.1L695.6 130.8L696.3 133.8L697.9 133.3L698.5 130.7L699.7 133.6L700.1 133.9L701.9 134.0L702.3 130.7L703.4 130.0L704.1 131.9L705.5 133.3L706.2 130.4L707.7 130.3L708.2 130.5L709.0 131.2L710.1 129.6L711.9 131.3L712.0 132.1L713.5 128.9L714.1 133.4L715.7 137.5L716.8 134.0L717.2 138.0L718.9 132.5L719.3 128.2L720.9 131.7L721.0 133.3L722.6 130.1L723.1 131.8L724.8 130.9L725.0 132.3L726.5 136.7L727.1 135.9L728.6 136.6L729.5 132.6L730.8 131.9L731.5 131.9L732.9 133.2L734.0 136.3L734.3 131.6L735.1 135.9L736.6 135.1L737.4 129.6L739.0 128.9L739.1 129.4L740.1 132.9L741.6 129.4L742.3 133.3L744.0 141.0L745.0 131.0L745.1 128.8L746.7 131.8L747.9 136.0L748.6 142.9L749.9 131.4L750.3 131.9L751.8 131.4L752.4 131.3L753.9 131.2L754.5 133.4L755.4 136.4L757.0 130.2L757.1 130.7L758.8 134.6L760.0 133.8L760.1 135.6L761.7 130.9L762.1 134.0L763.1 135.5L764.8 132.1L766.0 136.2L766.1 132.0L767.3 129.8L768.5 132.4L769.4 135.4L770.3 132.4L771.5 127.5L772.5 136.3L773.2 133.3L774.3 135.2L776.0 134.3L776.9 131.5L777.4 135.6L778.3 132.2L779.4 135.1L780.4 134.0L781.8 133.0L782.2 137.5L783.0 138.6L784.2 136.5L785.2 129.5L786.8 132.7L787.1 132.6L788.2 138.2L789.3 133.4L790.7 129.8L791.4 132.6L792.3 133.6L793.2 134.0L794.7 134.4L795.4 130.1L796.5 130.7L797.1 131.2L798.3 131.9L799.3 135.5L800.4 133.5L801.0 133.6L802.3 132.2L803.4 129.2L804.3 132.4L805.9 128.6L806.4 129.8L807.8 131.9L808.8 136.7L809.8 128.6L810.0 129.0L811.9 135.1L812.7 130.2L813.0 130.5L814.9 132.3L815.9 132.1L816.0 133.4L817.3 133.1L818.8 135.5L819.8 133.2L820.1 133.4L821.3 130.7L822.6 135.8L823.2 136.6L824.0 134.7L825.1 134.4L826.5 131.4L827.1 133.0L828.6 133.0L829.8 130.0L830.6 129.1L832.0 131.8L832.7 131.8L833.9 127.9L834.2 136.4L835.4 136.8L836.5 130.5L837.5 130.2L838.8 132.8L840.0 130.7L840.1 131.4L841.6 132.7L842.8 129.2L843.8 134.0L845.0 133.6L845.1 133.6L846.3 133.9L847.8 136.2L848.4 132.8L849.3 134.7L851.0 135.4L851.4 136.0L853.0 128.9L853.1 130.8L854.6 133.8L856.0 131.8L856.1 131.6L857.7 127.7L858.6 130.2L859.7 132.0L860.8 128.4L861.9 132.8L862.7 133.0L863.6 134.9L864.5 130.2L865.9 132.1L866.6 134.1L867.8 131.8L868.6 131.6L870.0 134.2L870.7 130.4L871.7 131.3L872.2 131.3L873.8 131.5L874.5 134.4L875.9 133.1L876.5 131.5L877.3 134.3L878.7 133.6L879.2 129.7L880 170L60 170Z" class="spk-gurultu" opacity=".35"/>
<path d="M60.8 129.7L61.3 133.6L62.7 134.3L63.5 131.5L64.1 133.1L65.5 134.4L66.2 131.5L67.8 131.3L68.3 131.3L69.3 130.4L70.0 134.2L71.4 131.6L72.2 131.8L73.4 134.1L74.1 132.1L75.5 130.2L76.4 134.9L77.3 133.0L78.1 132.8L79.2 128.4L80.3 132.0L81.4 130.2L82.3 127.7L83.9 131.6L84.0 131.8L85.4 133.8L86.9 130.8L87.0 128.9L88.6 136.0L89.0 135.4L90.7 134.7L91.6 132.8L92.2 136.2L93.7 133.9L94.9 133.6L95.0 133.6L96.2 134.0L97.2 129.2L98.4 132.7L99.9 131.4L100.0 130.7L101.2 132.8L102.5 130.2L103.5 130.5L104.6 136.8L105.8 136.4L106.1 127.9L107.3 131.8L108.0 131.8L109.4 129.1L110.2 130.0L111.4 133.0L112.9 133.0L113.5 131.4L114.9 134.4L116.0 134.7L116.8 136.6L117.4 135.8L118.7 130.7L119.9 133.4L120.2 133.2L121.2 135.5L122.7 133.1L124.0 133.4L124.1 132.1L125.1 132.3L127.0 130.5L127.3 130.2L128.1 135.1L130.0 129.0L130.2 128.6L131.2 136.7L132.2 131.9L133.6 129.8L134.1 128.6L135.7 132.4L136.6 129.2L137.7 132.2L139.0 133.6L139.6 133.5L140.7 135.5L141.7 131.9L142.9 131.2L143.5 130.7L144.6 130.1L145.3 134.4L146.8 134.0L147.7 133.6L148.6 132.6L149.3 129.8L150.7 133.4L151.8 138.2L152.9 132.6L153.2 132.7L154.8 129.5L155.8 136.5L157.0 138.6L157.8 137.5L158.2 133.0L159.6 134.0L160.6 135.1L161.7 132.2L162.6 135.6L163.1 131.5L164.0 134.3L165.7 135.2L166.8 133.3L167.5 136.3L168.5 127.5L169.7 132.4L170.6 135.4L171.5 132.4L172.7 129.8L173.9 132.0L174.0 136.2L175.2 132.1L176.9 135.5L177.9 134.0L178.3 130.9L179.9 135.6L180.0 133.8L181.2 134.6L182.9 130.7L183.0 130.2L184.6 136.4L185.5 133.4L186.1 131.2L187.6 131.3L188.2 131.4L189.7 131.9L190.1 131.4L191.4 142.9L192.1 136.0L193.3 131.8L194.9 128.8L195.0 131.0L196.0 141.0L197.7 133.3L198.4 129.4L199.9 132.9L200.9 129.4L201.0 128.9L202.6 129.6L203.4 135.1L204.9 135.9L205.7 131.6L206.0 136.3L207.1 133.2L208.5 131.9L209.2 131.9L210.5 132.6L211.4 136.6L212.9 135.9L213.5 136.7L215.0 132.3L215.2 130.9L216.9 131.8L217.4 130.1L219.0 133.3L219.1 131.7L220.7 128.2L221.1 132.5L222.8 138.0L223.2 134.0L224.3 137.5L225.9 133.4L226.5 128.9L228.0 132.1L228.1 131.3L229.9 129.6L231.0 131.2L231.8 130.5L232.3 130.3L233.8 130.4L234.5 133.3L235.9 131.9L236.6 130.0L237.7 130.7L238.1 134.0L239.9 133.9L240.3 133.6L241.5 130.7L242.1 133.3L243.7 133.8L244.4 130.8L245.8 132.1L246.9 129.2L247.1 132.2L248.1 132.4L249.7 127.7L250.8 123.0L251.9 121.9L252.9 122.9L253.3 122.1L254.1 126.1L255.8 119.9L256.9 109.8L258.0 104.4L259.0 100.9L259.8 96.8L260.9 93.1L261.9 89.2L263.0 84.1L264.0 79.2L264.9 57.6L265.0 56.7L266.0 79.2L267.0 84.1L268.1 89.1L269.1 93.0L270.2 96.8L271.0 100.9L272.0 104.2L273.1 110.9L274.2 119.2L275.9 126.8L276.3 123.3L277.4 122.1L278.1 121.4L279.2 126.8L280.0 130.9L281.9 130.1L282.9 130.5L283.1 129.1L284.5 133.1L285.7 133.8L286.3 127.9L287.4 129.3L288.2 136.4L289.2 137.3L290.1 132.5L291.4 133.6L292.8 129.6L293.0 132.2L294.0 131.9L295.0 135.4L296.9 136.8L297.3 132.0L298.1 130.8L299.6 134.9L300.9 130.4L301.0 130.8L302.7 133.1L303.9 138.9L304.7 132.9L305.8 132.1L306.4 130.5L307.8 134.3L308.3 132.6L309.5 133.1L310.1 137.8L311.0 135.7L312.7 135.8L313.4 134.2L314.1 132.8L315.9 133.1L316.8 129.5L317.5 130.7L318.1 129.8L319.6 134.2L320.6 133.7L321.3 132.4L323.0 130.8L323.1 129.6L324.1 135.3L325.8 132.4L326.6 132.4L327.1 134.2L328.3 135.7L329.4 132.0L330.8 132.1L331.6 132.1L332.8 139.9L333.8 132.9L334.6 131.9L335.3 135.7L336.5 130.6L337.7 129.9L338.2 132.1L339.2 134.1L340.8 134.7L342.0 133.4L342.5 131.5L343.9 130.7L345.0 132.7L345.1 136.4L347.0 131.2L347.8 131.8L348.2 132.5L349.8 132.9L350.7 133.4L352.0 132.9L352.1 130.3L353.6 133.2L354.4 130.1L355.2 133.3L356.1 136.4L357.9 130.1L358.4 131.4L359.6 136.6L360.8 135.5L361.6 132.4L362.3 133.9L363.7 132.9L364.4 133.8L365.6 134.3L367.0 133.2L367.1 135.0L368.1 134.8L369.1 130.0L370.2 136.4L371.3 136.8L372.7 131.9L373.5 132.8L374.3 136.2L375.8 133.3L376.2 133.9L377.6 128.6L378.8 135.8L379.2 133.6L380.4 127.2L381.1 130.2L382.6 130.1L383.6 132.3L384.0 132.1L385.8 131.5L386.3 133.3L387.4 131.5L388.2 133.8L389.8 133.2L390.1 131.6L391.2 132.4L392.2 136.7L393.3 132.0L394.5 129.3L395.5 132.1L396.0 132.0L397.1 134.3L398.1 132.1L399.7 136.7L400.3 129.0L401.7 133.8L402.1 134.2L403.9 136.4L404.4 128.4L405.9 130.8L406.4 127.7L407.9 131.7L408.0 129.5L409.0 132.1L410.7 131.5L411.1 132.4L412.8 131.7L413.3 133.7L414.9 133.7L415.9 133.5L416.5 132.7L417.3 135.7L419.0 132.5L420.0 131.3L420.1 132.5L421.2 130.5L422.2 130.2L423.7 136.9L424.3 129.9L425.7 130.8L426.5 130.1L428.0 133.4L428.1 131.0L429.9 131.1L430.6 133.4L431.2 132.1L433.0 130.8L433.1 130.8L434.6 132.0L435.5 131.2L437.0 134.1L437.5 136.1L438.9 133.8L440.0 131.7L440.1 131.3L441.9 131.9L442.6 133.3L443.4 135.4L444.3 137.3L445.7 135.5L446.2 134.2L447.8 131.9L448.9 132.6L449.3 131.4L450.1 132.8L451.5 137.1L452.3 130.2L454.0 135.4L455.0 134.9L455.9 131.8L457.0 134.5L457.2 130.5L458.4 136.5L459.6 131.8L460.2 133.7L461.4 129.4L462.2 132.1L463.5 134.0L464.9 133.6L465.5 132.9L466.8 132.9L467.4 132.1L468.4 130.5L469.6 140.1L470.0 137.8L471.6 130.5L472.6 132.1L473.2 132.9L474.5 132.9L475.1 133.6L476.5 134.0L477.8 132.1L478.6 129.4L479.8 133.7L480.4 131.8L481.6 136.5L482.8 130.5L483.0 134.5L484.1 131.8L485.0 134.9L486.0 135.4L487.7 130.2L488.5 137.1L489.9 132.8L490.7 131.4L491.1 132.6L492.2 131.9L493.8 134.2L494.3 135.5L495.7 137.3L496.6 135.4L497.4 133.3L498.1 131.9L499.9 131.3L500.0 131.7L501.1 133.8L502.5 136.1L503.0 134.1L504.5 131.2L505.4 132.0L506.9 130.8L507.0 130.8L508.8 132.1L509.4 133.4L510.1 131.1L511.9 131.0L512.0 133.4L513.5 130.1L514.3 130.8L515.7 129.9L516.3 136.9L517.8 130.2L518.8 130.5L519.9 132.5L520.0 131.3L521.0 132.5L522.7 135.7L523.5 132.7L524.1 133.5L525.1 133.7L526.7 133.7L527.2 131.7L528.9 132.4L529.3 131.5L531.0 132.1L532.0 129.5L532.1 131.7L533.6 127.7L534.1 130.8L535.6 128.4L536.1 136.4L537.9 134.2L538.3 133.8L539.7 129.0L540.3 136.7L541.9 132.1L542.9 134.3L544.0 132.0L544.5 132.1L545.5 129.3L546.7 132.0L547.8 136.7L548.8 132.4L549.9 131.6L550.2 133.2L551.8 133.8L552.6 131.5L553.7 133.3L554.2 131.5L556.0 132.1L556.4 132.3L557.4 130.1L558.9 130.2L559.6 127.2L560.8 133.6L561.2 135.8L562.4 128.6L563.8 133.9L564.2 133.3L565.7 136.2L566.5 132.8L567.3 131.9L568.7 136.8L569.8 136.4L570.9 130.0L571.9 134.8L572.9 135.0L573.0 133.2L574.4 134.3L575.6 133.8L576.3 132.9L577.7 133.9L578.4 132.4L579.2 135.5L580.4 136.6L581.6 131.4L582.1 130.1L583.9 136.4L584.8 133.3L585.6 130.1L586.4 133.2L587.9 130.3L588.0 132.9L589.3 133.4L590.2 132.9L591.8 132.5L592.2 131.8L593.0 131.2L594.9 136.4L595.0 132.7L596.1 130.7L597.5 131.5L598.0 133.4L599.2 134.7L600.8 134.1L601.8 132.1L602.3 129.9L603.5 130.6L604.7 135.7L605.4 131.9L606.2 132.9L607.2 139.9L608.4 132.1L609.2 132.1L610.6 132.0L611.7 135.7L612.9 134.2L613.4 132.4L614.2 132.4L615.9 135.3L616.9 129.6L617.0 130.8L618.7 132.4L619.4 133.7L620.4 134.2L621.9 129.8L622.5 130.7L623.2 129.5L624.1 133.1L625.9 132.8L626.6 134.2L627.3 135.8L629.0 135.7L629.9 137.8L630.5 133.1L631.7 132.6L632.2 134.3L633.6 130.5L634.2 132.1L635.3 132.9L636.1 138.9L637.3 133.1L639.0 130.8L639.1 130.4L640.4 134.9L641.9 130.8L642.7 132.0L643.1 136.8L645.0 135.4L646.0 131.9L647.0 132.2L647.2 129.6L648.6 133.6L649.9 132.5L650.8 137.3L651.8 136.4L652.6 129.3L653.7 127.9L654.3 133.8L655.5 133.1L656.9 129.1L657.1 130.5L658.1 130.1L660.0 130.9L660.8 126.8L661.9 121.4L662.6 122.1L663.7 123.3L664.1 126.8L665.8 119.2L666.9 110.9L668.0 104.2L669.0 100.9L669.8 96.8L670.9 93.0L671.9 89.1L673.0 84.1L674.0 79.2L674.9 57.6L675.0 56.7L676.0 79.2L677.0 84.1L678.1 89.2L679.1 93.1L680.2 96.8L681.0 100.9L682.0 104.4L683.1 109.8L684.2 119.9L685.9 126.1L686.7 122.1L687.1 122.9L688.1 121.9L689.2 123.0L690.3 127.7L691.9 132.4L692.9 132.2L693.1 129.2L694.2 132.1L695.6 130.8L696.3 133.8L697.9 133.3L698.5 130.7L699.7 133.6L700.1 133.9L701.9 134.0L702.3 130.7L703.4 130.0L704.1 131.9L705.5 133.3L706.2 130.4L707.7 130.3L708.2 130.5L709.0 131.2L710.1 129.6L711.9 131.3L712.0 132.1L713.5 128.9L714.1 133.4L715.7 137.5L716.8 134.0L717.2 138.0L718.9 132.5L719.3 128.2L720.9 131.7L721.0 133.3L722.6 130.1L723.1 131.8L724.8 130.9L725.0 132.3L726.5 136.7L727.1 135.9L728.6 136.6L729.5 132.6L730.8 131.9L731.5 131.9L732.9 133.2L734.0 136.3L734.3 131.6L735.1 135.9L736.6 135.1L737.4 129.6L739.0 128.9L739.1 129.4L740.1 132.9L741.6 129.4L742.3 133.3L744.0 141.0L745.0 131.0L745.1 128.8L746.7 131.8L747.9 136.0L748.6 142.9L749.9 131.4L750.3 131.9L751.8 131.4L752.4 131.3L753.9 131.2L754.5 133.4L755.4 136.4L757.0 130.2L757.1 130.7L758.8 134.6L760.0 133.8L760.1 135.6L761.7 130.9L762.1 134.0L763.1 135.5L764.8 132.1L766.0 136.2L766.1 132.0L767.3 129.8L768.5 132.4L769.4 135.4L770.3 132.4L771.5 127.5L772.5 136.3L773.2 133.3L774.3 135.2L776.0 134.3L776.9 131.5L777.4 135.6L778.3 132.2L779.4 135.1L780.4 134.0L781.8 133.0L782.2 137.5L783.0 138.6L784.2 136.5L785.2 129.5L786.8 132.7L787.1 132.6L788.2 138.2L789.3 133.4L790.7 129.8L791.4 132.6L792.3 133.6L793.2 134.0L794.7 134.4L795.4 130.1L796.5 130.7L797.1 131.2L798.3 131.9L799.3 135.5L800.4 133.5L801.0 133.6L802.3 132.2L803.4 129.2L804.3 132.4L805.9 128.6L806.4 129.8L807.8 131.9L808.8 136.7L809.8 128.6L810.0 129.0L811.9 135.1L812.7 130.2L813.0 130.5L814.9 132.3L815.9 132.1L816.0 133.4L817.3 133.1L818.8 135.5L819.8 133.2L820.1 133.4L821.3 130.7L822.6 135.8L823.2 136.6L824.0 134.7L825.1 134.4L826.5 131.4L827.1 133.0L828.6 133.0L829.8 130.0L830.6 129.1L832.0 131.8L832.7 131.8L833.9 127.9L834.2 136.4L835.4 136.8L836.5 130.5L837.5 130.2L838.8 132.8L840.0 130.7L840.1 131.4L841.6 132.7L842.8 129.2L843.8 134.0L845.0 133.6L845.1 133.6L846.3 133.9L847.8 136.2L848.4 132.8L849.3 134.7L851.0 135.4L851.4 136.0L853.0 128.9L853.1 130.8L854.6 133.8L856.0 131.8L856.1 131.6L857.7 127.7L858.6 130.2L859.7 132.0L860.8 128.4L861.9 132.8L862.7 133.0L863.6 134.9L864.5 130.2L865.9 132.1L866.6 134.1L867.8 131.8L868.6 131.6L870.0 134.2L870.7 130.4L871.7 131.3L872.2 131.3L873.8 131.5L874.5 134.4L875.9 133.1L876.5 131.5L877.3 134.3L878.7 133.6L879.2 129.7" fill="none" stroke="var(--accent)" stroke-width="1.1"/>
<text x="683.0" y="56" class="s-kucuk s-vurgu">+600 MHz</text>
<text x="257.0" y="56" text-anchor="end" class="s-kucuk s-vurgu">−600 MHz (ayna)</text>
<text x="880" y="198" text-anchor="end" class="s-kucuk">gürültü gücü -60 dBFS · sinyal ±600 MHz</text>
<text x="60" y="198" class="s-kucuk">MHz · dBFS</text>
<text x="60" y="214" class="s-baslik">(2) × e^(−j2π·600 MHz·n/fs) — kompleks, 2400 MSPS</text>
<line x1="60.0" y1="222" x2="60.0" y2="352" class="izgara"/><text x="60.0" y="366" text-anchor="middle" class="s-mono2">-1200</text><line x1="196.7" y1="222" x2="196.7" y2="352" class="izgara"/><text x="196.7" y="366" text-anchor="middle" class="s-mono2">-800</text><line x1="333.3" y1="222" x2="333.3" y2="352" class="izgara"/><text x="333.3" y="366" text-anchor="middle" class="s-mono2">-400</text><line x1="470.0" y1="222" x2="470.0" y2="352" class="izgara"/><text x="470.0" y="366" text-anchor="middle" class="s-mono2">0</text><line x1="606.7" y1="222" x2="606.7" y2="352" class="izgara"/><text x="606.7" y="366" text-anchor="middle" class="s-mono2">400</text><line x1="743.3" y1="222" x2="743.3" y2="352" class="izgara"/><text x="743.3" y="366" text-anchor="middle" class="s-mono2">800</text><line x1="880.0" y1="222" x2="880.0" y2="352" class="izgara"/><text x="880.0" y="366" text-anchor="middle" class="s-mono2">1200</text><line x1="60" y1="222.0" x2="880" y2="222.0" class="izgara"/><text x="54" y="226.0" text-anchor="end" class="s-mono2">0</text><line x1="60" y1="262.0" x2="880" y2="262.0" class="izgara"/><text x="54" y="266.0" text-anchor="end" class="s-mono2">-40</text><line x1="60" y1="302.0" x2="880" y2="302.0" class="izgara"/><text x="54" y="306.0" text-anchor="end" class="s-mono2">-80</text><line x1="60" y1="342.0" x2="880" y2="342.0" class="izgara"/><text x="54" y="346.0" text-anchor="end" class="s-mono2">-120</text><rect x="60" y="222" width="820" height="130" class="eksen"/>
<path d="M60.0 238.7L61.0 261.2L62.0 266.1L63.1 271.1L64.1 275.0L65.2 278.8L66.0 282.9L67.0 286.2L68.1 292.9L69.2 301.2L70.9 308.8L71.3 305.3L72.4 304.1L73.1 303.4L74.2 308.8L75.0 312.9L76.9 312.1L77.9 312.5L78.1 311.1L79.5 315.1L80.7 315.8L81.3 309.9L82.4 311.3L83.2 318.4L84.2 319.3L85.1 314.5L86.4 315.6L87.8 311.6L88.0 314.2L89.0 313.9L90.0 317.4L91.9 318.8L92.3 314.0L93.1 312.8L94.6 316.9L95.9 312.4L96.0 312.8L97.7 315.1L98.9 320.9L99.7 314.9L100.8 314.1L101.4 312.5L102.8 316.3L103.3 314.6L104.5 315.1L105.1 319.8L106.0 317.7L107.7 317.8L108.4 316.2L109.1 314.8L110.9 315.1L111.8 311.5L112.5 312.7L113.1 311.8L114.6 316.2L115.6 315.7L116.3 314.4L118.0 312.8L118.1 311.6L119.1 317.3L120.8 314.4L121.6 314.4L122.1 316.2L123.3 317.7L124.4 314.0L125.8 314.1L126.6 314.1L127.8 321.9L128.8 314.9L129.6 313.9L130.3 317.7L131.5 312.6L132.7 311.9L133.2 314.1L134.2 316.1L135.8 316.7L137.0 315.4L137.5 313.5L138.9 312.7L140.0 314.7L140.1 318.4L142.0 313.2L142.8 313.8L143.2 314.5L144.8 314.9L145.7 315.4L147.0 314.9L147.1 312.3L148.6 315.2L149.4 312.1L150.2 315.3L151.1 318.4L152.9 312.1L153.4 313.4L154.6 318.6L155.8 317.5L156.6 314.4L157.3 315.9L158.7 314.9L159.4 315.8L160.6 316.3L162.0 315.2L162.1 317.0L163.1 316.8L164.1 312.0L165.2 318.4L166.3 318.8L167.7 313.9L168.5 314.8L169.3 318.2L170.8 315.3L171.2 315.9L172.6 310.6L173.8 317.8L174.2 315.6L175.4 309.2L176.1 312.2L177.6 312.1L178.6 314.3L179.0 314.1L180.8 313.5L181.3 315.3L182.4 313.5L183.2 315.8L184.8 315.2L185.1 313.6L186.2 314.4L187.2 318.7L188.3 314.0L189.5 311.3L190.5 314.1L191.0 314.0L192.1 316.3L193.1 314.1L194.7 318.7L195.3 311.0L196.7 315.8L197.1 316.2L198.9 318.4L199.4 310.4L200.9 312.8L201.4 309.7L202.9 313.7L203.0 311.5L204.0 314.1L205.7 313.5L206.1 314.4L207.8 313.7L208.3 315.7L209.9 315.7L210.9 315.5L211.5 314.7L212.3 317.7L214.0 314.5L215.0 313.3L215.1 314.5L216.2 312.5L217.2 312.2L218.7 318.9L219.3 311.9L220.7 312.8L221.5 312.1L223.0 315.4L223.1 313.0L224.9 313.1L225.6 315.4L226.2 314.1L228.0 312.8L228.1 312.8L229.6 314.0L230.5 313.2L232.0 316.1L232.5 318.1L233.9 315.8L235.0 313.7L235.1 313.3L236.9 313.9L237.6 315.3L238.4 317.4L239.3 319.3L240.7 317.5L241.2 316.2L242.8 313.9L243.9 314.6L244.3 313.4L245.1 314.8L246.5 319.1L247.3 312.2L249.0 317.4L250.0 316.9L250.9 313.8L252.0 316.5L252.2 312.5L253.4 318.5L254.6 313.8L255.2 315.7L256.4 311.4L257.2 314.1L258.5 316.0L259.9 315.6L260.5 314.9L261.8 314.9L262.4 314.1L263.4 312.5L264.6 322.1L265.0 319.8L266.6 312.5L267.6 314.1L268.2 314.9L269.5 314.9L270.1 315.6L271.5 316.0L272.8 314.1L273.6 311.4L274.8 315.7L275.4 313.8L276.6 318.5L277.8 312.5L278.0 316.5L279.1 313.8L280.0 316.9L281.0 317.4L282.7 312.2L283.5 319.1L284.9 314.8L285.7 313.4L286.1 314.6L287.2 313.9L288.8 316.2L289.3 317.5L290.7 319.3L291.6 317.4L292.4 315.3L293.1 313.9L294.9 313.3L295.0 313.7L296.1 315.8L297.5 318.1L298.0 316.1L299.5 313.2L300.4 314.0L301.9 312.8L302.0 312.8L303.8 314.1L304.4 315.4L305.1 313.1L306.9 313.0L307.0 315.4L308.5 312.1L309.3 312.8L310.7 311.9L311.3 318.9L312.8 312.2L313.8 312.5L314.9 314.5L315.0 313.3L316.0 314.5L317.7 317.7L318.5 314.7L319.1 315.5L320.1 315.7L321.7 315.7L322.2 313.7L323.9 314.4L324.3 313.5L326.0 314.1L327.0 311.5L327.1 313.7L328.6 309.7L329.1 312.8L330.6 310.4L331.1 318.4L332.9 316.2L333.3 315.8L334.7 311.0L335.3 318.7L336.9 314.1L337.9 316.3L339.0 314.0L339.5 314.1L340.5 311.3L341.7 314.0L342.8 318.7L343.8 314.4L344.9 313.6L345.2 315.2L346.8 315.8L347.6 313.5L348.7 315.3L349.2 313.5L351.0 314.1L351.4 314.3L352.4 312.1L353.9 312.2L354.6 309.2L355.8 315.6L356.2 317.8L357.4 310.6L358.8 315.9L359.2 315.3L360.7 318.2L361.5 314.8L362.3 313.9L363.7 318.8L364.8 318.4L365.9 312.0L366.9 316.8L367.9 317.0L368.0 315.2L369.4 316.3L370.6 315.8L371.3 314.9L372.7 315.9L373.4 314.4L374.2 317.5L375.4 318.6L376.6 313.4L377.1 312.1L378.9 318.4L379.8 315.3L380.6 312.1L381.4 315.2L382.9 312.3L383.0 314.9L384.3 315.4L385.2 314.9L386.8 314.5L387.2 313.8L388.0 313.2L389.9 318.4L390.0 314.7L391.1 312.7L392.5 313.5L393.0 315.4L394.2 316.7L395.8 316.1L396.8 314.1L397.3 311.9L398.5 312.6L399.7 317.7L400.4 313.9L401.2 314.9L402.2 321.9L403.4 314.1L404.2 314.1L405.6 314.0L406.7 317.7L407.9 316.2L408.4 314.4L409.2 314.4L410.9 317.3L411.9 311.6L412.0 312.8L413.7 314.4L414.4 315.7L415.4 316.2L416.9 311.8L417.5 312.7L418.2 311.5L419.1 315.1L420.9 314.8L421.6 316.2L422.3 317.8L424.0 317.7L424.9 319.8L425.5 315.1L426.7 314.6L427.2 316.3L428.6 312.5L429.2 314.1L430.3 314.9L431.1 320.9L432.3 315.1L434.0 312.8L434.1 312.4L435.4 316.9L436.9 312.8L437.7 314.0L438.1 318.8L440.0 317.4L441.0 313.9L442.0 314.2L442.2 311.6L443.6 315.6L444.9 314.5L445.8 319.3L446.8 318.4L447.6 311.3L448.7 309.9L449.3 315.8L450.5 315.1L451.9 311.1L452.1 312.5L453.1 312.1L455.0 312.9L455.8 308.8L456.9 303.4L457.6 304.1L458.7 305.3L459.1 308.8L460.8 301.2L461.9 292.9L463.0 286.2L464.0 282.9L464.8 278.8L465.9 275.0L466.9 271.1L468.0 266.1L469.0 261.2L469.9 239.6L470.0 238.7L471.0 261.2L472.0 266.1L473.1 271.2L474.1 275.1L475.2 278.8L476.0 282.9L477.0 286.4L478.1 291.8L479.2 301.9L480.9 308.1L481.7 304.1L482.1 304.9L483.1 303.9L484.2 305.0L485.3 309.7L486.9 314.4L487.9 314.2L488.1 311.2L489.2 314.1L490.6 312.8L491.3 315.8L492.9 315.3L493.5 312.7L494.7 315.6L495.1 315.9L496.9 316.0L497.3 312.7L498.4 312.0L499.1 313.9L500.5 315.3L501.2 312.4L502.7 312.3L503.2 312.5L504.0 313.2L505.1 311.6L506.9 313.3L507.0 314.1L508.5 310.9L509.1 315.4L510.7 319.5L511.8 316.0L512.2 320.0L513.9 314.5L514.3 310.2L515.9 313.7L516.0 315.3L517.6 312.1L518.1 313.8L519.8 312.9L520.0 314.3L521.5 318.7L522.1 317.9L523.6 318.6L524.5 314.6L525.8 313.9L526.5 313.9L527.9 315.2L529.0 318.3L529.3 313.6L530.1 317.9L531.6 317.1L532.4 311.6L534.0 310.9L534.1 311.4L535.1 314.9L536.6 311.4L537.3 315.3L539.0 323.0L540.0 313.0L540.1 310.8L541.7 313.8L542.9 318.0L543.6 324.9L544.9 313.4L545.3 313.9L546.8 313.4L547.4 313.3L548.9 313.2L549.5 315.4L550.4 318.4L552.0 312.2L552.1 312.7L553.8 316.6L555.0 315.8L555.1 317.6L556.7 312.9L557.1 316.0L558.1 317.5L559.8 314.1L561.0 318.2L561.1 314.0L562.3 311.8L563.5 314.4L564.4 317.4L565.3 314.4L566.5 309.5L567.5 318.3L568.2 315.3L569.3 317.2L571.0 316.3L571.9 313.5L572.4 317.6L573.3 314.2L574.4 317.1L575.4 316.0L576.8 315.0L577.2 319.5L578.0 320.6L579.2 318.5L580.2 311.5L581.8 314.7L582.1 314.6L583.2 320.2L584.3 315.4L585.7 311.8L586.4 314.6L587.3 315.6L588.2 316.0L589.7 316.4L590.4 312.1L591.5 312.7L592.1 313.2L593.3 313.9L594.3 317.5L595.4 315.5L596.0 315.6L597.3 314.2L598.4 311.2L599.3 314.4L600.9 310.6L601.4 311.8L602.8 313.9L603.8 318.7L604.8 310.6L605.0 311.0L606.9 317.1L607.7 312.2L608.0 312.5L609.9 314.3L610.9 314.1L611.0 315.4L612.3 315.1L613.8 317.5L614.8 315.2L615.1 315.4L616.3 312.7L617.6 317.8L618.2 318.6L619.0 316.7L620.1 316.4L621.5 313.4L622.1 315.0L623.6 315.0L624.8 312.0L625.6 311.1L627.0 313.8L627.7 313.8L628.9 309.9L629.2 318.4L630.4 318.8L631.5 312.5L632.5 312.2L633.8 314.8L635.0 312.7L635.1 313.4L636.6 314.7L637.8 311.2L638.8 316.0L640.0 315.6L640.1 315.6L641.3 315.9L642.8 318.2L643.4 314.8L644.3 316.7L646.0 317.4L646.4 318.0L648.0 310.9L648.1 312.8L649.6 315.8L651.0 313.8L651.1 313.6L652.7 309.7L653.6 312.2L654.7 314.0L655.8 310.4L656.9 314.8L657.7 315.0L658.6 316.9L659.5 312.2L660.9 314.1L661.6 316.1L662.8 313.8L663.6 313.6L665.0 316.2L665.7 312.4L666.7 313.3L667.2 313.3L668.8 313.5L669.5 316.4L670.9 315.1L671.5 313.5L672.3 316.3L673.7 315.6L674.2 311.7L675.8 311.7L676.3 315.6L677.7 316.3L678.5 313.5L679.1 315.1L680.5 316.4L681.2 313.5L682.8 313.3L683.3 313.3L684.3 312.4L685.0 316.2L686.4 313.6L687.2 313.8L688.4 316.1L689.1 314.1L690.5 312.2L691.4 316.9L692.3 315.0L693.1 314.8L694.2 310.4L695.3 314.0L696.4 312.2L697.3 309.7L698.9 313.6L699.0 313.8L700.4 315.8L701.9 312.8L702.0 310.9L703.6 318.0L704.0 317.4L705.7 316.7L706.6 314.8L707.2 318.2L708.7 315.9L709.9 315.6L710.0 315.6L711.2 316.0L712.2 311.2L713.4 314.7L714.9 313.4L715.0 312.7L716.2 314.8L717.5 312.2L718.5 312.5L719.6 318.8L720.8 318.4L721.1 309.9L722.3 313.8L723.0 313.8L724.4 311.1L725.2 312.0L726.4 315.0L727.9 315.0L728.5 313.4L729.9 316.4L731.0 316.7L731.8 318.6L732.4 317.8L733.7 312.7L734.9 315.4L735.2 315.2L736.2 317.5L737.7 315.1L739.0 315.4L739.1 314.1L740.1 314.3L742.0 312.5L742.3 312.2L743.1 317.1L745.0 311.0L745.2 310.6L746.2 318.7L747.2 313.9L748.6 311.8L749.1 310.6L750.7 314.4L751.6 311.2L752.7 314.2L754.0 315.6L754.6 315.5L755.7 317.5L756.7 313.9L757.9 313.2L758.5 312.7L759.6 312.1L760.3 316.4L761.8 316.0L762.7 315.6L763.6 314.6L764.3 311.8L765.7 315.4L766.8 320.2L767.9 314.6L768.2 314.7L769.8 311.5L770.8 318.5L772.0 320.6L772.8 319.5L773.2 315.0L774.6 316.0L775.6 317.1L776.7 314.2L777.6 317.6L778.1 313.5L779.0 316.3L780.7 317.2L781.8 315.3L782.5 318.3L783.5 309.5L784.7 314.4L785.6 317.4L786.5 314.4L787.7 311.8L788.9 314.0L789.0 318.2L790.2 314.1L791.9 317.5L792.9 316.0L793.3 312.9L794.9 317.6L795.0 315.8L796.2 316.6L797.9 312.7L798.0 312.2L799.6 318.4L800.5 315.4L801.1 313.2L802.6 313.3L803.2 313.4L804.7 313.9L805.1 313.4L806.4 324.9L807.1 318.0L808.3 313.8L809.9 310.8L810.0 313.0L811.0 323.0L812.7 315.3L813.4 311.4L814.9 314.9L815.9 311.4L816.0 310.9L817.6 311.6L818.4 317.1L819.9 317.9L820.7 313.6L821.0 318.3L822.1 315.2L823.5 313.9L824.2 313.9L825.5 314.6L826.4 318.6L827.9 317.9L828.5 318.7L830.0 314.3L830.2 312.9L831.9 313.8L832.4 312.1L834.0 315.3L834.1 313.7L835.7 310.2L836.1 314.5L837.8 320.0L838.2 316.0L839.3 319.5L840.9 315.4L841.5 310.9L843.0 314.1L843.1 313.3L844.9 311.6L846.0 313.2L846.8 312.5L847.3 312.3L848.8 312.4L849.5 315.3L850.9 313.9L851.6 312.0L852.7 312.7L853.1 316.0L854.9 315.9L855.3 315.6L856.5 312.7L857.1 315.3L858.7 315.8L859.4 312.8L860.8 314.1L861.9 311.2L862.1 314.2L863.1 314.4L864.7 309.7L865.8 305.0L866.9 303.9L867.9 304.9L868.3 304.1L869.1 308.1L870.8 301.9L871.9 291.8L873.0 286.4L874.0 282.9L874.8 278.8L875.9 275.1L876.9 271.2L878.0 266.1L879.0 261.2L879.9 239.6L880 352L60 352Z" class="spk-gurultu" opacity=".35"/>
<path d="M60.0 238.7L61.0 261.2L62.0 266.1L63.1 271.1L64.1 275.0L65.2 278.8L66.0 282.9L67.0 286.2L68.1 292.9L69.2 301.2L70.9 308.8L71.3 305.3L72.4 304.1L73.1 303.4L74.2 308.8L75.0 312.9L76.9 312.1L77.9 312.5L78.1 311.1L79.5 315.1L80.7 315.8L81.3 309.9L82.4 311.3L83.2 318.4L84.2 319.3L85.1 314.5L86.4 315.6L87.8 311.6L88.0 314.2L89.0 313.9L90.0 317.4L91.9 318.8L92.3 314.0L93.1 312.8L94.6 316.9L95.9 312.4L96.0 312.8L97.7 315.1L98.9 320.9L99.7 314.9L100.8 314.1L101.4 312.5L102.8 316.3L103.3 314.6L104.5 315.1L105.1 319.8L106.0 317.7L107.7 317.8L108.4 316.2L109.1 314.8L110.9 315.1L111.8 311.5L112.5 312.7L113.1 311.8L114.6 316.2L115.6 315.7L116.3 314.4L118.0 312.8L118.1 311.6L119.1 317.3L120.8 314.4L121.6 314.4L122.1 316.2L123.3 317.7L124.4 314.0L125.8 314.1L126.6 314.1L127.8 321.9L128.8 314.9L129.6 313.9L130.3 317.7L131.5 312.6L132.7 311.9L133.2 314.1L134.2 316.1L135.8 316.7L137.0 315.4L137.5 313.5L138.9 312.7L140.0 314.7L140.1 318.4L142.0 313.2L142.8 313.8L143.2 314.5L144.8 314.9L145.7 315.4L147.0 314.9L147.1 312.3L148.6 315.2L149.4 312.1L150.2 315.3L151.1 318.4L152.9 312.1L153.4 313.4L154.6 318.6L155.8 317.5L156.6 314.4L157.3 315.9L158.7 314.9L159.4 315.8L160.6 316.3L162.0 315.2L162.1 317.0L163.1 316.8L164.1 312.0L165.2 318.4L166.3 318.8L167.7 313.9L168.5 314.8L169.3 318.2L170.8 315.3L171.2 315.9L172.6 310.6L173.8 317.8L174.2 315.6L175.4 309.2L176.1 312.2L177.6 312.1L178.6 314.3L179.0 314.1L180.8 313.5L181.3 315.3L182.4 313.5L183.2 315.8L184.8 315.2L185.1 313.6L186.2 314.4L187.2 318.7L188.3 314.0L189.5 311.3L190.5 314.1L191.0 314.0L192.1 316.3L193.1 314.1L194.7 318.7L195.3 311.0L196.7 315.8L197.1 316.2L198.9 318.4L199.4 310.4L200.9 312.8L201.4 309.7L202.9 313.7L203.0 311.5L204.0 314.1L205.7 313.5L206.1 314.4L207.8 313.7L208.3 315.7L209.9 315.7L210.9 315.5L211.5 314.7L212.3 317.7L214.0 314.5L215.0 313.3L215.1 314.5L216.2 312.5L217.2 312.2L218.7 318.9L219.3 311.9L220.7 312.8L221.5 312.1L223.0 315.4L223.1 313.0L224.9 313.1L225.6 315.4L226.2 314.1L228.0 312.8L228.1 312.8L229.6 314.0L230.5 313.2L232.0 316.1L232.5 318.1L233.9 315.8L235.0 313.7L235.1 313.3L236.9 313.9L237.6 315.3L238.4 317.4L239.3 319.3L240.7 317.5L241.2 316.2L242.8 313.9L243.9 314.6L244.3 313.4L245.1 314.8L246.5 319.1L247.3 312.2L249.0 317.4L250.0 316.9L250.9 313.8L252.0 316.5L252.2 312.5L253.4 318.5L254.6 313.8L255.2 315.7L256.4 311.4L257.2 314.1L258.5 316.0L259.9 315.6L260.5 314.9L261.8 314.9L262.4 314.1L263.4 312.5L264.6 322.1L265.0 319.8L266.6 312.5L267.6 314.1L268.2 314.9L269.5 314.9L270.1 315.6L271.5 316.0L272.8 314.1L273.6 311.4L274.8 315.7L275.4 313.8L276.6 318.5L277.8 312.5L278.0 316.5L279.1 313.8L280.0 316.9L281.0 317.4L282.7 312.2L283.5 319.1L284.9 314.8L285.7 313.4L286.1 314.6L287.2 313.9L288.8 316.2L289.3 317.5L290.7 319.3L291.6 317.4L292.4 315.3L293.1 313.9L294.9 313.3L295.0 313.7L296.1 315.8L297.5 318.1L298.0 316.1L299.5 313.2L300.4 314.0L301.9 312.8L302.0 312.8L303.8 314.1L304.4 315.4L305.1 313.1L306.9 313.0L307.0 315.4L308.5 312.1L309.3 312.8L310.7 311.9L311.3 318.9L312.8 312.2L313.8 312.5L314.9 314.5L315.0 313.3L316.0 314.5L317.7 317.7L318.5 314.7L319.1 315.5L320.1 315.7L321.7 315.7L322.2 313.7L323.9 314.4L324.3 313.5L326.0 314.1L327.0 311.5L327.1 313.7L328.6 309.7L329.1 312.8L330.6 310.4L331.1 318.4L332.9 316.2L333.3 315.8L334.7 311.0L335.3 318.7L336.9 314.1L337.9 316.3L339.0 314.0L339.5 314.1L340.5 311.3L341.7 314.0L342.8 318.7L343.8 314.4L344.9 313.6L345.2 315.2L346.8 315.8L347.6 313.5L348.7 315.3L349.2 313.5L351.0 314.1L351.4 314.3L352.4 312.1L353.9 312.2L354.6 309.2L355.8 315.6L356.2 317.8L357.4 310.6L358.8 315.9L359.2 315.3L360.7 318.2L361.5 314.8L362.3 313.9L363.7 318.8L364.8 318.4L365.9 312.0L366.9 316.8L367.9 317.0L368.0 315.2L369.4 316.3L370.6 315.8L371.3 314.9L372.7 315.9L373.4 314.4L374.2 317.5L375.4 318.6L376.6 313.4L377.1 312.1L378.9 318.4L379.8 315.3L380.6 312.1L381.4 315.2L382.9 312.3L383.0 314.9L384.3 315.4L385.2 314.9L386.8 314.5L387.2 313.8L388.0 313.2L389.9 318.4L390.0 314.7L391.1 312.7L392.5 313.5L393.0 315.4L394.2 316.7L395.8 316.1L396.8 314.1L397.3 311.9L398.5 312.6L399.7 317.7L400.4 313.9L401.2 314.9L402.2 321.9L403.4 314.1L404.2 314.1L405.6 314.0L406.7 317.7L407.9 316.2L408.4 314.4L409.2 314.4L410.9 317.3L411.9 311.6L412.0 312.8L413.7 314.4L414.4 315.7L415.4 316.2L416.9 311.8L417.5 312.7L418.2 311.5L419.1 315.1L420.9 314.8L421.6 316.2L422.3 317.8L424.0 317.7L424.9 319.8L425.5 315.1L426.7 314.6L427.2 316.3L428.6 312.5L429.2 314.1L430.3 314.9L431.1 320.9L432.3 315.1L434.0 312.8L434.1 312.4L435.4 316.9L436.9 312.8L437.7 314.0L438.1 318.8L440.0 317.4L441.0 313.9L442.0 314.2L442.2 311.6L443.6 315.6L444.9 314.5L445.8 319.3L446.8 318.4L447.6 311.3L448.7 309.9L449.3 315.8L450.5 315.1L451.9 311.1L452.1 312.5L453.1 312.1L455.0 312.9L455.8 308.8L456.9 303.4L457.6 304.1L458.7 305.3L459.1 308.8L460.8 301.2L461.9 292.9L463.0 286.2L464.0 282.9L464.8 278.8L465.9 275.0L466.9 271.1L468.0 266.1L469.0 261.2L469.9 239.6L470.0 238.7L471.0 261.2L472.0 266.1L473.1 271.2L474.1 275.1L475.2 278.8L476.0 282.9L477.0 286.4L478.1 291.8L479.2 301.9L480.9 308.1L481.7 304.1L482.1 304.9L483.1 303.9L484.2 305.0L485.3 309.7L486.9 314.4L487.9 314.2L488.1 311.2L489.2 314.1L490.6 312.8L491.3 315.8L492.9 315.3L493.5 312.7L494.7 315.6L495.1 315.9L496.9 316.0L497.3 312.7L498.4 312.0L499.1 313.9L500.5 315.3L501.2 312.4L502.7 312.3L503.2 312.5L504.0 313.2L505.1 311.6L506.9 313.3L507.0 314.1L508.5 310.9L509.1 315.4L510.7 319.5L511.8 316.0L512.2 320.0L513.9 314.5L514.3 310.2L515.9 313.7L516.0 315.3L517.6 312.1L518.1 313.8L519.8 312.9L520.0 314.3L521.5 318.7L522.1 317.9L523.6 318.6L524.5 314.6L525.8 313.9L526.5 313.9L527.9 315.2L529.0 318.3L529.3 313.6L530.1 317.9L531.6 317.1L532.4 311.6L534.0 310.9L534.1 311.4L535.1 314.9L536.6 311.4L537.3 315.3L539.0 323.0L540.0 313.0L540.1 310.8L541.7 313.8L542.9 318.0L543.6 324.9L544.9 313.4L545.3 313.9L546.8 313.4L547.4 313.3L548.9 313.2L549.5 315.4L550.4 318.4L552.0 312.2L552.1 312.7L553.8 316.6L555.0 315.8L555.1 317.6L556.7 312.9L557.1 316.0L558.1 317.5L559.8 314.1L561.0 318.2L561.1 314.0L562.3 311.8L563.5 314.4L564.4 317.4L565.3 314.4L566.5 309.5L567.5 318.3L568.2 315.3L569.3 317.2L571.0 316.3L571.9 313.5L572.4 317.6L573.3 314.2L574.4 317.1L575.4 316.0L576.8 315.0L577.2 319.5L578.0 320.6L579.2 318.5L580.2 311.5L581.8 314.7L582.1 314.6L583.2 320.2L584.3 315.4L585.7 311.8L586.4 314.6L587.3 315.6L588.2 316.0L589.7 316.4L590.4 312.1L591.5 312.7L592.1 313.2L593.3 313.9L594.3 317.5L595.4 315.5L596.0 315.6L597.3 314.2L598.4 311.2L599.3 314.4L600.9 310.6L601.4 311.8L602.8 313.9L603.8 318.7L604.8 310.6L605.0 311.0L606.9 317.1L607.7 312.2L608.0 312.5L609.9 314.3L610.9 314.1L611.0 315.4L612.3 315.1L613.8 317.5L614.8 315.2L615.1 315.4L616.3 312.7L617.6 317.8L618.2 318.6L619.0 316.7L620.1 316.4L621.5 313.4L622.1 315.0L623.6 315.0L624.8 312.0L625.6 311.1L627.0 313.8L627.7 313.8L628.9 309.9L629.2 318.4L630.4 318.8L631.5 312.5L632.5 312.2L633.8 314.8L635.0 312.7L635.1 313.4L636.6 314.7L637.8 311.2L638.8 316.0L640.0 315.6L640.1 315.6L641.3 315.9L642.8 318.2L643.4 314.8L644.3 316.7L646.0 317.4L646.4 318.0L648.0 310.9L648.1 312.8L649.6 315.8L651.0 313.8L651.1 313.6L652.7 309.7L653.6 312.2L654.7 314.0L655.8 310.4L656.9 314.8L657.7 315.0L658.6 316.9L659.5 312.2L660.9 314.1L661.6 316.1L662.8 313.8L663.6 313.6L665.0 316.2L665.7 312.4L666.7 313.3L667.2 313.3L668.8 313.5L669.5 316.4L670.9 315.1L671.5 313.5L672.3 316.3L673.7 315.6L674.2 311.7L675.8 311.7L676.3 315.6L677.7 316.3L678.5 313.5L679.1 315.1L680.5 316.4L681.2 313.5L682.8 313.3L683.3 313.3L684.3 312.4L685.0 316.2L686.4 313.6L687.2 313.8L688.4 316.1L689.1 314.1L690.5 312.2L691.4 316.9L692.3 315.0L693.1 314.8L694.2 310.4L695.3 314.0L696.4 312.2L697.3 309.7L698.9 313.6L699.0 313.8L700.4 315.8L701.9 312.8L702.0 310.9L703.6 318.0L704.0 317.4L705.7 316.7L706.6 314.8L707.2 318.2L708.7 315.9L709.9 315.6L710.0 315.6L711.2 316.0L712.2 311.2L713.4 314.7L714.9 313.4L715.0 312.7L716.2 314.8L717.5 312.2L718.5 312.5L719.6 318.8L720.8 318.4L721.1 309.9L722.3 313.8L723.0 313.8L724.4 311.1L725.2 312.0L726.4 315.0L727.9 315.0L728.5 313.4L729.9 316.4L731.0 316.7L731.8 318.6L732.4 317.8L733.7 312.7L734.9 315.4L735.2 315.2L736.2 317.5L737.7 315.1L739.0 315.4L739.1 314.1L740.1 314.3L742.0 312.5L742.3 312.2L743.1 317.1L745.0 311.0L745.2 310.6L746.2 318.7L747.2 313.9L748.6 311.8L749.1 310.6L750.7 314.4L751.6 311.2L752.7 314.2L754.0 315.6L754.6 315.5L755.7 317.5L756.7 313.9L757.9 313.2L758.5 312.7L759.6 312.1L760.3 316.4L761.8 316.0L762.7 315.6L763.6 314.6L764.3 311.8L765.7 315.4L766.8 320.2L767.9 314.6L768.2 314.7L769.8 311.5L770.8 318.5L772.0 320.6L772.8 319.5L773.2 315.0L774.6 316.0L775.6 317.1L776.7 314.2L777.6 317.6L778.1 313.5L779.0 316.3L780.7 317.2L781.8 315.3L782.5 318.3L783.5 309.5L784.7 314.4L785.6 317.4L786.5 314.4L787.7 311.8L788.9 314.0L789.0 318.2L790.2 314.1L791.9 317.5L792.9 316.0L793.3 312.9L794.9 317.6L795.0 315.8L796.2 316.6L797.9 312.7L798.0 312.2L799.6 318.4L800.5 315.4L801.1 313.2L802.6 313.3L803.2 313.4L804.7 313.9L805.1 313.4L806.4 324.9L807.1 318.0L808.3 313.8L809.9 310.8L810.0 313.0L811.0 323.0L812.7 315.3L813.4 311.4L814.9 314.9L815.9 311.4L816.0 310.9L817.6 311.6L818.4 317.1L819.9 317.9L820.7 313.6L821.0 318.3L822.1 315.2L823.5 313.9L824.2 313.9L825.5 314.6L826.4 318.6L827.9 317.9L828.5 318.7L830.0 314.3L830.2 312.9L831.9 313.8L832.4 312.1L834.0 315.3L834.1 313.7L835.7 310.2L836.1 314.5L837.8 320.0L838.2 316.0L839.3 319.5L840.9 315.4L841.5 310.9L843.0 314.1L843.1 313.3L844.9 311.6L846.0 313.2L846.8 312.5L847.3 312.3L848.8 312.4L849.5 315.3L850.9 313.9L851.6 312.0L852.7 312.7L853.1 316.0L854.9 315.9L855.3 315.6L856.5 312.7L857.1 315.3L858.7 315.8L859.4 312.8L860.8 314.1L861.9 311.2L862.1 314.2L863.1 314.4L864.7 309.7L865.8 305.0L866.9 303.9L867.9 304.9L868.3 304.1L869.1 308.1L870.8 301.9L871.9 291.8L873.0 286.4L874.0 282.9L874.8 278.8L875.9 275.1L876.9 271.2L878.0 266.1L879.0 261.2L879.9 239.6" fill="none" stroke="var(--accent)" stroke-width="1.1"/>
<path d="M92.7 252 L68.7 236" class="yol-gurultu" marker-end="url(#ok-gurultu)"/>
<text x="96.7" y="262" class="s-kucuk s-kirmizi">image (toplam frekans)</text>
<text x="478.0" y="238" class="s-kucuk s-vurgu">istenen (fark frekansı)</text>
<text x="880" y="380" text-anchor="end" class="s-kucuk">gürültü gücü -60 dBFS (değişmedi) · sinyal 0 MHz · image −1200 MHz</text>
<text x="60" y="380" class="s-kucuk">MHz · dBFS</text>
<text x="60" y="396" class="s-baslik">(3) ±150 MHz alçak geçiren filtre sonrası — 2400 MSPS</text>
<line x1="60.0" y1="404" x2="60.0" y2="534" class="izgara"/><text x="60.0" y="548" text-anchor="middle" class="s-mono2">-1200</text><line x1="196.7" y1="404" x2="196.7" y2="534" class="izgara"/><text x="196.7" y="548" text-anchor="middle" class="s-mono2">-800</text><line x1="333.3" y1="404" x2="333.3" y2="534" class="izgara"/><text x="333.3" y="548" text-anchor="middle" class="s-mono2">-400</text><line x1="470.0" y1="404" x2="470.0" y2="534" class="izgara"/><text x="470.0" y="548" text-anchor="middle" class="s-mono2">0</text><line x1="606.7" y1="404" x2="606.7" y2="534" class="izgara"/><text x="606.7" y="548" text-anchor="middle" class="s-mono2">400</text><line x1="743.3" y1="404" x2="743.3" y2="534" class="izgara"/><text x="743.3" y="548" text-anchor="middle" class="s-mono2">800</text><line x1="880.0" y1="404" x2="880.0" y2="534" class="izgara"/><text x="880.0" y="548" text-anchor="middle" class="s-mono2">1200</text><line x1="60" y1="404.0" x2="880" y2="404.0" class="izgara"/><text x="54" y="408.0" text-anchor="end" class="s-mono2">0</text><line x1="60" y1="444.0" x2="880" y2="444.0" class="izgara"/><text x="54" y="448.0" text-anchor="end" class="s-mono2">-40</text><line x1="60" y1="484.0" x2="880" y2="484.0" class="izgara"/><text x="54" y="488.0" text-anchor="end" class="s-mono2">-80</text><line x1="60" y1="524.0" x2="880" y2="524.0" class="izgara"/><text x="54" y="528.0" text-anchor="end" class="s-mono2">-120</text><rect x="60" y="404" width="820" height="130" class="eksen"/>
<path d="M60.0 534.0L61.0 534.0L62.0 534.0L63.8 534.0L64.5 534.0L65.2 534.0L66.0 534.0L67.0 534.0L68.1 534.0L69.1 534.0L70.9 534.0L71.3 534.0L72.4 534.0L73.1 534.0L74.2 534.0L75.0 534.0L76.8 534.0L77.9 534.0L78.1 534.0L79.5 534.0L80.3 534.0L81.3 534.0L82.7 534.0L83.3 534.0L84.5 534.0L85.1 534.0L86.3 534.0L87.1 534.0L88.0 534.0L89.9 534.0L90.7 534.0L91.6 534.0L92.2 534.0L93.1 534.0L94.2 534.0L95.9 534.0L96.3 534.0L97.7 534.0L98.9 534.0L99.7 534.0L100.3 534.0L101.7 534.0L102.8 534.0L103.3 534.0L104.6 534.0L105.2 534.0L106.0 534.0L107.0 534.0L108.9 534.0L109.1 534.0L110.9 534.0L111.8 534.0L112.5 534.0L113.1 534.0L114.9 534.0L115.8 534.0L116.3 534.0L118.0 534.0L118.1 534.0L119.2 534.0L120.8 534.0L121.6 534.0L122.9 534.0L123.5 534.0L124.4 534.0L125.8 534.0L126.1 534.0L127.9 534.0L128.9 534.0L129.5 534.0L130.2 534.0L131.6 534.0L132.7 534.0L133.8 534.0L135.0 534.0L135.7 534.0L137.0 534.0L137.6 534.0L138.2 534.0L140.0 534.0L140.9 534.0L142.0 534.0L142.8 534.0L143.2 534.0L144.7 534.0L145.1 534.0L147.0 534.0L147.8 534.0L149.0 534.0L149.5 534.0L150.2 534.0L151.2 534.0L152.9 534.0L153.4 534.0L154.6 534.0L155.1 534.0L156.5 534.0L157.3 534.0L159.0 534.0L159.5 534.0L160.6 534.0L162.0 534.0L162.1 534.0L163.1 534.0L164.2 534.0L165.9 534.0L166.9 534.0L167.7 534.0L168.5 534.0L169.2 534.0L170.1 534.0L171.2 534.0L172.7 534.0L173.9 534.0L174.3 534.0L175.5 534.0L176.0 534.0L177.2 534.0L178.6 534.0L179.9 534.0L180.7 534.0L181.2 534.0L182.3 534.0L183.3 534.0L184.7 534.0L185.8 534.0L186.3 534.0L187.2 534.0L188.3 534.0L189.5 534.0L190.9 534.0L191.1 534.0L192.0 534.0L193.0 534.0L194.2 534.0L195.2 534.0L196.0 534.0L197.9 534.0L198.9 534.0L199.4 534.0L200.8 534.0L201.4 534.0L202.1 534.0L203.7 534.0L204.0 534.0L205.7 534.0L206.2 534.0L207.8 534.0L208.3 534.0L209.9 534.0L210.8 534.0L211.5 534.0L212.7 534.0L214.0 534.0L214.2 534.0L215.1 534.0L217.0 534.0L217.2 534.0L218.6 534.0L219.2 534.0L220.7 534.0L221.5 534.0L223.0 534.0L223.4 534.0L224.9 534.0L225.6 534.0L226.1 534.0L227.6 534.0L228.1 534.0L229.6 534.0L230.5 534.0L231.9 534.0L232.2 534.0L233.9 534.0L234.2 534.0L235.9 534.0L236.9 534.0L237.6 534.0L238.4 534.0L239.4 534.0L240.4 534.0L241.9 534.0L242.9 534.0L243.9 534.0L244.4 534.0L245.1 534.0L246.1 534.0L247.3 534.0L249.0 534.0L250.0 534.0L250.9 534.0L252.0 534.0L252.1 534.0L253.2 534.0L254.6 534.0L255.2 534.0L256.4 534.0L257.2 534.0L258.1 534.0L259.6 534.0L261.0 534.0L261.8 534.0L262.4 534.0L263.4 534.0L264.3 534.0L265.0 534.0L266.9 534.0L267.6 534.0L268.2 534.0L269.5 534.0L270.1 534.0L271.5 534.0L272.0 534.0L273.6 534.0L274.8 534.0L275.4 534.0L276.6 534.0L277.8 534.0L278.0 534.0L279.9 534.0L280.7 534.0L281.0 534.0L282.7 534.0L283.0 534.0L284.0 534.0L285.0 534.0L286.5 534.0L287.1 534.0L288.8 534.0L289.2 534.0L290.3 534.0L291.1 534.0L292.5 534.0L293.9 534.0L294.9 534.0L295.0 534.0L296.2 534.0L297.5 534.0L298.9 534.0L299.5 534.0L300.9 534.0L301.9 534.0L302.0 534.0L303.2 534.0L304.0 534.0L305.9 534.0L306.9 534.0L307.0 534.0L308.5 534.0L309.2 534.0L310.1 534.0L311.7 534.0L312.8 534.0L313.8 534.0L314.9 534.0L315.0 534.0L316.1 534.0L318.0 534.0L318.7 534.0L319.1 534.0L320.1 534.0L321.6 534.0L322.1 534.0L323.8 534.0L324.3 534.0L326.0 534.0L327.0 534.0L327.1 534.0L328.5 534.0L329.1 534.0L330.9 534.0L331.1 534.0L332.9 534.0L333.3 534.0L334.7 534.0L335.1 534.0L337.0 534.0L337.9 534.0L339.0 534.0L339.5 534.0L340.6 534.0L341.8 534.0L342.8 534.0L343.8 534.0L344.9 534.0L345.3 534.0L346.8 534.0L347.1 534.0L349.0 534.0L350.0 534.0L351.0 534.0L351.4 534.0L352.4 534.0L353.3 534.0L354.9 534.0L355.7 534.0L357.0 534.0L357.4 534.0L358.8 534.0L359.2 534.0L360.2 534.0L361.5 534.0L362.3 534.0L363.7 534.0L364.1 534.0L365.9 534.0L366.1 534.0L367.9 534.0L368.8 534.0L369.4 534.0L370.6 534.0L371.0 534.0L372.3 534.0L373.8 534.0L374.9 534.0L375.4 534.0L376.6 534.0L377.1 534.0L378.0 534.0L379.8 534.0L380.6 534.0L381.4 534.0L382.9 534.0L383.0 534.0L384.9 534.0L385.3 534.0L386.8 534.0L387.2 534.0L388.0 534.0L389.0 534.0L390.7 534.0L391.9 534.0L392.5 534.0L393.0 534.0L394.2 534.0L395.8 534.0L396.8 534.0L397.3 534.0L398.5 534.0L399.0 534.0L400.4 534.0L401.2 534.0L402.9 534.0L403.9 534.0L404.2 534.0L405.7 534.0L406.7 534.0L407.9 529.8L408.4 525.8L409.2 522.9L410.9 520.2L411.9 511.9L412.0 513.1L413.7 510.3L414.4 510.2L415.4 508.8L416.9 502.1L417.5 502.1L418.2 500.0L419.1 502.8L420.9 500.7L421.6 501.5L422.3 502.4L424.0 501.5L424.9 503.5L425.5 498.2L426.7 497.4L427.3 498.9L428.6 494.8L429.2 496.3L430.3 497.1L431.1 503.1L432.3 497.2L434.0 494.8L434.1 494.4L435.4 498.8L436.9 495.0L437.7 496.1L438.1 500.7L440.0 499.5L441.0 495.9L442.0 496.3L442.2 493.8L443.6 497.6L444.9 496.5L445.8 501.3L446.8 500.0L447.6 493.5L448.7 491.9L449.3 497.8L450.5 497.2L451.9 493.3L452.1 494.6L453.1 494.1L455.0 494.8L455.4 490.7L456.9 485.4L457.6 486.0L458.7 487.3L459.1 490.9L460.8 483.1L461.9 474.8L463.0 468.1L464.0 464.9L464.8 460.7L465.9 457.0L466.9 453.1L468.0 448.0L469.0 443.3L469.9 421.4L470.0 420.5L471.0 443.3L472.0 448.0L473.1 453.2L474.1 457.0L475.2 460.8L476.0 464.9L477.0 468.4L478.1 473.7L479.2 483.8L480.9 490.0L481.7 485.9L482.1 486.8L483.1 485.9L484.2 486.9L485.3 491.8L486.9 496.4L487.9 496.5L488.1 493.3L489.2 495.9L490.6 494.7L491.3 497.8L492.9 497.4L493.5 494.7L494.7 497.8L495.1 498.1L496.9 497.8L497.3 494.8L498.4 494.0L499.1 496.1L500.5 497.1L501.2 494.3L502.7 494.2L503.2 494.4L504.0 495.2L505.1 493.7L506.9 495.3L507.0 496.0L508.5 493.0L509.1 497.8L510.4 501.5L511.8 498.2L512.2 502.7L513.9 497.4L514.3 493.3L515.9 497.6L516.0 499.2L517.6 497.0L518.1 498.9L519.8 499.5L520.0 500.9L521.5 507.3L522.1 507.0L523.2 509.6L524.2 506.8L525.8 508.8L526.5 510.2L527.9 515.0L528.8 520.7L529.3 517.1L530.1 524.1L531.2 527.4L532.4 526.2L533.2 529.7L534.1 534.0L535.1 534.0L536.6 534.0L537.3 534.0L539.0 534.0L539.4 534.0L540.1 534.0L541.7 534.0L542.9 534.0L543.2 534.0L544.3 534.0L545.3 534.0L546.8 534.0L547.4 534.0L548.3 534.0L549.2 534.0L551.0 534.0L552.0 534.0L552.1 534.0L553.1 534.0L554.5 534.0L555.1 534.0L556.8 534.0L558.0 534.0L558.1 534.0L559.8 534.0L560.3 534.0L561.8 534.0L562.3 534.0L563.5 534.0L564.4 534.0L565.3 534.0L566.5 534.0L568.0 534.0L568.3 534.0L569.9 534.0L570.5 534.0L571.9 534.0L572.4 534.0L573.7 534.0L574.4 534.0L575.5 534.0L576.8 534.0L577.2 534.0L578.0 534.0L579.1 534.0L580.2 534.0L581.9 534.0L582.1 534.0L583.2 534.0L584.2 534.0L585.2 534.0L586.4 534.0L587.3 534.0L588.2 534.0L589.6 534.0L590.4 534.0L591.0 534.0L592.8 534.0L593.7 534.0L594.3 534.0L595.4 534.0L596.0 534.0L597.2 534.0L598.4 534.0L599.3 534.0L600.9 534.0L601.4 534.0L602.9 534.0L603.2 534.0L604.9 534.0L605.9 534.0L606.4 534.0L607.7 534.0L608.0 534.0L609.0 534.0L610.0 534.0L611.0 534.0L612.4 534.0L613.8 534.0L614.8 534.0L615.1 534.0L616.2 534.0L617.5 534.0L618.2 534.0L619.0 534.0L620.1 534.0L621.5 534.0L622.0 534.0L623.6 534.0L624.8 534.0L625.6 534.0L627.0 534.0L627.1 534.0L628.6 534.0L630.0 534.0L630.4 534.0L631.5 534.0L632.5 534.0L633.8 534.0L634.2 534.0L635.1 534.0L636.5 534.0L637.8 534.0L638.9 534.0L640.0 534.0L640.1 534.0L641.3 534.0L642.8 534.0L643.4 534.0L644.9 534.0L645.9 534.0L646.5 534.0L647.3 534.0L648.9 534.0L649.5 534.0L651.0 534.0L651.1 534.0L652.7 534.0L653.2 534.0L654.8 534.0L655.8 534.0L656.9 534.0L657.7 534.0L658.5 534.0L659.5 534.0L660.1 534.0L661.6 534.0L662.8 534.0L663.6 534.0L664.6 534.0L665.7 534.0L666.1 534.0L668.0 534.0L668.8 534.0L670.0 534.0L670.9 534.0L671.4 534.0L672.2 534.0L674.0 534.0L674.5 534.0L675.8 534.0L676.3 534.0L677.7 534.0L678.5 534.0L679.2 534.0L680.6 534.0L681.2 534.0L682.9 534.0L683.3 534.0L684.3 534.0L685.0 534.0L686.7 534.0L687.9 534.0L688.4 534.0L689.2 534.0L690.6 534.0L691.4 534.0L692.9 534.0L693.5 534.0L694.2 534.0L695.3 534.0L696.4 534.0L697.4 534.0L698.1 534.0L699.7 534.0L700.5 534.0L701.9 534.0L702.0 534.0L703.1 534.0L704.0 534.0L705.7 534.0L706.6 534.0L707.2 534.0L708.2 534.0L709.9 534.0L710.1 534.0L711.0 534.0L712.2 534.0L713.5 534.0L714.9 534.0L715.0 534.0L716.2 534.0L717.1 534.0L718.8 534.0L719.6 534.0L720.7 534.0L721.1 534.0L722.2 534.0L723.0 534.0L724.5 534.0L725.8 534.0L726.5 534.0L727.9 534.0L728.1 534.0L729.3 534.0L731.0 534.0L731.8 534.0L732.4 534.0L733.7 534.0L734.5 534.0L735.1 534.0L736.1 534.0L737.6 534.0L739.0 534.0L739.4 534.0L740.1 534.0L741.1 534.0L742.1 534.0L743.9 534.0L745.0 534.0L745.3 534.0L747.0 534.0L747.2 534.0L748.5 534.0L749.1 534.0L750.7 534.0L751.6 534.0L752.7 534.0L753.9 534.0L754.1 534.0L755.1 534.0L756.8 534.0L758.0 534.0L758.6 534.0L759.5 534.0L760.3 534.0L761.1 534.0L763.0 534.0L763.6 534.0L764.3 534.0L765.8 534.0L766.6 534.0L767.3 534.0L768.2 534.0L769.8 534.0L770.8 534.0L772.0 534.0L772.1 534.0L773.3 534.0L774.6 534.0L775.6 534.0L776.6 534.0L777.6 534.0L778.0 534.0L779.0 534.0L780.1 534.0L781.9 534.0L782.4 534.0L783.6 534.0L784.7 534.0L785.5 534.0L786.4 534.0L787.1 534.0L788.8 534.0L789.6 534.0L790.2 534.0L791.0 534.0L792.0 534.0L793.1 534.0L794.9 534.0L795.6 534.0L796.7 534.0L797.9 534.0L798.0 534.0L799.6 534.0L800.8 534.0L801.8 534.0L802.6 534.0L803.2 534.0L804.7 534.0L805.0 534.0L806.0 534.0L807.6 534.0L808.4 534.0L809.9 534.0L810.0 534.0L811.5 534.0L812.2 534.0L813.4 534.0L814.9 534.0L815.9 534.0L816.0 534.0L817.6 534.0L818.4 534.0L819.8 534.0L820.7 534.0L821.2 534.0L822.1 534.0L823.3 534.0L824.1 534.0L825.0 534.0L826.8 534.0L827.9 534.0L828.5 534.0L829.9 534.0L830.1 534.0L832.0 534.0L832.9 534.0L834.0 534.0L834.2 534.0L835.7 534.0L836.1 534.0L837.3 534.0L838.4 534.0L839.7 534.0L841.0 534.0L841.5 534.0L842.6 534.0L843.1 534.0L844.5 534.0L846.0 534.0L846.8 534.0L847.7 534.0L848.9 534.0L849.4 534.0L850.3 534.0L851.7 534.0L852.7 534.0L853.1 534.0L854.9 534.0L855.4 534.0L856.4 534.0L857.1 534.0L858.7 534.0L859.8 534.0L860.8 534.0L861.9 534.0L862.1 534.0L863.2 534.0L865.0 534.0L865.8 534.0L866.9 534.0L868.0 534.0L868.3 534.0L869.1 534.0L870.9 534.0L871.9 534.0L873.0 534.0L874.0 534.0L874.8 534.0L875.5 534.0L876.2 534.0L878.0 534.0L879.0 534.0L879.9 534.0L880 534L60 534Z" class="spk-gurultu" opacity=".35"/>
<path d="M60.0 534.0L61.0 534.0L62.0 534.0L63.8 534.0L64.5 534.0L65.2 534.0L66.0 534.0L67.0 534.0L68.1 534.0L69.1 534.0L70.9 534.0L71.3 534.0L72.4 534.0L73.1 534.0L74.2 534.0L75.0 534.0L76.8 534.0L77.9 534.0L78.1 534.0L79.5 534.0L80.3 534.0L81.3 534.0L82.7 534.0L83.3 534.0L84.5 534.0L85.1 534.0L86.3 534.0L87.1 534.0L88.0 534.0L89.9 534.0L90.7 534.0L91.6 534.0L92.2 534.0L93.1 534.0L94.2 534.0L95.9 534.0L96.3 534.0L97.7 534.0L98.9 534.0L99.7 534.0L100.3 534.0L101.7 534.0L102.8 534.0L103.3 534.0L104.6 534.0L105.2 534.0L106.0 534.0L107.0 534.0L108.9 534.0L109.1 534.0L110.9 534.0L111.8 534.0L112.5 534.0L113.1 534.0L114.9 534.0L115.8 534.0L116.3 534.0L118.0 534.0L118.1 534.0L119.2 534.0L120.8 534.0L121.6 534.0L122.9 534.0L123.5 534.0L124.4 534.0L125.8 534.0L126.1 534.0L127.9 534.0L128.9 534.0L129.5 534.0L130.2 534.0L131.6 534.0L132.7 534.0L133.8 534.0L135.0 534.0L135.7 534.0L137.0 534.0L137.6 534.0L138.2 534.0L140.0 534.0L140.9 534.0L142.0 534.0L142.8 534.0L143.2 534.0L144.7 534.0L145.1 534.0L147.0 534.0L147.8 534.0L149.0 534.0L149.5 534.0L150.2 534.0L151.2 534.0L152.9 534.0L153.4 534.0L154.6 534.0L155.1 534.0L156.5 534.0L157.3 534.0L159.0 534.0L159.5 534.0L160.6 534.0L162.0 534.0L162.1 534.0L163.1 534.0L164.2 534.0L165.9 534.0L166.9 534.0L167.7 534.0L168.5 534.0L169.2 534.0L170.1 534.0L171.2 534.0L172.7 534.0L173.9 534.0L174.3 534.0L175.5 534.0L176.0 534.0L177.2 534.0L178.6 534.0L179.9 534.0L180.7 534.0L181.2 534.0L182.3 534.0L183.3 534.0L184.7 534.0L185.8 534.0L186.3 534.0L187.2 534.0L188.3 534.0L189.5 534.0L190.9 534.0L191.1 534.0L192.0 534.0L193.0 534.0L194.2 534.0L195.2 534.0L196.0 534.0L197.9 534.0L198.9 534.0L199.4 534.0L200.8 534.0L201.4 534.0L202.1 534.0L203.7 534.0L204.0 534.0L205.7 534.0L206.2 534.0L207.8 534.0L208.3 534.0L209.9 534.0L210.8 534.0L211.5 534.0L212.7 534.0L214.0 534.0L214.2 534.0L215.1 534.0L217.0 534.0L217.2 534.0L218.6 534.0L219.2 534.0L220.7 534.0L221.5 534.0L223.0 534.0L223.4 534.0L224.9 534.0L225.6 534.0L226.1 534.0L227.6 534.0L228.1 534.0L229.6 534.0L230.5 534.0L231.9 534.0L232.2 534.0L233.9 534.0L234.2 534.0L235.9 534.0L236.9 534.0L237.6 534.0L238.4 534.0L239.4 534.0L240.4 534.0L241.9 534.0L242.9 534.0L243.9 534.0L244.4 534.0L245.1 534.0L246.1 534.0L247.3 534.0L249.0 534.0L250.0 534.0L250.9 534.0L252.0 534.0L252.1 534.0L253.2 534.0L254.6 534.0L255.2 534.0L256.4 534.0L257.2 534.0L258.1 534.0L259.6 534.0L261.0 534.0L261.8 534.0L262.4 534.0L263.4 534.0L264.3 534.0L265.0 534.0L266.9 534.0L267.6 534.0L268.2 534.0L269.5 534.0L270.1 534.0L271.5 534.0L272.0 534.0L273.6 534.0L274.8 534.0L275.4 534.0L276.6 534.0L277.8 534.0L278.0 534.0L279.9 534.0L280.7 534.0L281.0 534.0L282.7 534.0L283.0 534.0L284.0 534.0L285.0 534.0L286.5 534.0L287.1 534.0L288.8 534.0L289.2 534.0L290.3 534.0L291.1 534.0L292.5 534.0L293.9 534.0L294.9 534.0L295.0 534.0L296.2 534.0L297.5 534.0L298.9 534.0L299.5 534.0L300.9 534.0L301.9 534.0L302.0 534.0L303.2 534.0L304.0 534.0L305.9 534.0L306.9 534.0L307.0 534.0L308.5 534.0L309.2 534.0L310.1 534.0L311.7 534.0L312.8 534.0L313.8 534.0L314.9 534.0L315.0 534.0L316.1 534.0L318.0 534.0L318.7 534.0L319.1 534.0L320.1 534.0L321.6 534.0L322.1 534.0L323.8 534.0L324.3 534.0L326.0 534.0L327.0 534.0L327.1 534.0L328.5 534.0L329.1 534.0L330.9 534.0L331.1 534.0L332.9 534.0L333.3 534.0L334.7 534.0L335.1 534.0L337.0 534.0L337.9 534.0L339.0 534.0L339.5 534.0L340.6 534.0L341.8 534.0L342.8 534.0L343.8 534.0L344.9 534.0L345.3 534.0L346.8 534.0L347.1 534.0L349.0 534.0L350.0 534.0L351.0 534.0L351.4 534.0L352.4 534.0L353.3 534.0L354.9 534.0L355.7 534.0L357.0 534.0L357.4 534.0L358.8 534.0L359.2 534.0L360.2 534.0L361.5 534.0L362.3 534.0L363.7 534.0L364.1 534.0L365.9 534.0L366.1 534.0L367.9 534.0L368.8 534.0L369.4 534.0L370.6 534.0L371.0 534.0L372.3 534.0L373.8 534.0L374.9 534.0L375.4 534.0L376.6 534.0L377.1 534.0L378.0 534.0L379.8 534.0L380.6 534.0L381.4 534.0L382.9 534.0L383.0 534.0L384.9 534.0L385.3 534.0L386.8 534.0L387.2 534.0L388.0 534.0L389.0 534.0L390.7 534.0L391.9 534.0L392.5 534.0L393.0 534.0L394.2 534.0L395.8 534.0L396.8 534.0L397.3 534.0L398.5 534.0L399.0 534.0L400.4 534.0L401.2 534.0L402.9 534.0L403.9 534.0L404.2 534.0L405.7 534.0L406.7 534.0L407.9 529.8L408.4 525.8L409.2 522.9L410.9 520.2L411.9 511.9L412.0 513.1L413.7 510.3L414.4 510.2L415.4 508.8L416.9 502.1L417.5 502.1L418.2 500.0L419.1 502.8L420.9 500.7L421.6 501.5L422.3 502.4L424.0 501.5L424.9 503.5L425.5 498.2L426.7 497.4L427.3 498.9L428.6 494.8L429.2 496.3L430.3 497.1L431.1 503.1L432.3 497.2L434.0 494.8L434.1 494.4L435.4 498.8L436.9 495.0L437.7 496.1L438.1 500.7L440.0 499.5L441.0 495.9L442.0 496.3L442.2 493.8L443.6 497.6L444.9 496.5L445.8 501.3L446.8 500.0L447.6 493.5L448.7 491.9L449.3 497.8L450.5 497.2L451.9 493.3L452.1 494.6L453.1 494.1L455.0 494.8L455.4 490.7L456.9 485.4L457.6 486.0L458.7 487.3L459.1 490.9L460.8 483.1L461.9 474.8L463.0 468.1L464.0 464.9L464.8 460.7L465.9 457.0L466.9 453.1L468.0 448.0L469.0 443.3L469.9 421.4L470.0 420.5L471.0 443.3L472.0 448.0L473.1 453.2L474.1 457.0L475.2 460.8L476.0 464.9L477.0 468.4L478.1 473.7L479.2 483.8L480.9 490.0L481.7 485.9L482.1 486.8L483.1 485.9L484.2 486.9L485.3 491.8L486.9 496.4L487.9 496.5L488.1 493.3L489.2 495.9L490.6 494.7L491.3 497.8L492.9 497.4L493.5 494.7L494.7 497.8L495.1 498.1L496.9 497.8L497.3 494.8L498.4 494.0L499.1 496.1L500.5 497.1L501.2 494.3L502.7 494.2L503.2 494.4L504.0 495.2L505.1 493.7L506.9 495.3L507.0 496.0L508.5 493.0L509.1 497.8L510.4 501.5L511.8 498.2L512.2 502.7L513.9 497.4L514.3 493.3L515.9 497.6L516.0 499.2L517.6 497.0L518.1 498.9L519.8 499.5L520.0 500.9L521.5 507.3L522.1 507.0L523.2 509.6L524.2 506.8L525.8 508.8L526.5 510.2L527.9 515.0L528.8 520.7L529.3 517.1L530.1 524.1L531.2 527.4L532.4 526.2L533.2 529.7L534.1 534.0L535.1 534.0L536.6 534.0L537.3 534.0L539.0 534.0L539.4 534.0L540.1 534.0L541.7 534.0L542.9 534.0L543.2 534.0L544.3 534.0L545.3 534.0L546.8 534.0L547.4 534.0L548.3 534.0L549.2 534.0L551.0 534.0L552.0 534.0L552.1 534.0L553.1 534.0L554.5 534.0L555.1 534.0L556.8 534.0L558.0 534.0L558.1 534.0L559.8 534.0L560.3 534.0L561.8 534.0L562.3 534.0L563.5 534.0L564.4 534.0L565.3 534.0L566.5 534.0L568.0 534.0L568.3 534.0L569.9 534.0L570.5 534.0L571.9 534.0L572.4 534.0L573.7 534.0L574.4 534.0L575.5 534.0L576.8 534.0L577.2 534.0L578.0 534.0L579.1 534.0L580.2 534.0L581.9 534.0L582.1 534.0L583.2 534.0L584.2 534.0L585.2 534.0L586.4 534.0L587.3 534.0L588.2 534.0L589.6 534.0L590.4 534.0L591.0 534.0L592.8 534.0L593.7 534.0L594.3 534.0L595.4 534.0L596.0 534.0L597.2 534.0L598.4 534.0L599.3 534.0L600.9 534.0L601.4 534.0L602.9 534.0L603.2 534.0L604.9 534.0L605.9 534.0L606.4 534.0L607.7 534.0L608.0 534.0L609.0 534.0L610.0 534.0L611.0 534.0L612.4 534.0L613.8 534.0L614.8 534.0L615.1 534.0L616.2 534.0L617.5 534.0L618.2 534.0L619.0 534.0L620.1 534.0L621.5 534.0L622.0 534.0L623.6 534.0L624.8 534.0L625.6 534.0L627.0 534.0L627.1 534.0L628.6 534.0L630.0 534.0L630.4 534.0L631.5 534.0L632.5 534.0L633.8 534.0L634.2 534.0L635.1 534.0L636.5 534.0L637.8 534.0L638.9 534.0L640.0 534.0L640.1 534.0L641.3 534.0L642.8 534.0L643.4 534.0L644.9 534.0L645.9 534.0L646.5 534.0L647.3 534.0L648.9 534.0L649.5 534.0L651.0 534.0L651.1 534.0L652.7 534.0L653.2 534.0L654.8 534.0L655.8 534.0L656.9 534.0L657.7 534.0L658.5 534.0L659.5 534.0L660.1 534.0L661.6 534.0L662.8 534.0L663.6 534.0L664.6 534.0L665.7 534.0L666.1 534.0L668.0 534.0L668.8 534.0L670.0 534.0L670.9 534.0L671.4 534.0L672.2 534.0L674.0 534.0L674.5 534.0L675.8 534.0L676.3 534.0L677.7 534.0L678.5 534.0L679.2 534.0L680.6 534.0L681.2 534.0L682.9 534.0L683.3 534.0L684.3 534.0L685.0 534.0L686.7 534.0L687.9 534.0L688.4 534.0L689.2 534.0L690.6 534.0L691.4 534.0L692.9 534.0L693.5 534.0L694.2 534.0L695.3 534.0L696.4 534.0L697.4 534.0L698.1 534.0L699.7 534.0L700.5 534.0L701.9 534.0L702.0 534.0L703.1 534.0L704.0 534.0L705.7 534.0L706.6 534.0L707.2 534.0L708.2 534.0L709.9 534.0L710.1 534.0L711.0 534.0L712.2 534.0L713.5 534.0L714.9 534.0L715.0 534.0L716.2 534.0L717.1 534.0L718.8 534.0L719.6 534.0L720.7 534.0L721.1 534.0L722.2 534.0L723.0 534.0L724.5 534.0L725.8 534.0L726.5 534.0L727.9 534.0L728.1 534.0L729.3 534.0L731.0 534.0L731.8 534.0L732.4 534.0L733.7 534.0L734.5 534.0L735.1 534.0L736.1 534.0L737.6 534.0L739.0 534.0L739.4 534.0L740.1 534.0L741.1 534.0L742.1 534.0L743.9 534.0L745.0 534.0L745.3 534.0L747.0 534.0L747.2 534.0L748.5 534.0L749.1 534.0L750.7 534.0L751.6 534.0L752.7 534.0L753.9 534.0L754.1 534.0L755.1 534.0L756.8 534.0L758.0 534.0L758.6 534.0L759.5 534.0L760.3 534.0L761.1 534.0L763.0 534.0L763.6 534.0L764.3 534.0L765.8 534.0L766.6 534.0L767.3 534.0L768.2 534.0L769.8 534.0L770.8 534.0L772.0 534.0L772.1 534.0L773.3 534.0L774.6 534.0L775.6 534.0L776.6 534.0L777.6 534.0L778.0 534.0L779.0 534.0L780.1 534.0L781.9 534.0L782.4 534.0L783.6 534.0L784.7 534.0L785.5 534.0L786.4 534.0L787.1 534.0L788.8 534.0L789.6 534.0L790.2 534.0L791.0 534.0L792.0 534.0L793.1 534.0L794.9 534.0L795.6 534.0L796.7 534.0L797.9 534.0L798.0 534.0L799.6 534.0L800.8 534.0L801.8 534.0L802.6 534.0L803.2 534.0L804.7 534.0L805.0 534.0L806.0 534.0L807.6 534.0L808.4 534.0L809.9 534.0L810.0 534.0L811.5 534.0L812.2 534.0L813.4 534.0L814.9 534.0L815.9 534.0L816.0 534.0L817.6 534.0L818.4 534.0L819.8 534.0L820.7 534.0L821.2 534.0L822.1 534.0L823.3 534.0L824.1 534.0L825.0 534.0L826.8 534.0L827.9 534.0L828.5 534.0L829.9 534.0L830.1 534.0L832.0 534.0L832.9 534.0L834.0 534.0L834.2 534.0L835.7 534.0L836.1 534.0L837.3 534.0L838.4 534.0L839.7 534.0L841.0 534.0L841.5 534.0L842.6 534.0L843.1 534.0L844.5 534.0L846.0 534.0L846.8 534.0L847.7 534.0L848.9 534.0L849.4 534.0L850.3 534.0L851.7 534.0L852.7 534.0L853.1 534.0L854.9 534.0L855.4 534.0L856.4 534.0L857.1 534.0L858.7 534.0L859.8 534.0L860.8 534.0L861.9 534.0L862.1 534.0L863.2 534.0L865.0 534.0L865.8 534.0L866.9 534.0L868.0 534.0L868.3 534.0L869.1 534.0L870.9 534.0L871.9 534.0L873.0 534.0L874.0 534.0L874.8 534.0L875.5 534.0L876.2 534.0L878.0 534.0L879.0 534.0L879.9 534.0" fill="none" stroke="var(--accent)" stroke-width="1.1"/>
<path d="M64.2 522.4L72.7 522.4L81.3 522.3L89.8 522.3L98.4 522.2L106.9 522.0L115.4 521.9L124.0 521.8L132.5 521.5L141.1 521.4L149.6 521.2L158.1 520.8L166.7 520.6L175.2 520.4L183.8 519.9L192.3 519.6L200.9 519.3L209.4 518.6L217.9 518.3L226.5 517.9L235.0 517.1L243.6 516.6L252.1 516.2L260.6 515.1L269.2 514.6L277.7 513.6L286.3 512.7L294.8 512.0L303.4 510.4L311.9 509.5L320.4 508.6L329.0 506.5L337.5 505.3L346.1 504.1L354.6 501.2L363.1 499.5L371.7 495.5L380.2 493.2L388.8 487.8L397.3 484.6L405.9 427.8L414.4 410.2L422.9 404.7L431.5 404.0L440.0 404.0L448.6 404.0L457.1 404.0L465.6 404.0L474.2 404.0L482.7 404.0L491.3 404.0L499.8 404.0L508.4 404.0L516.9 404.6L525.4 410.0L534.0 427.3L542.5 484.6L551.1 487.8L559.6 493.2L568.1 495.5L576.7 499.5L585.2 501.2L593.8 503.9L602.3 505.3L610.9 506.5L619.4 508.6L627.9 509.5L636.5 510.4L645.0 512.0L653.6 512.7L662.1 513.5L670.6 514.6L679.2 515.1L687.7 516.1L696.3 516.6L704.8 517.1L713.4 517.9L721.9 518.3L730.4 518.6L739.0 519.3L747.5 519.6L756.1 519.9L764.6 520.4L773.1 520.6L781.7 520.8L790.2 521.2L798.8 521.4L807.3 521.5L815.9 521.8L824.4 521.9L832.9 522.0L841.5 522.2L850.0 522.3L858.6 522.3L867.1 522.4L875.6 522.4" class="spk-filtre"/>
<text x="572.5" y="420" class="s-kucuk s-altin">filtre yanıtı ±150 MHz (stopband zarfı)</text>
<text x="880" y="562" text-anchor="end" class="s-kucuk">gürültü gücü -70 dBFS (−10 dB) · sinyal -3 dB (image yarısı gitti)</text>
<text x="60" y="562" class="s-kucuk">MHz · dBFS</text>
<text x="60" y="578" class="s-baslik">(4) ↓8 sonrası — kompleks, fs = 300 MSPS</text>
<line x1="60.0" y1="586" x2="60.0" y2="716" class="izgara"/><text x="60.0" y="730" text-anchor="middle" class="s-mono2">-150</text><line x1="196.7" y1="586" x2="196.7" y2="716" class="izgara"/><text x="196.7" y="730" text-anchor="middle" class="s-mono2">-100</text><line x1="333.3" y1="586" x2="333.3" y2="716" class="izgara"/><text x="333.3" y="730" text-anchor="middle" class="s-mono2">-50</text><line x1="470.0" y1="586" x2="470.0" y2="716" class="izgara"/><text x="470.0" y="730" text-anchor="middle" class="s-mono2">0</text><line x1="606.7" y1="586" x2="606.7" y2="716" class="izgara"/><text x="606.7" y="730" text-anchor="middle" class="s-mono2">50</text><line x1="743.3" y1="586" x2="743.3" y2="716" class="izgara"/><text x="743.3" y="730" text-anchor="middle" class="s-mono2">100</text><line x1="880.0" y1="586" x2="880.0" y2="716" class="izgara"/><text x="880.0" y="730" text-anchor="middle" class="s-mono2">150</text><line x1="60" y1="586.0" x2="880" y2="586.0" class="izgara"/><text x="54" y="590.0" text-anchor="end" class="s-mono2">0</text><line x1="60" y1="626.0" x2="880" y2="626.0" class="izgara"/><text x="54" y="630.0" text-anchor="end" class="s-mono2">-40</text><line x1="60" y1="666.0" x2="880" y2="666.0" class="izgara"/><text x="54" y="670.0" text-anchor="end" class="s-mono2">-80</text><line x1="60" y1="706.0" x2="880" y2="706.0" class="izgara"/><text x="54" y="710.0" text-anchor="end" class="s-mono2">-120</text><rect x="60" y="586" width="820" height="130" class="eksen"/>
<path d="M60.0 686.6L61.6 687.3L62.4 682.5L63.2 681.5L64.0 683.6L65.6 697.5L66.4 690.5L67.2 683.3L68.0 683.7L69.6 695.9L70.4 697.7L71.2 695.7L72.8 689.6L73.6 686.2L74.4 687.2L75.2 690.7L76.8 681.3L77.6 685.3L78.4 688.6L79.2 687.3L80.8 688.2L81.6 682.9L82.4 680.5L83.2 681.8L84.0 689.2L85.6 686.8L86.4 688.6L87.2 685.1L88.0 682.9L89.6 696.1L90.4 701.1L91.2 694.4L92.8 688.1L93.6 686.1L94.4 696.2L95.2 684.0L96.0 683.2L97.6 701.9L98.4 690.4L99.2 686.7L100.8 682.3L101.6 680.8L102.4 684.7L103.2 693.5L104.8 686.1L105.6 684.4L106.4 688.2L107.2 700.6L108.8 685.3L109.6 688.0L110.4 695.0L111.2 691.0L112.9 680.4L113.7 679.8L114.5 686.8L115.3 692.5L116.1 684.8L117.7 689.1L118.5 690.9L119.3 687.8L120.9 683.4L121.7 683.4L122.5 680.8L123.3 679.1L124.1 683.2L125.7 685.0L126.5 681.7L127.3 680.6L128.1 680.7L129.7 684.3L130.5 690.9L131.3 705.0L132.9 682.4L133.7 684.6L134.5 694.8L135.3 680.9L136.1 680.3L137.7 677.9L138.5 676.7L139.3 681.1L140.9 678.3L141.7 680.0L142.5 679.8L143.3 678.5L144.1 680.7L145.7 694.2L146.5 690.0L147.3 682.6L148.1 681.8L149.7 688.9L150.5 686.5L151.3 681.5L152.1 679.0L153.7 692.4L154.5 683.7L155.3 695.9L156.9 682.6L157.7 684.3L158.5 685.2L159.3 689.7L160.9 690.6L161.7 688.6L162.5 697.2L163.3 697.6L164.9 694.2L165.7 688.6L166.5 690.0L167.3 684.0L168.1 679.2L169.7 687.5L170.5 681.5L171.3 680.0L172.1 683.1L173.7 688.0L174.5 683.8L175.3 684.2L176.1 687.5L177.7 691.2L178.5 678.6L179.3 677.2L180.9 682.9L181.7 676.8L182.5 676.4L183.3 678.3L184.1 680.3L185.7 681.5L186.5 682.9L187.3 684.3L188.9 677.5L189.7 680.4L190.5 682.9L191.3 686.9L192.9 680.8L193.7 686.5L194.5 697.9L195.3 688.7L196.9 681.1L197.7 686.1L198.5 687.4L199.3 682.8L200.1 681.4L201.7 692.3L202.5 693.6L203.3 685.7L204.9 677.0L205.7 678.9L206.5 687.2L207.3 684.1L208.1 679.1L209.7 685.7L210.5 682.2L211.3 678.1L212.1 678.6L213.8 683.4L214.6 682.7L215.4 683.5L216.2 683.1L217.8 687.6L218.6 690.4L219.4 685.3L220.2 688.0L221.8 688.8L222.6 692.3L223.4 689.9L224.2 684.8L225.8 696.1L226.6 688.0L227.4 685.8L228.2 681.8L229.8 681.5L230.6 680.2L231.4 681.4L233.0 681.4L233.8 679.5L234.6 680.5L235.4 686.5L237.0 678.8L237.8 677.9L238.6 679.1L239.4 682.0L241.0 684.2L241.8 684.6L242.6 688.5L243.4 694.0L245.0 685.3L245.8 678.3L246.6 676.0L247.4 675.8L248.2 676.0L249.8 682.9L250.6 699.7L251.4 706.2L253.0 679.8L253.8 679.1L254.6 680.4L255.4 682.9L257.0 685.1L257.8 682.3L258.6 679.6L259.4 681.5L261.0 691.7L261.8 687.0L262.6 678.8L263.4 679.2L264.2 687.3L265.8 680.5L266.6 685.0L267.4 689.3L268.2 681.6L269.0 678.5L270.6 692.9L271.4 694.2L272.2 689.2L273.8 683.4L274.6 684.5L275.4 693.5L276.2 683.3L277.0 684.0L278.6 689.1L279.4 694.2L280.2 703.3L281.8 690.6L282.6 684.8L283.4 682.0L284.2 682.0L285.8 683.2L286.6 697.7L287.4 682.6L288.2 680.2L289.8 675.7L290.6 675.5L291.4 675.7L292.2 678.2L293.8 683.0L294.6 682.2L295.4 684.0L296.2 688.0L297.8 680.3L298.6 674.6L299.4 673.9L300.2 678.9L301.8 681.3L302.6 684.2L303.4 682.9L304.2 679.8L305.0 684.1L306.6 682.4L307.4 680.0L308.2 683.8L309.8 687.1L310.6 682.3L311.4 681.5L312.2 681.4L313.8 679.2L314.6 681.2L315.4 685.2L316.2 686.5L317.1 684.5L318.7 689.4L319.5 687.3L320.3 691.1L321.9 679.8L322.7 680.1L323.5 680.6L324.3 676.3L325.1 675.3L326.7 676.6L327.5 680.1L328.3 683.9L329.1 691.8L330.7 687.1L331.5 681.7L332.3 681.6L333.9 679.8L334.7 676.1L335.5 679.0L336.3 689.6L337.9 684.8L338.7 680.9L339.5 678.8L340.3 679.2L341.1 679.3L342.7 687.2L343.5 683.5L344.3 677.5L345.1 678.7L346.7 682.9L347.5 678.4L348.3 681.0L349.9 676.8L350.7 676.3L351.5 686.8L352.3 677.8L353.1 672.7L354.7 678.5L355.5 681.1L356.3 672.8L357.1 674.4L358.7 671.3L359.5 670.4L360.3 673.9L361.9 670.6L362.7 669.9L363.5 672.1L364.3 668.4L365.1 667.4L366.7 675.1L367.5 669.5L368.3 669.6L369.9 670.4L370.7 668.0L371.5 670.2L372.3 674.0L373.1 669.5L374.7 679.9L375.5 674.1L376.3 671.1L377.1 673.5L378.7 671.3L379.5 669.3L380.3 671.9L381.9 671.5L382.7 672.9L383.5 680.4L384.3 680.2L385.1 681.3L386.7 683.3L387.5 680.4L388.3 683.7L389.9 680.6L390.7 675.6L391.5 676.5L392.3 683.4L393.9 669.1L394.7 673.5L395.5 669.6L396.3 665.1L397.1 665.7L398.7 665.6L399.5 662.6L400.3 665.6L401.9 659.7L402.7 658.5L403.5 661.7L404.3 660.1L405.1 656.8L406.7 660.8L407.5 655.7L408.3 654.3L409.9 657.1L410.7 652.7L411.5 653.5L412.3 657.6L413.9 650.1L414.7 652.6L415.5 653.8L416.3 649.3L417.1 649.1L418.8 650.4L419.6 647.2L420.4 649.1L422.0 646.9L422.8 645.7L423.6 649.4L424.4 648.6L425.2 644.4L426.8 649.3L427.6 644.8L428.4 642.7L429.2 645.6L430.8 642.0L431.6 641.9L432.4 646.3L434.0 640.1L434.8 642.0L435.6 645.1L436.4 640.0L437.2 639.0L438.8 641.6L439.6 637.6L440.4 638.7L442.0 638.0L442.8 636.1L443.6 639.2L444.4 639.8L445.2 635.1L446.8 639.5L447.6 636.0L448.4 633.1L449.2 635.3L450.8 632.7L451.6 631.8L452.4 635.8L454.0 630.0L454.8 631.2L455.6 634.9L456.4 629.8L457.2 627.9L458.8 630.8L459.6 626.0L460.4 626.2L462.0 625.3L462.8 622.4L463.6 624.6L464.4 624.8L466.0 618.0L466.8 620.1L467.6 612.5L468.4 606.5L469.2 603.4L470.0 602.5L471.6 606.5L472.4 612.5L473.2 620.1L474.0 618.0L475.6 624.8L476.4 624.6L477.2 622.4L478.0 625.3L479.6 626.2L480.4 626.1L481.2 630.8L482.8 627.9L483.6 629.8L484.4 634.9L485.2 631.2L486.0 630.0L487.6 635.8L488.4 631.9L489.2 632.7L490.8 635.3L491.6 633.2L492.4 636.1L493.2 639.6L494.8 635.2L495.6 639.9L496.4 639.1L497.2 636.1L498.0 638.0L499.6 638.6L500.4 637.6L501.2 641.6L502.8 639.0L503.6 640.0L504.4 645.1L505.2 642.1L506.0 640.0L507.6 646.1L508.4 641.9L509.2 642.0L510.8 645.6L511.6 642.8L512.4 645.0L513.2 649.5L514.8 644.4L515.6 648.5L516.4 649.5L517.2 645.7L518.0 646.9L519.6 649.0L520.4 647.2L521.2 650.4L522.9 649.3L523.7 649.5L524.5 654.5L525.3 653.1L526.1 650.4L527.7 656.7L528.5 653.0L529.3 652.4L530.1 656.8L531.7 653.8L532.5 655.5L533.3 661.1L534.9 655.7L535.7 659.5L536.5 663.4L537.3 659.2L538.1 659.7L539.7 663.0L540.5 660.9L541.3 663.8L542.9 666.3L543.7 665.8L544.5 670.3L545.3 673.5L546.1 669.6L547.7 677.2L548.5 679.1L549.3 676.9L550.1 680.8L551.7 690.8L552.5 682.2L553.3 683.5L554.9 677.4L555.7 680.9L556.5 676.5L557.3 672.0L558.1 672.2L559.7 677.0L560.5 672.1L561.3 672.7L562.9 669.2L563.7 667.9L564.5 672.1L565.3 676.1L566.9 668.8L567.7 674.8L568.5 673.2L569.3 669.6L570.1 672.1L571.7 670.5L572.5 669.2L573.3 671.8L574.9 667.9L575.7 669.3L576.5 673.6L577.3 669.9L578.1 668.3L579.7 674.2L580.5 670.2L581.3 669.0L582.9 671.3L583.7 668.9L584.5 671.2L585.3 676.8L586.1 673.5L587.7 688.9L588.5 680.6L589.3 674.7L590.1 675.9L591.7 674.9L592.5 673.8L593.3 677.5L594.9 676.7L595.7 676.5L596.5 680.3L597.3 687.7L598.1 680.5L599.7 690.3L600.5 689.8L601.3 697.2L602.9 689.3L603.7 682.9L604.5 680.0L605.3 678.4L606.1 678.6L607.7 682.3L608.5 678.7L609.3 679.3L610.1 683.4L611.7 686.2L612.5 681.2L613.3 678.5L614.9 675.3L615.7 676.5L616.5 680.3L617.3 679.0L618.1 676.6L619.7 699.3L620.5 688.9L621.3 686.8L622.9 678.7L623.8 677.9L624.6 681.8L625.4 685.4L627.0 680.9L627.8 683.1L628.6 683.8L629.4 682.2L631.0 680.8L631.8 678.8L632.6 679.6L633.4 694.1L635.0 676.7L635.8 679.2L636.6 682.7L637.4 682.0L638.2 681.2L639.8 686.0L640.6 679.8L641.4 680.4L642.2 684.9L643.8 680.9L644.6 680.3L645.4 680.9L646.2 682.0L647.8 691.1L648.6 697.1L649.4 695.6L650.2 684.9L651.8 693.7L652.6 682.7L653.4 679.4L654.2 680.3L655.8 684.6L656.6 681.0L657.4 677.7L658.2 676.7L659.8 680.8L660.6 684.4L661.4 693.9L663.0 692.3L663.8 693.8L664.6 696.7L665.4 690.0L667.0 683.5L667.8 679.8L668.6 683.6L669.4 687.0L671.0 680.1L671.8 682.4L672.6 684.5L673.4 682.5L674.2 682.9L675.8 684.3L676.6 685.2L677.4 687.8L678.2 688.0L679.8 692.1L680.6 684.5L681.4 682.2L682.2 682.1L683.0 682.6L684.6 679.8L685.4 679.8L686.2 681.5L687.8 676.9L688.6 676.8L689.4 679.9L690.2 682.8L691.0 683.7L692.6 682.7L693.4 681.0L694.2 686.2L695.8 678.8L696.6 676.2L697.4 676.0L698.2 677.7L699.0 679.8L700.6 680.5L701.4 678.9L702.2 678.6L703.0 678.1L704.6 685.7L705.4 680.8L706.2 680.9L707.8 678.6L708.6 682.2L709.4 689.1L710.2 686.2L711.8 680.0L712.6 682.2L713.4 682.3L714.2 679.1L715.0 679.2L716.6 688.4L717.4 685.7L718.2 681.1L719.8 676.3L720.6 679.9L721.4 693.8L722.2 683.9L723.0 678.6L724.6 682.8L725.4 685.2L726.2 683.2L727.9 680.7L728.7 678.1L729.5 680.0L730.3 704.5L731.9 676.2L732.7 677.7L733.5 680.7L734.3 684.0L735.9 676.4L736.7 678.1L737.5 696.1L738.3 680.9L739.1 678.8L740.7 681.2L741.5 678.1L742.3 677.2L743.1 680.7L744.7 680.2L745.5 678.1L746.3 680.0L747.1 681.2L748.7 682.0L749.5 678.9L750.3 676.0L751.1 675.7L752.7 683.9L753.5 690.8L754.3 684.3L755.1 684.0L756.7 691.8L757.5 681.2L758.3 677.8L759.1 678.8L760.7 678.4L761.5 678.8L762.3 684.7L763.9 691.2L764.7 681.3L765.5 677.3L766.3 678.0L767.1 682.4L768.7 680.1L769.5 679.7L770.3 680.9L771.1 683.5L772.7 682.0L773.5 680.0L774.3 682.5L775.9 688.3L776.7 681.8L777.5 677.0L778.3 675.1L779.1 677.3L780.7 685.6L781.5 684.1L782.3 680.1L783.1 679.8L784.7 685.7L785.5 683.3L786.3 680.6L787.1 682.4L788.7 684.7L789.5 684.7L790.3 688.9L791.9 688.1L792.7 684.8L793.5 683.6L794.3 688.5L795.9 683.8L796.7 684.3L797.5 690.3L798.3 692.3L799.9 684.0L800.7 683.7L801.5 698.3L802.3 682.2L803.1 680.0L804.7 679.9L805.5 682.8L806.3 685.9L807.9 684.0L808.7 687.6L809.5 689.4L810.3 689.3L811.9 687.1L812.7 687.6L813.5 691.1L814.3 680.8L815.1 683.7L816.7 684.2L817.5 686.4L818.3 686.5L819.1 684.1L820.7 684.2L821.5 680.1L822.3 680.5L823.9 678.3L824.7 675.7L825.5 679.4L826.3 690.4L827.9 679.7L828.8 680.5L829.6 682.5L830.4 686.7L831.2 688.5L832.8 690.5L833.6 684.6L834.4 690.2L836.0 682.0L836.8 680.1L837.6 679.6L838.4 681.3L840.0 684.7L840.8 683.4L841.6 693.0L842.4 686.6L843.2 681.9L844.8 688.0L845.6 682.2L846.4 682.1L848.0 682.2L848.8 683.6L849.6 694.7L850.4 682.1L851.2 678.0L852.8 702.8L853.6 684.4L854.4 680.7L855.2 679.5L856.8 691.7L857.6 690.3L858.4 688.9L860.0 683.5L860.8 683.9L861.6 691.7L862.4 692.1L863.2 687.9L864.8 691.3L865.6 692.0L866.4 685.9L868.0 681.2L868.8 680.2L869.6 680.3L870.4 680.0L871.2 681.2L872.8 694.1L873.6 690.2L874.4 695.3L876.0 688.1L876.8 693.6L877.6 687.8L878.4 685.4L879.2 682.9L880 716L60 716Z" class="spk-gurultu" opacity=".35"/>
<path d="M60.0 686.6L61.6 687.3L62.4 682.5L63.2 681.5L64.0 683.6L65.6 697.5L66.4 690.5L67.2 683.3L68.0 683.7L69.6 695.9L70.4 697.7L71.2 695.7L72.8 689.6L73.6 686.2L74.4 687.2L75.2 690.7L76.8 681.3L77.6 685.3L78.4 688.6L79.2 687.3L80.8 688.2L81.6 682.9L82.4 680.5L83.2 681.8L84.0 689.2L85.6 686.8L86.4 688.6L87.2 685.1L88.0 682.9L89.6 696.1L90.4 701.1L91.2 694.4L92.8 688.1L93.6 686.1L94.4 696.2L95.2 684.0L96.0 683.2L97.6 701.9L98.4 690.4L99.2 686.7L100.8 682.3L101.6 680.8L102.4 684.7L103.2 693.5L104.8 686.1L105.6 684.4L106.4 688.2L107.2 700.6L108.8 685.3L109.6 688.0L110.4 695.0L111.2 691.0L112.9 680.4L113.7 679.8L114.5 686.8L115.3 692.5L116.1 684.8L117.7 689.1L118.5 690.9L119.3 687.8L120.9 683.4L121.7 683.4L122.5 680.8L123.3 679.1L124.1 683.2L125.7 685.0L126.5 681.7L127.3 680.6L128.1 680.7L129.7 684.3L130.5 690.9L131.3 705.0L132.9 682.4L133.7 684.6L134.5 694.8L135.3 680.9L136.1 680.3L137.7 677.9L138.5 676.7L139.3 681.1L140.9 678.3L141.7 680.0L142.5 679.8L143.3 678.5L144.1 680.7L145.7 694.2L146.5 690.0L147.3 682.6L148.1 681.8L149.7 688.9L150.5 686.5L151.3 681.5L152.1 679.0L153.7 692.4L154.5 683.7L155.3 695.9L156.9 682.6L157.7 684.3L158.5 685.2L159.3 689.7L160.9 690.6L161.7 688.6L162.5 697.2L163.3 697.6L164.9 694.2L165.7 688.6L166.5 690.0L167.3 684.0L168.1 679.2L169.7 687.5L170.5 681.5L171.3 680.0L172.1 683.1L173.7 688.0L174.5 683.8L175.3 684.2L176.1 687.5L177.7 691.2L178.5 678.6L179.3 677.2L180.9 682.9L181.7 676.8L182.5 676.4L183.3 678.3L184.1 680.3L185.7 681.5L186.5 682.9L187.3 684.3L188.9 677.5L189.7 680.4L190.5 682.9L191.3 686.9L192.9 680.8L193.7 686.5L194.5 697.9L195.3 688.7L196.9 681.1L197.7 686.1L198.5 687.4L199.3 682.8L200.1 681.4L201.7 692.3L202.5 693.6L203.3 685.7L204.9 677.0L205.7 678.9L206.5 687.2L207.3 684.1L208.1 679.1L209.7 685.7L210.5 682.2L211.3 678.1L212.1 678.6L213.8 683.4L214.6 682.7L215.4 683.5L216.2 683.1L217.8 687.6L218.6 690.4L219.4 685.3L220.2 688.0L221.8 688.8L222.6 692.3L223.4 689.9L224.2 684.8L225.8 696.1L226.6 688.0L227.4 685.8L228.2 681.8L229.8 681.5L230.6 680.2L231.4 681.4L233.0 681.4L233.8 679.5L234.6 680.5L235.4 686.5L237.0 678.8L237.8 677.9L238.6 679.1L239.4 682.0L241.0 684.2L241.8 684.6L242.6 688.5L243.4 694.0L245.0 685.3L245.8 678.3L246.6 676.0L247.4 675.8L248.2 676.0L249.8 682.9L250.6 699.7L251.4 706.2L253.0 679.8L253.8 679.1L254.6 680.4L255.4 682.9L257.0 685.1L257.8 682.3L258.6 679.6L259.4 681.5L261.0 691.7L261.8 687.0L262.6 678.8L263.4 679.2L264.2 687.3L265.8 680.5L266.6 685.0L267.4 689.3L268.2 681.6L269.0 678.5L270.6 692.9L271.4 694.2L272.2 689.2L273.8 683.4L274.6 684.5L275.4 693.5L276.2 683.3L277.0 684.0L278.6 689.1L279.4 694.2L280.2 703.3L281.8 690.6L282.6 684.8L283.4 682.0L284.2 682.0L285.8 683.2L286.6 697.7L287.4 682.6L288.2 680.2L289.8 675.7L290.6 675.5L291.4 675.7L292.2 678.2L293.8 683.0L294.6 682.2L295.4 684.0L296.2 688.0L297.8 680.3L298.6 674.6L299.4 673.9L300.2 678.9L301.8 681.3L302.6 684.2L303.4 682.9L304.2 679.8L305.0 684.1L306.6 682.4L307.4 680.0L308.2 683.8L309.8 687.1L310.6 682.3L311.4 681.5L312.2 681.4L313.8 679.2L314.6 681.2L315.4 685.2L316.2 686.5L317.1 684.5L318.7 689.4L319.5 687.3L320.3 691.1L321.9 679.8L322.7 680.1L323.5 680.6L324.3 676.3L325.1 675.3L326.7 676.6L327.5 680.1L328.3 683.9L329.1 691.8L330.7 687.1L331.5 681.7L332.3 681.6L333.9 679.8L334.7 676.1L335.5 679.0L336.3 689.6L337.9 684.8L338.7 680.9L339.5 678.8L340.3 679.2L341.1 679.3L342.7 687.2L343.5 683.5L344.3 677.5L345.1 678.7L346.7 682.9L347.5 678.4L348.3 681.0L349.9 676.8L350.7 676.3L351.5 686.8L352.3 677.8L353.1 672.7L354.7 678.5L355.5 681.1L356.3 672.8L357.1 674.4L358.7 671.3L359.5 670.4L360.3 673.9L361.9 670.6L362.7 669.9L363.5 672.1L364.3 668.4L365.1 667.4L366.7 675.1L367.5 669.5L368.3 669.6L369.9 670.4L370.7 668.0L371.5 670.2L372.3 674.0L373.1 669.5L374.7 679.9L375.5 674.1L376.3 671.1L377.1 673.5L378.7 671.3L379.5 669.3L380.3 671.9L381.9 671.5L382.7 672.9L383.5 680.4L384.3 680.2L385.1 681.3L386.7 683.3L387.5 680.4L388.3 683.7L389.9 680.6L390.7 675.6L391.5 676.5L392.3 683.4L393.9 669.1L394.7 673.5L395.5 669.6L396.3 665.1L397.1 665.7L398.7 665.6L399.5 662.6L400.3 665.6L401.9 659.7L402.7 658.5L403.5 661.7L404.3 660.1L405.1 656.8L406.7 660.8L407.5 655.7L408.3 654.3L409.9 657.1L410.7 652.7L411.5 653.5L412.3 657.6L413.9 650.1L414.7 652.6L415.5 653.8L416.3 649.3L417.1 649.1L418.8 650.4L419.6 647.2L420.4 649.1L422.0 646.9L422.8 645.7L423.6 649.4L424.4 648.6L425.2 644.4L426.8 649.3L427.6 644.8L428.4 642.7L429.2 645.6L430.8 642.0L431.6 641.9L432.4 646.3L434.0 640.1L434.8 642.0L435.6 645.1L436.4 640.0L437.2 639.0L438.8 641.6L439.6 637.6L440.4 638.7L442.0 638.0L442.8 636.1L443.6 639.2L444.4 639.8L445.2 635.1L446.8 639.5L447.6 636.0L448.4 633.1L449.2 635.3L450.8 632.7L451.6 631.8L452.4 635.8L454.0 630.0L454.8 631.2L455.6 634.9L456.4 629.8L457.2 627.9L458.8 630.8L459.6 626.0L460.4 626.2L462.0 625.3L462.8 622.4L463.6 624.6L464.4 624.8L466.0 618.0L466.8 620.1L467.6 612.5L468.4 606.5L469.2 603.4L470.0 602.5L471.6 606.5L472.4 612.5L473.2 620.1L474.0 618.0L475.6 624.8L476.4 624.6L477.2 622.4L478.0 625.3L479.6 626.2L480.4 626.1L481.2 630.8L482.8 627.9L483.6 629.8L484.4 634.9L485.2 631.2L486.0 630.0L487.6 635.8L488.4 631.9L489.2 632.7L490.8 635.3L491.6 633.2L492.4 636.1L493.2 639.6L494.8 635.2L495.6 639.9L496.4 639.1L497.2 636.1L498.0 638.0L499.6 638.6L500.4 637.6L501.2 641.6L502.8 639.0L503.6 640.0L504.4 645.1L505.2 642.1L506.0 640.0L507.6 646.1L508.4 641.9L509.2 642.0L510.8 645.6L511.6 642.8L512.4 645.0L513.2 649.5L514.8 644.4L515.6 648.5L516.4 649.5L517.2 645.7L518.0 646.9L519.6 649.0L520.4 647.2L521.2 650.4L522.9 649.3L523.7 649.5L524.5 654.5L525.3 653.1L526.1 650.4L527.7 656.7L528.5 653.0L529.3 652.4L530.1 656.8L531.7 653.8L532.5 655.5L533.3 661.1L534.9 655.7L535.7 659.5L536.5 663.4L537.3 659.2L538.1 659.7L539.7 663.0L540.5 660.9L541.3 663.8L542.9 666.3L543.7 665.8L544.5 670.3L545.3 673.5L546.1 669.6L547.7 677.2L548.5 679.1L549.3 676.9L550.1 680.8L551.7 690.8L552.5 682.2L553.3 683.5L554.9 677.4L555.7 680.9L556.5 676.5L557.3 672.0L558.1 672.2L559.7 677.0L560.5 672.1L561.3 672.7L562.9 669.2L563.7 667.9L564.5 672.1L565.3 676.1L566.9 668.8L567.7 674.8L568.5 673.2L569.3 669.6L570.1 672.1L571.7 670.5L572.5 669.2L573.3 671.8L574.9 667.9L575.7 669.3L576.5 673.6L577.3 669.9L578.1 668.3L579.7 674.2L580.5 670.2L581.3 669.0L582.9 671.3L583.7 668.9L584.5 671.2L585.3 676.8L586.1 673.5L587.7 688.9L588.5 680.6L589.3 674.7L590.1 675.9L591.7 674.9L592.5 673.8L593.3 677.5L594.9 676.7L595.7 676.5L596.5 680.3L597.3 687.7L598.1 680.5L599.7 690.3L600.5 689.8L601.3 697.2L602.9 689.3L603.7 682.9L604.5 680.0L605.3 678.4L606.1 678.6L607.7 682.3L608.5 678.7L609.3 679.3L610.1 683.4L611.7 686.2L612.5 681.2L613.3 678.5L614.9 675.3L615.7 676.5L616.5 680.3L617.3 679.0L618.1 676.6L619.7 699.3L620.5 688.9L621.3 686.8L622.9 678.7L623.8 677.9L624.6 681.8L625.4 685.4L627.0 680.9L627.8 683.1L628.6 683.8L629.4 682.2L631.0 680.8L631.8 678.8L632.6 679.6L633.4 694.1L635.0 676.7L635.8 679.2L636.6 682.7L637.4 682.0L638.2 681.2L639.8 686.0L640.6 679.8L641.4 680.4L642.2 684.9L643.8 680.9L644.6 680.3L645.4 680.9L646.2 682.0L647.8 691.1L648.6 697.1L649.4 695.6L650.2 684.9L651.8 693.7L652.6 682.7L653.4 679.4L654.2 680.3L655.8 684.6L656.6 681.0L657.4 677.7L658.2 676.7L659.8 680.8L660.6 684.4L661.4 693.9L663.0 692.3L663.8 693.8L664.6 696.7L665.4 690.0L667.0 683.5L667.8 679.8L668.6 683.6L669.4 687.0L671.0 680.1L671.8 682.4L672.6 684.5L673.4 682.5L674.2 682.9L675.8 684.3L676.6 685.2L677.4 687.8L678.2 688.0L679.8 692.1L680.6 684.5L681.4 682.2L682.2 682.1L683.0 682.6L684.6 679.8L685.4 679.8L686.2 681.5L687.8 676.9L688.6 676.8L689.4 679.9L690.2 682.8L691.0 683.7L692.6 682.7L693.4 681.0L694.2 686.2L695.8 678.8L696.6 676.2L697.4 676.0L698.2 677.7L699.0 679.8L700.6 680.5L701.4 678.9L702.2 678.6L703.0 678.1L704.6 685.7L705.4 680.8L706.2 680.9L707.8 678.6L708.6 682.2L709.4 689.1L710.2 686.2L711.8 680.0L712.6 682.2L713.4 682.3L714.2 679.1L715.0 679.2L716.6 688.4L717.4 685.7L718.2 681.1L719.8 676.3L720.6 679.9L721.4 693.8L722.2 683.9L723.0 678.6L724.6 682.8L725.4 685.2L726.2 683.2L727.9 680.7L728.7 678.1L729.5 680.0L730.3 704.5L731.9 676.2L732.7 677.7L733.5 680.7L734.3 684.0L735.9 676.4L736.7 678.1L737.5 696.1L738.3 680.9L739.1 678.8L740.7 681.2L741.5 678.1L742.3 677.2L743.1 680.7L744.7 680.2L745.5 678.1L746.3 680.0L747.1 681.2L748.7 682.0L749.5 678.9L750.3 676.0L751.1 675.7L752.7 683.9L753.5 690.8L754.3 684.3L755.1 684.0L756.7 691.8L757.5 681.2L758.3 677.8L759.1 678.8L760.7 678.4L761.5 678.8L762.3 684.7L763.9 691.2L764.7 681.3L765.5 677.3L766.3 678.0L767.1 682.4L768.7 680.1L769.5 679.7L770.3 680.9L771.1 683.5L772.7 682.0L773.5 680.0L774.3 682.5L775.9 688.3L776.7 681.8L777.5 677.0L778.3 675.1L779.1 677.3L780.7 685.6L781.5 684.1L782.3 680.1L783.1 679.8L784.7 685.7L785.5 683.3L786.3 680.6L787.1 682.4L788.7 684.7L789.5 684.7L790.3 688.9L791.9 688.1L792.7 684.8L793.5 683.6L794.3 688.5L795.9 683.8L796.7 684.3L797.5 690.3L798.3 692.3L799.9 684.0L800.7 683.7L801.5 698.3L802.3 682.2L803.1 680.0L804.7 679.9L805.5 682.8L806.3 685.9L807.9 684.0L808.7 687.6L809.5 689.4L810.3 689.3L811.9 687.1L812.7 687.6L813.5 691.1L814.3 680.8L815.1 683.7L816.7 684.2L817.5 686.4L818.3 686.5L819.1 684.1L820.7 684.2L821.5 680.1L822.3 680.5L823.9 678.3L824.7 675.7L825.5 679.4L826.3 690.4L827.9 679.7L828.8 680.5L829.6 682.5L830.4 686.7L831.2 688.5L832.8 690.5L833.6 684.6L834.4 690.2L836.0 682.0L836.8 680.1L837.6 679.6L838.4 681.3L840.0 684.7L840.8 683.4L841.6 693.0L842.4 686.6L843.2 681.9L844.8 688.0L845.6 682.2L846.4 682.1L848.0 682.2L848.8 683.6L849.6 694.7L850.4 682.1L851.2 678.0L852.8 702.8L853.6 684.4L854.4 680.7L855.2 679.5L856.8 691.7L857.6 690.3L858.4 688.9L860.0 683.5L860.8 683.9L861.6 691.7L862.4 692.1L863.2 687.9L864.8 691.3L865.6 692.0L866.4 685.9L868.0 681.2L868.8 680.2L869.6 680.3L870.4 680.0L871.2 681.2L872.8 694.1L873.6 690.2L874.4 695.3L876.0 688.1L876.8 693.6L877.6 687.8L878.4 685.4L879.2 682.9" fill="none" stroke="var(--accent)" stroke-width="1.1"/>
<text x="880" y="744" text-anchor="end" class="s-kucuk">gürültü gücü -70 dBFS · yeni Nyquist ±150 MHz · SNR kazancı 7 dB</text>
<text x="60" y="744" class="s-kucuk">MHz · dBFS</text>
</svg>