<svg viewBox="0 0 900 520" xmlns="http://www.w3.org/2000/svg" role="img" aria-labelledby="t-g32">
<title id="t-g32">Darbe içi modülasyon (MOP) türlerinin üç görünümü (hesaplanmış). Sütunlar: modülasyonsuz sabit frekanslı darbe; 10 MHz LFM chirp; Barker-13 faz kodlu darbe; dört adımlı frekans atlamalı darbe. Satırlar: zaman dalga şekli (reel kısım), darbe boyunca anlık frekans ya da faz, ve genlik spektrumu. Sabit darbenin bant genişliği ≈ 1/PW = 1 MHz; LFM'de ≈ 10 MHz; Barker-13'te ≈ 13/PW = 13 MHz; atlamalıda adımlar arası boşluklu.</title>
<text x="50" y="26" class="s-baslik">Sabit frekans (MOP yok)</text>
<line x1="65.4" y1="40" x2="65.4" y2="150" class="izgara"/><text x="65.4" y="164" text-anchor="middle" class="s-mono2">0</text><line x1="142.5" y1="40" x2="142.5" y2="150" class="izgara"/><text x="142.5" y="164" text-anchor="middle" class="s-mono2">0.5</text><line x1="219.6" y1="40" x2="219.6" y2="150" class="izgara"/><text x="219.6" y="164" text-anchor="middle" class="s-mono2">1</text><line x1="50" y1="137.3" x2="235" y2="137.3" class="izgara"/><text x="44" y="141.3" text-anchor="end" class="s-mono2">-1</text><line x1="50" y1="95.0" x2="235" y2="95.0" class="izgara"/><text x="44" y="99.0" text-anchor="end" class="s-mono2">0</text><line x1="50" y1="52.7" x2="235" y2="52.7" class="izgara"/><text x="44" y="56.7" text-anchor="end" class="s-mono2">1</text><rect x="50" y="40" width="185" height="110" class="eksen"/>
<path d="M65.4 52.7L65.8 56.4L66.3 66.8L66.7 82.1L67.1 99.6L67.6 116.4L68.0 129.4L68.4 136.5L68.9 136.3L69.3 129.0L69.7 115.7L70.1 98.9L70.6 81.4L71.0 66.2L71.4 56.1L71.9 52.7L72.3 56.7L72.7 67.3L73.1 82.8L73.6 100.4L74.0 117.0L74.4 129.8L74.9 136.6L75.3 136.1L75.7 128.5L76.2 115.1L76.6 98.1L77.0 80.7L77.4 65.7L77.9 55.8L78.3 52.7L78.7 57.0L79.2 67.9L79.6 83.5L80.0 101.1L80.4 117.6L80.9 130.2L81.3 136.7L81.7 136.0L82.2 128.1L82.6 114.4L83.0 97.4L83.5 80.0L83.9 65.1L84.3 55.5L84.7 52.8L85.2 57.3L85.6 68.5L86.0 84.2L86.5 101.8L86.9 118.3L87.3 130.6L87.7 136.8L88.2 135.8L88.6 127.6L89.0 113.8L89.5 96.7L89.9 79.3L90.3 64.6L90.8 55.3L91.2 52.8L91.6 57.7L92.0 69.0L92.5 84.9L92.9 102.5L93.3 118.9L93.8 131.0L94.2 136.9L94.6 135.6L95.0 127.1L95.5 113.1L95.9 95.9L96.3 78.6L96.8 64.1L97.2 55.0L97.6 52.9L98.1 58.0L98.5 69.6L98.9 85.6L99.3 103.3L99.8 119.5L100.2 131.4L100.6 137.0L101.1 135.3L101.5 126.6L101.9 112.4L102.3 95.2L102.8 77.9L103.2 63.6L103.6 54.8L104.1 52.9L104.5 58.4L104.9 70.2L105.4 86.4L105.8 104.0L106.2 120.1L106.6 131.8L107.1 137.1L107.5 135.1L107.9 126.1L108.4 111.7L108.8 94.4L109.2 77.2L109.6 63.1L110.1 54.6L110.5 53.0L110.9 58.8L111.4 70.8L111.8 87.1L112.2 104.7L112.7 120.7L113.1 132.2L113.5 137.2L113.9 134.9L114.4 125.6L114.8 111.1L115.2 93.7L115.7 76.6L116.1 62.6L116.5 54.3L116.9 53.1L117.4 59.2L117.8 71.4L118.2 87.8L118.7 105.4L119.1 121.3L119.5 132.5L120.0 137.2L120.4 134.6L120.8 125.1L121.2 110.4L121.7 93.0L122.1 75.9L122.5 62.2L123.0 54.1L123.4 53.2L123.8 59.6L124.2 72.1L124.7 88.5L125.1 106.2L125.5 121.8L126.0 132.8L126.4 137.3L126.8 134.3L127.3 124.6L127.7 109.7L128.1 92.2L128.5 75.3L129.0 61.7L129.4 54.0L129.8 53.3L130.3 60.0L130.7 72.7L131.1 89.3L131.5 106.9L132.0 122.4L132.4 133.2L132.8 137.3L133.3 134.1L133.7 124.1L134.1 109.0L134.6 91.5L135.0 74.6L135.4 61.3L135.8 53.8L136.3 53.5L136.7 60.4L137.1 73.3L137.6 90.0L138.0 107.6L138.4 123.0L138.8 133.5L139.3 137.3L139.7 133.8L140.1 123.5L140.6 108.3L141.0 90.7L141.4 74.0L141.9 60.8L142.3 53.6L142.7 53.6L143.1 60.8L143.6 74.0L144.0 90.7L144.4 108.3L144.9 123.5L145.3 133.8L145.7 137.3L146.2 133.5L146.6 123.0L147.0 107.6L147.4 90.0L147.9 73.3L148.3 60.4L148.7 53.5L149.2 53.8L149.6 61.3L150.0 74.6L150.4 91.5L150.9 109.0L151.3 124.1L151.7 134.1L152.2 137.3L152.6 133.2L153.0 122.4L153.5 106.9L153.9 89.3L154.3 72.7L154.7 60.0L155.2 53.3L155.6 54.0L156.0 61.7L156.5 75.3L156.9 92.2L157.3 109.7L157.7 124.6L158.2 134.3L158.6 137.3L159.0 132.8L159.5 121.8L159.9 106.2L160.3 88.5L160.8 72.1L161.2 59.6L161.6 53.2L162.0 54.1L162.5 62.2L162.9 75.9L163.3 93.0L163.8 110.4L164.2 125.1L164.6 134.6L165.0 137.2L165.5 132.5L165.9 121.3L166.3 105.4L166.8 87.8L167.2 71.4L167.6 59.2L168.1 53.1L168.5 54.3L168.9 62.6L169.3 76.6L169.8 93.7L170.2 111.1L170.6 125.6L171.1 134.9L171.5 137.2L171.9 132.2L172.3 120.7L172.8 104.7L173.2 87.1L173.6 70.8L174.1 58.8L174.5 53.0L174.9 54.6L175.4 63.1L175.8 77.2L176.2 94.4L176.6 111.7L177.1 126.1L177.5 135.1L177.9 137.1L178.4 131.8L178.8 120.1L179.2 104.0L179.6 86.4L180.1 70.2L180.5 58.4L180.9 52.9L181.4 54.8L181.8 63.6L182.2 77.9L182.7 95.2L183.1 112.4L183.5 126.6L183.9 135.3L184.4 137.0L184.8 131.4L185.2 119.5L185.7 103.3L186.1 85.6L186.5 69.6L186.9 58.0L187.4 52.9L187.8 55.0L188.2 64.1L188.7 78.6L189.1 95.9L189.5 113.1L190.0 127.1L190.4 135.6L190.8 136.9L191.2 131.0L191.7 118.9L192.1 102.5L192.5 84.9L193.0 69.0L193.4 57.7L193.8 52.8L194.2 55.3L194.7 64.6L195.1 79.3L195.5 96.7L196.0 113.8L196.4 127.6L196.8 135.8L197.3 136.8L197.7 130.6L198.1 118.3L198.5 101.8L199.0 84.2L199.4 68.5L199.8 57.3L200.3 52.8L200.7 55.5L201.1 65.1L201.5 80.0L202.0 97.4L202.4 114.4L202.8 128.1L203.3 136.0L203.7 136.7L204.1 130.2L204.6 117.6L205.0 101.1L205.4 83.5L205.8 67.9L206.3 57.0L206.7 52.7L207.1 55.8L207.6 65.7L208.0 80.7L208.4 98.1L208.8 115.1L209.3 128.5L209.7 136.1L210.1 136.6L210.6 129.8L211.0 117.0L211.4 100.4L211.9 82.8L212.3 67.3L212.7 56.7L213.1 52.7L213.6 56.1L214.0 66.2L214.4 81.4L214.9 98.9L215.3 115.7L215.7 129.0L216.1 136.3L216.6 136.5L217.0 129.4L217.4 116.4L217.9 99.6L218.3 82.1L218.7 66.8L219.2 56.4L219.6 52.7" fill="none" stroke="var(--accent)" stroke-width=".9"/>
<path d="M50.0 95.0H65.4V52.7H219.6V95.0H235.0" fill="none" stroke="var(--gold)" stroke-width="1.4" stroke-dasharray="4 3"/>
<text x="12" y="95" class="s-kucuk" transform="rotate(-90 12 95)" text-anchor="middle">zaman</text>
<line x1="65.4" y1="190" x2="65.4" y2="300" class="izgara"/><text x="65.4" y="314" text-anchor="middle" class="s-mono2">0</text><line x1="142.5" y1="190" x2="142.5" y2="300" class="izgara"/><text x="142.5" y="314" text-anchor="middle" class="s-mono2">0.5</text><line x1="219.6" y1="190" x2="219.6" y2="300" class="izgara"/><text x="219.6" y="314" text-anchor="middle" class="s-mono2">1</text><line x1="50" y1="286.2" x2="235" y2="286.2" class="izgara"/><text x="44" y="290.2" text-anchor="end" class="s-mono2">-15</text><line x1="50" y1="245.0" x2="235" y2="245.0" class="izgara"/><text x="44" y="249.0" text-anchor="end" class="s-mono2">+0</text><line x1="50" y1="203.8" x2="235" y2="203.8" class="izgara"/><text x="44" y="207.8" text-anchor="end" class="s-mono2">+15</text><rect x="50" y="190" width="185" height="110" class="eksen"/>
<path d="M65.4 245.0L65.8 245.0L66.3 245.0L66.7 245.0L67.1 245.0L67.6 245.0L68.0 245.0L68.4 245.0L68.9 245.0L69.3 245.0L69.7 245.0L70.1 245.0L70.6 245.0L71.0 245.0L71.4 245.0L71.9 245.0L72.3 245.0L72.7 245.0L73.1 245.0L73.6 245.0L74.0 245.0L74.4 245.0L74.9 245.0L75.3 245.0L75.7 245.0L76.2 245.0L76.6 245.0L77.0 245.0L77.4 245.0L77.9 245.0L78.3 245.0L78.7 245.0L79.2 245.0L79.6 245.0L80.0 245.0L80.4 245.0L80.9 245.0L81.3 245.0L81.7 245.0L82.2 245.0L82.6 245.0L83.0 245.0L83.5 245.0L83.9 245.0L84.3 245.0L84.7 245.0L85.2 245.0L85.6 245.0L86.0 245.0L86.5 245.0L86.9 245.0L87.3 245.0L87.7 245.0L88.2 245.0L88.6 245.0L89.0 245.0L89.5 245.0L89.9 245.0L90.3 245.0L90.8 245.0L91.2 245.0L91.6 245.0L92.0 245.0L92.5 245.0L92.9 245.0L93.3 245.0L93.8 245.0L94.2 245.0L94.6 245.0L95.0 245.0L95.5 245.0L95.9 245.0L96.3 245.0L96.8 245.0L97.2 245.0L97.6 245.0L98.1 245.0L98.5 245.0L98.9 245.0L99.3 245.0L99.8 245.0L100.2 245.0L100.6 245.0L101.1 245.0L101.5 245.0L101.9 245.0L102.3 245.0L102.8 245.0L103.2 245.0L103.6 245.0L104.1 245.0L104.5 245.0L104.9 245.0L105.4 245.0L105.8 245.0L106.2 245.0L106.6 245.0L107.1 245.0L107.5 245.0L107.9 245.0L108.4 245.0L108.8 245.0L109.2 245.0L109.6 245.0L110.1 245.0L110.5 245.0L110.9 245.0L111.4 245.0L111.8 245.0L112.2 245.0L112.7 245.0L113.1 245.0L113.5 245.0L113.9 245.0L114.4 245.0L114.8 245.0L115.2 245.0L115.7 245.0L116.1 245.0L116.5 245.0L116.9 245.0L117.4 245.0L117.8 245.0L118.2 245.0L118.7 245.0L119.1 245.0L119.5 245.0L120.0 245.0L120.4 245.0L120.8 245.0L121.2 245.0L121.7 245.0L122.1 245.0L122.5 245.0L123.0 245.0L123.4 245.0L123.8 245.0L124.2 245.0L124.7 245.0L125.1 245.0L125.5 245.0L126.0 245.0L126.4 245.0L126.8 245.0L127.3 245.0L127.7 245.0L128.1 245.0L128.5 245.0L129.0 245.0L129.4 245.0L129.8 245.0L130.3 245.0L130.7 245.0L131.1 245.0L131.5 245.0L132.0 245.0L132.4 245.0L132.8 245.0L133.3 245.0L133.7 245.0L134.1 245.0L134.6 245.0L135.0 245.0L135.4 245.0L135.8 245.0L136.3 245.0L136.7 245.0L137.1 245.0L137.6 245.0L138.0 245.0L138.4 245.0L138.8 245.0L139.3 245.0L139.7 245.0L140.1 245.0L140.6 245.0L141.0 245.0L141.4 245.0L141.9 245.0L142.3 245.0L142.7 245.0L143.1 245.0L143.6 245.0L144.0 245.0L144.4 245.0L144.9 245.0L145.3 245.0L145.7 245.0L146.2 245.0L146.6 245.0L147.0 245.0L147.4 245.0L147.9 245.0L148.3 245.0L148.7 245.0L149.2 245.0L149.6 245.0L150.0 245.0L150.4 245.0L150.9 245.0L151.3 245.0L151.7 245.0L152.2 245.0L152.6 245.0L153.0 245.0L153.5 245.0L153.9 245.0L154.3 245.0L154.7 245.0L155.2 245.0L155.6 245.0L156.0 245.0L156.5 245.0L156.9 245.0L157.3 245.0L157.7 245.0L158.2 245.0L158.6 245.0L159.0 245.0L159.5 245.0L159.9 245.0L160.3 245.0L160.8 245.0L161.2 245.0L161.6 245.0L162.0 245.0L162.5 245.0L162.9 245.0L163.3 245.0L163.8 245.0L164.2 245.0L164.6 245.0L165.0 245.0L165.5 245.0L165.9 245.0L166.3 245.0L166.8 245.0L167.2 245.0L167.6 245.0L168.1 245.0L168.5 245.0L168.9 245.0L169.3 245.0L169.8 245.0L170.2 245.0L170.6 245.0L171.1 245.0L171.5 245.0L171.9 245.0L172.3 245.0L172.8 245.0L173.2 245.0L173.6 245.0L174.1 245.0L174.5 245.0L174.9 245.0L175.4 245.0L175.8 245.0L176.2 245.0L176.6 245.0L177.1 245.0L177.5 245.0L177.9 245.0L178.4 245.0L178.8 245.0L179.2 245.0L179.6 245.0L180.1 245.0L180.5 245.0L180.9 245.0L181.4 245.0L181.8 245.0L182.2 245.0L182.7 245.0L183.1 245.0L183.5 245.0L183.9 245.0L184.4 245.0L184.8 245.0L185.2 245.0L185.7 245.0L186.1 245.0L186.5 245.0L186.9 245.0L187.4 245.0L187.8 245.0L188.2 245.0L188.7 245.0L189.1 245.0L189.5 245.0L190.0 245.0L190.4 245.0L190.8 245.0L191.2 245.0L191.7 245.0L192.1 245.0L192.5 245.0L193.0 245.0L193.4 245.0L193.8 245.0L194.2 245.0L194.7 245.0L195.1 245.0L195.5 245.0L196.0 245.0L196.4 245.0L196.8 245.0L197.3 245.0L197.7 245.0L198.1 245.0L198.5 245.0L199.0 245.0L199.4 245.0L199.8 245.0L200.3 245.0L200.7 245.0L201.1 245.0L201.5 245.0L202.0 245.0L202.4 245.0L202.8 245.0L203.3 245.0L203.7 245.0L204.1 245.0L204.6 245.0L205.0 245.0L205.4 245.0L205.8 245.0L206.3 245.0L206.7 245.0L207.1 245.0L207.6 245.0L208.0 245.0L208.4 245.0L208.8 245.0L209.3 245.0L209.7 245.0L210.1 245.0L210.6 245.0L211.0 245.0L211.4 245.0L211.9 245.0L212.3 245.0L212.7 245.0L213.1 245.0L213.6 245.0L214.0 245.0L214.4 245.0L214.9 245.0L215.3 245.0L215.7 245.0L216.1 245.0L216.6 245.0L217.0 245.0L217.4 245.0L217.9 245.0L218.3 245.0L218.7 245.0L219.2 245.0L219.6 245.0" fill="none" stroke="var(--green)" stroke-width="2"/>
<text x="54" y="202" class="s-kucuk">anlık frekans (MHz)</text>
<text x="12" y="245" class="s-kucuk" transform="rotate(-90 12 245)" text-anchor="middle">f(t) / φ(t)</text>
<line x1="68.5" y1="340" x2="68.5" y2="470" class="izgara"/><text x="68.5" y="484" text-anchor="middle" class="s-mono2">-20</text><line x1="105.5" y1="340" x2="105.5" y2="470" class="izgara"/><text x="105.5" y="484" text-anchor="middle" class="s-mono2">-10</text><line x1="142.5" y1="340" x2="142.5" y2="470" class="izgara"/><text x="142.5" y="484" text-anchor="middle" class="s-mono2">0</text><line x1="179.5" y1="340" x2="179.5" y2="470" class="izgara"/><text x="179.5" y="484" text-anchor="middle" class="s-mono2">10</text><line x1="216.5" y1="340" x2="216.5" y2="470" class="izgara"/><text x="216.5" y="484" text-anchor="middle" class="s-mono2">20</text><line x1="50" y1="347.4" x2="235" y2="347.4" class="izgara"/><text x="44" y="351.4" text-anchor="end" class="s-mono2">0</text><line x1="50" y1="396.4" x2="235" y2="396.4" class="izgara"/><text x="44" y="400.4" text-anchor="end" class="s-mono2">-20</text><line x1="50" y1="445.5" x2="235" y2="445.5" class="izgara"/><text x="44" y="449.5" text-anchor="end" class="s-mono2">-40</text><rect x="50" y="340" width="185" height="130" class="eksen"/>
<path d="M-94.1 470.0L-93.0 453.4L-92.5 450.7L-92.0 452.4L-90.0 466.7L-89.1 451.7L-88.8 450.7L-87.9 456.2L-86.1 460.4L-85.0 450.7L-84.9 450.8L-83.9 463.2L-82.0 454.6L-81.3 450.7L-80.9 452.3L-79.0 470.0L-78.1 452.3L-77.6 450.6L-77.0 454.5L-75.1 463.1L-74.1 450.6L-74.0 450.5L-72.9 460.2L-71.1 456.0L-70.2 450.5L-69.9 451.4L-69.0 466.5L-67.0 452.1L-66.5 450.4L-66.0 453.0L-64.0 462.8L-63.1 450.7L-62.8 450.3L-61.9 457.6L-60.1 457.6L-59.1 450.1L-58.9 450.6L-58.0 462.6L-56.0 452.7L-55.4 450.0L-55.0 451.7L-53.0 465.9L-52.1 450.8L-51.8 449.9L-50.9 455.3L-49.1 459.5L-48.1 449.7L-47.9 449.8L-46.9 462.2L-45.0 453.5L-44.4 449.5L-43.9 451.2L-42.0 469.9L-41.1 451.1L-40.6 449.4L-40.0 453.2L-38.1 461.7L-37.1 449.3L-36.9 449.2L-35.9 458.8L-34.1 454.5L-33.2 448.9L-32.9 449.9L-32.0 464.9L-30.0 450.4L-29.5 448.7L-29.0 451.3L-27.0 461.1L-26.1 448.9L-25.8 448.5L-24.9 455.8L-23.1 455.6L-22.2 448.2L-21.9 448.6L-21.0 460.6L-19.0 450.6L-18.5 447.9L-18.0 449.6L-16.0 463.7L-15.1 448.6L-14.8 447.6L-13.9 453.0L-12.1 457.1L-11.1 447.3L-10.9 447.4L-9.9 459.7L-8.0 451.0L-7.4 447.0L-6.9 448.6L-5.0 467.2L-4.1 448.4L-3.6 446.6L-3.0 450.5L-1.1 458.9L0.0 446.3L1.1 455.8L2.9 451.4L3.8 445.9L4.1 446.8L5.0 461.8L7.0 447.2L7.4 445.5L8.0 448.1L10.0 457.7L10.9 445.5L11.1 445.0L12.1 452.3L13.9 452.1L14.9 444.6L15.1 445.0L16.0 457.0L18.0 446.9L18.5 444.1L19.0 445.7L21.0 459.8L21.9 444.6L22.2 443.6L23.1 449.0L24.9 452.9L25.9 443.1L26.1 443.2L27.1 455.4L29.0 446.6L29.6 442.5L30.1 444.1L32.0 462.6L32.9 443.7L33.4 442.0L34.0 445.8L35.9 454.1L36.9 441.5L37.0 441.4L38.1 450.9L39.9 446.3L40.8 440.7L41.1 441.6L42.0 456.5L44.0 441.8L44.5 440.0L45.0 442.6L47.0 452.1L47.9 439.8L48.1 439.3L49.1 446.5L50.9 446.2L51.9 438.6L52.1 439.0L53.0 450.9L55.0 440.6L55.5 437.8L56.0 439.4L58.0 453.3L58.9 438.0L59.2 437.0L60.1 442.3L61.9 446.1L63.0 436.1L63.1 436.2L64.1 448.4L66.0 439.3L66.7 435.2L67.1 436.8L69.0 455.1L69.9 436.0L70.3 434.2L71.0 438.0L72.9 446.0L73.9 433.3L74.0 433.2L75.1 442.6L76.9 437.8L77.8 432.1L78.1 432.9L79.0 447.7L81.0 432.7L81.5 430.9L82.0 433.4L84.0 442.6L84.9 430.1L85.2 429.6L86.1 436.7L87.9 436.0L88.8 428.3L89.1 428.6L90.0 440.3L92.0 429.7L92.6 426.8L93.0 428.3L95.0 441.8L95.9 426.3L96.2 425.2L97.1 430.3L98.9 433.7L100.0 423.5L100.1 423.5L101.1 435.4L103.0 425.9L103.7 421.6L104.1 423.0L106.0 440.8L106.9 421.5L107.3 419.5L108.0 423.0L109.9 430.5L110.9 417.4L111.1 417.2L112.1 426.2L113.9 420.6L114.8 414.6L115.1 415.2L116.0 429.6L118.0 413.6L118.5 411.5L119.0 413.7L121.0 421.7L121.9 408.7L122.3 408.0L123.1 414.4L124.9 412.3L126.0 403.7L126.1 403.9L127.0 414.7L129.0 402.0L129.7 398.3L130.0 399.3L132.0 410.0L132.9 393.0L133.4 391.1L134.1 394.8L135.9 393.7L136.9 380.4L137.2 379.9L138.1 387.9L140.0 367.7L141.0 353.5L141.9 348.2L142.5 347.4L143.1 348.2L144.0 353.5L145.0 367.7L146.9 387.9L147.8 379.9L148.1 380.4L149.1 393.7L150.9 394.8L151.6 391.1L152.1 393.0L153.0 410.0L155.0 399.3L155.3 398.3L156.0 402.0L158.0 414.7L158.9 403.9L159.0 403.7L160.1 412.3L161.9 414.4L162.7 408.0L163.1 408.7L164.0 421.7L166.0 413.7L166.6 411.5L167.0 413.6L169.0 429.6L169.9 415.2L170.2 414.6L171.1 420.6L172.9 426.2L173.9 417.2L174.1 417.4L175.1 430.5L177.0 423.0L177.6 419.5L178.1 421.5L179.0 440.8L180.9 423.0L181.3 421.6L182.0 425.9L183.9 435.4L184.9 423.5L185.0 423.5L186.1 433.7L187.9 430.3L188.8 425.2L189.1 426.3L190.0 441.8L192.0 428.3L192.5 426.8L193.0 429.7L195.0 440.3L195.9 428.6L196.2 428.3L197.1 436.0L198.9 436.7L199.9 429.6L200.1 430.1L201.0 442.6L203.0 433.4L203.5 430.9L204.0 432.7L206.0 447.7L206.9 432.9L207.2 432.1L208.1 437.8L209.9 442.6L210.9 433.2L211.1 433.3L212.1 446.0L214.0 438.0L214.7 434.2L215.1 436.0L216.0 455.1L217.9 436.8L218.3 435.2L219.0 439.3L220.9 448.4L221.9 436.2L222.1 436.1L223.1 446.1L224.9 442.3L225.8 437.0L226.1 438.0L227.0 453.3L229.0 439.4L229.4 437.8L230.0 440.6L232.0 450.9L232.9 439.0L233.2 438.6L234.1 446.2L235.9 446.5L236.8 439.3L237.1 439.8L238.0 452.1L240.0 442.6L240.6 440.0L241.0 441.8L243.0 456.5L243.9 441.6L244.2 440.7L245.1 446.3L246.9 450.9L248.0 441.4L248.1 441.5L249.1 454.1L251.0 445.8L251.7 442.0L252.1 443.7L253.0 462.6L254.9 444.1L255.4 442.5L256.0 446.6L257.9 455.4L258.9 443.2L259.0 443.1L260.1 452.9L261.9 449.0L262.8 443.6L263.1 444.6L264.0 459.8L266.0 445.7L266.4 444.1L267.0 446.9L269.0 457.0L269.9 445.0L270.1 444.6L271.1 452.1L272.9 452.3L273.9 445.0L274.1 445.5L275.0 457.7L277.0 448.1L277.5 445.5L278.0 447.2L280.0 461.8L280.9 446.8L281.2 445.9L282.1 451.4L283.9 455.8L285.0 446.3L285.1 446.4L286.1 458.9L288.0 450.5L288.6 446.6L289.1 448.4L290.0 467.2L291.9 448.6L292.4 447.0L293.0 451.0L294.9 459.7L295.9 447.4L296.1 447.3L297.1 457.1L298.9 453.0L299.8 447.6L300.1 448.6L301.0 463.7L303.0 449.6L303.5 447.9L304.0 450.6L306.0 460.6L306.9 448.6L307.1 448.2L308.1 455.6L309.9 455.8L310.8 448.5L311.1 448.9L312.0 461.1L314.0 451.3L314.6 448.7L315.0 450.4L317.0 464.9L317.9 449.9L318.2 448.9L319.1 454.5L320.9 458.8L321.9 449.2L322.1 449.3L323.1 461.7L325.0 453.2L325.6 449.4L326.1 451.1L327.0 469.9L328.9 451.2L329.4 449.5L330.0 453.5L331.9 462.2L332.9 449.8L333.1 449.7L334.1 459.5L335.9 455.3L336.8 449.9L337.1 450.8L338.0 465.9L340.0 451.7L340.4 450.0L341.0 452.7L343.0 462.6L343.9 450.6L344.2 450.1L345.1 457.6L346.9 457.6L347.9 450.3L348.1 450.7L349.0 462.8L351.0 453.0L351.5 450.4L352.0 452.1L354.0 466.5L354.9 451.4L355.2 450.5L356.1 456.0L357.9 460.2L358.9 450.5L359.1 450.6L360.1 463.1L362.0 454.5L362.6 450.6L363.1 452.3L364.0 470.0L365.9 452.3L366.3 450.7L367.0 454.6L368.9 463.2L369.9 450.8L370.1 450.7L371.1 460.4L372.9 456.2L373.8 450.7L374.1 451.7L375.0 466.7L377.0 452.4L377.4 450.7L378.0 453.4L379.1 470.0L235 470L50 470Z" class="spk-sinyal" opacity=".2"/>
<path d="M-94.1 470.0L-93.0 453.4L-92.5 450.7L-92.0 452.4L-90.0 466.7L-89.1 451.7L-88.8 450.7L-87.9 456.2L-86.1 460.4L-85.0 450.7L-84.9 450.8L-83.9 463.2L-82.0 454.6L-81.3 450.7L-80.9 452.3L-79.0 470.0L-78.1 452.3L-77.6 450.6L-77.0 454.5L-75.1 463.1L-74.1 450.6L-74.0 450.5L-72.9 460.2L-71.1 456.0L-70.2 450.5L-69.9 451.4L-69.0 466.5L-67.0 452.1L-66.5 450.4L-66.0 453.0L-64.0 462.8L-63.1 450.7L-62.8 450.3L-61.9 457.6L-60.1 457.6L-59.1 450.1L-58.9 450.6L-58.0 462.6L-56.0 452.7L-55.4 450.0L-55.0 451.7L-53.0 465.9L-52.1 450.8L-51.8 449.9L-50.9 455.3L-49.1 459.5L-48.1 449.7L-47.9 449.8L-46.9 462.2L-45.0 453.5L-44.4 449.5L-43.9 451.2L-42.0 469.9L-41.1 451.1L-40.6 449.4L-40.0 453.2L-38.1 461.7L-37.1 449.3L-36.9 449.2L-35.9 458.8L-34.1 454.5L-33.2 448.9L-32.9 449.9L-32.0 464.9L-30.0 450.4L-29.5 448.7L-29.0 451.3L-27.0 461.1L-26.1 448.9L-25.8 448.5L-24.9 455.8L-23.1 455.6L-22.2 448.2L-21.9 448.6L-21.0 460.6L-19.0 450.6L-18.5 447.9L-18.0 449.6L-16.0 463.7L-15.1 448.6L-14.8 447.6L-13.9 453.0L-12.1 457.1L-11.1 447.3L-10.9 447.4L-9.9 459.7L-8.0 451.0L-7.4 447.0L-6.9 448.6L-5.0 467.2L-4.1 448.4L-3.6 446.6L-3.0 450.5L-1.1 458.9L0.0 446.3L1.1 455.8L2.9 451.4L3.8 445.9L4.1 446.8L5.0 461.8L7.0 447.2L7.4 445.5L8.0 448.1L10.0 457.7L10.9 445.5L11.1 445.0L12.1 452.3L13.9 452.1L14.9 444.6L15.1 445.0L16.0 457.0L18.0 446.9L18.5 444.1L19.0 445.7L21.0 459.8L21.9 444.6L22.2 443.6L23.1 449.0L24.9 452.9L25.9 443.1L26.1 443.2L27.1 455.4L29.0 446.6L29.6 442.5L30.1 444.1L32.0 462.6L32.9 443.7L33.4 442.0L34.0 445.8L35.9 454.1L36.9 441.5L37.0 441.4L38.1 450.9L39.9 446.3L40.8 440.7L41.1 441.6L42.0 456.5L44.0 441.8L44.5 440.0L45.0 442.6L47.0 452.1L47.9 439.8L48.1 439.3L49.1 446.5L50.9 446.2L51.9 438.6L52.1 439.0L53.0 450.9L55.0 440.6L55.5 437.8L56.0 439.4L58.0 453.3L58.9 438.0L59.2 437.0L60.1 442.3L61.9 446.1L63.0 436.1L63.1 436.2L64.1 448.4L66.0 439.3L66.7 435.2L67.1 436.8L69.0 455.1L69.9 436.0L70.3 434.2L71.0 438.0L72.9 446.0L73.9 433.3L74.0 433.2L75.1 442.6L76.9 437.8L77.8 432.1L78.1 432.9L79.0 447.7L81.0 432.7L81.5 430.9L82.0 433.4L84.0 442.6L84.9 430.1L85.2 429.6L86.1 436.7L87.9 436.0L88.8 428.3L89.1 428.6L90.0 440.3L92.0 429.7L92.6 426.8L93.0 428.3L95.0 441.8L95.9 426.3L96.2 425.2L97.1 430.3L98.9 433.7L100.0 423.5L100.1 423.5L101.1 435.4L103.0 425.9L103.7 421.6L104.1 423.0L106.0 440.8L106.9 421.5L107.3 419.5L108.0 423.0L109.9 430.5L110.9 417.4L111.1 417.2L112.1 426.2L113.9 420.6L114.8 414.6L115.1 415.2L116.0 429.6L118.0 413.6L118.5 411.5L119.0 413.7L121.0 421.7L121.9 408.7L122.3 408.0L123.1 414.4L124.9 412.3L126.0 403.7L126.1 403.9L127.0 414.7L129.0 402.0L129.7 398.3L130.0 399.3L132.0 410.0L132.9 393.0L133.4 391.1L134.1 394.8L135.9 393.7L136.9 380.4L137.2 379.9L138.1 387.9L140.0 367.7L141.0 353.5L141.9 348.2L142.5 347.4L143.1 348.2L144.0 353.5L145.0 367.7L146.9 387.9L147.8 379.9L148.1 380.4L149.1 393.7L150.9 394.8L151.6 391.1L152.1 393.0L153.0 410.0L155.0 399.3L155.3 398.3L156.0 402.0L158.0 414.7L158.9 403.9L159.0 403.7L160.1 412.3L161.9 414.4L162.7 408.0L163.1 408.7L164.0 421.7L166.0 413.7L166.6 411.5L167.0 413.6L169.0 429.6L169.9 415.2L170.2 414.6L171.1 420.6L172.9 426.2L173.9 417.2L174.1 417.4L175.1 430.5L177.0 423.0L177.6 419.5L178.1 421.5L179.0 440.8L180.9 423.0L181.3 421.6L182.0 425.9L183.9 435.4L184.9 423.5L185.0 423.5L186.1 433.7L187.9 430.3L188.8 425.2L189.1 426.3L190.0 441.8L192.0 428.3L192.5 426.8L193.0 429.7L195.0 440.3L195.9 428.6L196.2 428.3L197.1 436.0L198.9 436.7L199.9 429.6L200.1 430.1L201.0 442.6L203.0 433.4L203.5 430.9L204.0 432.7L206.0 447.7L206.9 432.9L207.2 432.1L208.1 437.8L209.9 442.6L210.9 433.2L211.1 433.3L212.1 446.0L214.0 438.0L214.7 434.2L215.1 436.0L216.0 455.1L217.9 436.8L218.3 435.2L219.0 439.3L220.9 448.4L221.9 436.2L222.1 436.1L223.1 446.1L224.9 442.3L225.8 437.0L226.1 438.0L227.0 453.3L229.0 439.4L229.4 437.8L230.0 440.6L232.0 450.9L232.9 439.0L233.2 438.6L234.1 446.2L235.9 446.5L236.8 439.3L237.1 439.8L238.0 452.1L240.0 442.6L240.6 440.0L241.0 441.8L243.0 456.5L243.9 441.6L244.2 440.7L245.1 446.3L246.9 450.9L248.0 441.4L248.1 441.5L249.1 454.1L251.0 445.8L251.7 442.0L252.1 443.7L253.0 462.6L254.9 444.1L255.4 442.5L256.0 446.6L257.9 455.4L258.9 443.2L259.0 443.1L260.1 452.9L261.9 449.0L262.8 443.6L263.1 444.6L264.0 459.8L266.0 445.7L266.4 444.1L267.0 446.9L269.0 457.0L269.9 445.0L270.1 444.6L271.1 452.1L272.9 452.3L273.9 445.0L274.1 445.5L275.0 457.7L277.0 448.1L277.5 445.5L278.0 447.2L280.0 461.8L280.9 446.8L281.2 445.9L282.1 451.4L283.9 455.8L285.0 446.3L285.1 446.4L286.1 458.9L288.0 450.5L288.6 446.6L289.1 448.4L290.0 467.2L291.9 448.6L292.4 447.0L293.0 451.0L294.9 459.7L295.9 447.4L296.1 447.3L297.1 457.1L298.9 453.0L299.8 447.6L300.1 448.6L301.0 463.7L303.0 449.6L303.5 447.9L304.0 450.6L306.0 460.6L306.9 448.6L307.1 448.2L308.1 455.6L309.9 455.8L310.8 448.5L311.1 448.9L312.0 461.1L314.0 451.3L314.6 448.7L315.0 450.4L317.0 464.9L317.9 449.9L318.2 448.9L319.1 454.5L320.9 458.8L321.9 449.2L322.1 449.3L323.1 461.7L325.0 453.2L325.6 449.4L326.1 451.1L327.0 469.9L328.9 451.2L329.4 449.5L330.0 453.5L331.9 462.2L332.9 449.8L333.1 449.7L334.1 459.5L335.9 455.3L336.8 449.9L337.1 450.8L338.0 465.9L340.0 451.7L340.4 450.0L341.0 452.7L343.0 462.6L343.9 450.6L344.2 450.1L345.1 457.6L346.9 457.6L347.9 450.3L348.1 450.7L349.0 462.8L351.0 453.0L351.5 450.4L352.0 452.1L354.0 466.5L354.9 451.4L355.2 450.5L356.1 456.0L357.9 460.2L358.9 450.5L359.1 450.6L360.1 463.1L362.0 454.5L362.6 450.6L363.1 452.3L364.0 470.0L365.9 452.3L366.3 450.7L367.0 454.6L368.9 463.2L369.9 450.8L370.1 450.7L371.1 460.4L372.9 456.2L373.8 450.7L374.1 451.7L375.0 466.7L377.0 452.4L377.4 450.7L378.0 453.4L379.1 470.0" fill="none" stroke="var(--accent)" stroke-width="1.2"/>
<rect x="51" y="341" width="183" height="15" fill="var(--dia-panel)" opacity=".85"/>
<text x="54" y="352" class="s-kucuk s-vurgu">BW ≈ 1/PW = 1 MHz</text>
<text x="142" y="496" text-anchor="middle" class="s-kucuk">f − f₀ (MHz) · dB</text>
<text x="12" y="405" class="s-kucuk" transform="rotate(-90 12 405)" text-anchor="middle">spektrum</text>
<text x="265" y="26" class="s-baslik">LFM chirp, B = 10 MHz</text>
<line x1="280.4" y1="40" x2="280.4" y2="150" class="izgara"/><text x="280.4" y="164" text-anchor="middle" class="s-mono2">0</text><line x1="357.5" y1="40" x2="357.5" y2="150" class="izgara"/><text x="357.5" y="164" text-anchor="middle" class="s-mono2">0.5</text><line x1="434.6" y1="40" x2="434.6" y2="150" class="izgara"/><text x="434.6" y="164" text-anchor="middle" class="s-mono2">1</text><line x1="265" y1="137.3" x2="450" y2="137.3" class="izgara"/><text x="259" y="141.3" text-anchor="end" class="s-mono2">-1</text><line x1="265" y1="95.0" x2="450" y2="95.0" class="izgara"/><text x="259" y="99.0" text-anchor="end" class="s-mono2">0</text><line x1="265" y1="52.7" x2="450" y2="52.7" class="izgara"/><text x="259" y="56.7" text-anchor="end" class="s-mono2">1</text><rect x="265" y="40" width="185" height="110" class="eksen"/>
<path d="M280.4 52.7L280.8 55.0L281.3 61.7L281.7 72.1L282.1 85.1L282.6 99.1L283.0 112.8L283.4 124.4L283.9 132.8L284.3 137.0L284.7 136.4L285.1 131.2L285.6 121.8L286.0 109.4L286.4 95.4L286.9 81.3L287.3 68.7L287.7 59.1L288.1 53.7L288.6 53.0L289.0 57.2L289.4 65.8L289.9 77.7L290.3 91.8L290.7 106.2L291.2 119.3L291.6 129.6L292.0 135.8L292.4 137.2L292.9 133.6L293.3 125.4L293.7 113.5L294.2 99.4L294.6 84.8L295.0 71.4L295.4 60.8L295.9 54.3L296.3 52.8L296.7 56.4L297.2 64.7L297.6 76.8L298.0 91.1L298.5 105.8L298.9 119.3L299.3 129.8L299.7 136.0L300.2 137.1L300.6 132.9L301.0 124.0L301.5 111.4L301.9 96.8L302.3 81.9L302.7 68.7L303.2 58.7L303.6 53.4L304.0 53.4L304.5 58.6L304.9 68.6L305.3 82.0L305.8 97.0L306.2 111.8L306.6 124.5L307.0 133.3L307.5 137.2L307.9 135.5L308.3 128.6L308.8 117.2L309.2 102.9L309.6 87.5L310.0 73.1L310.5 61.6L310.9 54.5L311.3 52.8L311.8 56.7L312.2 65.8L312.6 78.8L313.1 94.0L313.5 109.4L313.9 122.8L314.3 132.5L314.8 137.0L315.2 135.9L315.6 129.1L316.1 117.7L316.5 103.1L316.9 87.4L317.3 72.7L317.8 61.1L318.2 54.2L318.6 53.0L319.1 57.6L319.5 67.5L319.9 81.3L320.4 97.0L320.8 112.5L321.2 125.5L321.6 134.2L322.1 137.3L322.5 134.4L322.9 125.9L323.4 112.9L323.8 97.3L324.2 81.4L324.6 67.5L325.1 57.5L325.5 52.9L325.9 54.4L326.4 61.9L326.8 74.2L327.2 89.6L327.7 105.8L328.1 120.4L328.5 131.3L328.9 136.8L329.4 136.1L329.8 129.3L330.2 117.4L330.7 102.1L331.1 85.7L331.5 70.7L331.9 59.3L332.4 53.3L332.8 53.7L333.2 60.3L333.7 72.1L334.1 87.5L334.5 104.1L335.0 119.3L335.4 130.7L335.8 136.7L336.2 136.2L336.7 129.4L337.1 117.2L337.5 101.6L338.0 84.9L338.4 69.7L338.8 58.5L339.2 53.1L339.7 54.2L340.1 61.8L340.5 74.6L341.0 90.7L341.4 107.5L341.8 122.3L342.3 132.8L342.7 137.2L343.1 134.9L343.5 126.2L344.0 112.4L344.4 95.8L344.8 79.0L345.3 64.9L345.7 55.6L346.1 52.7L346.5 56.8L347.0 67.1L347.4 82.0L347.8 99.1L348.3 115.5L348.7 128.6L349.1 136.1L349.6 136.7L350.0 130.4L350.4 118.2L350.8 102.1L351.3 84.8L351.7 69.2L352.1 57.9L352.6 52.8L353.0 55.0L353.4 63.9L353.8 78.1L354.3 95.2L354.7 112.3L355.1 126.5L355.6 135.2L356.0 137.1L356.4 131.7L356.9 119.9L357.3 103.8L357.7 86.2L358.1 70.1L358.6 58.3L359.0 52.9L359.4 54.9L359.9 64.0L360.3 78.5L360.7 96.0L361.2 113.3L361.6 127.4L362.0 135.7L362.4 136.8L362.9 130.5L363.3 117.8L363.7 101.0L364.2 83.1L364.6 67.3L365.0 56.5L365.4 52.7L365.9 56.5L366.3 67.4L366.7 83.3L367.2 101.3L367.6 118.2L368.0 130.9L368.5 137.0L368.9 135.3L369.3 126.2L369.7 111.4L370.2 93.4L370.6 75.8L371.0 61.7L371.5 53.8L371.9 53.6L372.3 61.2L372.7 75.1L373.2 92.8L373.6 110.9L374.0 126.1L374.5 135.3L374.9 136.9L375.3 130.6L375.8 117.4L376.2 99.9L376.6 81.5L377.0 65.6L377.5 55.4L377.9 52.8L378.3 58.4L378.8 71.1L379.2 88.4L379.6 107.0L380.0 123.3L380.5 134.1L380.9 137.2L381.3 132.1L381.8 119.7L382.2 102.3L382.6 83.5L383.1 67.0L383.5 56.0L383.9 52.7L384.3 57.9L384.8 70.5L385.2 88.0L385.6 106.9L386.1 123.4L386.5 134.3L386.9 137.2L387.3 131.6L387.8 118.6L388.2 100.8L388.6 81.7L389.1 65.4L389.5 55.1L389.9 53.0L390.4 59.5L390.8 73.3L391.2 91.5L391.6 110.6L392.1 126.4L392.5 135.7L392.9 136.6L393.4 128.8L393.8 114.0L394.2 95.1L394.6 76.3L395.1 61.3L395.5 53.4L395.9 54.3L396.4 63.8L396.8 79.9L397.2 99.2L397.7 117.6L398.1 131.3L398.5 137.2L398.9 134.1L399.4 122.6L399.8 105.2L400.2 85.5L400.7 67.9L401.1 56.2L401.5 52.8L401.9 58.6L402.4 72.3L402.8 90.9L403.2 110.5L403.7 126.7L404.1 136.0L404.5 136.3L405.0 127.4L405.4 111.5L405.8 91.8L406.2 72.9L406.7 58.8L407.1 52.8L407.5 56.2L408.0 68.2L408.4 86.2L408.8 106.3L409.2 123.8L409.7 134.8L410.1 136.9L410.5 129.5L411.0 114.3L411.4 94.7L411.8 75.2L412.3 60.1L412.7 53.0L413.1 55.5L413.5 67.0L414.0 85.0L414.4 105.3L414.8 123.2L415.3 134.7L415.7 136.9L416.1 129.5L416.5 114.0L417.0 94.1L417.4 74.4L417.8 59.5L418.3 52.8L418.7 56.1L419.1 68.5L419.6 87.1L420.0 107.7L420.4 125.2L420.8 135.6L421.3 136.4L421.7 127.3L422.1 110.6L422.6 90.1L423.0 70.7L423.4 57.2L423.8 52.7L424.3 58.4L424.7 72.9L425.1 92.8L425.6 113.2L426.0 129.2L426.4 136.9L426.9 134.5L427.3 122.4L427.7 103.6L428.1 82.7L428.6 64.8L429.0 54.3L429.4 53.8L429.9 63.5L430.3 80.9L430.7 101.9L431.1 121.2L431.6 134.0L432.0 137.1L432.4 129.7L432.9 113.6L433.3 92.9L433.7 72.6L434.2 58.0L434.6 52.7" fill="none" stroke="var(--accent)" stroke-width=".9"/>
<path d="M265.0 95.0H280.4V52.7H434.6V95.0H450.0" fill="none" stroke="var(--gold)" stroke-width="1.4" stroke-dasharray="4 3"/>
<line x1="280.4" y1="190" x2="280.4" y2="300" class="izgara"/><text x="280.4" y="314" text-anchor="middle" class="s-mono2">0</text><line x1="357.5" y1="190" x2="357.5" y2="300" class="izgara"/><text x="357.5" y="314" text-anchor="middle" class="s-mono2">0.5</text><line x1="434.6" y1="190" x2="434.6" y2="300" class="izgara"/><text x="434.6" y="314" text-anchor="middle" class="s-mono2">1</text><line x1="265" y1="286.2" x2="450" y2="286.2" class="izgara"/><text x="259" y="290.2" text-anchor="end" class="s-mono2">-15</text><line x1="265" y1="245.0" x2="450" y2="245.0" class="izgara"/><text x="259" y="249.0" text-anchor="end" class="s-mono2">+0</text><line x1="265" y1="203.8" x2="450" y2="203.8" class="izgara"/><text x="259" y="207.8" text-anchor="end" class="s-mono2">+15</text><rect x="265" y="190" width="185" height="110" class="eksen"/>
<path d="M280.4 258.8L280.8 258.7L281.3 258.6L281.7 258.5L282.1 258.4L282.6 258.4L283.0 258.3L283.4 258.2L283.9 258.1L284.3 258.1L284.7 258.0L285.1 257.9L285.6 257.8L286.0 257.8L286.4 257.7L286.9 257.6L287.3 257.5L287.7 257.4L288.1 257.4L288.6 257.3L289.0 257.2L289.4 257.1L289.9 257.1L290.3 257.0L290.7 256.9L291.2 256.8L291.6 256.8L292.0 256.7L292.4 256.6L292.9 256.5L293.3 256.5L293.7 256.4L294.2 256.3L294.6 256.2L295.0 256.1L295.4 256.1L295.9 256.0L296.3 255.9L296.7 255.8L297.2 255.8L297.6 255.7L298.0 255.6L298.5 255.5L298.9 255.5L299.3 255.4L299.7 255.3L300.2 255.2L300.6 255.1L301.0 255.1L301.5 255.0L301.9 254.9L302.3 254.8L302.7 254.8L303.2 254.7L303.6 254.6L304.0 254.5L304.5 254.5L304.9 254.4L305.3 254.3L305.8 254.2L306.2 254.2L306.6 254.1L307.0 254.0L307.5 253.9L307.9 253.8L308.3 253.8L308.8 253.7L309.2 253.6L309.6 253.5L310.0 253.5L310.5 253.4L310.9 253.3L311.3 253.2L311.8 253.2L312.2 253.1L312.6 253.0L313.1 252.9L313.5 252.9L313.9 252.8L314.3 252.7L314.8 252.6L315.2 252.5L315.6 252.5L316.1 252.4L316.5 252.3L316.9 252.2L317.3 252.2L317.8 252.1L318.2 252.0L318.6 251.9L319.1 251.9L319.5 251.8L319.9 251.7L320.4 251.6L320.8 251.5L321.2 251.5L321.6 251.4L322.1 251.3L322.5 251.2L322.9 251.2L323.4 251.1L323.8 251.0L324.2 250.9L324.6 250.9L325.1 250.8L325.5 250.7L325.9 250.6L326.4 250.6L326.8 250.5L327.2 250.4L327.7 250.3L328.1 250.2L328.5 250.2L328.9 250.1L329.4 250.0L329.8 249.9L330.2 249.9L330.7 249.8L331.1 249.7L331.5 249.6L331.9 249.6L332.4 249.5L332.8 249.4L333.2 249.3L333.7 249.3L334.1 249.2L334.5 249.1L335.0 249.0L335.4 248.9L335.8 248.9L336.2 248.8L336.7 248.7L337.1 248.6L337.5 248.6L338.0 248.5L338.4 248.4L338.8 248.3L339.2 248.3L339.7 248.2L340.1 248.1L340.5 248.0L341.0 247.9L341.4 247.9L341.8 247.8L342.3 247.7L342.7 247.6L343.1 247.6L343.5 247.5L344.0 247.4L344.4 247.3L344.8 247.3L345.3 247.2L345.7 247.1L346.1 247.0L346.5 247.0L347.0 246.9L347.4 246.8L347.8 246.7L348.3 246.6L348.7 246.6L349.1 246.5L349.6 246.4L350.0 246.3L350.4 246.3L350.8 246.2L351.3 246.1L351.7 246.0L352.1 246.0L352.6 245.9L353.0 245.8L353.4 245.7L353.8 245.7L354.3 245.6L354.7 245.5L355.1 245.4L355.6 245.3L356.0 245.3L356.4 245.2L356.9 245.1L357.3 245.0L357.7 245.0L358.1 244.9L358.6 244.8L359.0 244.7L359.4 244.7L359.9 244.6L360.3 244.5L360.7 244.4L361.2 244.3L361.6 244.3L362.0 244.2L362.4 244.1L362.9 244.0L363.3 244.0L363.7 243.9L364.2 243.8L364.6 243.7L365.0 243.7L365.4 243.6L365.9 243.5L366.3 243.4L366.7 243.4L367.2 243.3L367.6 243.2L368.0 243.1L368.5 243.0L368.9 243.0L369.3 242.9L369.7 242.8L370.2 242.7L370.6 242.7L371.0 242.6L371.5 242.5L371.9 242.4L372.3 242.4L372.7 242.3L373.2 242.2L373.6 242.1L374.0 242.1L374.5 242.0L374.9 241.9L375.3 241.8L375.8 241.7L376.2 241.7L376.6 241.6L377.0 241.5L377.5 241.4L377.9 241.4L378.3 241.3L378.8 241.2L379.2 241.1L379.6 241.1L380.0 241.0L380.5 240.9L380.9 240.8L381.3 240.7L381.8 240.7L382.2 240.6L382.6 240.5L383.1 240.4L383.5 240.4L383.9 240.3L384.3 240.2L384.8 240.1L385.2 240.1L385.6 240.0L386.1 239.9L386.5 239.8L386.9 239.8L387.3 239.7L387.8 239.6L388.2 239.5L388.6 239.4L389.1 239.4L389.5 239.3L389.9 239.2L390.4 239.1L390.8 239.1L391.2 239.0L391.6 238.9L392.1 238.8L392.5 238.8L392.9 238.7L393.4 238.6L393.8 238.5L394.2 238.5L394.6 238.4L395.1 238.3L395.5 238.2L395.9 238.1L396.4 238.1L396.8 238.0L397.2 237.9L397.7 237.8L398.1 237.8L398.5 237.7L398.9 237.6L399.4 237.5L399.8 237.5L400.2 237.4L400.7 237.3L401.1 237.2L401.5 237.1L401.9 237.1L402.4 237.0L402.8 236.9L403.2 236.8L403.7 236.8L404.1 236.7L404.5 236.6L405.0 236.5L405.4 236.5L405.8 236.4L406.2 236.3L406.7 236.2L407.1 236.2L407.5 236.1L408.0 236.0L408.4 235.9L408.8 235.8L409.2 235.8L409.7 235.7L410.1 235.6L410.5 235.5L411.0 235.5L411.4 235.4L411.8 235.3L412.3 235.2L412.7 235.2L413.1 235.1L413.5 235.0L414.0 234.9L414.4 234.9L414.8 234.8L415.3 234.7L415.7 234.6L416.1 234.5L416.5 234.5L417.0 234.4L417.4 234.3L417.8 234.2L418.3 234.2L418.7 234.1L419.1 234.0L419.6 233.9L420.0 233.9L420.4 233.8L420.8 233.7L421.3 233.6L421.7 233.5L422.1 233.5L422.6 233.4L423.0 233.3L423.4 233.2L423.8 233.2L424.3 233.1L424.7 233.0L425.1 232.9L425.6 232.9L426.0 232.8L426.4 232.7L426.9 232.6L427.3 232.6L427.7 232.5L428.1 232.4L428.6 232.3L429.0 232.2L429.4 232.2L429.9 232.1L430.3 232.0L430.7 231.9L431.1 231.9L431.6 231.8L432.0 231.7L432.4 231.6L432.9 231.6L433.3 231.5L433.7 231.4L434.2 231.3L434.6 231.2" fill="none" stroke="var(--green)" stroke-width="2"/>
<text x="269" y="202" class="s-kucuk">anlık frekans (MHz)</text>
<line x1="283.5" y1="340" x2="283.5" y2="470" class="izgara"/><text x="283.5" y="484" text-anchor="middle" class="s-mono2">-20</text><line x1="320.5" y1="340" x2="320.5" y2="470" class="izgara"/><text x="320.5" y="484" text-anchor="middle" class="s-mono2">-10</text><line x1="357.5" y1="340" x2="357.5" y2="470" class="izgara"/><text x="357.5" y="484" text-anchor="middle" class="s-mono2">0</text><line x1="394.5" y1="340" x2="394.5" y2="470" class="izgara"/><text x="394.5" y="484" text-anchor="middle" class="s-mono2">10</text><line x1="431.5" y1="340" x2="431.5" y2="470" class="izgara"/><text x="431.5" y="484" text-anchor="middle" class="s-mono2">20</text><line x1="265" y1="347.4" x2="450" y2="347.4" class="izgara"/><text x="259" y="351.4" text-anchor="end" class="s-mono2">0</text><line x1="265" y1="396.4" x2="450" y2="396.4" class="izgara"/><text x="259" y="400.4" text-anchor="end" class="s-mono2">-20</text><line x1="265" y1="445.5" x2="450" y2="445.5" class="izgara"/><text x="259" y="449.5" text-anchor="end" class="s-mono2">-40</text><rect x="265" y="340" width="185" height="130" class="eksen"/>
<path d="M120.9 455.0L122.0 431.7L122.4 430.3L123.0 433.2L125.0 442.0L125.9 430.6L126.1 430.3L127.1 438.2L128.9 437.1L129.8 430.2L130.1 430.7L131.1 447.2L133.0 432.6L133.5 430.2L134.1 433.1L136.0 445.2L136.9 430.9L137.2 430.1L138.0 436.0L139.9 439.2L140.9 430.1L141.1 430.2L142.1 443.4L143.9 433.6L144.6 430.0L145.1 431.9L146.9 449.2L148.0 430.7L148.3 429.9L149.0 434.2L151.0 438.9L151.9 429.8L152.0 429.8L153.1 440.1L154.9 434.8L155.7 429.7L156.1 430.8L157.0 446.6L159.0 431.0L159.4 429.5L160.0 432.5L162.0 441.2L162.9 429.7L163.1 429.4L164.1 437.2L165.9 436.1L166.8 429.2L167.1 429.7L168.1 446.1L170.0 431.5L170.5 429.0L171.1 432.0L173.0 443.9L173.9 429.6L174.2 428.9L175.0 434.7L176.9 437.7L177.9 428.6L178.1 428.8L179.1 441.8L180.9 432.0L181.6 428.4L182.1 430.3L183.9 447.3L185.0 429.0L185.3 428.2L186.0 432.4L188.0 437.0L188.9 428.0L189.0 427.9L190.1 438.1L191.9 432.7L192.7 427.6L193.1 428.7L194.0 444.4L196.0 428.9L196.4 427.4L197.0 430.2L199.0 438.8L199.9 427.4L200.1 427.0L201.1 434.8L202.9 433.6L203.8 426.7L204.1 427.2L205.1 443.4L207.0 428.8L207.5 426.4L208.1 429.3L210.0 441.0L210.9 426.8L211.2 426.0L212.0 431.8L213.9 434.7L214.9 425.6L215.1 425.8L216.1 438.6L217.9 428.8L218.6 425.2L219.1 427.0L220.9 443.7L222.0 425.6L222.3 424.8L223.0 428.9L225.0 433.4L225.9 424.4L226.0 424.3L227.1 434.3L228.9 429.0L229.7 423.9L230.1 424.9L231.0 440.2L233.0 424.9L233.4 423.4L234.0 426.2L236.0 434.5L236.9 423.2L237.1 422.8L238.1 430.4L239.9 429.1L240.8 422.3L241.1 422.8L242.1 438.4L244.0 424.1L244.5 421.7L245.1 424.5L247.0 435.8L247.9 421.9L248.2 421.1L249.0 426.7L250.9 429.4L251.9 420.4L252.1 420.6L253.1 432.9L254.9 423.4L255.6 419.7L256.1 421.5L257.9 437.3L259.0 419.8L259.3 419.0L260.0 423.0L262.0 427.2L262.9 418.3L263.0 418.2L264.1 427.8L265.9 422.5L266.7 417.4L267.1 418.4L268.0 432.8L270.0 418.1L270.4 416.6L271.0 419.2L273.0 426.9L273.9 416.0L274.1 415.7L275.1 422.8L276.9 421.4L277.8 414.7L278.1 415.1L279.1 429.5L281.0 416.1L281.5 413.6L282.1 416.2L284.0 426.4L284.9 413.4L285.2 412.5L286.0 417.7L287.9 419.9L288.9 411.3L289.1 411.4L290.1 422.5L291.9 413.6L292.6 410.0L293.1 411.6L294.9 424.9L296.0 409.5L296.3 408.6L297.0 412.1L299.0 415.4L299.9 407.1L300.0 407.0L301.1 415.2L302.9 410.2L303.7 405.3L304.1 406.1L305.0 417.5L307.0 405.0L307.4 403.4L308.0 405.5L310.0 411.2L310.9 401.7L311.1 401.3L312.1 406.7L313.9 405.0L314.8 398.8L315.1 399.0L316.1 408.6L318.0 398.5L318.6 395.9L319.1 397.5L321.0 403.2L321.9 393.6L322.4 392.5L323.0 395.2L324.9 395.6L325.9 388.4L326.1 388.3L327.1 392.8L328.9 386.9L329.9 382.9L330.1 383.0L331.9 386.3L333.0 378.2L333.8 375.9L334.0 376.1L336.0 375.2L336.9 369.4L337.8 367.2L338.1 367.3L339.9 364.8L341.0 359.6L341.9 357.6L342.9 357.4L344.0 355.1L344.9 351.6L345.9 349.5L346.3 349.4L347.1 349.8L348.9 348.3L350.0 347.4L350.1 347.4L351.0 348.7L352.1 352.1L353.1 355.1L355.0 353.5L356.0 350.6L356.9 348.9L357.4 348.8L358.1 349.3L359.0 351.3L360.0 354.2L361.9 354.5L362.9 351.1L364.0 348.1L364.8 347.4L365.0 347.4L366.1 348.8L367.9 349.6L368.5 349.4L369.1 349.8L370.1 352.6L371.0 356.0L372.4 357.4L373.1 357.9L374.0 360.8L375.1 366.2L376.8 367.2L377.0 367.3L378.1 370.9L379.0 377.0L380.9 376.0L381.1 376.0L382.0 380.1L384.0 385.4L384.8 382.9L385.0 383.0L386.1 389.6L387.9 390.6L388.6 388.2L389.1 389.3L390.1 399.2L392.0 393.5L392.4 392.5L393.1 395.6L395.0 403.8L395.9 396.2L396.1 395.9L397.0 401.3L398.9 404.5L399.8 398.8L400.0 399.1L401.1 409.5L402.9 403.7L403.5 401.3L404.1 403.3L405.9 416.1L407.0 403.9L407.2 403.4L408.0 407.6L410.0 412.2L410.9 405.3L411.0 405.4L412.1 414.6L413.9 411.1L414.6 407.0L415.1 408.2L416.0 421.5L418.0 409.7L418.3 408.6L419.0 411.6L421.0 419.7L421.9 410.2L422.0 410.0L423.1 417.5L424.9 417.2L425.8 411.3L426.1 411.9L427.1 426.6L429.0 414.6L429.5 412.5L430.1 415.5L432.0 426.7L432.9 414.3L433.2 413.6L434.0 419.5L435.9 422.8L436.9 414.7L437.1 414.9L438.1 427.3L439.9 418.9L440.6 415.7L441.1 417.6L442.9 433.6L444.0 417.2L444.3 416.6L445.0 420.9L447.0 425.8L447.9 417.5L448.0 417.4L449.1 427.5L450.9 422.9L451.7 418.3L452.1 419.4L453.0 434.5L455.0 420.4L455.4 419.0L456.0 422.0L458.0 430.7L458.9 420.0L459.1 419.8L460.1 427.6L461.9 426.9L462.8 420.4L463.1 421.0L464.1 436.9L466.0 423.3L466.5 421.1L467.1 424.1L469.0 436.0L469.9 422.4L470.2 421.7L471.0 427.6L472.9 430.9L473.9 422.3L474.0 422.5L475.1 435.4L476.9 426.3L477.6 422.8L478.1 424.8L479.9 441.7L481.0 424.1L481.3 423.4L482.0 427.7L484.0 432.6L484.9 423.9L485.0 423.9L486.1 434.2L487.9 429.2L488.7 424.3L489.1 425.5L490.0 441.1L492.0 426.2L492.4 424.8L493.0 427.8L495.0 436.6L495.9 425.5L496.1 425.2L497.1 433.1L498.9 432.3L499.8 425.6L500.1 426.2L501.1 442.5L503.0 428.3L503.5 426.0L504.1 429.0L506.0 441.1L506.9 427.1L507.2 426.4L508.0 432.3L509.9 435.6L510.9 426.7L511.1 426.9L512.1 440.0L513.9 430.6L514.6 427.1L515.1 429.0L516.9 446.2L518.0 428.1L518.3 427.4L519.0 431.7L521.0 436.6L521.9 427.7L522.0 427.7L523.1 438.0L524.9 432.9L525.7 427.9L526.1 429.0L527.0 444.9L529.0 429.6L529.4 428.2L530.0 431.2L532.0 440.0L532.9 428.7L533.1 428.4L534.1 436.4L535.9 435.4L536.8 428.6L537.1 429.2L538.1 445.7L540.0 431.2L540.5 428.9L541.1 431.8L543.0 444.0L543.9 429.8L544.2 429.0L545.0 435.0L546.9 438.2L547.9 429.2L548.0 429.4L549.1 442.6L550.9 432.9L551.6 429.4L552.1 431.3L553.9 448.7L555.0 430.3L555.3 429.5L556.0 433.8L558.0 438.7L558.9 429.7L559.0 429.7L560.1 440.0L561.9 434.8L562.7 429.8L563.1 430.9L564.0 446.8L566.0 431.4L566.4 429.9L567.0 432.9L569.0 441.7L569.9 430.3L570.1 430.0L571.1 437.9L572.9 436.9L573.8 430.1L574.1 430.6L575.1 447.1L577.0 432.5L577.5 430.1L578.1 433.1L580.0 445.2L580.9 431.0L581.2 430.2L582.0 436.1L583.9 439.3L584.9 430.2L585.0 430.4L586.1 443.6L587.9 433.8L588.6 430.3L589.1 432.2L590.9 449.5L592.0 431.1L592.3 430.3L593.0 434.6L594.1 470.0L450 470L265 470Z" class="spk-sinyal" opacity=".2"/>
<path d="M120.9 455.0L122.0 431.7L122.4 430.3L123.0 433.2L125.0 442.0L125.9 430.6L126.1 430.3L127.1 438.2L128.9 437.1L129.8 430.2L130.1 430.7L131.1 447.2L133.0 432.6L133.5 430.2L134.1 433.1L136.0 445.2L136.9 430.9L137.2 430.1L138.0 436.0L139.9 439.2L140.9 430.1L141.1 430.2L142.1 443.4L143.9 433.6L144.6 430.0L145.1 431.9L146.9 449.2L148.0 430.7L148.3 429.9L149.0 434.2L151.0 438.9L151.9 429.8L152.0 429.8L153.1 440.1L154.9 434.8L155.7 429.7L156.1 430.8L157.0 446.6L159.0 431.0L159.4 429.5L160.0 432.5L162.0 441.2L162.9 429.7L163.1 429.4L164.1 437.2L165.9 436.1L166.8 429.2L167.1 429.7L168.1 446.1L170.0 431.5L170.5 429.0L171.1 432.0L173.0 443.9L173.9 429.6L174.2 428.9L175.0 434.7L176.9 437.7L177.9 428.6L178.1 428.8L179.1 441.8L180.9 432.0L181.6 428.4L182.1 430.3L183.9 447.3L185.0 429.0L185.3 428.2L186.0 432.4L188.0 437.0L188.9 428.0L189.0 427.9L190.1 438.1L191.9 432.7L192.7 427.6L193.1 428.7L194.0 444.4L196.0 428.9L196.4 427.4L197.0 430.2L199.0 438.8L199.9 427.4L200.1 427.0L201.1 434.8L202.9 433.6L203.8 426.7L204.1 427.2L205.1 443.4L207.0 428.8L207.5 426.4L208.1 429.3L210.0 441.0L210.9 426.8L211.2 426.0L212.0 431.8L213.9 434.7L214.9 425.6L215.1 425.8L216.1 438.6L217.9 428.8L218.6 425.2L219.1 427.0L220.9 443.7L222.0 425.6L222.3 424.8L223.0 428.9L225.0 433.4L225.9 424.4L226.0 424.3L227.1 434.3L228.9 429.0L229.7 423.9L230.1 424.9L231.0 440.2L233.0 424.9L233.4 423.4L234.0 426.2L236.0 434.5L236.9 423.2L237.1 422.8L238.1 430.4L239.9 429.1L240.8 422.3L241.1 422.8L242.1 438.4L244.0 424.1L244.5 421.7L245.1 424.5L247.0 435.8L247.9 421.9L248.2 421.1L249.0 426.7L250.9 429.4L251.9 420.4L252.1 420.6L253.1 432.9L254.9 423.4L255.6 419.7L256.1 421.5L257.9 437.3L259.0 419.8L259.3 419.0L260.0 423.0L262.0 427.2L262.9 418.3L263.0 418.2L264.1 427.8L265.9 422.5L266.7 417.4L267.1 418.4L268.0 432.8L270.0 418.1L270.4 416.6L271.0 419.2L273.0 426.9L273.9 416.0L274.1 415.7L275.1 422.8L276.9 421.4L277.8 414.7L278.1 415.1L279.1 429.5L281.0 416.1L281.5 413.6L282.1 416.2L284.0 426.4L284.9 413.4L285.2 412.5L286.0 417.7L287.9 419.9L288.9 411.3L289.1 411.4L290.1 422.5L291.9 413.6L292.6 410.0L293.1 411.6L294.9 424.9L296.0 409.5L296.3 408.6L297.0 412.1L299.0 415.4L299.9 407.1L300.0 407.0L301.1 415.2L302.9 410.2L303.7 405.3L304.1 406.1L305.0 417.5L307.0 405.0L307.4 403.4L308.0 405.5L310.0 411.2L310.9 401.7L311.1 401.3L312.1 406.7L313.9 405.0L314.8 398.8L315.1 399.0L316.1 408.6L318.0 398.5L318.6 395.9L319.1 397.5L321.0 403.2L321.9 393.6L322.4 392.5L323.0 395.2L324.9 395.6L325.9 388.4L326.1 388.3L327.1 392.8L328.9 386.9L329.9 382.9L330.1 383.0L331.9 386.3L333.0 378.2L333.8 375.9L334.0 376.1L336.0 375.2L336.9 369.4L337.8 367.2L338.1 367.3L339.9 364.8L341.0 359.6L341.9 357.6L342.9 357.4L344.0 355.1L344.9 351.6L345.9 349.5L346.3 349.4L347.1 349.8L348.9 348.3L350.0 347.4L350.1 347.4L351.0 348.7L352.1 352.1L353.1 355.1L355.0 353.5L356.0 350.6L356.9 348.9L357.4 348.8L358.1 349.3L359.0 351.3L360.0 354.2L361.9 354.5L362.9 351.1L364.0 348.1L364.8 347.4L365.0 347.4L366.1 348.8L367.9 349.6L368.5 349.4L369.1 349.8L370.1 352.6L371.0 356.0L372.4 357.4L373.1 357.9L374.0 360.8L375.1 366.2L376.8 367.2L377.0 367.3L378.1 370.9L379.0 377.0L380.9 376.0L381.1 376.0L382.0 380.1L384.0 385.4L384.8 382.9L385.0 383.0L386.1 389.6L387.9 390.6L388.6 388.2L389.1 389.3L390.1 399.2L392.0 393.5L392.4 392.5L393.1 395.6L395.0 403.8L395.9 396.2L396.1 395.9L397.0 401.3L398.9 404.5L399.8 398.8L400.0 399.1L401.1 409.5L402.9 403.7L403.5 401.3L404.1 403.3L405.9 416.1L407.0 403.9L407.2 403.4L408.0 407.6L410.0 412.2L410.9 405.3L411.0 405.4L412.1 414.6L413.9 411.1L414.6 407.0L415.1 408.2L416.0 421.5L418.0 409.7L418.3 408.6L419.0 411.6L421.0 419.7L421.9 410.2L422.0 410.0L423.1 417.5L424.9 417.2L425.8 411.3L426.1 411.9L427.1 426.6L429.0 414.6L429.5 412.5L430.1 415.5L432.0 426.7L432.9 414.3L433.2 413.6L434.0 419.5L435.9 422.8L436.9 414.7L437.1 414.9L438.1 427.3L439.9 418.9L440.6 415.7L441.1 417.6L442.9 433.6L444.0 417.2L444.3 416.6L445.0 420.9L447.0 425.8L447.9 417.5L448.0 417.4L449.1 427.5L450.9 422.9L451.7 418.3L452.1 419.4L453.0 434.5L455.0 420.4L455.4 419.0L456.0 422.0L458.0 430.7L458.9 420.0L459.1 419.8L460.1 427.6L461.9 426.9L462.8 420.4L463.1 421.0L464.1 436.9L466.0 423.3L466.5 421.1L467.1 424.1L469.0 436.0L469.9 422.4L470.2 421.7L471.0 427.6L472.9 430.9L473.9 422.3L474.0 422.5L475.1 435.4L476.9 426.3L477.6 422.8L478.1 424.8L479.9 441.7L481.0 424.1L481.3 423.4L482.0 427.7L484.0 432.6L484.9 423.9L485.0 423.9L486.1 434.2L487.9 429.2L488.7 424.3L489.1 425.5L490.0 441.1L492.0 426.2L492.4 424.8L493.0 427.8L495.0 436.6L495.9 425.5L496.1 425.2L497.1 433.1L498.9 432.3L499.8 425.6L500.1 426.2L501.1 442.5L503.0 428.3L503.5 426.0L504.1 429.0L506.0 441.1L506.9 427.1L507.2 426.4L508.0 432.3L509.9 435.6L510.9 426.7L511.1 426.9L512.1 440.0L513.9 430.6L514.6 427.1L515.1 429.0L516.9 446.2L518.0 428.1L518.3 427.4L519.0 431.7L521.0 436.6L521.9 427.7L522.0 427.7L523.1 438.0L524.9 432.9L525.7 427.9L526.1 429.0L527.0 444.9L529.0 429.6L529.4 428.2L530.0 431.2L532.0 440.0L532.9 428.7L533.1 428.4L534.1 436.4L535.9 435.4L536.8 428.6L537.1 429.2L538.1 445.7L540.0 431.2L540.5 428.9L541.1 431.8L543.0 444.0L543.9 429.8L544.2 429.0L545.0 435.0L546.9 438.2L547.9 429.2L548.0 429.4L549.1 442.6L550.9 432.9L551.6 429.4L552.1 431.3L553.9 448.7L555.0 430.3L555.3 429.5L556.0 433.8L558.0 438.7L558.9 429.7L559.0 429.7L560.1 440.0L561.9 434.8L562.7 429.8L563.1 430.9L564.0 446.8L566.0 431.4L566.4 429.9L567.0 432.9L569.0 441.7L569.9 430.3L570.1 430.0L571.1 437.9L572.9 436.9L573.8 430.1L574.1 430.6L575.1 447.1L577.0 432.5L577.5 430.1L578.1 433.1L580.0 445.2L580.9 431.0L581.2 430.2L582.0 436.1L583.9 439.3L584.9 430.2L585.0 430.4L586.1 443.6L587.9 433.8L588.6 430.3L589.1 432.2L590.9 449.5L592.0 431.1L592.3 430.3L593.0 434.6L594.1 470.0" fill="none" stroke="var(--accent)" stroke-width="1.2"/>
<rect x="266" y="341" width="183" height="15" fill="var(--dia-panel)" opacity=".85"/>
<text x="269" y="352" class="s-kucuk s-vurgu">BW ≈ B = 10 MHz</text>
<text x="358" y="496" text-anchor="middle" class="s-kucuk">f − f₀ (MHz) · dB</text>
<text x="480" y="26" class="s-baslik">Barker-13 faz kodu</text>
<line x1="495.4" y1="40" x2="495.4" y2="150" class="izgara"/><text x="495.4" y="164" text-anchor="middle" class="s-mono2">0</text><line x1="572.5" y1="40" x2="572.5" y2="150" class="izgara"/><text x="572.5" y="164" text-anchor="middle" class="s-mono2">0.5</text><line x1="649.6" y1="40" x2="649.6" y2="150" class="izgara"/><text x="649.6" y="164" text-anchor="middle" class="s-mono2">1</text><line x1="480" y1="137.3" x2="665" y2="137.3" class="izgara"/><text x="474" y="141.3" text-anchor="end" class="s-mono2">-1</text><line x1="480" y1="95.0" x2="665" y2="95.0" class="izgara"/><text x="474" y="99.0" text-anchor="end" class="s-mono2">0</text><line x1="480" y1="52.7" x2="665" y2="52.7" class="izgara"/><text x="474" y="56.7" text-anchor="end" class="s-mono2">1</text><rect x="480" y="40" width="185" height="110" class="eksen"/>
<path d="M495.4 52.7L495.8 56.4L496.3 66.8L496.7 82.1L497.1 99.6L497.6 116.4L498.0 129.4L498.4 136.5L498.9 136.3L499.3 129.0L499.7 115.7L500.1 98.9L500.6 81.4L501.0 66.2L501.4 56.1L501.9 52.7L502.3 56.7L502.7 67.3L503.1 82.8L503.6 100.4L504.0 117.0L504.4 129.8L504.9 136.6L505.3 136.1L505.7 128.5L506.2 115.1L506.6 98.1L507.0 80.7L507.4 65.7L507.9 55.8L508.3 52.7L508.7 57.0L509.2 67.9L509.6 83.5L510.0 101.1L510.4 117.6L510.9 130.2L511.3 136.7L511.7 136.0L512.2 128.1L512.6 114.4L513.0 97.4L513.5 80.0L513.9 65.1L514.3 55.5L514.7 52.8L515.2 57.3L515.6 68.5L516.0 84.2L516.5 101.8L516.9 118.3L517.3 130.6L517.7 136.8L518.2 135.8L518.6 127.6L519.0 113.8L519.5 96.7L519.9 79.3L520.3 64.6L520.8 55.3L521.2 52.8L521.6 57.7L522.0 69.0L522.5 84.9L522.9 102.5L523.3 118.9L523.8 131.0L524.2 136.9L524.6 135.6L525.0 127.1L525.5 113.1L525.9 95.9L526.3 78.6L526.8 64.1L527.2 55.0L527.6 52.9L528.1 58.0L528.5 69.6L528.9 85.6L529.3 103.3L529.8 119.5L530.2 131.4L530.6 137.0L531.1 135.3L531.5 126.6L531.9 112.4L532.3 95.2L532.8 77.9L533.2 63.6L533.6 54.8L534.1 52.9L534.5 58.4L534.9 70.2L535.4 86.4L535.8 104.0L536.2 120.1L536.6 131.8L537.1 137.1L537.5 135.1L537.9 126.1L538.4 111.7L538.8 94.4L539.2 77.2L539.6 63.1L540.1 54.6L540.5 53.0L540.9 58.8L541.4 70.8L541.8 87.1L542.2 104.7L542.7 120.7L543.1 132.2L543.5 137.2L543.9 134.9L544.4 125.6L544.8 111.1L545.2 93.7L545.7 76.6L546.1 62.6L546.5 54.3L546.9 53.1L547.4 59.2L547.8 71.4L548.2 87.8L548.7 105.4L549.1 121.3L549.5 132.5L550.0 137.2L550.4 134.6L550.8 125.1L551.2 110.4L551.7 93.0L552.1 75.9L552.5 62.2L553.0 54.1L553.4 53.2L553.8 59.6L554.2 72.1L554.7 88.5L555.1 83.8L555.5 68.2L556.0 57.2L556.4 52.7L556.8 55.7L557.3 65.4L557.7 80.3L558.1 97.8L558.5 114.7L559.0 128.3L559.4 136.0L559.8 136.7L560.3 130.0L560.7 117.3L561.1 100.7L561.5 83.1L562.0 67.6L562.4 56.8L562.8 52.7L563.3 55.9L563.7 65.9L564.1 81.0L564.6 98.5L565.0 115.4L565.4 128.7L565.8 136.2L566.3 136.5L566.7 129.6L567.1 116.7L567.6 100.0L568.0 82.4L568.4 67.0L568.8 56.5L569.3 52.7L569.7 56.2L570.1 66.5L570.6 81.7L571.0 99.3L571.4 116.0L571.9 129.2L572.3 136.4L572.7 136.4L573.1 129.2L573.6 116.0L574.0 99.3L574.4 81.7L574.9 66.5L575.3 56.2L575.7 52.7L576.2 56.5L576.6 67.0L577.0 82.4L577.4 100.0L577.9 116.7L578.3 129.6L578.7 53.5L579.2 53.8L579.6 61.3L580.0 74.6L580.4 91.5L580.9 109.0L581.3 124.1L581.7 134.1L582.2 137.3L582.6 133.2L583.0 122.4L583.5 106.9L583.9 89.3L584.3 72.7L584.7 60.0L585.2 53.3L585.6 54.0L586.0 61.7L586.5 75.3L586.9 92.2L587.3 109.7L587.7 124.6L588.2 134.3L588.6 137.3L589.0 132.8L589.5 121.8L589.9 106.2L590.3 88.5L590.8 72.1L591.2 59.6L591.6 53.2L592.0 54.1L592.5 62.2L592.9 75.9L593.3 93.0L593.8 110.4L594.2 125.1L594.6 134.6L595.0 137.2L595.5 132.5L595.9 121.3L596.3 105.4L596.8 87.8L597.2 71.4L597.6 59.2L598.1 53.1L598.5 54.3L598.9 62.6L599.3 76.6L599.8 93.7L600.2 111.1L600.6 125.6L601.1 134.9L601.5 137.2L601.9 132.2L602.3 69.3L602.8 85.3L603.2 102.9L603.6 119.2L604.1 131.2L604.5 137.0L604.9 135.4L605.4 126.9L605.8 112.8L606.2 95.6L606.6 78.3L607.1 63.9L607.5 54.9L607.9 52.9L608.4 58.2L608.8 69.9L609.2 86.0L609.6 103.6L610.1 119.8L610.5 131.6L610.9 137.1L611.4 135.2L611.8 126.4L612.2 112.1L612.7 94.8L613.1 77.6L613.5 63.4L613.9 54.7L614.4 137.0L614.8 131.4L615.2 119.5L615.7 103.3L616.1 85.6L616.5 69.6L616.9 58.0L617.4 52.9L617.8 55.0L618.2 64.1L618.7 78.6L619.1 95.9L619.5 113.1L620.0 127.1L620.4 135.6L620.8 136.9L621.2 131.0L621.7 118.9L622.1 102.5L622.5 84.9L623.0 69.0L623.4 57.7L623.8 52.8L624.2 55.3L624.7 64.6L625.1 79.3L625.5 96.7L626.0 76.2L626.4 62.4L626.8 54.2L627.3 53.2L627.7 59.4L628.1 71.7L628.5 88.2L629.0 105.8L629.4 121.5L629.8 132.7L630.3 137.2L630.7 134.5L631.1 124.9L631.5 110.0L632.0 92.6L632.4 75.6L632.8 61.9L633.3 54.0L633.7 53.3L634.1 59.8L634.6 72.4L635.0 88.9L635.4 106.5L635.8 122.1L636.3 133.0L636.7 137.3L637.1 134.2L637.6 124.3L638.0 80.7L638.4 98.1L638.8 115.1L639.3 128.5L639.7 136.1L640.1 136.6L640.6 129.8L641.0 117.0L641.4 100.4L641.9 82.8L642.3 67.3L642.7 56.7L643.1 52.7L643.6 56.1L644.0 66.2L644.4 81.4L644.9 98.9L645.3 115.7L645.7 129.0L646.1 136.3L646.6 136.5L647.0 129.4L647.4 116.4L647.9 99.6L648.3 82.1L648.7 66.8L649.2 56.4L649.6 52.7" fill="none" stroke="var(--accent)" stroke-width=".9"/>
<path d="M480.0 95.0H495.4V52.7H649.6V95.0H665.0" fill="none" stroke="var(--gold)" stroke-width="1.4" stroke-dasharray="4 3"/>
<line x1="554.7" y1="40" x2="554.7" y2="150" stroke="var(--red)" stroke-width=".8" stroke-dasharray="2 2"/>
<line x1="578.4" y1="40" x2="578.4" y2="150" stroke="var(--red)" stroke-width=".8" stroke-dasharray="2 2"/>
<line x1="602.1" y1="40" x2="602.1" y2="150" stroke="var(--red)" stroke-width=".8" stroke-dasharray="2 2"/>
<line x1="614.0" y1="40" x2="614.0" y2="150" stroke="var(--red)" stroke-width=".8" stroke-dasharray="2 2"/>
<line x1="625.9" y1="40" x2="625.9" y2="150" stroke="var(--red)" stroke-width=".8" stroke-dasharray="2 2"/>
<line x1="637.7" y1="40" x2="637.7" y2="150" stroke="var(--red)" stroke-width=".8" stroke-dasharray="2 2"/>
<line x1="495.4" y1="190" x2="495.4" y2="300" class="izgara"/><text x="495.4" y="314" text-anchor="middle" class="s-mono2">0</text><line x1="572.5" y1="190" x2="572.5" y2="300" class="izgara"/><text x="572.5" y="314" text-anchor="middle" class="s-mono2">0.5</text><line x1="649.6" y1="190" x2="649.6" y2="300" class="izgara"/><text x="649.6" y="314" text-anchor="middle" class="s-mono2">1</text><line x1="480" y1="286.2" x2="665" y2="286.2" class="izgara"/><text x="474" y="290.2" text-anchor="end" class="s-mono2">0°</text><line x1="480" y1="203.8" x2="665" y2="203.8" class="izgara"/><text x="474" y="207.8" text-anchor="end" class="s-mono2">180°</text><rect x="480" y="190" width="185" height="110" class="eksen"/>
<path d="M495.4 286.2L495.8 286.2L496.3 286.2L496.7 286.2L497.1 286.2L497.6 286.2L498.0 286.2L498.4 286.2L498.9 286.2L499.3 286.2L499.7 286.2L500.1 286.2L500.6 286.2L501.0 286.2L501.4 286.2L501.9 286.2L502.3 286.2L502.7 286.2L503.1 286.2L503.6 286.2L504.0 286.2L504.4 286.2L504.9 286.2L505.3 286.2L505.7 286.2L506.2 286.2L506.6 286.2L507.0 286.2L507.4 286.2L507.9 286.2L508.3 286.2L508.7 286.2L509.2 286.2L509.6 286.2L510.0 286.2L510.4 286.2L510.9 286.2L511.3 286.2L511.7 286.2L512.2 286.2L512.6 286.2L513.0 286.2L513.5 286.2L513.9 286.2L514.3 286.2L514.7 286.2L515.2 286.2L515.6 286.2L516.0 286.2L516.5 286.2L516.9 286.2L517.3 286.2L517.7 286.2L518.2 286.2L518.6 286.2L519.0 286.2L519.5 286.2L519.9 286.2L520.3 286.2L520.8 286.2L521.2 286.2L521.6 286.2L522.0 286.2L522.5 286.2L522.9 286.2L523.3 286.2L523.8 286.2L524.2 286.2L524.6 286.2L525.0 286.2L525.5 286.2L525.9 286.2L526.3 286.2L526.8 286.2L527.2 286.2L527.6 286.2L528.1 286.2L528.5 286.2L528.9 286.2L529.3 286.2L529.8 286.2L530.2 286.2L530.6 286.2L531.1 286.2L531.5 286.2L531.9 286.2L532.3 286.2L532.8 286.2L533.2 286.2L533.6 286.2L534.1 286.2L534.5 286.2L534.9 286.2L535.4 286.2L535.8 286.2L536.2 286.2L536.6 286.2L537.1 286.2L537.5 286.2L537.9 286.2L538.4 286.2L538.8 286.2L539.2 286.2L539.6 286.2L540.1 286.2L540.5 286.2L540.9 286.2L541.4 286.2L541.8 286.2L542.2 286.2L542.7 286.2L543.1 286.2L543.5 286.2L543.9 286.2L544.4 286.2L544.8 286.2L545.2 286.2L545.7 286.2L546.1 286.2L546.5 286.2L546.9 286.2L547.4 286.2L547.8 286.2L548.2 286.2L548.7 286.2L549.1 286.2L549.5 286.2L550.0 286.2L550.4 286.2L550.8 286.2L551.2 286.2L551.7 286.2L552.1 286.2L552.5 286.2L553.0 286.2L553.4 286.2L553.8 286.2L554.2 286.2L554.7 286.2M555.1 203.8L555.5 203.8L556.0 203.8L556.4 203.8L556.8 203.8L557.3 203.8L557.7 203.8L558.1 203.8L558.5 203.8L559.0 203.8L559.4 203.8L559.8 203.8L560.3 203.8L560.7 203.8L561.1 203.8L561.5 203.8L562.0 203.8L562.4 203.8L562.8 203.8L563.3 203.8L563.7 203.8L564.1 203.8L564.6 203.8L565.0 203.8L565.4 203.8L565.8 203.8L566.3 203.8L566.7 203.8L567.1 203.8L567.6 203.8L568.0 203.8L568.4 203.8L568.8 203.8L569.3 203.8L569.7 203.8L570.1 203.8L570.6 203.8L571.0 203.8L571.4 203.8L571.9 203.8L572.3 203.8L572.7 203.8L573.1 203.8L573.6 203.8L574.0 203.8L574.4 203.8L574.9 203.8L575.3 203.8L575.7 203.8L576.2 203.8L576.6 203.8L577.0 203.8L577.4 203.8L577.9 203.8L578.3 203.8M578.7 286.2L579.2 286.2L579.6 286.2L580.0 286.2L580.4 286.2L580.9 286.2L581.3 286.2L581.7 286.2L582.2 286.2L582.6 286.2L583.0 286.2L583.5 286.2L583.9 286.2L584.3 286.2L584.7 286.2L585.2 286.2L585.6 286.2L586.0 286.2L586.5 286.2L586.9 286.2L587.3 286.2L587.7 286.2L588.2 286.2L588.6 286.2L589.0 286.2L589.5 286.2L589.9 286.2L590.3 286.2L590.8 286.2L591.2 286.2L591.6 286.2L592.0 286.2L592.5 286.2L592.9 286.2L593.3 286.2L593.8 286.2L594.2 286.2L594.6 286.2L595.0 286.2L595.5 286.2L595.9 286.2L596.3 286.2L596.8 286.2L597.2 286.2L597.6 286.2L598.1 286.2L598.5 286.2L598.9 286.2L599.3 286.2L599.8 286.2L600.2 286.2L600.6 286.2L601.1 286.2L601.5 286.2L601.9 286.2M602.3 203.8L602.8 203.8L603.2 203.8L603.6 203.8L604.1 203.8L604.5 203.8L604.9 203.8L605.4 203.8L605.8 203.8L606.2 203.8L606.6 203.8L607.1 203.8L607.5 203.8L607.9 203.8L608.4 203.8L608.8 203.8L609.2 203.8L609.6 203.8L610.1 203.8L610.5 203.8L610.9 203.8L611.4 203.8L611.8 203.8L612.2 203.8L612.7 203.8L613.1 203.8L613.5 203.8L613.9 203.8M614.4 286.2L614.8 286.2L615.2 286.2L615.7 286.2L616.1 286.2L616.5 286.2L616.9 286.2L617.4 286.2L617.8 286.2L618.2 286.2L618.7 286.2L619.1 286.2L619.5 286.2L620.0 286.2L620.4 286.2L620.8 286.2L621.2 286.2L621.7 286.2L622.1 286.2L622.5 286.2L623.0 286.2L623.4 286.2L623.8 286.2L624.2 286.2L624.7 286.2L625.1 286.2L625.5 286.2M626.0 203.8L626.4 203.8L626.8 203.8L627.3 203.8L627.7 203.8L628.1 203.8L628.5 203.8L629.0 203.8L629.4 203.8L629.8 203.8L630.3 203.8L630.7 203.8L631.1 203.8L631.5 203.8L632.0 203.8L632.4 203.8L632.8 203.8L633.3 203.8L633.7 203.8L634.1 203.8L634.6 203.8L635.0 203.8L635.4 203.8L635.8 203.8L636.3 203.8L636.7 203.8L637.1 203.8L637.6 203.8M638.0 286.2L638.4 286.2L638.8 286.2L639.3 286.2L639.7 286.2L640.1 286.2L640.6 286.2L641.0 286.2L641.4 286.2L641.9 286.2L642.3 286.2L642.7 286.2L643.1 286.2L643.6 286.2L644.0 286.2L644.4 286.2L644.9 286.2L645.3 286.2L645.7 286.2L646.1 286.2L646.6 286.2L647.0 286.2L647.4 286.2L647.9 286.2L648.3 286.2L648.7 286.2L649.2 286.2L649.6 286.2" fill="none" stroke="var(--green)" stroke-width="2"/>
<text x="484" y="202" class="s-kucuk">faz (0 / 180°)</text>
<line x1="498.5" y1="340" x2="498.5" y2="470" class="izgara"/><text x="498.5" y="484" text-anchor="middle" class="s-mono2">-20</text><line x1="535.5" y1="340" x2="535.5" y2="470" class="izgara"/><text x="535.5" y="484" text-anchor="middle" class="s-mono2">-10</text><line x1="572.5" y1="340" x2="572.5" y2="470" class="izgara"/><text x="572.5" y="484" text-anchor="middle" class="s-mono2">0</text><line x1="609.5" y1="340" x2="609.5" y2="470" class="izgara"/><text x="609.5" y="484" text-anchor="middle" class="s-mono2">10</text><line x1="646.5" y1="340" x2="646.5" y2="470" class="izgara"/><text x="646.5" y="484" text-anchor="middle" class="s-mono2">20</text><line x1="480" y1="347.4" x2="665" y2="347.4" class="izgara"/><text x="474" y="351.4" text-anchor="end" class="s-mono2">0</text><line x1="480" y1="396.4" x2="665" y2="396.4" class="izgara"/><text x="474" y="400.4" text-anchor="end" class="s-mono2">-20</text><line x1="480" y1="445.5" x2="665" y2="445.5" class="izgara"/><text x="474" y="449.5" text-anchor="end" class="s-mono2">-40</text><rect x="480" y="340" width="185" height="130" class="eksen"/>
<path d="M335.9 415.9L336.6 415.5L337.1 415.9L338.0 420.7L340.0 418.4L340.9 409.9L341.6 408.1L342.1 408.7L343.1 413.8L344.0 418.4L345.1 420.9L346.1 431.4L348.0 430.1L348.8 425.1L349.1 426.3L351.0 420.0L351.9 406.5L352.9 400.3L353.7 399.3L354.1 399.4L355.9 399.8L356.3 399.7L357.1 400.6L358.0 405.7L359.1 421.0L360.9 409.3L361.9 402.3L363.0 400.9L363.1 400.9L365.0 399.8L365.6 399.3L366.1 399.6L367.0 403.0L368.1 413.8L369.0 437.4L370.7 437.4L371.1 439.1L372.9 437.4L374.0 425.4L374.3 424.7L375.9 421.4L377.0 412.2L377.9 409.3L378.0 409.3L379.1 415.0L380.9 429.3L381.9 419.5L383.0 417.1L383.9 415.2L385.0 413.3L385.1 413.4L386.1 418.3L388.0 416.4L388.9 408.0L389.7 405.9L390.0 406.2L391.1 409.5L392.0 412.3L393.1 415.3L394.1 425.8L395.9 420.1L396.8 416.1L397.1 416.6L398.9 415.0L400.0 403.1L400.9 398.5L401.6 397.7L403.0 397.8L403.9 396.6L404.4 396.3L405.1 397.5L406.0 403.4L408.0 417.0L408.9 405.1L409.9 400.2L410.6 399.7L411.9 399.6L412.9 398.1L413.6 397.6L414.1 397.9L415.0 401.2L416.1 410.3L417.1 429.0L418.0 454.3L420.0 445.9L420.9 428.4L421.8 423.6L422.1 424.0L423.9 429.1L425.0 413.9L425.9 409.6L426.0 409.6L427.0 414.7L428.1 431.0L429.9 422.3L431.0 418.7L431.9 414.1L432.9 410.2L433.1 410.1L434.1 413.9L435.9 412.6L437.0 404.2L437.8 402.4L438.0 402.5L439.1 404.3L440.1 405.8L441.0 408.1L442.1 416.2L443.9 410.3L444.9 407.0L445.1 407.3L446.9 406.6L448.0 398.0L448.9 394.5L449.5 394.2L451.0 393.1L451.9 390.9L452.4 390.4L453.1 391.5L454.1 398.8L455.9 406.8L457.0 397.7L457.9 395.3L458.1 395.3L460.0 395.3L460.9 393.9L461.5 393.5L462.1 394.0L463.0 396.8L464.0 403.3L465.1 413.3L466.0 423.7L468.0 423.3L468.9 417.0L469.5 415.8L470.1 417.6L471.1 435.4L472.9 414.9L474.0 408.7L474.1 408.7L475.0 413.2L476.1 429.9L477.9 426.6L479.0 421.2L479.9 411.8L480.9 405.4L481.3 405.0L482.1 407.4L483.9 405.6L485.0 398.3L485.9 396.4L486.0 396.4L488.0 396.7L488.1 396.7L489.0 398.0L490.1 403.1L491.9 397.8L492.8 395.4L493.1 395.5L494.9 394.5L496.0 388.7L497.0 386.7L497.1 386.7L499.0 384.5L499.9 381.1L500.5 380.3L501.0 381.2L502.1 387.8L503.9 392.7L505.0 386.6L505.7 385.6L506.0 385.8L508.0 386.1L508.9 384.9L509.3 384.8L510.1 385.5L511.1 387.9L512.0 391.0L513.1 395.8L514.1 401.8L516.0 402.4L516.9 401.1L517.0 401.1L518.0 403.9L519.1 413.6L520.9 411.2L522.0 404.7L522.1 404.6L523.0 408.5L524.1 425.7L525.6 437.8L526.9 425.6L528.0 403.3L528.9 395.4L529.5 394.2L530.1 394.9L531.9 391.0L533.0 385.1L534.0 383.1L534.9 382.3L536.0 380.2L536.7 379.4L537.0 379.6L539.0 380.0L539.9 376.1L540.9 374.3L541.0 374.3L542.9 372.3L543.9 368.2L544.5 367.5L545.1 367.9L546.9 363.8L548.0 358.3L548.7 357.2L549.0 357.6L550.1 362.5L551.9 364.5L553.0 360.3L553.4 359.8L554.0 360.2L556.0 359.1L556.9 357.6L557.1 357.5L558.0 358.1L559.9 357.4L560.5 357.2L561.1 357.6L562.9 358.6L563.9 356.6L564.5 356.2L565.1 356.5L567.0 356.6L568.0 355.3L568.1 355.3L569.0 356.7L571.0 352.3L571.9 348.1L572.5 347.4L573.1 348.1L574.0 352.3L576.0 356.7L576.9 355.3L577.0 355.3L578.0 356.6L579.9 356.5L580.5 356.2L581.1 356.6L582.1 358.6L583.9 357.6L584.5 357.2L585.1 357.4L587.0 358.1L587.9 357.5L588.1 357.6L589.0 359.1L590.9 360.4L591.6 359.8L592.0 360.3L593.1 364.5L594.9 362.5L596.0 357.6L596.3 357.2L597.0 358.3L598.1 363.8L599.9 367.9L600.5 367.5L601.1 368.2L602.1 372.3L604.0 374.3L604.1 374.3L605.1 376.1L606.0 380.0L608.0 379.6L608.3 379.4L609.0 380.2L610.1 382.3L611.0 383.1L612.0 385.1L613.1 391.0L614.9 394.9L615.5 394.2L616.1 395.4L617.0 403.3L618.1 425.6L619.4 437.8L620.9 425.7L622.0 408.5L622.9 404.6L623.0 404.7L624.1 411.2L625.9 413.6L627.0 403.9L627.9 401.1L628.1 401.1L629.0 402.4L630.9 401.8L631.9 395.8L633.0 391.0L633.9 387.9L634.9 385.5L635.7 384.8L636.1 384.9L637.0 386.1L639.0 385.8L639.3 385.6L640.0 386.6L641.1 392.7L642.9 387.8L644.0 381.2L644.5 380.3L645.1 381.1L646.0 384.5L647.9 386.7L648.0 386.7L649.0 388.7L650.1 394.5L651.9 395.5L652.2 395.4L653.1 397.8L654.9 403.1L656.0 398.0L656.9 396.7L657.0 396.7L659.0 396.4L659.1 396.4L660.0 398.3L661.1 405.6L662.9 407.4L663.7 405.0L664.1 405.4L665.0 410.7L666.0 421.2L667.1 426.6L668.9 429.9L670.0 413.2L670.9 408.7L671.0 408.7L672.1 414.9L673.9 435.4L674.9 417.6L675.5 415.8L676.1 417.0L677.0 423.3L679.0 423.7L679.9 413.3L681.0 403.3L682.0 396.8L682.9 394.0L683.5 393.5L684.1 393.9L685.0 395.3L686.9 395.3L687.1 395.3L688.0 397.7L689.0 406.8L690.9 398.8L691.9 391.5L692.6 390.4L693.1 390.9L694.0 393.1L695.5 394.2L696.1 394.5L697.0 398.0L698.1 406.6L699.9 407.3L700.1 407.0L701.1 410.3L702.9 416.2L704.0 408.1L704.9 405.8L705.9 404.3L707.0 402.5L707.2 402.4L708.0 404.2L709.1 412.6L710.9 413.9L711.9 410.1L712.1 410.2L713.1 414.1L714.0 418.7L715.1 422.3L716.9 431.0L718.0 414.7L719.0 409.6L719.1 409.6L720.0 413.9L721.1 429.1L722.9 424.0L723.2 423.6L724.1 428.4L725.0 445.9L727.0 454.3L727.9 429.0L728.9 410.3L730.0 401.2L730.9 397.9L731.4 397.6L732.1 398.1L733.1 399.6L734.4 399.7L735.1 400.2L736.1 405.1L737.0 417.0L738.9 404.6L739.9 397.5L740.6 396.3L741.1 396.6L742.0 397.8L743.4 397.7L744.1 398.5L745.0 403.1L746.1 415.0L747.9 416.6L748.2 416.1L749.1 420.1L750.9 425.8L752.0 415.3L753.0 412.3L753.9 409.5L755.0 406.2L755.3 405.9L756.1 408.0L757.0 416.4L758.9 418.3L759.9 413.4L760.0 413.3L761.1 415.2L762.0 417.1L763.0 419.5L764.1 429.3L765.9 415.0L767.0 409.3L767.1 409.3L768.0 412.2L769.1 421.4L770.7 424.7L771.0 425.4L772.1 437.4L773.9 439.1L774.3 437.4L775.9 442.7L776.9 413.8L778.0 403.0L778.9 399.6L779.4 399.3L780.0 399.8L781.9 400.9L782.0 400.9L783.1 402.3L784.1 409.3L785.9 421.0L787.0 405.7L787.9 400.6L788.7 399.7L789.1 399.8L790.9 399.4L791.3 399.3L792.1 400.3L793.1 406.5L794.0 420.0L795.9 426.3L796.2 425.1L797.0 430.1L798.9 431.4L799.9 420.9L801.0 418.4L801.9 413.8L802.9 408.7L803.4 408.1L804.1 409.9L805.0 418.4L807.0 420.7L807.9 415.9L808.4 415.5L809.1 415.9L665 470L480 470Z" class="spk-sinyal" opacity=".2"/>
<path d="M335.9 415.9L336.6 415.5L337.1 415.9L338.0 420.7L340.0 418.4L340.9 409.9L341.6 408.1L342.1 408.7L343.1 413.8L344.0 418.4L345.1 420.9L346.1 431.4L348.0 430.1L348.8 425.1L349.1 426.3L351.0 420.0L351.9 406.5L352.9 400.3L353.7 399.3L354.1 399.4L355.9 399.8L356.3 399.7L357.1 400.6L358.0 405.7L359.1 421.0L360.9 409.3L361.9 402.3L363.0 400.9L363.1 400.9L365.0 399.8L365.6 399.3L366.1 399.6L367.0 403.0L368.1 413.8L369.0 437.4L370.7 437.4L371.1 439.1L372.9 437.4L374.0 425.4L374.3 424.7L375.9 421.4L377.0 412.2L377.9 409.3L378.0 409.3L379.1 415.0L380.9 429.3L381.9 419.5L383.0 417.1L383.9 415.2L385.0 413.3L385.1 413.4L386.1 418.3L388.0 416.4L388.9 408.0L389.7 405.9L390.0 406.2L391.1 409.5L392.0 412.3L393.1 415.3L394.1 425.8L395.9 420.1L396.8 416.1L397.1 416.6L398.9 415.0L400.0 403.1L400.9 398.5L401.6 397.7L403.0 397.8L403.9 396.6L404.4 396.3L405.1 397.5L406.0 403.4L408.0 417.0L408.9 405.1L409.9 400.2L410.6 399.7L411.9 399.6L412.9 398.1L413.6 397.6L414.1 397.9L415.0 401.2L416.1 410.3L417.1 429.0L418.0 454.3L420.0 445.9L420.9 428.4L421.8 423.6L422.1 424.0L423.9 429.1L425.0 413.9L425.9 409.6L426.0 409.6L427.0 414.7L428.1 431.0L429.9 422.3L431.0 418.7L431.9 414.1L432.9 410.2L433.1 410.1L434.1 413.9L435.9 412.6L437.0 404.2L437.8 402.4L438.0 402.5L439.1 404.3L440.1 405.8L441.0 408.1L442.1 416.2L443.9 410.3L444.9 407.0L445.1 407.3L446.9 406.6L448.0 398.0L448.9 394.5L449.5 394.2L451.0 393.1L451.9 390.9L452.4 390.4L453.1 391.5L454.1 398.8L455.9 406.8L457.0 397.7L457.9 395.3L458.1 395.3L460.0 395.3L460.9 393.9L461.5 393.5L462.1 394.0L463.0 396.8L464.0 403.3L465.1 413.3L466.0 423.7L468.0 423.3L468.9 417.0L469.5 415.8L470.1 417.6L471.1 435.4L472.9 414.9L474.0 408.7L474.1 408.7L475.0 413.2L476.1 429.9L477.9 426.6L479.0 421.2L479.9 411.8L480.9 405.4L481.3 405.0L482.1 407.4L483.9 405.6L485.0 398.3L485.9 396.4L486.0 396.4L488.0 396.7L488.1 396.7L489.0 398.0L490.1 403.1L491.9 397.8L492.8 395.4L493.1 395.5L494.9 394.5L496.0 388.7L497.0 386.7L497.1 386.7L499.0 384.5L499.9 381.1L500.5 380.3L501.0 381.2L502.1 387.8L503.9 392.7L505.0 386.6L505.7 385.6L506.0 385.8L508.0 386.1L508.9 384.9L509.3 384.8L510.1 385.5L511.1 387.9L512.0 391.0L513.1 395.8L514.1 401.8L516.0 402.4L516.9 401.1L517.0 401.1L518.0 403.9L519.1 413.6L520.9 411.2L522.0 404.7L522.1 404.6L523.0 408.5L524.1 425.7L525.6 437.8L526.9 425.6L528.0 403.3L528.9 395.4L529.5 394.2L530.1 394.9L531.9 391.0L533.0 385.1L534.0 383.1L534.9 382.3L536.0 380.2L536.7 379.4L537.0 379.6L539.0 380.0L539.9 376.1L540.9 374.3L541.0 374.3L542.9 372.3L543.9 368.2L544.5 367.5L545.1 367.9L546.9 363.8L548.0 358.3L548.7 357.2L549.0 357.6L550.1 362.5L551.9 364.5L553.0 360.3L553.4 359.8L554.0 360.2L556.0 359.1L556.9 357.6L557.1 357.5L558.0 358.1L559.9 357.4L560.5 357.2L561.1 357.6L562.9 358.6L563.9 356.6L564.5 356.2L565.1 356.5L567.0 356.6L568.0 355.3L568.1 355.3L569.0 356.7L571.0 352.3L571.9 348.1L572.5 347.4L573.1 348.1L574.0 352.3L576.0 356.7L576.9 355.3L577.0 355.3L578.0 356.6L579.9 356.5L580.5 356.2L581.1 356.6L582.1 358.6L583.9 357.6L584.5 357.2L585.1 357.4L587.0 358.1L587.9 357.5L588.1 357.6L589.0 359.1L590.9 360.4L591.6 359.8L592.0 360.3L593.1 364.5L594.9 362.5L596.0 357.6L596.3 357.2L597.0 358.3L598.1 363.8L599.9 367.9L600.5 367.5L601.1 368.2L602.1 372.3L604.0 374.3L604.1 374.3L605.1 376.1L606.0 380.0L608.0 379.6L608.3 379.4L609.0 380.2L610.1 382.3L611.0 383.1L612.0 385.1L613.1 391.0L614.9 394.9L615.5 394.2L616.1 395.4L617.0 403.3L618.1 425.6L619.4 437.8L620.9 425.7L622.0 408.5L622.9 404.6L623.0 404.7L624.1 411.2L625.9 413.6L627.0 403.9L627.9 401.1L628.1 401.1L629.0 402.4L630.9 401.8L631.9 395.8L633.0 391.0L633.9 387.9L634.9 385.5L635.7 384.8L636.1 384.9L637.0 386.1L639.0 385.8L639.3 385.6L640.0 386.6L641.1 392.7L642.9 387.8L644.0 381.2L644.5 380.3L645.1 381.1L646.0 384.5L647.9 386.7L648.0 386.7L649.0 388.7L650.1 394.5L651.9 395.5L652.2 395.4L653.1 397.8L654.9 403.1L656.0 398.0L656.9 396.7L657.0 396.7L659.0 396.4L659.1 396.4L660.0 398.3L661.1 405.6L662.9 407.4L663.7 405.0L664.1 405.4L665.0 410.7L666.0 421.2L667.1 426.6L668.9 429.9L670.0 413.2L670.9 408.7L671.0 408.7L672.1 414.9L673.9 435.4L674.9 417.6L675.5 415.8L676.1 417.0L677.0 423.3L679.0 423.7L679.9 413.3L681.0 403.3L682.0 396.8L682.9 394.0L683.5 393.5L684.1 393.9L685.0 395.3L686.9 395.3L687.1 395.3L688.0 397.7L689.0 406.8L690.9 398.8L691.9 391.5L692.6 390.4L693.1 390.9L694.0 393.1L695.5 394.2L696.1 394.5L697.0 398.0L698.1 406.6L699.9 407.3L700.1 407.0L701.1 410.3L702.9 416.2L704.0 408.1L704.9 405.8L705.9 404.3L707.0 402.5L707.2 402.4L708.0 404.2L709.1 412.6L710.9 413.9L711.9 410.1L712.1 410.2L713.1 414.1L714.0 418.7L715.1 422.3L716.9 431.0L718.0 414.7L719.0 409.6L719.1 409.6L720.0 413.9L721.1 429.1L722.9 424.0L723.2 423.6L724.1 428.4L725.0 445.9L727.0 454.3L727.9 429.0L728.9 410.3L730.0 401.2L730.9 397.9L731.4 397.6L732.1 398.1L733.1 399.6L734.4 399.7L735.1 400.2L736.1 405.1L737.0 417.0L738.9 404.6L739.9 397.5L740.6 396.3L741.1 396.6L742.0 397.8L743.4 397.7L744.1 398.5L745.0 403.1L746.1 415.0L747.9 416.6L748.2 416.1L749.1 420.1L750.9 425.8L752.0 415.3L753.0 412.3L753.9 409.5L755.0 406.2L755.3 405.9L756.1 408.0L757.0 416.4L758.9 418.3L759.9 413.4L760.0 413.3L761.1 415.2L762.0 417.1L763.0 419.5L764.1 429.3L765.9 415.0L767.0 409.3L767.1 409.3L768.0 412.2L769.1 421.4L770.7 424.7L771.0 425.4L772.1 437.4L773.9 439.1L774.3 437.4L775.9 442.7L776.9 413.8L778.0 403.0L778.9 399.6L779.4 399.3L780.0 399.8L781.9 400.9L782.0 400.9L783.1 402.3L784.1 409.3L785.9 421.0L787.0 405.7L787.9 400.6L788.7 399.7L789.1 399.8L790.9 399.4L791.3 399.3L792.1 400.3L793.1 406.5L794.0 420.0L795.9 426.3L796.2 425.1L797.0 430.1L798.9 431.4L799.9 420.9L801.0 418.4L801.9 413.8L802.9 408.7L803.4 408.1L804.1 409.9L805.0 418.4L807.0 420.7L807.9 415.9L808.4 415.5L809.1 415.9" fill="none" stroke="var(--accent)" stroke-width="1.2"/>
<rect x="481" y="341" width="183" height="15" fill="var(--dia-panel)" opacity=".85"/>
<text x="484" y="352" class="s-kucuk s-vurgu">BW ≈ 13/PW = 13 MHz</text>
<text x="572" y="496" text-anchor="middle" class="s-kucuk">f − f₀ (MHz) · dB</text>
<text x="695" y="26" class="s-baslik">Frekans atlamalı (4 adım)</text>
<line x1="710.4" y1="40" x2="710.4" y2="150" class="izgara"/><text x="710.4" y="164" text-anchor="middle" class="s-mono2">0</text><line x1="787.5" y1="40" x2="787.5" y2="150" class="izgara"/><text x="787.5" y="164" text-anchor="middle" class="s-mono2">0.5</text><line x1="864.6" y1="40" x2="864.6" y2="150" class="izgara"/><text x="864.6" y="164" text-anchor="middle" class="s-mono2">1</text><line x1="695" y1="137.3" x2="880" y2="137.3" class="izgara"/><text x="689" y="141.3" text-anchor="end" class="s-mono2">-1</text><line x1="695" y1="95.0" x2="880" y2="95.0" class="izgara"/><text x="689" y="99.0" text-anchor="end" class="s-mono2">0</text><line x1="695" y1="52.7" x2="880" y2="52.7" class="izgara"/><text x="689" y="56.7" text-anchor="end" class="s-mono2">1</text><rect x="695" y="40" width="185" height="110" class="eksen"/>
<path d="M710.4 52.7L710.8 53.2L711.3 54.8L711.7 57.3L712.1 60.8L712.6 65.1L713.0 70.2L713.4 75.9L713.9 82.1L714.3 88.5L714.7 95.2L715.1 101.8L715.6 108.3L716.0 114.4L716.4 120.1L716.9 125.1L717.3 129.4L717.7 132.8L718.1 135.3L718.6 136.8L719.0 137.3L719.4 136.7L719.9 135.1L720.3 132.5L720.7 129.0L721.2 124.6L721.6 119.5L722.0 113.8L722.4 107.6L722.9 101.1L723.3 94.4L723.7 87.8L724.2 81.4L724.6 75.3L725.0 69.6L725.4 64.6L725.9 60.4L726.3 57.0L726.7 54.6L727.2 53.1L727.6 52.7L728.0 53.3L728.5 55.0L728.9 57.7L729.3 61.3L729.7 65.7L730.2 70.8L730.6 76.6L731.0 82.8L731.5 89.3L731.9 95.9L732.3 102.5L732.7 109.0L733.2 115.1L733.6 120.7L734.0 125.6L734.5 129.8L734.9 133.2L735.3 135.6L735.8 136.9L736.2 137.3L736.6 136.6L737.0 134.9L737.5 132.2L737.9 128.5L738.3 124.1L738.8 118.9L739.2 113.1L739.6 106.9L740.0 100.4L740.5 93.7L740.9 87.1L741.3 80.7L741.8 74.6L742.2 69.0L742.6 64.1L743.1 60.0L743.5 56.7L743.9 54.3L744.3 53.0L744.8 52.7L745.2 53.5L745.6 55.3L746.1 58.0L746.5 61.7L746.9 66.2L747.3 71.4L747.8 77.2L748.2 83.5L748.6 90.0L749.1 53.0L749.5 60.9L749.9 77.4L750.4 98.3L750.8 118.4L751.2 132.6L751.6 137.3L752.1 131.3L752.5 116.2L752.9 95.7L753.4 75.1L753.8 59.5L754.2 52.8L754.6 56.8L755.1 70.4L755.5 90.2L755.9 111.2L756.4 128.2L756.8 136.8L757.2 134.8L757.7 122.8L758.1 103.8L758.5 82.6L758.9 64.5L759.4 54.1L759.8 54.0L760.2 64.2L760.7 82.2L761.1 103.5L761.5 122.5L761.9 134.7L762.4 136.8L762.8 128.4L763.2 111.6L763.7 90.6L764.1 70.7L764.5 56.9L765.0 52.8L765.4 59.3L765.8 74.8L766.2 95.4L766.7 115.9L767.1 131.1L767.5 137.3L768.0 132.8L768.4 118.7L768.8 98.7L769.2 77.7L769.7 61.1L770.1 53.1L770.5 55.6L771.0 68.0L771.4 87.3L771.8 108.5L772.3 126.3L772.7 136.2L773.1 135.7L773.5 125.0L774.0 106.7L774.4 85.5L774.8 66.6L775.3 54.9L775.7 53.4L776.1 62.3L776.5 79.5L777.0 100.5L777.4 120.2L777.8 133.6L778.3 137.2L778.7 130.1L779.1 114.3L779.6 93.5L780.0 73.2L780.4 58.3L780.8 52.7L781.3 57.8L781.7 72.2L782.1 92.4L782.6 113.3L783.0 129.5L783.4 137.1L783.8 134.0L784.3 121.1L784.7 101.6L785.1 80.5L785.6 63.0L786.0 53.6L786.4 54.6L786.9 65.8L787.3 84.4L787.7 53.3L788.1 57.8L788.6 66.5L789.0 78.3L789.4 91.9L789.9 105.8L790.3 118.6L790.7 128.7L791.2 135.2L791.6 137.3L792.0 134.7L792.4 127.8L792.9 117.3L793.3 104.4L793.7 90.4L794.2 76.9L794.6 65.4L795.0 57.2L795.4 53.1L795.9 53.5L796.3 58.6L796.7 67.6L797.2 79.6L797.6 93.3L798.0 107.2L798.5 119.8L798.9 129.6L799.3 135.7L799.7 137.2L800.2 134.2L800.6 126.9L801.0 116.0L801.5 102.9L801.9 88.9L802.3 75.6L802.7 64.4L803.2 56.5L803.6 52.9L804.0 53.9L804.5 59.4L804.9 68.7L805.3 81.0L805.8 94.8L806.2 108.6L806.6 121.0L807.0 130.4L807.5 136.0L807.9 137.1L808.3 133.6L808.8 125.9L809.2 114.7L809.6 101.5L810.0 87.5L810.5 74.3L810.9 63.4L811.3 55.9L811.8 52.8L812.2 54.2L812.6 60.2L813.1 69.9L813.5 82.4L813.9 96.3L814.3 110.0L814.8 122.1L815.2 131.2L815.6 136.4L816.1 137.0L816.5 133.0L816.9 124.9L817.3 113.4L817.8 100.0L818.2 86.0L818.6 73.0L819.1 62.4L819.5 55.4L819.9 52.7L820.4 54.7L820.8 61.0L821.2 71.1L821.6 83.8L822.1 97.8L822.5 111.4L822.9 123.2L823.4 132.0L823.8 136.7L824.2 136.8L824.6 132.3L825.1 123.8L825.5 112.1L825.9 98.5L826.4 58.1L826.8 79.5L827.2 107.8L827.7 130.3L828.1 137.1L828.5 125.0L828.9 99.4L829.4 71.9L829.8 54.7L830.2 55.6L830.7 74.1L831.1 102.0L831.5 126.8L831.9 137.3L832.4 128.9L832.8 105.3L833.2 77.1L833.7 56.9L834.1 53.8L834.5 69.2L835.0 96.1L835.4 122.5L835.8 136.6L836.2 132.1L836.7 110.9L837.1 82.6L837.5 59.9L838.0 52.9L838.4 64.8L838.8 90.2L839.2 117.8L839.7 135.2L840.1 134.5L840.5 116.2L841.0 88.4L841.4 63.5L841.8 52.7L842.3 60.9L842.7 84.4L843.1 112.6L843.5 132.9L844.0 136.3L844.4 121.1L844.8 94.3L845.3 67.7L845.7 53.4L846.1 57.8L846.5 78.8L847.0 107.0L847.4 129.9L847.8 137.2L848.3 125.5L848.7 100.2L849.1 72.5L849.6 54.9L850.0 55.3L850.4 73.5L850.8 101.3L851.3 126.3L851.7 137.2L852.1 129.3L852.6 106.0L853.0 77.7L853.4 57.2L853.8 53.7L854.3 68.6L854.7 95.4L855.1 122.0L855.6 136.5L856.0 132.4L856.4 111.6L856.9 83.3L857.3 60.3L857.7 52.8L858.1 64.2L858.6 89.5L859.0 117.2L859.4 134.9L859.9 134.8L860.3 116.8L860.7 89.1L861.1 64.0L861.6 52.8L862.0 60.5L862.4 83.7L862.9 111.9L863.3 132.6L863.7 136.4L864.2 121.7L864.6 95.0" fill="none" stroke="var(--accent)" stroke-width=".9"/>
<path d="M695.0 95.0H710.4V52.7H864.6V95.0H880.0" fill="none" stroke="var(--gold)" stroke-width="1.4" stroke-dasharray="4 3"/>
<line x1="710.4" y1="190" x2="710.4" y2="300" class="izgara"/><text x="710.4" y="314" text-anchor="middle" class="s-mono2">0</text><line x1="787.5" y1="190" x2="787.5" y2="300" class="izgara"/><text x="787.5" y="314" text-anchor="middle" class="s-mono2">0.5</text><line x1="864.6" y1="190" x2="864.6" y2="300" class="izgara"/><text x="864.6" y="314" text-anchor="middle" class="s-mono2">1</text><line x1="695" y1="286.2" x2="880" y2="286.2" class="izgara"/><text x="689" y="290.2" text-anchor="end" class="s-mono2">-15</text><line x1="695" y1="245.0" x2="880" y2="245.0" class="izgara"/><text x="689" y="249.0" text-anchor="end" class="s-mono2">+0</text><line x1="695" y1="203.8" x2="880" y2="203.8" class="izgara"/><text x="689" y="207.8" text-anchor="end" class="s-mono2">+15</text><rect x="695" y="190" width="185" height="110" class="eksen"/>
<path d="M710.4 286.2L710.8 286.2L711.3 286.2L711.7 286.2L712.1 286.2L712.6 286.2L713.0 286.2L713.4 286.2L713.9 286.2L714.3 286.2L714.7 286.2L715.1 286.2L715.6 286.2L716.0 286.2L716.4 286.2L716.9 286.2L717.3 286.2L717.7 286.2L718.1 286.2L718.6 286.2L719.0 286.2L719.4 286.2L719.9 286.2L720.3 286.2L720.7 286.2L721.2 286.2L721.6 286.2L722.0 286.2L722.4 286.2L722.9 286.2L723.3 286.2L723.7 286.2L724.2 286.2L724.6 286.2L725.0 286.2L725.4 286.2L725.9 286.2L726.3 286.2L726.7 286.2L727.2 286.2L727.6 286.2L728.0 286.2L728.5 286.2L728.9 286.2L729.3 286.2L729.7 286.2L730.2 286.2L730.6 286.2L731.0 286.2L731.5 286.2L731.9 286.2L732.3 286.2L732.7 286.2L733.2 286.2L733.6 286.2L734.0 286.2L734.5 286.2L734.9 286.2L735.3 286.2L735.8 286.2L736.2 286.2L736.6 286.2L737.0 286.2L737.5 286.2L737.9 286.2L738.3 286.2L738.8 286.2L739.2 286.2L739.6 286.2L740.0 286.2L740.5 286.2L740.9 286.2L741.3 286.2L741.8 286.2L742.2 286.2L742.6 286.2L743.1 286.2L743.5 286.2L743.9 286.2L744.3 286.2L744.8 286.2L745.2 286.2L745.6 286.2L746.1 286.2L746.5 286.2L746.9 286.2L747.3 286.2L747.8 286.2L748.2 286.2L748.6 286.2M749.1 231.2L749.5 231.2L749.9 231.2L750.4 231.2L750.8 231.2L751.2 231.2L751.6 231.2L752.1 231.2L752.5 231.2L752.9 231.2L753.4 231.2L753.8 231.2L754.2 231.2L754.6 231.2L755.1 231.2L755.5 231.2L755.9 231.2L756.4 231.2L756.8 231.2L757.2 231.2L757.7 231.2L758.1 231.2L758.5 231.2L758.9 231.2L759.4 231.2L759.8 231.2L760.2 231.2L760.7 231.2L761.1 231.2L761.5 231.2L761.9 231.2L762.4 231.2L762.8 231.2L763.2 231.2L763.7 231.2L764.1 231.2L764.5 231.2L765.0 231.2L765.4 231.2L765.8 231.2L766.2 231.2L766.7 231.2L767.1 231.2L767.5 231.2L768.0 231.2L768.4 231.2L768.8 231.2L769.2 231.2L769.7 231.2L770.1 231.2L770.5 231.2L771.0 231.2L771.4 231.2L771.8 231.2L772.3 231.2L772.7 231.2L773.1 231.2L773.5 231.2L774.0 231.2L774.4 231.2L774.8 231.2L775.3 231.2L775.7 231.2L776.1 231.2L776.5 231.2L777.0 231.2L777.4 231.2L777.8 231.2L778.3 231.2L778.7 231.2L779.1 231.2L779.6 231.2L780.0 231.2L780.4 231.2L780.8 231.2L781.3 231.2L781.7 231.2L782.1 231.2L782.6 231.2L783.0 231.2L783.4 231.2L783.8 231.2L784.3 231.2L784.7 231.2L785.1 231.2L785.6 231.2L786.0 231.2L786.4 231.2L786.9 231.2L787.3 231.2M787.7 258.8L788.1 258.8L788.6 258.8L789.0 258.8L789.4 258.8L789.9 258.8L790.3 258.8L790.7 258.8L791.2 258.8L791.6 258.8L792.0 258.8L792.4 258.8L792.9 258.8L793.3 258.8L793.7 258.8L794.2 258.8L794.6 258.8L795.0 258.8L795.4 258.8L795.9 258.8L796.3 258.8L796.7 258.8L797.2 258.8L797.6 258.8L798.0 258.8L798.5 258.8L798.9 258.8L799.3 258.8L799.7 258.8L800.2 258.8L800.6 258.8L801.0 258.8L801.5 258.8L801.9 258.8L802.3 258.8L802.7 258.8L803.2 258.8L803.6 258.8L804.0 258.8L804.5 258.8L804.9 258.8L805.3 258.8L805.8 258.8L806.2 258.8L806.6 258.8L807.0 258.8L807.5 258.8L807.9 258.8L808.3 258.8L808.8 258.8L809.2 258.8L809.6 258.8L810.0 258.8L810.5 258.8L810.9 258.8L811.3 258.8L811.8 258.8L812.2 258.8L812.6 258.8L813.1 258.8L813.5 258.8L813.9 258.8L814.3 258.8L814.8 258.8L815.2 258.8L815.6 258.8L816.1 258.8L816.5 258.8L816.9 258.8L817.3 258.8L817.8 258.8L818.2 258.8L818.6 258.8L819.1 258.8L819.5 258.8L819.9 258.8L820.4 258.8L820.8 258.8L821.2 258.8L821.6 258.8L822.1 258.8L822.5 258.8L822.9 258.8L823.4 258.8L823.8 258.8L824.2 258.8L824.6 258.8L825.1 258.8L825.5 258.8L825.9 258.8M826.4 203.8L826.8 203.8L827.2 203.8L827.7 203.8L828.1 203.8L828.5 203.8L828.9 203.8L829.4 203.8L829.8 203.8L830.2 203.8L830.7 203.8L831.1 203.8L831.5 203.8L831.9 203.8L832.4 203.8L832.8 203.8L833.2 203.8L833.7 203.8L834.1 203.8L834.5 203.8L835.0 203.8L835.4 203.8L835.8 203.8L836.2 203.8L836.7 203.8L837.1 203.8L837.5 203.8L838.0 203.8L838.4 203.8L838.8 203.8L839.2 203.8L839.7 203.8L840.1 203.8L840.5 203.8L841.0 203.8L841.4 203.8L841.8 203.8L842.3 203.8L842.7 203.8L843.1 203.8L843.5 203.8L844.0 203.8L844.4 203.8L844.8 203.8L845.3 203.8L845.7 203.8L846.1 203.8L846.5 203.8L847.0 203.8L847.4 203.8L847.8 203.8L848.3 203.8L848.7 203.8L849.1 203.8L849.6 203.8L850.0 203.8L850.4 203.8L850.8 203.8L851.3 203.8L851.7 203.8L852.1 203.8L852.6 203.8L853.0 203.8L853.4 203.8L853.8 203.8L854.3 203.8L854.7 203.8L855.1 203.8L855.6 203.8L856.0 203.8L856.4 203.8L856.9 203.8L857.3 203.8L857.7 203.8L858.1 203.8L858.6 203.8L859.0 203.8L859.4 203.8L859.9 203.8L860.3 203.8L860.7 203.8L861.1 203.8L861.6 203.8L862.0 203.8L862.4 203.8L862.9 203.8L863.3 203.8L863.7 203.8L864.2 203.8L864.6 203.8" fill="none" stroke="var(--green)" stroke-width="2"/>
<text x="699" y="202" class="s-kucuk">anlık frekans (MHz)</text>
<line x1="713.5" y1="340" x2="713.5" y2="470" class="izgara"/><text x="713.5" y="484" text-anchor="middle" class="s-mono2">-20</text><line x1="750.5" y1="340" x2="750.5" y2="470" class="izgara"/><text x="750.5" y="484" text-anchor="middle" class="s-mono2">-10</text><line x1="787.5" y1="340" x2="787.5" y2="470" class="izgara"/><text x="787.5" y="484" text-anchor="middle" class="s-mono2">0</text><line x1="824.5" y1="340" x2="824.5" y2="470" class="izgara"/><text x="824.5" y="484" text-anchor="middle" class="s-mono2">10</text><line x1="861.5" y1="340" x2="861.5" y2="470" class="izgara"/><text x="861.5" y="484" text-anchor="middle" class="s-mono2">20</text><line x1="695" y1="347.4" x2="880" y2="347.4" class="izgara"/><text x="689" y="351.4" text-anchor="end" class="s-mono2">0</text><line x1="695" y1="396.4" x2="880" y2="396.4" class="izgara"/><text x="689" y="400.4" text-anchor="end" class="s-mono2">-20</text><line x1="695" y1="445.5" x2="880" y2="445.5" class="izgara"/><text x="689" y="449.5" text-anchor="end" class="s-mono2">-40</text><rect x="695" y="340" width="185" height="130" class="eksen"/>
<path d="M550.9 405.9L551.5 404.7L552.1 405.7L553.0 411.5L554.1 420.8L555.1 427.1L556.0 438.6L558.0 439.7L558.4 437.9L560.0 432.1L561.0 416.4L561.9 411.7L562.0 411.7L563.1 416.5L564.9 411.6L566.0 405.1L566.3 404.6L567.0 406.2L568.0 413.6L569.1 422.5L570.0 427.9L571.0 444.4L572.9 438.3L573.2 437.3L575.0 426.8L575.9 414.7L576.8 411.1L577.1 411.3L578.1 417.6L580.0 409.0L581.0 404.4L581.1 404.3L582.0 407.0L583.1 415.6L584.0 423.1L585.0 429.5L586.1 451.0L587.9 436.5L588.0 436.4L589.9 423.7L590.9 412.2L591.6 410.2L592.1 411.1L593.9 416.4L595.0 406.7L595.9 403.7L596.0 403.8L597.1 408.0L598.1 417.4L599.0 423.9L600.1 431.1L601.9 442.9L602.8 435.0L603.9 435.1L604.9 418.9L606.0 409.9L606.4 409.0L607.0 410.3L609.0 412.8L609.9 405.0L610.7 402.9L611.1 403.3L612.1 409.0L613.0 417.8L614.1 424.2L615.1 432.6L617.0 436.6L617.6 433.0L618.9 429.8L620.0 414.4L620.9 408.0L621.2 407.5L622.0 409.9L623.9 410.2L624.9 402.7L625.5 401.7L626.1 402.9L627.0 409.0L628.1 418.8L629.1 423.9L630.0 431.8L632.0 431.7L632.4 430.5L634.0 423.5L635.0 410.1L635.9 405.6L636.0 405.5L637.1 409.3L638.9 406.3L640.0 400.5L640.3 400.1L641.0 401.8L642.0 409.8L643.1 419.1L644.0 422.6L645.0 431.1L646.9 427.7L647.2 427.2L649.0 417.0L649.9 406.6L650.8 403.1L651.1 403.2L652.1 408.0L654.0 402.2L655.0 398.2L655.1 398.1L656.0 401.2L657.1 410.5L658.0 417.9L659.0 421.0L660.9 427.4L661.9 422.9L663.0 422.2L663.9 411.7L664.9 401.9L665.6 399.9L666.1 400.5L667.0 405.1L669.0 398.0L669.8 395.6L670.0 395.7L671.1 400.4L672.1 410.7L673.0 416.2L674.1 418.0L675.9 419.5L676.8 417.2L677.9 415.4L678.9 404.3L680.0 396.7L680.5 395.8L681.0 396.6L683.0 399.5L683.9 393.8L684.6 392.1L685.1 392.7L686.1 399.2L687.0 409.2L688.6 412.5L689.1 412.9L691.0 410.7L692.0 409.3L692.9 405.5L694.0 395.7L694.9 390.5L695.3 389.9L696.0 391.2L697.9 392.7L698.9 387.8L699.4 387.2L700.1 388.7L701.0 396.0L703.0 407.4L703.9 404.6L704.9 402.4L706.0 399.1L706.9 397.2L708.0 391.9L709.0 384.2L709.9 380.6L710.3 380.4L711.1 381.7L712.9 381.7L714.0 378.8L714.1 378.7L715.0 381.2L716.0 391.6L717.9 397.5L718.9 389.4L720.0 383.4L720.9 378.7L721.9 373.8L723.0 367.7L723.9 362.2L724.9 358.2L726.0 356.5L726.9 355.1L728.0 352.1L729.0 349.2L729.8 348.5L730.0 348.6L731.1 350.1L732.0 352.0L734.0 352.3L734.9 351.9L735.6 351.8L736.0 351.9L737.1 352.8L738.0 355.3L739.1 359.8L740.1 363.6L741.0 365.4L742.1 369.4L743.1 381.6L745.0 394.1L746.0 383.6L746.1 383.5L747.0 387.5L749.0 399.9L749.9 383.6L751.0 374.9L751.9 372.4L752.0 372.4L753.0 375.9L754.1 385.2L755.9 379.9L757.0 377.0L757.9 377.0L758.9 372.7L760.0 366.1L760.9 362.4L761.9 360.9L763.0 360.7L763.9 359.1L765.0 355.0L766.0 350.5L766.9 348.1L767.7 347.4L768.1 347.5L769.0 348.7L770.0 350.7L771.1 352.0L772.0 352.5L773.0 353.1L774.1 354.8L775.0 356.8L776.1 358.7L777.1 359.4L778.0 360.0L779.1 362.9L780.1 370.2L781.0 382.5L783.0 390.6L783.9 386.0L784.8 385.3L786.0 384.7L786.9 382.9L788.0 380.6L788.7 380.1L789.0 380.2L791.0 379.9L791.9 374.1L792.9 369.0L793.6 367.9L794.1 368.2L795.0 370.5L797.0 368.1L797.9 363.7L798.9 360.4L800.0 358.3L800.9 356.4L802.0 353.7L803.0 351.2L803.9 350.1L804.0 350.1L805.1 351.2L806.0 353.9L808.0 356.9L808.9 354.9L809.9 353.1L810.4 352.9L811.1 353.4L812.0 355.3L813.1 358.3L814.1 360.8L815.0 362.6L816.1 366.8L817.1 377.0L819.0 392.2L820.0 380.3L820.7 378.6L821.0 378.8L822.1 382.0L823.9 380.4L825.0 376.1L825.9 374.3L826.0 374.3L827.0 376.6L828.9 378.9L829.9 374.0L830.4 373.4L831.1 375.4L832.9 380.2L834.0 367.9L834.9 361.6L835.9 358.1L837.0 356.0L837.9 354.3L839.0 352.5L840.0 350.5L840.9 348.9L841.6 348.3L842.1 348.5L843.0 350.3L844.0 353.5L845.9 352.2L846.9 350.9L847.0 350.9L848.1 352.7L849.0 355.9L850.1 359.9L851.1 363.5L852.0 367.1L853.1 372.0L854.1 378.7L855.0 389.2L857.0 403.4L857.8 396.1L858.0 396.3L860.0 405.8L860.9 384.9L862.0 377.5L862.4 376.8L863.0 377.5L864.0 381.4L865.1 385.3L866.0 387.5L867.0 390.8L868.1 394.8L869.0 399.7L870.1 416.1L871.9 404.6L872.7 400.2L873.1 401.2L874.9 411.1L876.0 391.5L877.0 385.8L877.2 385.6L878.0 387.3L879.1 392.8L880.0 396.9L881.0 399.9L882.1 404.3L883.0 407.4L884.0 412.5L885.9 423.3L886.9 405.3L887.5 403.3L888.1 405.6L889.9 409.3L891.0 394.6L891.9 390.9L892.0 390.9L893.1 394.0L894.1 400.5L895.0 404.8L896.1 408.9L897.1 414.6L898.0 416.5L899.1 422.1L900.9 418.1L902.0 406.4L902.3 405.7L903.0 408.6L905.0 408.0L905.9 397.4L906.8 394.6L907.1 394.8L908.1 399.4L909.0 405.9L910.1 410.9L911.1 416.6L912.0 422.9L913.1 423.0L914.1 430.3L916.0 415.6L916.9 407.9L917.1 407.6L918.0 412.3L919.9 408.6L920.9 398.8L921.6 397.4L922.1 398.2L923.0 403.2L924.1 410.8L925.1 416.0L926.0 422.7L928.0 427.7L928.1 427.7L930.0 433.9L931.0 414.0L931.9 409.1L932.0 409.1L933.1 415.9L934.9 407.4L936.0 400.1L936.3 399.5L937.0 400.8L938.0 407.4L939.1 415.0L940.0 419.8L941.0 430.0L942.9 431.1L943.0 431.1L945.0 428.3L945.9 414.0L946.7 410.3L947.1 410.7L948.1 419.3L950.0 406.5L951.0 401.3L951.1 401.2L952.0 403.6L953.1 411.2L954.0 417.9L955.0 424.1L956.1 438.1L957.8 433.7L958.0 434.1L959.9 426.3L960.9 413.1L961.5 411.1L962.1 412.5L963.9 417.8L965.0 405.8L965.9 402.5L966.0 402.5L967.1 406.3L968.1 414.7L969.0 420.9L970.1 428.5L971.9 441.5L972.7 435.5L973.1 436.9L974.9 422.5L976.0 412.5L976.3 411.7L977.0 413.7L979.0 415.2L979.9 406.0L980.7 403.5L981.1 403.8L982.1 409.0L983.0 416.9L984.1 423.6L985.1 433.5L987.0 440.4L987.5 436.8L988.9 438.7L990.0 419.4L990.9 412.5L991.2 412.1L992.0 415.5L993.9 414.2L994.9 405.4L995.5 404.1L996.1 405.1L997.0 410.7L998.1 419.7L999.1 426.0L1000.0 437.1L1002.0 439.2L1002.3 437.6L1004.0 433.5L1005.0 416.9L1005.9 412.2L1006.0 412.2L1007.1 417.4L1008.9 411.8L1010.0 405.0L1010.3 404.5L1011.0 406.0L1012.0 413.3L1013.1 422.0L1014.0 427.5L1015.0 444.1L1016.9 438.8L1017.2 438.0L1019.0 428.3L1019.9 415.7L1020.8 412.1L1021.1 412.4L1022.1 419.1L1024.0 409.6L1024.2 407.8L880 470L695 470Z" class="spk-sinyal" opacity=".2"/>
<path d="M550.9 405.9L551.5 404.7L552.1 405.7L553.0 411.5L554.1 420.8L555.1 427.1L556.0 438.6L558.0 439.7L558.4 437.9L560.0 432.1L561.0 416.4L561.9 411.7L562.0 411.7L563.1 416.5L564.9 411.6L566.0 405.1L566.3 404.6L567.0 406.2L568.0 413.6L569.1 422.5L570.0 427.9L571.0 444.4L572.9 438.3L573.2 437.3L575.0 426.8L575.9 414.7L576.8 411.1L577.1 411.3L578.1 417.6L580.0 409.0L581.0 404.4L581.1 404.3L582.0 407.0L583.1 415.6L584.0 423.1L585.0 429.5L586.1 451.0L587.9 436.5L588.0 436.4L589.9 423.7L590.9 412.2L591.6 410.2L592.1 411.1L593.9 416.4L595.0 406.7L595.9 403.7L596.0 403.8L597.1 408.0L598.1 417.4L599.0 423.9L600.1 431.1L601.9 442.9L602.8 435.0L603.9 435.1L604.9 418.9L606.0 409.9L606.4 409.0L607.0 410.3L609.0 412.8L609.9 405.0L610.7 402.9L611.1 403.3L612.1 409.0L613.0 417.8L614.1 424.2L615.1 432.6L617.0 436.6L617.6 433.0L618.9 429.8L620.0 414.4L620.9 408.0L621.2 407.5L622.0 409.9L623.9 410.2L624.9 402.7L625.5 401.7L626.1 402.9L627.0 409.0L628.1 418.8L629.1 423.9L630.0 431.8L632.0 431.7L632.4 430.5L634.0 423.5L635.0 410.1L635.9 405.6L636.0 405.5L637.1 409.3L638.9 406.3L640.0 400.5L640.3 400.1L641.0 401.8L642.0 409.8L643.1 419.1L644.0 422.6L645.0 431.1L646.9 427.7L647.2 427.2L649.0 417.0L649.9 406.6L650.8 403.1L651.1 403.2L652.1 408.0L654.0 402.2L655.0 398.2L655.1 398.1L656.0 401.2L657.1 410.5L658.0 417.9L659.0 421.0L660.9 427.4L661.9 422.9L663.0 422.2L663.9 411.7L664.9 401.9L665.6 399.9L666.1 400.5L667.0 405.1L669.0 398.0L669.8 395.6L670.0 395.7L671.1 400.4L672.1 410.7L673.0 416.2L674.1 418.0L675.9 419.5L676.8 417.2L677.9 415.4L678.9 404.3L680.0 396.7L680.5 395.8L681.0 396.6L683.0 399.5L683.9 393.8L684.6 392.1L685.1 392.7L686.1 399.2L687.0 409.2L688.6 412.5L689.1 412.9L691.0 410.7L692.0 409.3L692.9 405.5L694.0 395.7L694.9 390.5L695.3 389.9L696.0 391.2L697.9 392.7L698.9 387.8L699.4 387.2L700.1 388.7L701.0 396.0L703.0 407.4L703.9 404.6L704.9 402.4L706.0 399.1L706.9 397.2L708.0 391.9L709.0 384.2L709.9 380.6L710.3 380.4L711.1 381.7L712.9 381.7L714.0 378.8L714.1 378.7L715.0 381.2L716.0 391.6L717.9 397.5L718.9 389.4L720.0 383.4L720.9 378.7L721.9 373.8L723.0 367.7L723.9 362.2L724.9 358.2L726.0 356.5L726.9 355.1L728.0 352.1L729.0 349.2L729.8 348.5L730.0 348.6L731.1 350.1L732.0 352.0L734.0 352.3L734.9 351.9L735.6 351.8L736.0 351.9L737.1 352.8L738.0 355.3L739.1 359.8L740.1 363.6L741.0 365.4L742.1 369.4L743.1 381.6L745.0 394.1L746.0 383.6L746.1 383.5L747.0 387.5L749.0 399.9L749.9 383.6L751.0 374.9L751.9 372.4L752.0 372.4L753.0 375.9L754.1 385.2L755.9 379.9L757.0 377.0L757.9 377.0L758.9 372.7L760.0 366.1L760.9 362.4L761.9 360.9L763.0 360.7L763.9 359.1L765.0 355.0L766.0 350.5L766.9 348.1L767.7 347.4L768.1 347.5L769.0 348.7L770.0 350.7L771.1 352.0L772.0 352.5L773.0 353.1L774.1 354.8L775.0 356.8L776.1 358.7L777.1 359.4L778.0 360.0L779.1 362.9L780.1 370.2L781.0 382.5L783.0 390.6L783.9 386.0L784.8 385.3L786.0 384.7L786.9 382.9L788.0 380.6L788.7 380.1L789.0 380.2L791.0 379.9L791.9 374.1L792.9 369.0L793.6 367.9L794.1 368.2L795.0 370.5L797.0 368.1L797.9 363.7L798.9 360.4L800.0 358.3L800.9 356.4L802.0 353.7L803.0 351.2L803.9 350.1L804.0 350.1L805.1 351.2L806.0 353.9L808.0 356.9L808.9 354.9L809.9 353.1L810.4 352.9L811.1 353.4L812.0 355.3L813.1 358.3L814.1 360.8L815.0 362.6L816.1 366.8L817.1 377.0L819.0 392.2L820.0 380.3L820.7 378.6L821.0 378.8L822.1 382.0L823.9 380.4L825.0 376.1L825.9 374.3L826.0 374.3L827.0 376.6L828.9 378.9L829.9 374.0L830.4 373.4L831.1 375.4L832.9 380.2L834.0 367.9L834.9 361.6L835.9 358.1L837.0 356.0L837.9 354.3L839.0 352.5L840.0 350.5L840.9 348.9L841.6 348.3L842.1 348.5L843.0 350.3L844.0 353.5L845.9 352.2L846.9 350.9L847.0 350.9L848.1 352.7L849.0 355.9L850.1 359.9L851.1 363.5L852.0 367.1L853.1 372.0L854.1 378.7L855.0 389.2L857.0 403.4L857.8 396.1L858.0 396.3L860.0 405.8L860.9 384.9L862.0 377.5L862.4 376.8L863.0 377.5L864.0 381.4L865.1 385.3L866.0 387.5L867.0 390.8L868.1 394.8L869.0 399.7L870.1 416.1L871.9 404.6L872.7 400.2L873.1 401.2L874.9 411.1L876.0 391.5L877.0 385.8L877.2 385.6L878.0 387.3L879.1 392.8L880.0 396.9L881.0 399.9L882.1 404.3L883.0 407.4L884.0 412.5L885.9 423.3L886.9 405.3L887.5 403.3L888.1 405.6L889.9 409.3L891.0 394.6L891.9 390.9L892.0 390.9L893.1 394.0L894.1 400.5L895.0 404.8L896.1 408.9L897.1 414.6L898.0 416.5L899.1 422.1L900.9 418.1L902.0 406.4L902.3 405.7L903.0 408.6L905.0 408.0L905.9 397.4L906.8 394.6L907.1 394.8L908.1 399.4L909.0 405.9L910.1 410.9L911.1 416.6L912.0 422.9L913.1 423.0L914.1 430.3L916.0 415.6L916.9 407.9L917.1 407.6L918.0 412.3L919.9 408.6L920.9 398.8L921.6 397.4L922.1 398.2L923.0 403.2L924.1 410.8L925.1 416.0L926.0 422.7L928.0 427.7L928.1 427.7L930.0 433.9L931.0 414.0L931.9 409.1L932.0 409.1L933.1 415.9L934.9 407.4L936.0 400.1L936.3 399.5L937.0 400.8L938.0 407.4L939.1 415.0L940.0 419.8L941.0 430.0L942.9 431.1L943.0 431.1L945.0 428.3L945.9 414.0L946.7 410.3L947.1 410.7L948.1 419.3L950.0 406.5L951.0 401.3L951.1 401.2L952.0 403.6L953.1 411.2L954.0 417.9L955.0 424.1L956.1 438.1L957.8 433.7L958.0 434.1L959.9 426.3L960.9 413.1L961.5 411.1L962.1 412.5L963.9 417.8L965.0 405.8L965.9 402.5L966.0 402.5L967.1 406.3L968.1 414.7L969.0 420.9L970.1 428.5L971.9 441.5L972.7 435.5L973.1 436.9L974.9 422.5L976.0 412.5L976.3 411.7L977.0 413.7L979.0 415.2L979.9 406.0L980.7 403.5L981.1 403.8L982.1 409.0L983.0 416.9L984.1 423.6L985.1 433.5L987.0 440.4L987.5 436.8L988.9 438.7L990.0 419.4L990.9 412.5L991.2 412.1L992.0 415.5L993.9 414.2L994.9 405.4L995.5 404.1L996.1 405.1L997.0 410.7L998.1 419.7L999.1 426.0L1000.0 437.1L1002.0 439.2L1002.3 437.6L1004.0 433.5L1005.0 416.9L1005.9 412.2L1006.0 412.2L1007.1 417.4L1008.9 411.8L1010.0 405.0L1010.3 404.5L1011.0 406.0L1012.0 413.3L1013.1 422.0L1014.0 427.5L1015.0 444.1L1016.9 438.8L1017.2 438.0L1019.0 428.3L1019.9 415.7L1020.8 412.1L1021.1 412.4L1022.1 419.1L1024.0 409.6L1024.2 407.8" fill="none" stroke="var(--accent)" stroke-width="1.2"/>
<rect x="696" y="341" width="183" height="15" fill="var(--dia-panel)" opacity=".85"/>
<text x="699" y="352" class="s-kucuk s-vurgu">BW adımlar ±15 MHz'e yayılır</text>
<text x="788" y="496" text-anchor="middle" class="s-kucuk">f − f₀ (MHz) · dB</text>
</svg>