<?xml version="1.0" encoding="UTF-8" standalone="no"?>
<svg viewBox="0 0 1783 680"
     preserveAspectRatio="xMidYMid meet"
     version="1.1"
     baseProfile="full"
     xmlns="http://www.w3.org/2000/svg"
     xmlns:xlink="http://www.w3.org/1999/xlink"
     xmlns:ev="http://www.w3.org/2001/xml-events"
     xml:space="preserve">
<title>sistem_imp</title>
<desc>Nlview schematic (SVG)</desc>
<clipPath id="clippingbbox">
<rect x="0" y="0" width="1783" height="680" />
</clipPath>
<g stroke="#102235"
   stroke-width="1"
   stroke-linecap="butt"
   stroke-linejoin="miter"
   stroke-miterlimit="4"
   stroke-dasharray="none"
   stroke-dashoffset="0"
   fill="none"
   font-family="Helvetica"
   font-style="normal"
   font-size="12"
   writing-mode="lr-tb"
   cursor="crosshair"
   clip-path="url(#clippingbbox)">
<path d="M0 0h1782v681h-1782z" stroke="none" fill="white" />
<path d="M77 362h126l3 1l2 1l1 2l1 3v82l-1 3l-1 2l-2 1l-3 1h-126l-3 -1l-2 -1l-1 -2l-1 -3v-82l1 -3l1 -2l2 -1z" stroke="none" fill="#edf6fe" />
<text x="140" y="360" fill="black" stroke-width="0" text-anchor="middle">irq_concat</text>
<text x="140" y="460" fill="#41619f" stroke-width="0" text-anchor="middle" dy="7.7">Concat</text>
<g stroke="black" stroke-width="5">
<path d="M60 390h10" />
<text x="72" y="390" fill="black" stroke-width="0" font-size="10" dy="3.25">In0[0:0]</text>
<path d="M60 410h10" />
<text x="72" y="410" fill="black" stroke-width="0" font-size="10" dy="3.25">In1[0:0]</text>
<path d="M60 430h10" />
<text x="72" y="430" fill="black" stroke-width="0" font-size="10" dy="3.25">In2[0:0]</text>
<path d="M220 410h-10" />
<text x="208" y="410" fill="black" stroke-width="0" font-size="10" text-anchor="end" dy="3.25">dout[2:0]</text>
</g>
<g stroke="#41619f">
<path d="M77 362h126" />
<path d="M203,362 A6.83537,6.83537 1.61957 0,1 210,369" />
<path d="M210 369v82" />
<path d="M210,451 A6.83537,6.83537 1.61957 0,1 203,458" />
<path d="M203 458h-126" />
<path d="M77,458 A6.83537,6.83537 1.61957 0,1 70,451" />
<path d="M70 451v-82" />
<path d="M70,369 A6.83537,6.83537 1.61957 0,1 77,362" />
<path d="M407 42h266l3 1l2 1l1 2l1 3v122l-1 3l-1 2l-2 1l-3 1h-266l-3 -1l-2 -1l-1 -2l-1 -3v-122l1 -3l1 -2l2 -1z" stroke="none" fill="#edf6fe" />
<text x="540" y="40" fill="black" stroke-width="0" text-anchor="middle">rst_ps_ultra_99M</text>
<text x="540" y="180" fill="#41619f" stroke-width="0" text-anchor="middle" dy="7.7">Processor System Reset</text>
</g>
<g stroke="black" stroke-width="3">
<path d="M390 70h10" />
<text x="402" y="70" fill="black" stroke-width="0" font-size="10" dy="3.25">slowest_sync_clk</text>
<circle cx="397" cy="90" r="3" />
<path d="M390 90h4" />
<text x="402" y="90" fill="black" stroke-width="0" font-size="10" dy="3.25">ext_reset_in</text>
<circle cx="397" cy="110" r="3" />
<path d="M390 110h4" />
<text x="402" y="110" fill="black" stroke-width="0" font-size="10" dy="3.25">aux_reset_in</text>
<path d="M390 130h10" />
<text x="402" y="130" fill="black" stroke-width="0" font-size="10" dy="3.25">mb_debug_sys_rst</text>
<path d="M390 150h10" />
<text x="402" y="150" fill="black" stroke-width="0" font-size="10" dy="3.25">dcm_locked</text>
<path d="M690 70h-10" />
<text x="678" y="70" fill="black" stroke-width="0" font-size="10" text-anchor="end" dy="3.25">mb_reset</text>
</g>
<g stroke="black" stroke-width="5">
<path d="M690 90h-10" />
<text x="678" y="90" fill="black" stroke-width="0" font-size="10" text-anchor="end" dy="3.25">bus_struct_reset[0:0]</text>
<path d="M690 110h-10" />
<text x="678" y="110" fill="black" stroke-width="0" font-size="10" text-anchor="end" dy="3.25">peripheral_reset[0:0]</text>
<circle cx="683" cy="130" r="3" />
<path d="M690 130h-4" />
<text x="678" y="130" fill="black" stroke-width="0" font-size="10" text-anchor="end" dy="3.25">interconnect_aresetn[0:0]</text>
<circle cx="683" cy="150" r="3" />
<path d="M690 150h-4" />
<text x="678" y="150" fill="black" stroke-width="0" font-size="10" text-anchor="end" dy="3.25">peripheral_aresetn[0:0]</text>
</g>
<g stroke="#41619f">
<path d="M407 42h266" />
<path d="M673,42 A6.83537,6.83537 1.61957 0,1 680,49" />
<path d="M680 49v122" />
<path d="M680,171 A6.83537,6.83537 1.61957 0,1 673,178" />
<path d="M673 178h-266" />
<path d="M407,178 A6.83537,6.83537 1.61957 0,1 400,171" />
<path d="M400 171v-122" />
<path d="M400,49 A6.83537,6.83537 1.61957 0,1 407,42" />
<path d="M287 338h506l3 1l2 1l1 2l1 3v110l-1 3l-1 2l-2 1l-3 1h-506l-3 -1l-2 -1l-1 -2l-1 -3v-110l1 -3l1 -2l2 -1z" stroke="none" fill="#edf6fe" />
<text x="540" y="336" fill="black" stroke-width="0" text-anchor="middle">ps_ultra</text>
<text x="540" y="464" fill="#41619f" stroke-width="0" text-anchor="middle" dy="7.7">Zynq UltraScale+ MPSoC</text>
<path d="M800 371h10v18h-10z" stroke="none" fill="#edf6fe" />
</g>
<g stroke="#41619f" stroke-width="3">
<path d="M790 375v10" />
<path d="M785 380h10" />
</g>
<g stroke="#41619f">
<path d="M783 373h14v14h-14z" />
<text x="783" y="380" fill="black" stroke-width="0" font-size="10" text-anchor="end" dy="3.25">M_AXI_HPM0_FPD</text>
</g>
<g stroke="black" stroke-width="3">
<path d="M270 390h10" />
<text x="282" y="390" fill="black" stroke-width="0" font-size="10" dy="3.25">maxihpm0_fpd_aclk</text>
</g>
<g stroke="black" stroke-width="5">
<path d="M270 410h10" />
<text x="282" y="410" fill="black" stroke-width="0" font-size="10" dy="3.25">pl_ps_irq0[2:0]</text>
</g>
<g stroke="black" stroke-width="3">
<circle cx="803" cy="400" r="3" />
<path d="M810 400h-4" />
<text x="798" y="400" fill="black" stroke-width="0" font-size="10" text-anchor="end" dy="3.25">pl_resetn0</text>
<path d="M810 420h-10" />
<text x="798" y="420" fill="black" stroke-width="0" font-size="10" text-anchor="end" dy="3.25">pl_clk0</text>
</g>
<g stroke="#41619f">
<path d="M287 338h506" />
<path d="M793,338 A6.83537,6.83537 1.61957 0,1 800,345" />
<path d="M800 345v110" />
<path d="M800,455 A6.83537,6.83537 1.61957 0,1 793,462" />
<path d="M793 462h-506" />
<path d="M287,462 A6.83537,6.83537 1.61957 0,1 280,455" />
<path d="M280 455v-110" />
<path d="M280,345 A6.83537,6.83537 1.61957 0,1 287,338" />
<path d="M887 342h186l3 1l2 1l1 2l1 3v102l-1 3l-1 2l-2 1l-3 1h-186l-3 -1l-2 -1l-1 -2l-1 -3v-102l1 -3l1 -2l2 -1z" stroke="none" fill="#edf6fe" />
<text x="980" y="340" fill="black" stroke-width="0" text-anchor="middle">axi_smc</text>
<text x="980" y="460" fill="#41619f" stroke-width="0" text-anchor="middle" dy="7.7">AXI SmartConnect</text>
<path d="M870 371h10v18h-10z" stroke="none" fill="#edf6fe" />
</g>
<g stroke="#41619f" stroke-width="3">
<path d="M889 375v10" />
<path d="M884 380h10" />
</g>
<g stroke="#41619f">
<path d="M882 373h14v14h-14z" />
<text x="897" y="380" fill="black" stroke-width="0" font-size="10" dy="3.25">S00_AXI</text>
<path d="M1080 361h10v18h-10z" stroke="none" fill="#edf6fe" />
</g>
<g stroke="#41619f" stroke-width="3">
<path d="M1070 365v10" />
<path d="M1065 370h10" />
</g>
<g stroke="#41619f">
<path d="M1063 363h14v14h-14z" />
<text x="1063" y="370" fill="black" stroke-width="0" font-size="10" text-anchor="end" dy="3.25">M00_AXI</text>
<path d="M1080 381h10v18h-10z" stroke="none" fill="#edf6fe" />
</g>
<g stroke="#41619f" stroke-width="3">
<path d="M1070 385v10" />
<path d="M1065 390h10" />
</g>
<g stroke="#41619f">
<path d="M1063 383h14v14h-14z" />
<text x="1063" y="390" fill="black" stroke-width="0" font-size="10" text-anchor="end" dy="3.25">M01_AXI</text>
<path d="M1080 401h10v18h-10z" stroke="none" fill="#edf6fe" />
</g>
<g stroke="#41619f" stroke-width="3">
<path d="M1070 405v10" />
<path d="M1065 410h10" />
</g>
<g stroke="#41619f">
<path d="M1063 403h14v14h-14z" />
<text x="1063" y="410" fill="black" stroke-width="0" font-size="10" text-anchor="end" dy="3.25">M02_AXI</text>
<path d="M1080 421h10v18h-10z" stroke="none" fill="#edf6fe" />
</g>
<g stroke="#41619f" stroke-width="3">
<path d="M1070 425v10" />
<path d="M1065 430h10" />
</g>
<g stroke="#41619f">
<path d="M1063 423h14v14h-14z" />
<text x="1063" y="430" fill="black" stroke-width="0" font-size="10" text-anchor="end" dy="3.25">M03_AXI</text>
</g>
<g stroke="black" stroke-width="3">
<path d="M870 400h10" />
<text x="882" y="400" fill="black" stroke-width="0" font-size="10" dy="3.25">aclk</text>
<circle cx="877" cy="420" r="3" />
<path d="M870 420h4" />
<text x="882" y="420" fill="black" stroke-width="0" font-size="10" dy="3.25">aresetn</text>
</g>
<g stroke="#41619f">
<path d="M887 342h186" />
<path d="M1073,342 A6.83537,6.83537 1.61957 0,1 1080,349" />
<path d="M1080 349v102" />
<path d="M1080,451 A6.83537,6.83537 1.61957 0,1 1073,458" />
<path d="M1073 458h-186" />
<path d="M887,458 A6.83537,6.83537 1.61957 0,1 880,451" />
<path d="M880 451v-102" />
<path d="M880,349 A6.83537,6.83537 1.61957 0,1 887,342" />
<path d="M1187 22h186l3 1l2 1l1 2l1 3v142l-1 3l-1 2l-2 1l-3 1h-186l-3 -1l-2 -1l-1 -2l-1 -3v-142l1 -3l1 -2l2 -1z" stroke="none" fill="#edf6fe" />
<text x="1280" y="20" fill="black" stroke-width="0" text-anchor="middle">axi_timer_0</text>
<text x="1280" y="180" fill="#41619f" stroke-width="0" text-anchor="middle" dy="7.7">AXI Timer</text>
<path d="M1170 41h10v18h-10z" stroke="none" fill="#edf6fe" />
</g>
<g stroke="#41619f" stroke-width="3">
<path d="M1189 45v10" />
<path d="M1184 50h10" />
</g>
<g stroke="#41619f">
<path d="M1182 43h14v14h-14z" />
<text x="1197" y="50" fill="black" stroke-width="0" font-size="10" dy="3.25">S_AXI</text>
</g>
<g stroke="black" stroke-width="3">
<path d="M1170 70h10" />
<text x="1182" y="70" fill="black" stroke-width="0" font-size="10" dy="3.25">capturetrig0</text>
<path d="M1170 90h10" />
<text x="1182" y="90" fill="black" stroke-width="0" font-size="10" dy="3.25">capturetrig1</text>
<path d="M1390 70h-10" />
<text x="1378" y="70" fill="black" stroke-width="0" font-size="10" text-anchor="end" dy="3.25">generateout0</text>
<path d="M1390 90h-10" />
<text x="1378" y="90" fill="black" stroke-width="0" font-size="10" text-anchor="end" dy="3.25">generateout1</text>
<path d="M1390 110h-10" />
<text x="1378" y="110" fill="black" stroke-width="0" font-size="10" text-anchor="end" dy="3.25">pwm0</text>
<path d="M1390 130h-10" />
<text x="1378" y="130" fill="black" stroke-width="0" font-size="10" text-anchor="end" dy="3.25">interrupt</text>
<path d="M1170 110h10" />
<text x="1182" y="110" fill="black" stroke-width="0" font-size="10" dy="3.25">freeze</text>
<path d="M1170 130h10" />
<text x="1182" y="130" fill="black" stroke-width="0" font-size="10" dy="3.25">s_axi_aclk</text>
<circle cx="1177" cy="150" r="3" />
<path d="M1170 150h4" />
<text x="1182" y="150" fill="black" stroke-width="0" font-size="10" dy="3.25">s_axi_aresetn</text>
</g>
<g stroke="#41619f">
<path d="M1187 22h186" />
<path d="M1373,22 A6.83537,6.83537 1.61957 0,1 1380,29" />
<path d="M1380 29v142" />
<path d="M1380,171 A6.83537,6.83537 1.61957 0,1 1373,178" />
<path d="M1373 178h-186" />
<path d="M1187,178 A6.83537,6.83537 1.61957 0,1 1180,171" />
<path d="M1180 171v-142" />
<path d="M1180,29 A6.83537,6.83537 1.61957 0,1 1187,22" />
<path d="M1187 242h186l3 1l2 1l1 2l1 3v82l-1 3l-1 2l-2 1l-3 1h-186l-3 -1l-2 -1l-1 -2l-1 -3v-82l1 -3l1 -2l2 -1z" stroke="none" fill="#edf6fe" />
<text x="1280" y="240" fill="black" stroke-width="0" text-anchor="middle">axi_gpio_led</text>
<text x="1280" y="340" fill="#41619f" stroke-width="0" text-anchor="middle" dy="7.7">AXI GPIO</text>
<path d="M1170 261h10v18h-10z" stroke="none" fill="#edf6fe" />
</g>
<g stroke="#41619f" stroke-width="3">
<path d="M1189 265v10" />
<path d="M1184 270h10" />
</g>
<g stroke="#41619f">
<path d="M1182 263h14v14h-14z" />
<text x="1197" y="270" fill="black" stroke-width="0" font-size="10" dy="3.25">S_AXI</text>
<path d="M1380 271h10v18h-10z" stroke="none" fill="#edf6fe" />
</g>
<g stroke="#41619f" stroke-width="3">
<path d="M1370 275v10" />
<path d="M1365 280h10" />
</g>
<g stroke="#41619f">
<path d="M1363 273h14v14h-14z" />
<text x="1363" y="280" fill="black" stroke-width="0" font-size="10" text-anchor="end" dy="3.25">GPIO</text>
</g>
<g stroke="black" stroke-width="3">
<path d="M1170 290h10" />
<text x="1182" y="290" fill="black" stroke-width="0" font-size="10" dy="3.25">s_axi_aclk</text>
<circle cx="1177" cy="310" r="3" />
<path d="M1170 310h4" />
<text x="1182" y="310" fill="black" stroke-width="0" font-size="10" dy="3.25">s_axi_aresetn</text>
<path d="M1390 300h-10" />
<text x="1378" y="300" fill="black" stroke-width="0" font-size="10" text-anchor="end" dy="3.25">ip2intc_irpt</text>
</g>
<g stroke="#41619f">
<path d="M1187 242h186" />
<path d="M1373,242 A6.83537,6.83537 1.61957 0,1 1380,249" />
<path d="M1380 249v82" />
<path d="M1380,331 A6.83537,6.83537 1.61957 0,1 1373,338" />
<path d="M1373 338h-186" />
<path d="M1187,338 A6.83537,6.83537 1.61957 0,1 1180,331" />
<path d="M1180 331v-82" />
<path d="M1180,249 A6.83537,6.83537 1.61957 0,1 1187,242" />
<path d="M1187 402h186l3 1l2 1l1 2l1 3v82l-1 3l-1 2l-2 1l-3 1h-186l-3 -1l-2 -1l-1 -2l-1 -3v-82l1 -3l1 -2l2 -1z" stroke="none" fill="#edf6fe" />
<text x="1280" y="400" fill="black" stroke-width="0" text-anchor="middle">axi_bram_ctrl_0</text>
<text x="1280" y="500" fill="#41619f" stroke-width="0" text-anchor="middle" dy="7.7">AXI BRAM Controller</text>
<path d="M1170 421h10v18h-10z" stroke="none" fill="#edf6fe" />
</g>
<g stroke="#41619f" stroke-width="3">
<path d="M1189 425v10" />
<path d="M1184 430h10" />
</g>
<g stroke="#41619f">
<path d="M1182 423h14v14h-14z" />
<text x="1197" y="430" fill="black" stroke-width="0" font-size="10" dy="3.25">S_AXI</text>
<path d="M1380 441h10v18h-10z" stroke="none" fill="#edf6fe" />
</g>
<g stroke="#41619f" stroke-width="3">
<path d="M1370 445v10" />
<path d="M1365 450h10" />
</g>
<g stroke="#41619f">
<path d="M1363 443h14v14h-14z" />
<text x="1363" y="450" fill="black" stroke-width="0" font-size="10" text-anchor="end" dy="3.25">BRAM_PORTA</text>
</g>
<g stroke="black" stroke-width="3">
<path d="M1170 450h10" />
<text x="1182" y="450" fill="black" stroke-width="0" font-size="10" dy="3.25">s_axi_aclk</text>
<circle cx="1177" cy="470" r="3" />
<path d="M1170 470h4" />
<text x="1182" y="470" fill="black" stroke-width="0" font-size="10" dy="3.25">s_axi_aresetn</text>
</g>
<g stroke="#41619f">
<path d="M1187 402h186" />
<path d="M1373,402 A6.83537,6.83537 1.61957 0,1 1380,409" />
<path d="M1380 409v82" />
<path d="M1380,491 A6.83537,6.83537 1.61957 0,1 1373,498" />
<path d="M1373 498h-186" />
<path d="M1187,498 A6.83537,6.83537 1.61957 0,1 1180,491" />
<path d="M1180 491v-82" />
<path d="M1180,409 A6.83537,6.83537 1.61957 0,1 1187,402" />
<path d="M1197 542h166l3 1l2 1l1 2l1 3v82l-1 3l-1 2l-2 1l-3 1h-166l-3 -1l-2 -1l-1 -2l-1 -3v-82l1 -3l1 -2l2 -1z" stroke="none" fill="#edf6fe" />
<text x="1280" y="540" fill="black" stroke-width="0" text-anchor="middle">axi_uartlite_dbg</text>
<text x="1280" y="640" fill="#41619f" stroke-width="0" text-anchor="middle" dy="7.7">AXI Uartlite</text>
<path d="M1180 561h10v18h-10z" stroke="none" fill="#edf6fe" />
</g>
<g stroke="#41619f" stroke-width="3">
<path d="M1199 565v10" />
<path d="M1194 570h10" />
</g>
<g stroke="#41619f">
<path d="M1192 563h14v14h-14z" />
<text x="1207" y="570" fill="black" stroke-width="0" font-size="10" dy="3.25">S_AXI</text>
<path d="M1370 571h10v18h-10z" stroke="none" fill="#edf6fe" />
</g>
<g stroke="#41619f" stroke-width="3">
<path d="M1360 575v10" />
<path d="M1355 580h10" />
</g>
<g stroke="#41619f">
<path d="M1353 573h14v14h-14z" />
<text x="1353" y="580" fill="black" stroke-width="0" font-size="10" text-anchor="end" dy="3.25">UART</text>
</g>
<g stroke="black" stroke-width="3">
<path d="M1180 590h10" />
<text x="1192" y="590" fill="black" stroke-width="0" font-size="10" dy="3.25">s_axi_aclk</text>
<circle cx="1187" cy="610" r="3" />
<path d="M1180 610h4" />
<text x="1192" y="610" fill="black" stroke-width="0" font-size="10" dy="3.25">s_axi_aresetn</text>
<path d="M1380 600h-10" />
<text x="1368" y="600" fill="black" stroke-width="0" font-size="10" text-anchor="end" dy="3.25">interrupt</text>
</g>
<g stroke="#41619f">
<path d="M1197 542h166" />
<path d="M1363,542 A6.83537,6.83537 1.61957 0,1 1370,549" />
<path d="M1370 549v82" />
<path d="M1370,631 A6.83537,6.83537 1.61957 0,1 1363,638" />
<path d="M1363 638h-166" />
<path d="M1197,638 A6.83537,6.83537 1.61957 0,1 1190,631" />
<path d="M1190 631v-82" />
<path d="M1190,549 A6.83537,6.83537 1.61957 0,1 1197,542" />
<path d="M1447 422h166l3 1l2 1l1 2l1 3v42l-1 3l-1 2l-2 1l-3 1h-166l-3 -1l-2 -1l-1 -2l-1 -3v-42l1 -3l1 -2l2 -1z" stroke="none" fill="#edf6fe" />
<text x="1530" y="420" fill="black" stroke-width="0" text-anchor="middle">axi_bram_ctrl_0_bram</text>
<text x="1530" y="480" fill="#41619f" stroke-width="0" text-anchor="middle" dy="7.7">Block Memory Generator</text>
<path d="M1430 441h10v18h-10z" stroke="none" fill="#edf6fe" />
</g>
<g stroke="#41619f" stroke-width="3">
<path d="M1449 445v10" />
<path d="M1444 450h10" />
</g>
<g stroke="#41619f">
<path d="M1442 443h14v14h-14z" />
<text x="1457" y="450" fill="black" stroke-width="0" font-size="10" dy="3.25">BRAM_PORTA</text>
</g>
<g stroke="black" stroke-width="3">
<path d="M1630 450h-10" />
<text x="1618" y="450" fill="black" stroke-width="0" font-size="10" text-anchor="end" dy="3.25">rsta_busy</text>
</g>
<g stroke="#41619f">
<path d="M1447 422h166" />
<path d="M1613,422 A6.83537,6.83537 1.61957 0,1 1620,429" />
<path d="M1620 429v42" />
<path d="M1620,471 A6.83537,6.83537 1.61957 0,1 1613,478" />
<path d="M1613 478h-166" />
<path d="M1447,478 A6.83537,6.83537 1.61957 0,1 1440,471" />
<path d="M1440 471v-42" />
<path d="M1440,429 A6.83537,6.83537 1.61957 0,1 1447,422" />
<path d="M1670 280v-7h14l7 7l-7 7h-14z" stroke="none" fill="#ddd4d0" />
</g>
<g stroke="#2a5e6f" stroke-width="3">
<path d="M1670 280v-7h14l7 7l-7 7h-14z" />
<text x="1695" y="280" fill="black" stroke-width="0" dy="3.85">led_8bits</text>
<path d="M1670 580v-7h14l7 7l-7 7h-14z" stroke="none" fill="#ddd4d0" />
<path d="M1670 580v-7h14l7 7l-7 7h-14z" />
<text x="1695" y="580" fill="black" stroke-width="0" dy="3.85">uart_pl</text>
</g>
<g stroke="#41619f" stroke-width="4">
<path d="M1390 450h40" />
<path d="M1390 280h280" />
</g>
<g>
<path d="M60 430h-30v-130h1100v70h280v-70h-20" />
</g>
<g stroke="#41619f" stroke-width="4">
<path d="M1090 370h30v-100h50" />
<path d="M1090 390h20v-340h60" />
<path d="M1090 410h30v160h60" />
<path d="M1090 430h80" />
</g>
<g>
<path d="M60 390h-40v-180h1390v-80h-20" />
</g>
<g stroke="#41619f" stroke-width="4">
<path d="M1380 580h290" />
</g>
<g>
<path d="M60 410h-20v260h1370v-70h-30" />
</g>
<g stroke-width="3">
<path d="M220 410h50" />
</g>
<g stroke="#41619f" stroke-width="4">
<path d="M810 380h60" />
</g>
<g>
<path d="M390 70h-150v320h30" />
<path d="M240 310h600v180h300" />
<path d="M1138 288h5v5h-5z" stroke="none" fill="#102235" />
<path d="M1138 448h5v5h-5z" stroke="none" fill="#102235" />
<path d="M1138 488h5v5h-5z" stroke="none" fill="#102235" />
<path d="M238 308h5v5h-5z" stroke="none" fill="#102235" />
<path d="M840 400h30" />
<path d="M810 420h30" />
<path d="M838 398h5v5h-5z" stroke="none" fill="#102235" />
<path d="M838 418h5v5h-5z" stroke="none" fill="#102235" />
<path d="M1170 130h-30v460h40" />
<path d="M1140 290h30" />
<path d="M1140 450h30" />
<path d="M390 90h-140v200h580v110h-20" />
</g>
<g stroke-width="3">
<path d="M690 150h160v270h20" />
<path d="M850 220h300" />
<path d="M1150 310h20" />
<path d="M1150 470h20" />
<path d="M1147 217h7v7h-7z" stroke="none" fill="#102235" />
<path d="M1147 307h7v7h-7z" stroke="none" fill="#102235" />
<path d="M1147 467h7v7h-7z" stroke="none" fill="#102235" />
<path d="M847 217h7v7h-7z" stroke="none" fill="#102235" />
<path d="M1170 150h-20v460h30" />
</g>
</g>
</svg>
