<?xml version="1.0" encoding="UTF-8" standalone="no"?>
<svg viewBox="0 0 2143 650"
     preserveAspectRatio="xMidYMid meet"
     version="1.1"
     baseProfile="full"
     xmlns="http://www.w3.org/2000/svg"
     xmlns:xlink="http://www.w3.org/1999/xlink"
     xmlns:ev="http://www.w3.org/2001/xml-events"
     xml:space="preserve">
<title>sistem_imp</title>
<desc>Nlview schematic (SVG)</desc>
<clipPath id="clippingbbox">
<rect x="0" y="0" width="2143" height="650" />
</clipPath>
<g stroke="#102235"
   stroke-width="1"
   stroke-linecap="butt"
   stroke-linejoin="miter"
   stroke-miterlimit="4"
   stroke-dasharray="none"
   stroke-dashoffset="0"
   fill="none"
   font-family="Helvetica"
   font-style="normal"
   font-size="12"
   writing-mode="lr-tb"
   cursor="crosshair"
   clip-path="url(#clippingbbox)">
<path d="M0 0h2142v651h-2142z" stroke="none" fill="white" />
<path d="M1251 492h146l3 1l2 1l1 2l1 3v82l-1 3l-1 2l-2 1l-3 1h-146l-3 -1l-2 -1l-1 -2l-1 -3v-82l1 -3l1 -2l2 -1z" stroke="none" fill="#edf6fe" />
<text x="1324" y="490" fill="black" stroke-width="0" text-anchor="middle">axi_gpio_led</text>
<text x="1324" y="590" fill="#41619f" stroke-width="0" text-anchor="middle" dy="7.7">AXI GPIO</text>
<path d="M1234 511h10v18h-10z" stroke="none" fill="#edf6fe" />
<g stroke="#41619f" stroke-width="3">
<path d="M1253 515v10" />
<path d="M1248 520h10" />
</g>
<g stroke="#41619f">
<path d="M1246 513h14v14h-14z" />
<text x="1261" y="520" fill="black" stroke-width="0" font-size="10" dy="3.25">S_AXI</text>
<path d="M1404 531h10v18h-10z" stroke="none" fill="#edf6fe" />
</g>
<g stroke="#41619f" stroke-width="3">
<path d="M1394 535v10" />
<path d="M1389 540h10" />
</g>
<g stroke="#41619f">
<path d="M1387 533h14v14h-14z" />
<text x="1387" y="540" fill="black" stroke-width="0" font-size="10" text-anchor="end" dy="3.25">GPIO</text>
</g>
<g stroke="black" stroke-width="3">
<path d="M1234 540h10" />
<text x="1246" y="540" fill="black" stroke-width="0" font-size="10" dy="3.25">s_axi_aclk</text>
<circle cx="1241" cy="560" r="3" />
<path d="M1234 560h4" />
<text x="1246" y="560" fill="black" stroke-width="0" font-size="10" dy="3.25">s_axi_aresetn</text>
</g>
<g stroke="#41619f">
<path d="M1251 492h146" />
<path d="M1397,492 A6.83537,6.83537 1.61957 0,1 1404,499" />
<path d="M1404 499v82" />
<path d="M1404,581 A6.83537,6.83537 1.61957 0,1 1397,588" />
<path d="M1397 588h-146" />
<path d="M1251,588 A6.83537,6.83537 1.61957 0,1 1244,581" />
<path d="M1244 581v-82" />
<path d="M1244,499 A6.83537,6.83537 1.61957 0,1 1251,492" />
<path d="M1201 52h246l3 1l2 1l1 2l1 3v302l-1 3l-1 2l-2 1l-3 1h-246l-3 -1l-2 -1l-1 -2l-1 -3v-302l1 -3l1 -2l2 -1z" stroke="none" fill="#edf6fe" />
<text x="1324" y="50" fill="black" stroke-width="0" text-anchor="middle">axi_noc_0</text>
<text x="1324" y="370" fill="#41619f" stroke-width="0" text-anchor="middle" dy="7.7">AXI NoC</text>
<path d="M1184 71h10v18h-10z" stroke="none" fill="#edf6fe" />
</g>
<g stroke="#41619f" stroke-width="3">
<path d="M1203 75v10" />
<path d="M1198 80h10" />
</g>
<g stroke="#41619f">
<path d="M1196 73h14v14h-14z" />
<text x="1211" y="80" fill="black" stroke-width="0" font-size="10" dy="3.25">S00_AXI</text>
<path d="M1184 91h10v18h-10z" stroke="none" fill="#edf6fe" />
</g>
<g stroke="#41619f" stroke-width="3">
<path d="M1203 95v10" />
<path d="M1198 100h10" />
</g>
<g stroke="#41619f">
<path d="M1196 93h14v14h-14z" />
<text x="1211" y="100" fill="black" stroke-width="0" font-size="10" dy="3.25">S01_AXI</text>
<path d="M1184 111h10v18h-10z" stroke="none" fill="#edf6fe" />
</g>
<g stroke="#41619f" stroke-width="3">
<path d="M1203 115v10" />
<path d="M1198 120h10" />
</g>
<g stroke="#41619f">
<path d="M1196 113h14v14h-14z" />
<text x="1211" y="120" fill="black" stroke-width="0" font-size="10" dy="3.25">S02_AXI</text>
<path d="M1184 131h10v18h-10z" stroke="none" fill="#edf6fe" />
</g>
<g stroke="#41619f" stroke-width="3">
<path d="M1203 135v10" />
<path d="M1198 140h10" />
</g>
<g stroke="#41619f">
<path d="M1196 133h14v14h-14z" />
<text x="1211" y="140" fill="black" stroke-width="0" font-size="10" dy="3.25">S03_AXI</text>
<path d="M1184 151h10v18h-10z" stroke="none" fill="#edf6fe" />
</g>
<g stroke="#41619f" stroke-width="3">
<path d="M1203 155v10" />
<path d="M1198 160h10" />
</g>
<g stroke="#41619f">
<path d="M1196 153h14v14h-14z" />
<text x="1211" y="160" fill="black" stroke-width="0" font-size="10" dy="3.25">S04_AXI</text>
<path d="M1184 171h10v18h-10z" stroke="none" fill="#edf6fe" />
</g>
<g stroke="#41619f" stroke-width="3">
<path d="M1203 175v10" />
<path d="M1198 180h10" />
</g>
<g stroke="#41619f">
<path d="M1196 173h14v14h-14z" />
<text x="1211" y="180" fill="black" stroke-width="0" font-size="10" dy="3.25">S05_AXI</text>
<path d="M1454 191h10v18h-10z" stroke="none" fill="#edf6fe" />
</g>
<g stroke="#41619f" stroke-width="3">
<path d="M1444 195v10" />
<path d="M1439 200h10" />
</g>
<g stroke="#41619f">
<path d="M1437 193h14v14h-14z" />
<text x="1437" y="200" fill="black" stroke-width="0" font-size="10" text-anchor="end" dy="3.25">M00_AXI</text>
<path d="M1184 191h10v18h-10z" stroke="none" fill="#edf6fe" />
</g>
<g stroke="#41619f" stroke-width="3">
<path d="M1203 195v10" />
<path d="M1198 200h10" />
</g>
<g stroke="#41619f">
<path d="M1196 193h14v14h-14z" />
<text x="1211" y="200" fill="black" stroke-width="0" font-size="10" dy="3.25">sys_clk0</text>
<path d="M1454 211h10v18h-10z" stroke="none" fill="#edf6fe" />
</g>
<g stroke="#41619f" stroke-width="3">
<path d="M1444 215v10" />
<path d="M1439 220h10" />
</g>
<g stroke="#41619f">
<path d="M1437 213h14v14h-14z" />
<text x="1437" y="220" fill="black" stroke-width="0" font-size="10" text-anchor="end" dy="3.25">CH0_DDR4_0</text>
</g>
<g stroke="black" stroke-width="3">
<path d="M1184 220h10" />
<text x="1196" y="220" fill="black" stroke-width="0" font-size="10" dy="3.25">aclk0</text>
<path d="M1184 240h10" />
<text x="1196" y="240" fill="black" stroke-width="0" font-size="10" dy="3.25">aclk1</text>
<path d="M1184 260h10" />
<text x="1196" y="260" fill="black" stroke-width="0" font-size="10" dy="3.25">aclk2</text>
<path d="M1184 280h10" />
<text x="1196" y="280" fill="black" stroke-width="0" font-size="10" dy="3.25">aclk3</text>
<path d="M1184 300h10" />
<text x="1196" y="300" fill="black" stroke-width="0" font-size="10" dy="3.25">aclk4</text>
<path d="M1184 320h10" />
<text x="1196" y="320" fill="black" stroke-width="0" font-size="10" dy="3.25">aclk5</text>
<path d="M1184 340h10" />
<text x="1196" y="340" fill="black" stroke-width="0" font-size="10" dy="3.25">aclk6</text>
</g>
<g stroke="#41619f">
<path d="M1201 52h246" />
<path d="M1447,52 A6.83537,6.83537 1.61957 0,1 1454,59" />
<path d="M1454 59v302" />
<path d="M1454,361 A6.83537,6.83537 1.61957 0,1 1447,368" />
<path d="M1447 368h-246" />
<path d="M1201,368 A6.83537,6.83537 1.61957 0,1 1194,361" />
<path d="M1194 361v-302" />
<path d="M1194,59 A6.83537,6.83537 1.61957 0,1 1201,52" />
<path d="M861 472h186l3 1l2 1l1 2l1 3v82l-1 3l-1 2l-2 1l-3 1h-186l-3 -1l-2 -1l-1 -2l-1 -3v-82l1 -3l1 -2l2 -1z" stroke="none" fill="#edf6fe" />
<text x="954" y="470" fill="black" stroke-width="0" text-anchor="middle">axi_smc</text>
<text x="954" y="570" fill="#41619f" stroke-width="0" text-anchor="middle" dy="7.7">AXI SmartConnect</text>
<path d="M844 491h10v18h-10z" stroke="none" fill="#edf6fe" />
</g>
<g stroke="#41619f" stroke-width="3">
<path d="M863 495v10" />
<path d="M858 500h10" />
</g>
<g stroke="#41619f">
<path d="M856 493h14v14h-14z" />
<text x="871" y="500" fill="black" stroke-width="0" font-size="10" dy="3.25">S00_AXI</text>
<path d="M1054 511h10v18h-10z" stroke="none" fill="#edf6fe" />
</g>
<g stroke="#41619f" stroke-width="3">
<path d="M1044 515v10" />
<path d="M1039 520h10" />
</g>
<g stroke="#41619f">
<path d="M1037 513h14v14h-14z" />
<text x="1037" y="520" fill="black" stroke-width="0" font-size="10" text-anchor="end" dy="3.25">M00_AXI</text>
</g>
<g stroke="black" stroke-width="3">
<path d="M844 520h10" />
<text x="856" y="520" fill="black" stroke-width="0" font-size="10" dy="3.25">aclk</text>
<circle cx="851" cy="540" r="3" />
<path d="M844 540h4" />
<text x="856" y="540" fill="black" stroke-width="0" font-size="10" dy="3.25">aresetn</text>
</g>
<g stroke="#41619f">
<path d="M861 472h186" />
<path d="M1047,472 A6.83537,6.83537 1.61957 0,1 1054,479" />
<path d="M1054 479v82" />
<path d="M1054,561 A6.83537,6.83537 1.61957 0,1 1047,568" />
<path d="M1047 568h-186" />
<path d="M861,568 A6.83537,6.83537 1.61957 0,1 854,561" />
<path d="M854 561v-82" />
<path d="M854,479 A6.83537,6.83537 1.61957 0,1 861,472" />
<path d="M1791 272h166l3 1l2 1l1 2l1 3v142l-1 3l-1 2l-2 1l-3 1h-166l-3 -1l-2 -1l-1 -2l-1 -3v-142l1 -3l1 -2l2 -1z" stroke="none" fill="#edf6fe" />
<text x="1874" y="270" fill="black" stroke-width="0" text-anchor="middle">axi_timer_0</text>
<text x="1874" y="430" fill="#41619f" stroke-width="0" text-anchor="middle" dy="7.7">AXI Timer</text>
<path d="M1774 291h10v18h-10z" stroke="none" fill="#edf6fe" />
</g>
<g stroke="#41619f" stroke-width="3">
<path d="M1793 295v10" />
<path d="M1788 300h10" />
</g>
<g stroke="#41619f">
<path d="M1786 293h14v14h-14z" />
<text x="1801" y="300" fill="black" stroke-width="0" font-size="10" dy="3.25">S_AXI</text>
</g>
<g stroke="black" stroke-width="3">
<path d="M1774 320h10" />
<text x="1786" y="320" fill="black" stroke-width="0" font-size="10" dy="3.25">capturetrig0</text>
<path d="M1774 340h10" />
<text x="1786" y="340" fill="black" stroke-width="0" font-size="10" dy="3.25">capturetrig1</text>
<path d="M1974 320h-10" />
<text x="1962" y="320" fill="black" stroke-width="0" font-size="10" text-anchor="end" dy="3.25">generateout0</text>
<path d="M1974 340h-10" />
<text x="1962" y="340" fill="black" stroke-width="0" font-size="10" text-anchor="end" dy="3.25">generateout1</text>
<path d="M1974 360h-10" />
<text x="1962" y="360" fill="black" stroke-width="0" font-size="10" text-anchor="end" dy="3.25">pwm0</text>
<path d="M1974 380h-10" />
<text x="1962" y="380" fill="black" stroke-width="0" font-size="10" text-anchor="end" dy="3.25">interrupt</text>
<path d="M1774 360h10" />
<text x="1786" y="360" fill="black" stroke-width="0" font-size="10" dy="3.25">freeze</text>
<path d="M1774 380h10" />
<text x="1786" y="380" fill="black" stroke-width="0" font-size="10" dy="3.25">s_axi_aclk</text>
<circle cx="1781" cy="400" r="3" />
<path d="M1774 400h4" />
<text x="1786" y="400" fill="black" stroke-width="0" font-size="10" dy="3.25">s_axi_aresetn</text>
</g>
<g stroke="#41619f">
<path d="M1791 272h166" />
<path d="M1957,272 A6.83537,6.83537 1.61957 0,1 1964,279" />
<path d="M1964 279v142" />
<path d="M1964,421 A6.83537,6.83537 1.61957 0,1 1957,428" />
<path d="M1957 428h-166" />
<path d="M1791,428 A6.83537,6.83537 1.61957 0,1 1784,421" />
<path d="M1784 421v-142" />
<path d="M1784,279 A6.83537,6.83537 1.61957 0,1 1791,272" />
<path d="M2014 220v-7h14l7 7l-7 7h-14z" stroke="none" fill="#ddd4d0" />
</g>
<g stroke="#2a5e6f" stroke-width="3">
<path d="M2014 220v-7h14l7 7l-7 7h-14z" />
<text x="2039" y="220" fill="black" stroke-width="0" dy="3.85">ddr4_dimm1</text>
<path d="M184 420l-7 7h-14v-14h14z" stroke="none" fill="#ddd4d0" />
<path d="M184 420l-7 7h-14v-14h14z" />
<text x="159" y="420" fill="black" stroke-width="0" text-anchor="end" dy="3.85">ddr4_dimm1_sma_clk</text>
<path d="M2014 540v-7h14l7 7l-7 7h-14z" stroke="none" fill="#ddd4d0" />
<path d="M2014 540v-7h14l7 7l-7 7h-14z" />
<text x="2039" y="540" fill="black" stroke-width="0" dy="3.85">gpio_led</text>
<path d="M371 482h266l3 1l2 1l1 2l1 3v122l-1 3l-1 2l-2 1l-3 1h-266l-3 -1l-2 -1l-1 -2l-1 -3v-122l1 -3l1 -2l2 -1z" stroke="none" fill="#edf6fe" />
<text x="504" y="480" fill="black" stroke-width="0" text-anchor="middle">rst_versal_cips_0_333M</text>
<text x="504" y="620" fill="#41619f" stroke-width="0" text-anchor="middle" dy="7.7">Processor System Reset</text>
</g>
<g stroke="black" stroke-width="3">
<path d="M354 510h10" />
<text x="366" y="510" fill="black" stroke-width="0" font-size="10" dy="3.25">slowest_sync_clk</text>
<circle cx="361" cy="530" r="3" />
<path d="M354 530h4" />
<text x="366" y="530" fill="black" stroke-width="0" font-size="10" dy="3.25">ext_reset_in</text>
<circle cx="361" cy="550" r="3" />
<path d="M354 550h4" />
<text x="366" y="550" fill="black" stroke-width="0" font-size="10" dy="3.25">aux_reset_in</text>
<path d="M354 570h10" />
<text x="366" y="570" fill="black" stroke-width="0" font-size="10" dy="3.25">mb_debug_sys_rst</text>
<path d="M354 590h10" />
<text x="366" y="590" fill="black" stroke-width="0" font-size="10" dy="3.25">dcm_locked</text>
<path d="M654 510h-10" />
<text x="642" y="510" fill="black" stroke-width="0" font-size="10" text-anchor="end" dy="3.25">mb_reset</text>
</g>
<g stroke="black" stroke-width="5">
<path d="M654 530h-10" />
<text x="642" y="530" fill="black" stroke-width="0" font-size="10" text-anchor="end" dy="3.25">bus_struct_reset[0:0]</text>
<path d="M654 550h-10" />
<text x="642" y="550" fill="black" stroke-width="0" font-size="10" text-anchor="end" dy="3.25">peripheral_reset[0:0]</text>
<circle cx="647" cy="570" r="3" />
<path d="M654 570h-4" />
<text x="642" y="570" fill="black" stroke-width="0" font-size="10" text-anchor="end" dy="3.25">interconnect_aresetn[0:0]</text>
<circle cx="647" cy="590" r="3" />
<path d="M654 590h-4" />
<text x="642" y="590" fill="black" stroke-width="0" font-size="10" text-anchor="end" dy="3.25">peripheral_aresetn[0:0]</text>
</g>
<g stroke="#41619f">
<path d="M371 482h266" />
<path d="M637,482 A6.83537,6.83537 1.61957 0,1 644,489" />
<path d="M644 489v122" />
<path d="M644,611 A6.83537,6.83537 1.61957 0,1 637,618" />
<path d="M637 618h-266" />
<path d="M371,618 A6.83537,6.83537 1.61957 0,1 364,611" />
<path d="M364 611v-122" />
<path d="M364,489 A6.83537,6.83537 1.61957 0,1 371,482" />
<path d="M1531 252h186l3 1l2 1l1 2l1 3v82l-1 3l-1 2l-2 1l-3 1h-186l-3 -1l-2 -1l-1 -2l-1 -3v-82l1 -3l1 -2l2 -1z" stroke="none" fill="#edf6fe" />
<text x="1624" y="250" fill="black" stroke-width="0" text-anchor="middle">smc_noc</text>
<text x="1624" y="350" fill="#41619f" stroke-width="0" text-anchor="middle" dy="7.7">AXI SmartConnect</text>
<path d="M1514 271h10v18h-10z" stroke="none" fill="#edf6fe" />
</g>
<g stroke="#41619f" stroke-width="3">
<path d="M1533 275v10" />
<path d="M1528 280h10" />
</g>
<g stroke="#41619f">
<path d="M1526 273h14v14h-14z" />
<text x="1541" y="280" fill="black" stroke-width="0" font-size="10" dy="3.25">S00_AXI</text>
<path d="M1724 291h10v18h-10z" stroke="none" fill="#edf6fe" />
</g>
<g stroke="#41619f" stroke-width="3">
<path d="M1714 295v10" />
<path d="M1709 300h10" />
</g>
<g stroke="#41619f">
<path d="M1707 293h14v14h-14z" />
<text x="1707" y="300" fill="black" stroke-width="0" font-size="10" text-anchor="end" dy="3.25">M00_AXI</text>
</g>
<g stroke="black" stroke-width="3">
<path d="M1514 300h10" />
<text x="1526" y="300" fill="black" stroke-width="0" font-size="10" dy="3.25">aclk</text>
<circle cx="1521" cy="320" r="3" />
<path d="M1514 320h4" />
<text x="1526" y="320" fill="black" stroke-width="0" font-size="10" dy="3.25">aresetn</text>
</g>
<g stroke="#41619f">
<path d="M1531 252h186" />
<path d="M1717,252 A6.83537,6.83537 1.61957 0,1 1724,259" />
<path d="M1724 259v82" />
<path d="M1724,341 A6.83537,6.83537 1.61957 0,1 1717,348" />
<path d="M1717 348h-186" />
<path d="M1531,348 A6.83537,6.83537 1.61957 0,1 1524,341" />
<path d="M1524 341v-82" />
<path d="M1524,259 A6.83537,6.83537 1.61957 0,1 1531,252" />
<path d="M251 32h506l3 1l2 1l1 2l1 3v342l-1 3l-1 2l-2 1l-3 1h-506l-3 -1l-2 -1l-1 -2l-1 -3v-342l1 -3l1 -2l2 -1z" stroke="none" fill="#edf6fe" />
<text x="504" y="30" fill="black" stroke-width="0" text-anchor="middle">versal_cips_0</text>
<text x="504" y="390" fill="#41619f" stroke-width="0" text-anchor="middle" dy="7.7">Control, Interfaces &amp; Processing System</text>
<path d="M764 51h10v18h-10z" stroke="none" fill="#edf6fe" />
</g>
<g stroke="#41619f" stroke-width="3">
<path d="M754 55v10" />
<path d="M749 60h10" />
</g>
<g stroke="#41619f">
<path d="M747 53h14v14h-14z" />
<text x="747" y="60" fill="black" stroke-width="0" font-size="10" text-anchor="end" dy="3.25">M_AXI_FPD</text>
<path d="M764 71h10v18h-10z" stroke="none" fill="#edf6fe" />
</g>
<g stroke="#41619f" stroke-width="3">
<path d="M754 75v10" />
<path d="M749 80h10" />
</g>
<g stroke="#41619f">
<path d="M747 73h14v14h-14z" />
<text x="747" y="80" fill="black" stroke-width="0" font-size="10" text-anchor="end" dy="3.25">FPD_CCI_NOC_0</text>
<path d="M764 91h10v18h-10z" stroke="none" fill="#edf6fe" />
</g>
<g stroke="#41619f" stroke-width="3">
<path d="M754 95v10" />
<path d="M749 100h10" />
</g>
<g stroke="#41619f">
<path d="M747 93h14v14h-14z" />
<text x="747" y="100" fill="black" stroke-width="0" font-size="10" text-anchor="end" dy="3.25">FPD_CCI_NOC_1</text>
<path d="M764 111h10v18h-10z" stroke="none" fill="#edf6fe" />
</g>
<g stroke="#41619f" stroke-width="3">
<path d="M754 115v10" />
<path d="M749 120h10" />
</g>
<g stroke="#41619f">
<path d="M747 113h14v14h-14z" />
<text x="747" y="120" fill="black" stroke-width="0" font-size="10" text-anchor="end" dy="3.25">FPD_CCI_NOC_2</text>
<path d="M764 131h10v18h-10z" stroke="none" fill="#edf6fe" />
</g>
<g stroke="#41619f" stroke-width="3">
<path d="M754 135v10" />
<path d="M749 140h10" />
</g>
<g stroke="#41619f">
<path d="M747 133h14v14h-14z" />
<text x="747" y="140" fill="black" stroke-width="0" font-size="10" text-anchor="end" dy="3.25">FPD_CCI_NOC_3</text>
<path d="M764 151h10v18h-10z" stroke="none" fill="#edf6fe" />
</g>
<g stroke="#41619f" stroke-width="3">
<path d="M754 155v10" />
<path d="M749 160h10" />
</g>
<g stroke="#41619f">
<path d="M747 153h14v14h-14z" />
<text x="747" y="160" fill="black" stroke-width="0" font-size="10" text-anchor="end" dy="3.25">LPD_AXI_NOC_0</text>
<path d="M764 171h10v18h-10z" stroke="none" fill="#edf6fe" />
</g>
<g stroke="#41619f" stroke-width="3">
<path d="M754 175v10" />
<path d="M749 180h10" />
</g>
<g stroke="#41619f">
<path d="M747 173h14v14h-14z" />
<text x="747" y="180" fill="black" stroke-width="0" font-size="10" text-anchor="end" dy="3.25">PMC_NOC_AXI_0</text>
</g>
<g stroke="black" stroke-width="3">
<path d="M774 200h-10" />
<text x="762" y="200" fill="black" stroke-width="0" font-size="10" text-anchor="end" dy="3.25">pl0_ref_clk</text>
<circle cx="767" cy="220" r="3" />
<path d="M774 220h-4" />
<text x="762" y="220" fill="black" stroke-width="0" font-size="10" text-anchor="end" dy="3.25">pl0_resetn</text>
<path d="M234 200h10" />
<text x="246" y="200" fill="black" stroke-width="0" font-size="10" dy="3.25">m_axi_fpd_aclk</text>
<path d="M774 240h-10" />
<text x="762" y="240" fill="black" stroke-width="0" font-size="10" text-anchor="end" dy="3.25">fpd_cci_noc_axi0_clk</text>
<path d="M774 260h-10" />
<text x="762" y="260" fill="black" stroke-width="0" font-size="10" text-anchor="end" dy="3.25">fpd_cci_noc_axi1_clk</text>
<path d="M774 280h-10" />
<text x="762" y="280" fill="black" stroke-width="0" font-size="10" text-anchor="end" dy="3.25">fpd_cci_noc_axi2_clk</text>
<path d="M774 300h-10" />
<text x="762" y="300" fill="black" stroke-width="0" font-size="10" text-anchor="end" dy="3.25">fpd_cci_noc_axi3_clk</text>
<path d="M774 320h-10" />
<text x="762" y="320" fill="black" stroke-width="0" font-size="10" text-anchor="end" dy="3.25">lpd_axi_noc_clk</text>
<path d="M774 340h-10" />
<text x="762" y="340" fill="black" stroke-width="0" font-size="10" text-anchor="end" dy="3.25">pmc_axi_noc_axi0_clk</text>
</g>
<g stroke="black" stroke-width="5">
<path d="M774 360h-10" />
<text x="762" y="360" fill="black" stroke-width="0" font-size="10" text-anchor="end" dy="3.25">gem0_tsu_timer_cnt[93:0]</text>
</g>
<g stroke="black" stroke-width="3">
<path d="M234 220h10" />
<text x="246" y="220" fill="black" stroke-width="0" font-size="10" dy="3.25">pl_ps_irq0</text>
</g>
<g stroke="#41619f">
<path d="M251 32h506" />
<path d="M757,32 A6.83537,6.83537 1.61957 0,1 764,39" />
<path d="M764 39v342" />
<path d="M764,381 A6.83537,6.83537 1.61957 0,1 757,388" />
<path d="M757 388h-506" />
<path d="M251,388 A6.83537,6.83537 1.61957 0,1 244,381" />
<path d="M244 381v-342" />
<path d="M244,39 A6.83537,6.83537 1.61957 0,1 251,32" />
</g>
<g stroke="#41619f" stroke-width="4">
<path d="M1414 540h600" />
<path d="M1464 220h550" />
<path d="M1464 200h20v80h30" />
<path d="M1064 520h170" />
</g>
<g>
<path d="M234 220h-20v210h1540v30h240v-80h-20" />
</g>
<g stroke="#41619f" stroke-width="4">
<path d="M184 420h930v-220h70" />
</g>
<g stroke-width="3">
<path d="M654 590h160v-150h350" />
<path d="M1161 437h7v7h-7z" stroke="none" fill="#102235" />
<path d="M814 540h30" />
<path d="M811 537h7v7h-7z" stroke="none" fill="#102235" />
<path d="M1234 560h-70v-150h330v-90h20" />
<path d="M1494 400h280" />
<path d="M1491 397h7v7h-7z" stroke="none" fill="#102235" />
</g>
<g stroke="#41619f" stroke-width="4">
<path d="M1734 300h40" />
<path d="M774 80h410" />
<path d="M774 100h410" />
<path d="M774 120h410" />
<path d="M774 140h410" />
<path d="M774 160h410" />
<path d="M774 60h50v440h20" />
<path d="M774 180h410" />
</g>
<g>
<path d="M774 240h310v-20h100" />
<path d="M774 260h320v-20h90" />
<path d="M774 280h330v-20h80" />
<path d="M774 300h350v-20h60" />
<path d="M774 320h360v-20h50" />
<path d="M234 200h-30v310h150" />
<path d="M204 440h600" />
<path d="M802 228h5v5h-5z" stroke="none" fill="#102235" />
<path d="M802 438h5v5h-5z" stroke="none" fill="#102235" />
<path d="M202 438h5v5h-5z" stroke="none" fill="#102235" />
<path d="M774 200h30v320h40" />
<path d="M804 230h350v310h80" />
<path d="M1154 340h30" />
<path d="M1154 400h330v-100h30" />
<path d="M1484 380h290" />
<path d="M1152 338h5v5h-5z" stroke="none" fill="#102235" />
<path d="M1152 398h5v5h-5z" stroke="none" fill="#102235" />
<path d="M1482 378h5v5h-5z" stroke="none" fill="#102235" />
<path d="M354 530h-140v-80h580v-230h-20" />
<path d="M774 340h370v-20h40" />
</g>
</g>
</svg>
